<svg xmlns="http://www.w3.org/2000/svg" xmlns:xlink="http://www.w3.org/1999/xlink" id="ac5eb567-1fcc-458b-a384-daaad3a3b0a1" data-name="Layer 1" width="1920" height="900" viewBox="0 0 1920 900">
  <defs>
    <style>
      .a0103dcc-bb6b-4389-9a42-68442f4d4019, .a15d4c4f-a11f-4baf-9aaa-2cae0cd24b3e, .a5fcf163-0579-44e4-90e0-79fb410dfa71, .a6df0afa-e44d-438f-8a5e-c6a818b56808, .a97f0186-c5a0-4266-a529-e926646f15a6, .ab0d4022-db07-45cc-80d8-5d1cdc92c6ca, .ab8c8857-4f31-4126-8517-b593a4f16844, .abf18ea9-549d-440a-a97e-d802c457428d, .ac6c92da-f49a-4a8d-9b10-2dd284ac8671, .ad94021f-337d-4806-ac2b-316f0b534324, .aebebc3f-d97a-458a-a405-ba4471bdf53b, .b05d469c-6004-4d67-9cf0-5234ffc2f62c, .b5297eed-8a54-4839-9c0e-5d9483dc03a5, .b826bdbd-44ec-4ff0-8fe4-5e256c564458, .b9d96040-63a6-4776-919b-27f9a191fa9d, .bbda54d3-b989-4de7-b58a-8104eecf6e24, .bc6c838b-3fd0-44a9-a25a-5ab7941650fb, .e017eb07-2151-430e-a012-36122f472181, .ec364437-e8fa-4cf1-a002-18ce88c58f2e, .ecb85fa9-8da6-4032-91ca-9f8c8044043e, .ee97b3df-de09-420b-b880-8ef7e290d291, .efd7d662-ae51-41b2-b14f-b4d28760e010, .f88788de-8293-4115-a1f9-af3e1c78b498, .fb1c06df-70b2-46b3-9a93-885a8243eff0 {
        fill: none;
      }

      .fc203f90-0893-49b2-a59d-87def61d5bf1 {
        clip-path: url(#e59b3956-8242-4763-9290-0a606bd0e63d);
      }

      .a35cb1d8-48f5-4708-94fc-34a449350b05 {
        fill: #cde53c;
        opacity: 0.51;
      }

      .fb218046-906f-47fb-8b2a-5928921a1552 {
        fill: #e08327;
      }

      .a0103dcc-bb6b-4389-9a42-68442f4d4019, .a15d4c4f-a11f-4baf-9aaa-2cae0cd24b3e, .a5fcf163-0579-44e4-90e0-79fb410dfa71, .a6df0afa-e44d-438f-8a5e-c6a818b56808, .a97f0186-c5a0-4266-a529-e926646f15a6, .ab8c8857-4f31-4126-8517-b593a4f16844, .abf18ea9-549d-440a-a97e-d802c457428d, .ac6c92da-f49a-4a8d-9b10-2dd284ac8671, .ad94021f-337d-4806-ac2b-316f0b534324, .aebebc3f-d97a-458a-a405-ba4471bdf53b, .b05d469c-6004-4d67-9cf0-5234ffc2f62c, .b5297eed-8a54-4839-9c0e-5d9483dc03a5, .b826bdbd-44ec-4ff0-8fe4-5e256c564458, .b9d96040-63a6-4776-919b-27f9a191fa9d, .bbda54d3-b989-4de7-b58a-8104eecf6e24, .bc6c838b-3fd0-44a9-a25a-5ab7941650fb, .e017eb07-2151-430e-a012-36122f472181, .ec364437-e8fa-4cf1-a002-18ce88c58f2e, .ecb85fa9-8da6-4032-91ca-9f8c8044043e, .ee97b3df-de09-420b-b880-8ef7e290d291, .efd7d662-ae51-41b2-b14f-b4d28760e010, .f88788de-8293-4115-a1f9-af3e1c78b498, .fb1c06df-70b2-46b3-9a93-885a8243eff0 {
        stroke: #a2f4ee;
        stroke-width: 6px;
      }

      .a0103dcc-bb6b-4389-9a42-68442f4d4019, .a15d4c4f-a11f-4baf-9aaa-2cae0cd24b3e, .a32ea5e5-0c0a-43b8-b593-146509e1bbeb, .a52949fe-e5d5-4ea1-a5ef-ef34c34241a2, .a5fcf163-0579-44e4-90e0-79fb410dfa71, .a6df0afa-e44d-438f-8a5e-c6a818b56808, .a71435c7-f5a7-433d-8f8d-6b9341e9d889, .a79b21e9-0e16-4ec7-b72b-2afce15ba0b0, .a945a494-b205-482b-b530-aa8e263db0dd, .a963fa44-d6ba-44ed-b598-572702e45a43, .a97f0186-c5a0-4266-a529-e926646f15a6, .ab8c8857-4f31-4126-8517-b593a4f16844, .abf18ea9-549d-440a-a97e-d802c457428d, .ac6c92da-f49a-4a8d-9b10-2dd284ac8671, .ad148d69-85b3-47f7-ae04-99aec9e11ded, .ad94021f-337d-4806-ac2b-316f0b534324, .ae8f9d29-a2ce-4ae5-8d09-ff1e19c4afb3, .aebebc3f-d97a-458a-a405-ba4471bdf53b, .b05d469c-6004-4d67-9cf0-5234ffc2f62c, .b0b783b5-1679-49af-8660-fc2268e4a50b, .b5297eed-8a54-4839-9c0e-5d9483dc03a5, .b53285bf-2b78-4a04-8223-704e0bbe1644, .b826bdbd-44ec-4ff0-8fe4-5e256c564458, .b9d96040-63a6-4776-919b-27f9a191fa9d, .bbda54d3-b989-4de7-b58a-8104eecf6e24, .bc6c838b-3fd0-44a9-a25a-5ab7941650fb, .e017eb07-2151-430e-a012-36122f472181, .eb19dd77-3419-4b9d-8539-78e423867de3, .ec364437-e8fa-4cf1-a002-18ce88c58f2e, .ecb85fa9-8da6-4032-91ca-9f8c8044043e, .ee97b3df-de09-420b-b880-8ef7e290d291, .ef7c06e8-9252-4482-8d6b-8ab7ebf3edf9, .efd7d662-ae51-41b2-b14f-b4d28760e010, .f13b94ba-2a63-4b78-860f-0d926c0ac32c, .f41a2dec-a44a-4657-b0fc-1060b569283e, .f88788de-8293-4115-a1f9-af3e1c78b498, .f93c4cfd-53cf-4af3-ab74-57dd956c18dd, .fb1c06df-70b2-46b3-9a93-885a8243eff0, .fbd81d81-7c3a-4966-b829-ae094db863db {
        stroke-miterlimit: 10;
      }

      .ac6c92da-f49a-4a8d-9b10-2dd284ac8671 {
        stroke-dasharray: 6.07 6.07;
      }

      .b826bdbd-44ec-4ff0-8fe4-5e256c564458 {
        stroke-dasharray: 6 6;
      }

      .a0103dcc-bb6b-4389-9a42-68442f4d4019 {
        stroke-dasharray: 6.37 6.37;
      }

      .aebebc3f-d97a-458a-a405-ba4471bdf53b {
        stroke-dasharray: 5.73 5.73;
      }

      .f88788de-8293-4115-a1f9-af3e1c78b498 {
        stroke-dasharray: 6.03 6.03;
      }

      .a15d4c4f-a11f-4baf-9aaa-2cae0cd24b3e {
        stroke-dasharray: 5.91 5.91;
      }

      .ee97b3df-de09-420b-b880-8ef7e290d291 {
        stroke-dasharray: 5.68 5.68;
      }

      .a6df0afa-e44d-438f-8a5e-c6a818b56808 {
        stroke-dasharray: 5.86 5.86;
      }

      .bc6c838b-3fd0-44a9-a25a-5ab7941650fb {
        stroke-dasharray: 5.85 5.85;
      }

      .b05d469c-6004-4d67-9cf0-5234ffc2f62c {
        stroke-dasharray: 5.66 5.66;
      }

      .abf18ea9-549d-440a-a97e-d802c457428d {
        stroke-dasharray: 5.57 5.57;
      }

      .e017eb07-2151-430e-a012-36122f472181 {
        stroke-dasharray: 6.26 6.26;
      }

      .ec364437-e8fa-4cf1-a002-18ce88c58f2e {
        stroke-dasharray: 5.71 5.71;
      }

      .efd7d662-ae51-41b2-b14f-b4d28760e010 {
        stroke-dasharray: 6.1 6.1;
      }

      .a97f0186-c5a0-4266-a529-e926646f15a6 {
        stroke-dasharray: 5.96 5.96;
      }

      .ad94021f-337d-4806-ac2b-316f0b534324 {
        stroke-dasharray: 5.95 5.95;
      }

      .fb1c06df-70b2-46b3-9a93-885a8243eff0 {
        stroke-dasharray: 6.17 6.17;
      }

      .b9d96040-63a6-4776-919b-27f9a191fa9d {
        stroke-dasharray: 5.71 5.71;
      }

      .bbda54d3-b989-4de7-b58a-8104eecf6e24 {
        stroke-dasharray: 6.05 6.05;
      }

      .ecb85fa9-8da6-4032-91ca-9f8c8044043e {
        stroke-dasharray: 5.63 5.63;
      }

      .b5297eed-8a54-4839-9c0e-5d9483dc03a5 {
        stroke-dasharray: 5.8 5.8;
      }

      .a5fcf163-0579-44e4-90e0-79fb410dfa71 {
        stroke-dasharray: 5.82 5.82;
      }

      .f91c9b26-6e18-423d-8ca3-79e44f153e40 {
        opacity: 0.4;
      }

      .a8b1fcee-49ff-4b50-84b0-ea68ab0191ea {
        opacity: 0.5;
      }

      .b53e8a8a-bf7b-495d-b9a6-dc6316d75fca {
        fill: #f9f9f9;
      }

      .bd558dd3-1bc3-473b-8de6-468e881fd444 {
        fill: #1ebbf9;
      }

      .a53a1a16-77c8-4e79-a364-04262bb112c0 {
        fill: #fff;
      }

      .b1929cff-6d9e-4fcd-b8d4-878cc9966211 {
        fill: #fdfffa;
      }

      .a79b21e9-0e16-4ec7-b72b-2afce15ba0b0 {
        fill: #ff912d;
      }

      .a32ea5e5-0c0a-43b8-b593-146509e1bbeb, .a52949fe-e5d5-4ea1-a5ef-ef34c34241a2, .a71435c7-f5a7-433d-8f8d-6b9341e9d889, .a79b21e9-0e16-4ec7-b72b-2afce15ba0b0, .a945a494-b205-482b-b530-aa8e263db0dd, .a963fa44-d6ba-44ed-b598-572702e45a43, .ad148d69-85b3-47f7-ae04-99aec9e11ded, .ae8f9d29-a2ce-4ae5-8d09-ff1e19c4afb3, .b0b783b5-1679-49af-8660-fc2268e4a50b, .b53285bf-2b78-4a04-8223-704e0bbe1644, .eb19dd77-3419-4b9d-8539-78e423867de3, .ef7c06e8-9252-4482-8d6b-8ab7ebf3edf9, .f13b94ba-2a63-4b78-860f-0d926c0ac32c, .f41a2dec-a44a-4657-b0fc-1060b569283e, .f93c4cfd-53cf-4af3-ab74-57dd956c18dd, .fbd81d81-7c3a-4966-b829-ae094db863db {
        stroke: #000;
      }

      .a32ea5e5-0c0a-43b8-b593-146509e1bbeb, .a52949fe-e5d5-4ea1-a5ef-ef34c34241a2, .a71435c7-f5a7-433d-8f8d-6b9341e9d889, .a79b21e9-0e16-4ec7-b72b-2afce15ba0b0, .a945a494-b205-482b-b530-aa8e263db0dd, .a963fa44-d6ba-44ed-b598-572702e45a43, .ad148d69-85b3-47f7-ae04-99aec9e11ded, .ae8f9d29-a2ce-4ae5-8d09-ff1e19c4afb3, .b0b783b5-1679-49af-8660-fc2268e4a50b, .eb19dd77-3419-4b9d-8539-78e423867de3, .ef7c06e8-9252-4482-8d6b-8ab7ebf3edf9, .f13b94ba-2a63-4b78-860f-0d926c0ac32c, .f41a2dec-a44a-4657-b0fc-1060b569283e, .f93c4cfd-53cf-4af3-ab74-57dd956c18dd, .fbd81d81-7c3a-4966-b829-ae094db863db {
        stroke-width: 3px;
      }

      .b53285bf-2b78-4a04-8223-704e0bbe1644 {
        fill: #ffd58e;
      }

      .b772153c-bac6-4619-a977-6c5b9b8ad99d {
        fill: #af631b;
      }

      .b0b783b5-1679-49af-8660-fc2268e4a50b {
        fill: #fff9f9;
      }

      .f93c4cfd-53cf-4af3-ab74-57dd956c18dd {
        fill: #ff3620;
      }

      .a29a0d61-a566-46f2-b451-fb842b760694 {
        fill: #64220e;
      }

      .ae8f9d29-a2ce-4ae5-8d09-ff1e19c4afb3 {
        fill: #930505;
      }

      .eb19dd77-3419-4b9d-8539-78e423867de3 {
        fill: #f7f5f5;
      }

      .e0501800-2aba-4ace-a89b-a546524f670c {
        fill: #5f6f51;
      }

      .a52949fe-e5d5-4ea1-a5ef-ef34c34241a2 {
        fill: #a8bc9a;
      }

      .f20b08af-c715-4ee9-a690-cd7aee0c67b8 {
        fill: #83425f;
      }

      .ad148d69-85b3-47f7-ae04-99aec9e11ded {
        fill: #f688b5;
      }

      .fd4dc21f-684e-4c6c-9925-227a01589c0c {
        fill: #0e5c31;
      }

      .ef7c06e8-9252-4482-8d6b-8ab7ebf3edf9 {
        fill: #1c8b4c;
      }

      .fb8b826d-b482-4054-b5c3-7ecb9a35e891 {
        fill: #c42422;
      }

      .a945a494-b205-482b-b530-aa8e263db0dd {
        fill: #f91c1c;
      }

      .b9ef3c81-674f-47d3-ac45-525ab37ede07 {
        fill: #704082;
      }

      .f41a2dec-a44a-4657-b0fc-1060b569283e {
        fill: #aa31f7;
      }

      .a72ab704-2d3d-48a9-9f4e-2449116b6526 {
        fill: #6c513f;
      }

      .a963fa44-d6ba-44ed-b598-572702e45a43 {
        fill: #ce9e06;
      }

      .aa2f203a-2fae-4bb4-86a2-6385422f8f6c {
        fill: #3a184f;
      }

      .a32ea5e5-0c0a-43b8-b593-146509e1bbeb {
        fill: #9c46a0;
      }

      .f13b94ba-2a63-4b78-860f-0d926c0ac32c {
        fill: #004c71;
      }

      .a71435c7-f5a7-433d-8f8d-6b9341e9d889 {
        fill: #00aed0;
      }
    </style>
    <clipPath id="e59b3956-8242-4763-9290-0a606bd0e63d">
      <rect class="ab0d4022-db07-45cc-80d8-5d1cdc92c6ca" width="1920" height="900"/>
    </clipPath>
  </defs>
  <g class="fc203f90-0893-49b2-a59d-87def61d5bf1">
    <g>
      <rect class="a35cb1d8-48f5-4708-94fc-34a449350b05" x="-22.76" y="-12.96" width="1965.18" height="937.41"/>
      <g>
        <path class="fb218046-906f-47fb-8b2a-5928921a1552" d="M569.47,596s44-34.53,2.87-114.24c0,0,56.66-13.07,46.17-76.32,0,0,69.74-15.18,67.5-72.84,0,0,58.54.84,70.93-45.87,0,0,74.88.39,78.2-42.83,0,0,79.56,10.3,89.26-34.41,0,0,64.45,22.95,79.35-21.8,0,0,81.28,41.81,101.22-14.64,0,0,45.22,65.47,95.57,9,0,0,21.19,64,84.51,36.67,0,0,17.87,71.14,75.65,72.28,0,0-34.26,46.36,6.38,99.95,0,0-51.5,35.45-44.51,87.38,0,0-58.31,2-60.69,70.21,0,0-71.46-16.34-85.18,56.25,0,0-62.41-26.66-77.32,47.36,0,0-71.43-38.79-90.57,31,0,0-58-40.06-86.38,21.59,0,0-53-51.75-92.8,9.44,0,0-50.06-57.75-95.67-7,0,0-22.2-73.37-94-32C639.94,675.19,648.15,637.89,569.47,596Z"/>
        <g>
          <path class="ab8c8857-4f31-4126-8517-b593a4f16844" d="M620.61,555.52a19.91,19.91,0,0,0-2.62-1.44s.77-.78,2-2.23"/>
          <path class="ac6c92da-f49a-4a8d-9b10-2dd284ac8671" d="M623.75,547.08c7.61-10.47,19.06-31.46,10.13-54.29"/>
          <path class="ab8c8857-4f31-4126-8517-b593a4f16844" d="M632.69,490c-.41-.89-.86-1.79-1.34-2.69,0,0,.73-.81,1.92-2.29"/>
          <path class="b826bdbd-44ec-4ff0-8fe4-5e256c564458" d="M636.91,480.26c7.72-10.63,20.54-31.73,18.74-52.6"/>
          <path class="ab8c8857-4f31-4126-8517-b593a4f16844" d="M655.29,424.69c-.15-1-.34-2-.56-3,0,0,1-.47,2.68-1.34"/>
          <path class="a0103dcc-bb6b-4389-9a42-68442f4d4019" d="M663.05,417.43c16.4-8.83,51.49-29.68,53.56-47.32"/>
          <path class="ab8c8857-4f31-4126-8517-b593a4f16844" d="M716.61,366.92a12.44,12.44,0,0,0-.72-2.9s1.06-.21,2.92-.64"/>
          <path class="aebebc3f-d97a-458a-a405-ba4471bdf53b" d="M724.37,362c15.45-4.17,47.16-15,53.16-34.85"/>
          <path class="ab8c8857-4f31-4126-8517-b593a4f16844" d="M778.19,324.34a22.6,22.6,0,0,0,.31-3s1.07-.15,3-.46"/>
          <path class="f88788de-8293-4115-a1f9-af3e1c78b498" d="M787.4,319.85c19.64-3.64,65.5-14,72.39-32"/>
          <path class="ab8c8857-4f31-4126-8517-b593a4f16844" d="M860.55,284.89a13,13,0,0,0,.05-3s1.08.09,3,.19"/>
          <path class="a15d4c4f-a11f-4baf-9aaa-2cae0cd24b3e" d="M869.5,282.29c18.36.35,59.89-1.37,73.35-22.86"/>
          <path class="ab8c8857-4f31-4126-8517-b593a4f16844" d="M944.28,256.84a26.12,26.12,0,0,0,1.17-2.77s1.08.1,3,.22"/>
          <path class="ee97b3df-de09-420b-b880-8ef7e290d291" d="M954.1,254.55c18.36.55,60.16-.82,68.33-24"/>
          <path class="ab8c8857-4f31-4126-8517-b593a4f16844" d="M1023.21,227.85a27.47,27.47,0,0,0,.48-3s.69.86,2,2.21"/>
          <path class="a6df0afa-e44d-438f-8a5e-c6a818b56808" d="M1030,231c11.42,9.47,37.67,24.49,73.86,4"/>
          <path class="ab8c8857-4f31-4126-8517-b593a4f16844" d="M1106.42,233.59q1.27-.76,2.55-1.59s.93.55,2.63,1.43"/>
          <path class="bc6c838b-3fd0-44a9-a25a-5ab7941650fb" d="M1116.86,236c15.46,7,50.32,19,74.73-2.12"/>
          <path class="ab8c8857-4f31-4126-8517-b593a4f16844" d="M1193.75,231.87c.71-.68,1.41-1.4,2.09-2.15,0,0,.8.74,2.26,2"/>
          <path class="b05d469c-6004-4d67-9cf0-5234ffc2f62c" d="M1202.51,235.25c11.43,8.82,35.86,24.86,59.62,22.32"/>
          <path class="ab8c8857-4f31-4126-8517-b593a4f16844" d="M1264.94,257.18c1-.17,2-.37,2.94-.61,0,0,.54.94,1.56,2.56"/>
          <path class="abf18ea9-549d-440a-a97e-d802c457428d" d="M1272.48,263.8c8.3,12.29,26.88,36.38,47.6,40.91"/>
          <path class="ab8c8857-4f31-4126-8517-b593a4f16844" d="M1322.83,305.19a29.88,29.88,0,0,0,3,.25s-.2,1.06-.48,3"/>
          <path class="e017eb07-2151-430e-a012-36122f472181" d="M1324.57,314.6c-1.47,13.9-2.57,40.53,7.46,58.12"/>
          <path class="ab8c8857-4f31-4126-8517-b593a4f16844" d="M1333.69,375.38c.56.83,1.15,1.64,1.77,2.42,0,0-.9.61-2.4,1.78"/>
          <path class="ec364437-e8fa-4cf1-a002-18ce88c58f2e" d="M1328.68,383.24c-10.78,9.61-29.87,31.12-22.37,58"/>
          <path class="ab8c8857-4f31-4126-8517-b593a4f16844" d="M1307.15,444c.32.94.67,1.87,1.06,2.81,0,0-1,.39-2.77,1.16"/>
          <path class="efd7d662-ae51-41b2-b14f-b4d28760e010" d="M1299.9,450.53c-16.44,8-51.62,28.47-52.56,58.46"/>
          <path class="ab8c8857-4f31-4126-8517-b593a4f16844" d="M1247.37,512.06c0,1,.13,2,.25,3,0,0-1.07.09-3,.34"/>
          <path class="a97f0186-c5a0-4266-a529-e926646f15a6" d="M1238.75,516.24c-20.67,3.34-70.33,14.79-71.07,47.89"/>
          <path class="ab8c8857-4f31-4126-8517-b593a4f16844" d="M1167.74,567.12c.07,1,.17,2,.32,3,0,0-1.08-.07-3-.12"/>
          <path class="ad94021f-337d-4806-ac2b-316f0b534324" d="M1159.12,570c-17.8.47-56.85,5-66.89,34.86"/>
          <path class="ab8c8857-4f31-4126-8517-b593a4f16844" d="M1091.38,607.71c-.25,1-.47,1.93-.66,2.93,0,0-1.07-.15-3-.34"/>
          <path class="fb1c06df-70b2-46b3-9a93-885a8243eff0" d="M1081.59,609.83c-18.33-1-59.09.19-73.89,28.19"/>
          <path class="ab8c8857-4f31-4126-8517-b593a4f16844" d="M1006.36,640.8c-.4.91-.77,1.84-1.12,2.79,0,0-1-.36-2.86-.88"/>
          <path class="b9d96040-63a6-4776-919b-27f9a191fa9d" d="M996.84,641.32c-15.9-3.53-50.61-7.5-70.54,18.42"/>
          <path class="ab8c8857-4f31-4126-8517-b593a4f16844" d="M924.61,662.06c-.56.81-1.1,1.65-1.64,2.52,0,0-.94-.54-2.64-1.4"/>
          <path class="bbda54d3-b989-4de7-b58a-8104eecf6e24" d="M914.86,660.58c-16.72-7.44-55.09-20.33-75.06,6.86"/>
          <path class="ab8c8857-4f31-4126-8517-b593a4f16844" d="M838.08,670q-.78,1.24-1.53,2.58s-.86-.67-2.41-1.78"/>
          <path class="ecb85fa9-8da6-4032-91ca-9f8c8044043e" d="M829.5,667.56c-15-9.89-50.22-29.57-70.06-11.09"/>
          <path class="ab8c8857-4f31-4126-8517-b593a4f16844" d="M757.46,658.49c-.64.73-1.27,1.51-1.88,2.34,0,0-.85-.65-2.42-1.77"/>
          <path class="b5297eed-8a54-4839-9c0e-5d9483dc03a5" d="M748.39,655.77c-16.48-11-57.52-35.37-83.54-23.39"/>
          <path class="ab8c8857-4f31-4126-8517-b593a4f16844" d="M662.26,633.72c-.85.5-1.7,1-2.51,1.63,0,0-.26-1-.77-2.9"/>
          <path class="a5fcf163-0579-44e4-90e0-79fb410dfa71" d="M657.41,626.85c-5-17.32-17.81-56.23-34.43-69.62"/>
        </g>
      </g>
      <polygon class="f91c9b26-6e18-423d-8ca3-79e44f153e40" points="1459.04 135.67 1447.87 119.02 1447.12 139.06 1427.84 144.53 1446.66 151.44 1445.9 171.47 1458.29 155.71 1477.11 162.61 1465.94 145.96 1478.33 130.19 1459.04 135.67"/>
      <polygon class="f91c9b26-6e18-423d-8ca3-79e44f153e40" points="370.99 139.63 357.01 123.43 358.79 144.75 339.06 153.03 359.89 157.93 361.67 179.25 372.76 160.96 393.6 165.85 379.62 149.65 390.71 131.35 370.99 139.63"/>
      <polygon class="a8b1fcee-49ff-4b50-84b0-ea68ab0191ea" points="843.69 151.78 840.87 133.96 832.67 150.03 814.85 147.21 827.6 159.97 819.41 176.05 835.49 167.86 848.25 180.63 845.43 162.8 861.51 154.61 843.69 151.78"/>
      <polygon class="f91c9b26-6e18-423d-8ca3-79e44f153e40" points="391.07 702.02 395.72 684.36 381.58 695.91 366.21 686.03 372.83 703.05 358.69 714.61 376.93 713.58 383.55 730.6 388.2 712.94 406.43 711.9 391.07 702.02"/>
      <polygon class="a8b1fcee-49ff-4b50-84b0-ea68ab0191ea" points="533.5 756.86 535.97 747.5 528.47 753.62 520.33 748.39 523.84 757.41 516.34 763.54 526 762.99 529.51 772.01 531.98 762.65 541.65 762.1 533.5 756.86"/>
      <polygon class="a8b1fcee-49ff-4b50-84b0-ea68ab0191ea" points="1101.19 730.32 1103.66 720.95 1096.16 727.08 1088.02 721.84 1091.52 730.87 1084.03 736.99 1093.69 736.45 1097.2 745.47 1099.67 736.11 1109.34 735.56 1101.19 730.32"/>
      <polygon class="a8b1fcee-49ff-4b50-84b0-ea68ab0191ea" points="1360.43 765.01 1362.89 755.65 1355.39 761.78 1347.25 756.54 1350.76 765.56 1343.26 771.69 1352.93 771.14 1356.44 780.17 1358.9 770.8 1368.57 770.25 1360.43 765.01"/>
      <polygon class="a8b1fcee-49ff-4b50-84b0-ea68ab0191ea" points="1294.01 629.24 1296.48 619.87 1288.98 626 1280.84 620.76 1284.35 629.79 1276.85 635.91 1286.51 635.36 1290.02 644.39 1292.49 635.02 1302.16 634.48 1294.01 629.24"/>
      <polygon class="f91c9b26-6e18-423d-8ca3-79e44f153e40" points="471.88 346.41 467.14 331.83 462.4 346.41 447.07 346.41 459.47 355.42 454.74 370 467.14 360.99 479.54 370 474.8 355.42 487.2 346.41 471.88 346.41"/>
      <polygon class="a8b1fcee-49ff-4b50-84b0-ea68ab0191ea" points="498.45 584.79 495.53 575.78 492.6 584.79 483.12 584.79 490.79 590.36 487.86 599.37 495.53 593.8 503.19 599.37 500.26 590.36 507.93 584.79 498.45 584.79"/>
      <polygon class="a8b1fcee-49ff-4b50-84b0-ea68ab0191ea" points="517.14 170.49 514.21 161.48 511.28 170.49 501.81 170.49 509.47 176.06 506.54 185.07 514.21 179.5 521.87 185.07 518.95 176.06 526.61 170.49 517.14 170.49"/>
      <polygon class="a8b1fcee-49ff-4b50-84b0-ea68ab0191ea" points="1129.12 136.17 1126.19 127.16 1123.27 136.17 1113.79 136.17 1121.46 141.74 1118.53 150.75 1126.19 145.18 1133.86 150.75 1130.93 141.74 1138.6 136.17 1129.12 136.17"/>
      <polygon class="a8b1fcee-49ff-4b50-84b0-ea68ab0191ea" points="1434.24 450.05 1431.32 441.04 1428.39 450.05 1418.91 450.05 1426.58 455.61 1423.65 464.63 1431.32 459.06 1438.98 464.63 1436.05 455.61 1443.72 450.05 1434.24 450.05"/>
      <polygon class="a8b1fcee-49ff-4b50-84b0-ea68ab0191ea" points="709.38 149.05 706.45 140.04 703.52 149.05 694.05 149.05 701.71 154.62 698.78 163.63 706.45 158.06 714.11 163.63 711.19 154.62 718.85 149.05 709.38 149.05"/>
      <polygon class="f91c9b26-6e18-423d-8ca3-79e44f153e40" points="1435.79 709.12 1421.45 696.26 1425.49 715.09 1408.83 724.75 1427.99 726.73 1432.03 745.57 1439.83 727.95 1458.99 729.93 1444.65 717.07 1452.45 699.46 1435.79 709.12"/>
      <polygon class="a8b1fcee-49ff-4b50-84b0-ea68ab0191ea" points="1491.48 569.53 1482.62 561.58 1485.12 573.22 1474.82 579.19 1486.66 580.41 1489.16 592.05 1493.98 581.17 1505.82 582.39 1496.96 574.44 1501.78 563.56 1491.48 569.53"/>
      <polygon class="f91c9b26-6e18-423d-8ca3-79e44f153e40" points="803.3 735.08 794.37 718.01 791.57 737.07 772.57 740.29 789.83 748.85 787.03 767.91 800.5 754.14 817.76 762.69 808.83 745.63 822.29 731.86 803.3 735.08"/>
      <g>
        <path class="b53e8a8a-bf7b-495d-b9a6-dc6316d75fca" d="M783.64,490.53c-9.12-19.78-35.79-56.36-60.94-79.29l-6.92-6.31,5.72-7.41c6.73-8.71,24.8-29.39,47.28-33.38a36.71,36.71,0,0,1,33.32,10.39,36.27,36.27,0,0,1,11,26.34c8.7-.19,16.78,3,24.08,9.6,15.87,14.42,18,34.87,5.53,52.13-10.25,14-29.94,28.07-46.83,33.37l-8.52,2.67Zm19.91-48.89a4.5,4.5,0,0,0,.59-1.1h0a2.78,2.78,0,0,0-.55.06,5.27,5.27,0,0,0-.7.17Z"/>
        <path class="bd558dd3-1bc3-473b-8de6-468e881fd444" d="M834.5,456.64c-8.46,11.6-25.87,24.69-41.64,29.63-10-21.63-38-59.45-63.32-82.54,17-22,45.38-41.67,65.44-22,9.56,9.37,10,22.47,4.26,33.27,10.31-5.24,20.77-6.39,31.16,3C843.65,430.06,842.83,445.14,834.5,456.64Zm-72.59-48.32c4.93,4.88,10.2,10.77,15.33,16.76,6.59-6.84,9.94-14.38,6.21-20.17C778.82,397.91,770.11,398.59,761.91,408.32Zm26,29.88c5.41,6.63,10.24,13.06,13.7,18.21,13.35-8.16,15.45-17.07,9.72-23C806.46,428.26,798,429.58,787.94,438.2Z"/>
        <path class="b53e8a8a-bf7b-495d-b9a6-dc6316d75fca" d="M861.35,440.75c-9.38-17.7-28.61-41.16-42.77-55.18l-7.77-7.7.86-.75a18.38,18.38,0,0,1-2.78-1.81c-9-6.9-11.13-19.05-5.08-29.61a25.87,25.87,0,0,1,17.73-13.26A19.44,19.44,0,0,1,837,336.1l.14.11a23.43,23.43,0,0,1,6.39,7.8h0l7.5,11.6C861,371,884,398.92,895.79,411l7.26,7.42-7.58,7.1c-.09.08-9,8.48-17.86,17.55l-9.73,10Z"/>
        <path class="bd558dd3-1bc3-473b-8de6-468e881fd444" d="M833,361.79c-4.65,6.64-12.72,9.57-17.88,5.49-4.86-3.68-6.08-10.31-2.43-16.62,4-7.44,12.65-10.77,18.15-6.52C835.54,347.92,838,354.49,833,361.79ZM870.33,436c-10-18.88-29.81-43-44.6-57.64a169.55,169.55,0,0,0,16.8-17.24c10.2,15.81,33.35,44.09,46,57C888.53,418.12,879.43,426.64,870.33,436Z"/>
        <path class="b53e8a8a-bf7b-495d-b9a6-dc6316d75fca" d="M946.57,438.06c-19.11,3.39-37.59-8.9-46-30.57l-2.05-5.29c-9.16-4.06-17.46-11.93-23.3-22.69-11.29-21.05-7-47.84,9.6-59.76,1-.73,2-1.4,3.11-2l-2.34-1.83,8.06-8.12c7.54-7.59,16.91-15.9,17.31-16.25l7.81-6.91,6.7,8,3.42,4.06c14.15,16.76,33.54,39.71,46,67,10.64,23.69,10.19,54.24-14.74,69.18A39.85,39.85,0,0,1,946.57,438.06Zm-33.49-85a12.36,12.36,0,0,0,.79,5,7.37,7.37,0,0,0,.65-2.82,9.9,9.9,0,0,0-1-4.43A6.46,6.46,0,0,0,913.08,353.08Z"/>
        <path class="bd558dd3-1bc3-473b-8de6-468e881fd444" d="M965.63,367.9c9,20.06,8.49,44.75-10.73,56.27-18.17,10.94-37-.22-44.85-20.35a130.94,130.94,0,0,0,25.19-8.88c2.15,5.09,7,10.68,11.57,8.7,6.26-2.82,7.21-16.32-.71-32.16-1.88-3.62-3.66-7.1-5.61-10.25.38,11.66-4.36,23.19-14,29.6-16.61,10.81-33.61-.09-42.34-16.16-8.32-15.54-6.44-37.28,6.62-46.68a25.64,25.64,0,0,1,20.13-4.45c-3.19-2.84-6.48-5.82-10-8.59,7.39-7.45,16.83-15.8,16.83-15.8C931.73,315.85,952.76,339.64,965.63,367.9Zm-62.71-15.1c-.19,9.78,4.44,15.11,8.7,16.31,6.9,1.93,12.86-5.48,13-13.59.22-7.5-4.34-15-9.4-16.4S903.22,344,902.92,352.8Z"/>
      </g>
      <g>
        <path class="a53a1a16-77c8-4e79-a364-04262bb112c0" d="M824.61,629.59c-6.69-23.19-34.48-65.71-51.14-86.23l-7.34-9,10.26-5.53a165.79,165.79,0,0,0,21.46-14.13l3.79-3-3.18-4,10.28-5.42c13.48-7.1,25.7-12.29,26.21-12.5l9.4-4,3.44,9.61c7.66,21.4,31.13,60.94,50.36,88.94l6,8.66L895,598.11a174.48,174.48,0,0,0-20.73,14.4l-2.88,2.37,2.15,2.41-11.43,5.6c-11,5.4-23.3,12.35-23.43,12.42l-10.63,6Z"/>
        <path class="bd558dd3-1bc3-473b-8de6-468e881fd444" d="M890.2,589.72a183.18,183.18,0,0,0-22.1,15.33C855.65,589.6,839,576,826,568.38c9.82,16.08,20.73,33.47,31.79,45.84-11.43,5.6-23.94,12.7-23.94,12.7-7.11-24.65-35.41-68.07-52.92-89.64a173.61,173.61,0,0,0,22.93-15.1c13.15,18.23,31.29,36.27,46.86,45.74a400.33,400.33,0,0,0-37.52-57.19c13.28-7,25.48-12.16,25.48-12.16C847.45,523,873.07,564.77,890.2,589.72Z"/>
        <path class="a53a1a16-77c8-4e79-a364-04262bb112c0" d="M933.94,574.54a37.59,37.59,0,0,1-8.62,4.86,28.84,28.84,0,0,1-2.88,1h0c-7.4,2.1-15.06.92-22.16-3.41-14.15-8.61-25.51-29.53-31.16-57.39l-1.68-8.28,8-2.75c5-1.73,10.13-3.52,14.06-4.9l-1.5-2,10.08-5.23c2.7-1.41,10.66-6,15-10.38l10-10,5.72,12.92c9.18,20.75,21.4,41.56,33.52,57.09l7,9-10,5.45a86.67,86.67,0,0,0-13.8,9.69l-9.56,8.53Z"/>
        <path class="bd558dd3-1bc3-473b-8de6-468e881fd444" d="M939,562.91c-1-2.07-2.07-4.28-3.2-6.27a24.63,24.63,0,0,1-14.16,13.82c-17.45,7.08-35.55-15.55-43.11-52.79,10.3-3.55,21-7.33,21-7.33,4,22.34,15.21,42.05,22.21,39.49,3.09-1.05,5.15-3.63,5.76-7.84-7.95-13.09-17-26.26-25-37,0,0,11-5.71,17.4-12.14,9.39,21.23,21.89,42.65,34.74,59.12A95.66,95.66,0,0,0,939,562.91Z"/>
        <path class="a53a1a16-77c8-4e79-a364-04262bb112c0" d="M965.34,549.63C955,526.8,942.48,505,931.78,491.24l-6.67-8.57,9.29-5.61c2.21-1.35,8.75-5.77,12.26-10l9.71-11.55,2.78,5.93a26.89,26.89,0,0,1,5.41-2.58c.52-.18,1-.35,1.54-.49a23.55,23.55,0,0,1,8.66-.81A26.5,26.5,0,0,1,990,444.52l1.15-.36c7-2,14.36-.93,21.34,3,14.52,8.24,27.19,29.15,34.75,57.36l2.41,9-8.89,2.74a129.82,129.82,0,0,0-16.61,6.59l1.83,5.54-9.31,2.94c-4,1.28-8,2.86-11.23,4.2l.1.14-8.71,5.55c-.09.06-9.56,6.12-16.56,11.88l-9.73,8Z"/>
        <path class="bd558dd3-1bc3-473b-8de6-468e881fd444" d="M1018.45,514.91c-4.22-21.71-16.14-42.74-23.34-41.48a5.85,5.85,0,0,0-4.59,4c8.51,9.43,16.64,24.7,23.23,44.71a159.4,159.4,0,0,0-19.2,7.71c-5.25-23.23-18.83-43.15-24.79-41.88a6.55,6.55,0,0,0-4.77,4.63c9.59,15.68,20.6,32.31,26.65,40.49a211.48,211.48,0,0,0-17.51,12.56c-9-19.88-21.81-43.75-34.74-60.35,0,0,9.31-5.62,14.66-12,.85,1.8,1.83,3.53,2.89,5.4A17.92,17.92,0,0,1,967.76,468c4.24-1.52,8.58-1,13.16,1.51,1.34-8.5,6.07-13.82,12.13-15.85,16.58-5.52,35.08,16.89,44.86,53.39A138.33,138.33,0,0,0,1018.45,514.91Z"/>
        <path class="a53a1a16-77c8-4e79-a364-04262bb112c0" d="M1052,499c-11.49-26.21-37-72.74-55.32-97.63l-5.57-7.59L998.6,388c9.17-7.08,19.69-15.82,19.8-15.91l10.2-8.47,4.92,12.31c2.76,6.91,8.75,20.46,15.86,35.53a35.39,35.39,0,0,1,6.61-4.37,29.07,29.07,0,0,1,5.13-2c20.52-5.83,38.3,13.08,45.25,27.22,10,20.9,4.81,41.83-12.6,51a33.9,33.9,0,0,1-3.51,1.63l.17.25-7.82,5.46c-7.64,5.33-15.52,11.82-15.6,11.89l-9.84,8.13Zm15.9-51.64a7.21,7.21,0,0,0,1.16,3c1.1,1.76,2.29,2.52,2.86,2.36l.23-.09a.39.39,0,0,0,.13-.09c0-.08.16-.71-.47-1.7A8.05,8.05,0,0,0,1067.94,447.33Z"/>
        <path class="bd558dd3-1bc3-473b-8de6-468e881fd444" d="M1089.28,474.76a25.35,25.35,0,0,1-15.82,2.82c1.26,1.92,2.59,3.63,3.63,5.15-8.07,5.63-16.22,12.36-16.22,12.36-11.43-26.07-37.12-73.25-56.37-99.46,9.42-7.27,20.06-16.12,20.06-16.12,3.79,9.47,13.09,30.23,23.29,51a24.71,24.71,0,0,1,12.52-14.83c15.76-7.88,31.59,9.18,37.34,20.87C1105.4,452.61,1102.29,467.92,1089.28,474.76Zm-27.34-35.51c-4.74,3.74-4.67,10.38-1,16.22,4,6.38,10.24,8.45,15.59,5.77,5.61-2.83,7.17-9.69,3.51-15.53C1075.38,438.14,1066.81,435.43,1061.94,439.25Z"/>
        <path class="a53a1a16-77c8-4e79-a364-04262bb112c0" d="M1154,450.45c-14.74,4.18-30-.56-41.89-13-11.23-11.75-17-27.68-15-41.57a34.1,34.1,0,0,1,16.85-25.14,42.48,42.48,0,0,1,9.83-4.27c16.12-4.57,31.5,2.29,43.68,19.36l3.31-2.19,5.07,9.1c13.76,24.67,2.78,43.78-10.81,52.65A39.27,39.27,0,0,1,1154,450.45Z"/>
        <path class="bd558dd3-1bc3-473b-8de6-468e881fd444" d="M1159.71,437.31c-10.6,7.06-26.79,8-40.64-6.52-15.15-15.87-18.65-41-.29-51.73,17.55-10.3,32.58-.87,43.11,15.85,0,0-17.43,10.23-30.89,21.55,5.42,8,12.26,12.93,16.43,10,3.9-2.74,1.53-8.78-2.27-13.31,0,0,11.21-8.47,22.21-15.75C1178.18,416.82,1170,430.61,1159.71,437.31Zm-33.5-44.52c-2.9,2.35-2.74,7.89-.28,14.41a127.76,127.76,0,0,0,13.23-9.26C1135.11,392.67,1130,389.92,1126.21,392.79Z"/>
        <path class="a53a1a16-77c8-4e79-a364-04262bb112c0" d="M1192.93,420.14c-12.29-25.89-23.51-45.42-33.33-58l-6.67-8.56,9.29-5.62c2.2-1.34,8.64-5.69,11.91-9.7l9.54-11.67,3,6.18a30.43,30.43,0,0,1,9.68-5.76c.55-.21,1.17-.41,1.79-.58,8-2.28,23.54-2.37,37.16,22.69l4.13,7.61-7.12,4.93c-7.4,5.11-15.3,13.9-15.38,14l-3.07,3.42c4.67,6.83,9.2,13,12.88,17.59l7.42,9.21-10.51,5.42c-.07,0-8.83,4.63-14.92,11.26l-9.68,10.56Z"/>
        <path class="bd558dd3-1bc3-473b-8de6-468e881fd444" d="M1209.76,369.18c-4-7.6-8.41-11.41-11.24-10.51-2.49.88-4.43,3-4.47,7.63,8.31,13.41,18.09,27.57,25.2,36.38,0,0-10.21,5.26-17.61,13.33-9.08-19.13-21.5-43.23-34.43-59.83,0,0,9.3-5.62,14.39-11.85,1.08,2.21,2.3,4.68,3.74,7.21,2.41-7.53,8.41-13.39,14.27-15.48,9.62-3.51,19.05,2.57,27.23,17.64C1218.38,359.55,1209.76,369.18,1209.76,369.18Z"/>
        <path class="a53a1a16-77c8-4e79-a364-04262bb112c0" d="M1279.57,380c-9.79,2.78-20,1.89-30.27-2.63l-6.29-2.76.56-6.85a104.54,104.54,0,0,1,2.53-15.31,26.82,26.82,0,0,1-15.34-11.69,27.53,27.53,0,0,1-3.74-20.67c1.21-5.47,4.81-13.36,15.07-19.84a40.21,40.21,0,0,1,10.41-4.71c13-3.67,26.52.34,38.22,11.3l8.63,8.09-9.73,6.88a23.77,23.77,0,0,1,17.47,12.73c7.68,14.42.64,31.31-17.11,41.11A49.62,49.62,0,0,1,1279.57,380Z"/>
        <path class="bd558dd3-1bc3-473b-8de6-468e881fd444" d="M1285.32,367.17c-9.53,5.22-19.73,6.78-32.14,1.33a105.68,105.68,0,0,1,4.13-20.64c9.74,6.62,19.14,4.28,19.78.75.47-2.9-2.56-5.76-13.33-4.58-9.74,1.12-19.46.12-24.84-8.44-4.39-6.83-5.28-18.64,8.32-27.23,14.67-9.19,27.88-3,36.88,5.48a60.77,60.77,0,0,0-14.31,14.8c-9.88-8.12-16.17-4-13.3-.2,7.94,10.28,32.75-6.78,42.08,10.62C1304.14,349.47,1297.38,360.51,1285.32,367.17Z"/>
      </g>
      <g>
        <g>
          <path class="b1929cff-6d9e-4fcd-b8d4-878cc9966211" d="M1362.12,291.3s-24.44-.86-32-5.15c0,0,2.89-10.32.62-12.86,0,0-12.13-1.52-16.45-.42,0,0,.45-14.72-5.32-13.7,0,0-5.36.06-3.26,10,0,0-10.36-9.22-14.88-6.56,0,0-3,3.95,7.87,11.85,0,0-13.72-5-16.24-1,0,0-3.43,4.41,13.62,6.74,0,0-16.71.46-16,3.68,0,0-2.64,4.68,16.62,3.26,0,0-7.3,5.32-6.33,8.93,0,0,3.79,2.41,14-5.61,0,0,11.16,7.78,14.65,6.83,0,0,5.76-1.16,10.66-7.64,0,0,23.34,7,31.5,5.51Z"/>
          <path d="M1330.15,286.15l-.45,3.53s25.48,7.36,31.5,5.51l.92-3.89S1337.35,290.3,1330.15,286.15Z"/>
        </g>
        <g>
          <g>
            <path class="a79b21e9-0e16-4ec7-b72b-2afce15ba0b0" d="M1431.28,203.7l-.42,87.68,16.21-2.55s3.46,26.66,3.37,32.21c0,0-19,.1-19,7.8,0,0-.83,22.28,1.58,31.52,0,0-32.08,7.21-34.61,6.41,0,0,4.49-25,1.76-30.13,0,0-32.7,1.77-45.86,8.41,0,0-8.73-32.56-5.72-36.41,0,0,42.1-84.36,51.66-98.62C1400.26,210,1423.62,202.49,1431.28,203.7Z"/>
            <g>
              <path class="b53285bf-2b78-4a04-8223-704e0bbe1644" d="M1376.31,299l38.06-6-2.54-32.25-8.52-5.16S1382.61,275.55,1376.31,299Z"/>
              <path class="b772153c-bac6-4619-a977-6c5b9b8ad99d" d="M1411.83,260.79s-19.06,20-24.77,36.54L1376.31,299s4.79-20.88,27-43.39Z"/>
            </g>
          </g>
          <path class="b772153c-bac6-4619-a977-6c5b9b8ad99d" d="M1431.28,203.7a5.8,5.8,0,0,1,5.09,5.22l.77,81.47,9.93-1.56s5.9,2,6.29,4.43c0,0,3.63,26.15,3.06,30.21,0,0-20.58,2.27-19.46,9.44,0,0-.41,25.7,2.89,30.6,0,0-27,6.65-33,6.63,0,0-8.1-1.73-9.36-2.86l32.54-7.77s-14-44.6,18.3-40.18l-2.54-29-16.13,2.45Z"/>
        </g>
        <g>
          <ellipse class="b0b783b5-1679-49af-8660-fc2268e4a50b" cx="1389.25" cy="238.25" rx="11.86" ry="22.03" transform="translate(-16.68 137.59) rotate(-5.64)"/>
          <ellipse class="b0b783b5-1679-49af-8660-fc2268e4a50b" cx="1414.96" cy="236.67" rx="11.86" ry="22.03" transform="translate(-16.4 140.11) rotate(-5.64)"/>
          <ellipse class="fbd81d81-7c3a-4966-b829-ae094db863db" cx="1387.99" cy="239.12" rx="3.33" ry="4.87" transform="translate(-16.77 137.47) rotate(-5.64)"/>
          <ellipse class="fbd81d81-7c3a-4966-b829-ae094db863db" cx="1415.08" cy="236.44" rx="3.21" ry="4.87" transform="translate(-16.38 140.12) rotate(-5.64)"/>
        </g>
        <path class="f93c4cfd-53cf-4af3-ab74-57dd956c18dd" d="M1385.68,292.28s16.59,12.72,30.45-3.47C1416.13,288.81,1399.72,342.74,1385.68,292.28Z"/>
        <g>
          <path class="b1929cff-6d9e-4fcd-b8d4-878cc9966211" d="M1431.31,279.55s17.81-10.47,21.5-17.33c0,0-6.73-8.17-6.17-11.37,0,0,8.35-6.18,12-6.9,0,0-6.88-13.11-2.13-14.49,0,0,4-2.07,6.88,7.77,0,0,3.61-12.44,8.16-11.82,0,0,4,2.35-.59,13.82,0,0,8-10,11.64-7.35,0,0,4.51,2.62-7.14,11.49,0,0,12.64-6.22,13.57-3,0,0,4,3.18-10.92,9.54,0,0,7.79,1.9,8.68,5.55,0,0-1.75,3.68-12.93.5,0,0-4.85,11.45-7.87,12,0,0-4.8,1.24-11.32-2.67,0,0-14.26,15.57-21,17.47Z"/>
          <path d="M1452.81,262.22l1.91,3s-15.69,16.76-21,17.47l-2.42-3.15S1449.3,268.82,1452.81,262.22Z"/>
        </g>
      </g>
      <g>
        <g>
          <path class="a29a0d61-a566-46f2-b451-fb842b760694" d="M871.71,168.88s5.1,6.36,5.71,8.06c0,0,.05,15.12-1.36,18.82,0,0-35.26,36.34-44.07,109.89,0,0-17.21,5.08-31,2.11l-6.91-5.44,30-4.9s9.85-90.88,45.16-111.64Z"/>
          <path class="a29a0d61-a566-46f2-b451-fb842b760694" d="M788.34,207.54s3,5.57,5.36,5.58c0,0,26.88-4.45,30.87-1.65l7.29-5.81S792.88,196.92,788.34,207.54Z"/>
          <path class="ae8f9d29-a2ce-4ae5-8d09-ff1e19c4afb3" d="M782.18,172.62s80.86.93,89.53-3.74c0,0,1.94,17.7-1.37,21,0,0-36,26.11-43.92,111,0,0-30.89,3.5-32.32,1.44,0,0,9.14-74.63,32.93-95.46,0,0-30.63-5.14-38.69.68C788.34,207.54,785.93,181.29,782.18,172.62Z"/>
        </g>
        <g>
          <ellipse class="b0b783b5-1679-49af-8660-fc2268e4a50b" cx="821.16" cy="166.01" rx="19.06" ry="10.26" transform="translate(649.87 986.09) rotate(-89.63)"/>
          <ellipse class="b0b783b5-1679-49af-8660-fc2268e4a50b" cx="843.43" cy="166.98" rx="19.06" ry="10.26" transform="translate(671.02 1009.31) rotate(-89.63)"/>
          <ellipse class="fbd81d81-7c3a-4966-b829-ae094db863db" cx="820" cy="166.65" rx="4.22" ry="2.88" transform="translate(648.08 985.56) rotate(-89.63)"/>
          <ellipse class="fbd81d81-7c3a-4966-b829-ae094db863db" cx="843.56" cy="166.8" rx="4.22" ry="2.78" transform="translate(671.33 1009.27) rotate(-89.63)"/>
        </g>
        <path class="eb19dd77-3419-4b9d-8539-78e423867de3" d="M819.74,195.39s12.39,13.18,26.48,1.29C846.22,196.68,824.66,240.44,819.74,195.39Z"/>
        <g>
          <path class="b1929cff-6d9e-4fcd-b8d4-878cc9966211" d="M852.42,227.18s24.2-4.37,31.05-9.18c0,0-4.44-8.45-2.57-11,0,0,11.85-3.11,16.32-2.8,0,0-2.68-12.59,3.22-12.58,0,0,5.34-.74,4.76,8.15,0,0,8.92-9.47,13.82-7.85,0,0,3.63,2.94-6,11.36,0,0,12.89-6.38,16-3.28,0,0,4.08,3.28-12.54,7.82,0,0,16.7-2.09,16.52.78,0,0,3.33,3.64-16.05,5.27,0,0,8.07,3.49,7.65,6.74,0,0-3.4,2.64-14.81-2.74,0,0-9.94,8.35-13.55,8a21,21,0,0,1-11.77-5s-22.18,9.48-30.52,9.42Z"/>
          <path d="M883.47,218l1,3s-24.25,10.11-30.52,9.42l-1.51-3.21S876.93,222.63,883.47,218Z"/>
        </g>
        <g>
          <path class="b1929cff-6d9e-4fcd-b8d4-878cc9966211" d="M811.48,231.28s-24.48-4.42-31.41-9.21c0,0,4.5-8.37,2.61-10.88,0,0-12-3.12-16.5-2.84,0,0,2.72-12.48-3.26-12.49,0,0-5.39-.75-4.82,8.07,0,0-9-9.43-14-7.84,0,0-3.68,2.9,6.11,11.29,0,0-13-6.36-16.21-3.3,0,0-4.13,3.24,12.68,7.8,0,0-16.9-2.13-16.72.72,0,0-3.37,3.59,16.24,5.28,0,0-8.17,3.44-7.75,6.67,0,0,3.45,2.63,15-2.67,0,0,10,8.32,13.7,8a21.39,21.39,0,0,0,11.91-4.9s22.43,9.49,30.87,9.45Z"/>
          <path d="M780.07,222.07l-1,2.94s24.52,10.12,30.87,9.45l1.53-3.18S786.69,226.69,780.07,222.07Z"/>
        </g>
      </g>
      <g>
        <g>
          <path class="b1929cff-6d9e-4fcd-b8d4-878cc9966211" d="M1111.08,612.17s-16.27-9.84-19.76-15.61c0,0,5.87-5.91,5.29-8.5,0,0-7.66-5.62-11-6.51,0,0,5.88-9.83,1.57-11.33,0,0-3.65-2-6,5.58,0,0-3.54-10.19-7.62-10.09,0,0-3.56,1.53.86,11,0,0-7.41-8.62-10.66-6.83,0,0-4,1.69,6.7,9.74,0,0-11.52-6-12.29-3.58,0,0-3.56,2.18,10.06,8.51,0,0-7,.85-7.69,3.67,0,0,1.66,3.07,11.66,1.5,0,0,4.64,9.51,7.36,10.19,0,0,4.36,1.4,10.14-1.15,0,0,13.2,13.59,19.3,15.68Z"/>
          <path d="M1091.32,596.56l-1.64,2.23s14.51,14.65,19.3,15.68l2.1-2.3S1094.64,602.11,1091.32,596.56Z"/>
        </g>
        <g>
          <path class="e0501800-2aba-4ace-a89b-a546524f670c" d="M1185.5,596.72s34.68,35-2.22,91.34c0,0-21.57,37.87-57.09,5.87,0,0,28.65,15.35,45.86-15.86C1172.05,678.07,1196.35,664.59,1185.5,596.72Z"/>
          <g>
            <g>
              <path class="a52949fe-e5d5-4ea1-a5ef-ef34c34241a2" d="M1151.62,578.24c-24,4-63.42,21.48-34.11,101.83,4.32,11.86,17.28,30.95,48.19,15,18.11-9.31,33.75-30,30.42-75.56C1196.12,619.56,1183,573,1151.62,578.24Z"/>
              <g>
                <ellipse class="b53285bf-2b78-4a04-8223-704e0bbe1644" cx="1151.05" cy="638.04" rx="28.94" ry="16.57" transform="translate(315.46 1654.8) rotate(-79.59)"/>
                <path class="e0501800-2aba-4ace-a89b-a546524f670c" d="M1162.24,613.11s-20-4.66-20.31,25.39c0,0-.82,16.64,4.34,27.81,0,0-7.52.14-11.46-12.72a47.75,47.75,0,0,1,2.2-28S1147.2,600.17,1162.24,613.11Z"/>
              </g>
            </g>
            <path class="f93c4cfd-53cf-4af3-ab74-57dd956c18dd" d="M1137.5,618.7s13.92,15.36,30.32,2C1167.82,620.73,1142.22,670.43,1137.5,618.7Z"/>
            <g>
              <ellipse class="b0b783b5-1679-49af-8660-fc2268e4a50b" cx="1137.94" cy="585.79" rx="21.3" ry="11.47" transform="translate(524.59 1709.12) rotate(-88.6)"/>
              <ellipse class="b0b783b5-1679-49af-8660-fc2268e4a50b" cx="1162.79" cy="587.32" rx="21.3" ry="11.47" transform="translate(547.32 1735.46) rotate(-88.6)"/>
              <ellipse class="fbd81d81-7c3a-4966-b829-ae094db863db" cx="1136.62" cy="586.48" rx="4.71" ry="3.22" transform="translate(522.63 1708.48) rotate(-88.6)"/>
              <ellipse class="fbd81d81-7c3a-4966-b829-ae094db863db" cx="1162.94" cy="587.12" rx="4.71" ry="3.1" transform="translate(547.66 1735.41) rotate(-88.6)"/>
            </g>
          </g>
        </g>
        <g>
          <path class="b1929cff-6d9e-4fcd-b8d4-878cc9966211" d="M1197.8,633.85s15.08-5.53,18.87-10.27c0,0-4-7.19-3.14-9.56,0,0,7.25-3.56,10.18-3.6,0,0-3.43-11,.39-11.38,0,0,3.36-1,4.19,6.91,0,0,4.49-9,7.89-7.91,0,0,2.74,2.36-2.39,10.49,0,0,7.5-6.53,9.94-4,0,0,3.08,2.63-7.07,7.8,0,0,10.54-3,10.81-.44,0,0,2.65,3-9.69,5.78,0,0,5.7,2.54,5.87,5.46,0,0-1.85,2.57-10-1.42,0,0-5.31,8.08-7.69,8.06,0,0-3.85.28-8.3-3.62,0,0-13.07,9.93-18.49,10.44Z"/>
          <path d="M1216.67,623.58l1,2.57s-14.33,10.63-18.49,10.44l-1.41-2.74S1213.06,628.14,1216.67,623.58Z"/>
        </g>
      </g>
      <g>
        <g>
          <g>
            <path class="b1929cff-6d9e-4fcd-b8d4-878cc9966211" d="M1245.77,178.41s14.54,3.33,19.89,1.56c0,0,.51-7.64,2.39-9,0,0,7.45.9,9.75,2.35,0,0,2.89-10.29,6.07-8.66,0,0,3.13.9-.24,7.49,0,0,8.06-4.74,10.15-2.16,0,0,.94,3.23-7.17,7,0,0,9.14-1.3,9.76,1.91,0,0,1.07,3.61-9.45,2.5,0,0,9.72,3,8.64,5.13,0,0,.54,3.67-10.47-.41,0,0,3.15,4.87,1.81,7.22,0,0-2.75,1.07-7-6.15,0,0-8.23,3.61-10.07,2.39,0,0-3.14-1.73-4.63-7,0,0-15.21,1.11-19.69-1.23Z"/>
            <path d="M1265.66,180l-.5,2.52s-16.55,1-19.69-1.23l.3-2.85S1260.54,181.69,1265.66,180Z"/>
          </g>
          <g>
            <path class="b1929cff-6d9e-4fcd-b8d4-878cc9966211" d="M1173,186s-14.06,10.69-20.24,11.73c0,0-3.1-7.1-5.53-7.48,0,0-7.48,4.69-9.39,7.28,0,0-6.48-8.44-9.24-5.23,0,0-3,2.48,2.76,7.1,0,0-10-.43-11.32,3.13,0,0,.1,3.6,9.82,3,0,0-10,3.45-9.55,6.87,0,0,.1,4,10.7-2.46,0,0-9.14,7.89-7.29,9.39,0,0,.67,3.82,10.79-5.78,0,0-1.65,6.32.54,7.9,0,0,3.22-.39,5.29-9.55,0,0,9.79-.76,11.31-2.88a14.3,14.3,0,0,0,2.48-9.14s16.25-6.76,20.13-11.31Z"/>
            <path d="M1152.72,197.71l1.37,2.18s17.61-7.53,20.13-11.31L1173,186S1158.64,196.74,1152.72,197.71Z"/>
          </g>
          <g>
            <path class="f20b08af-c715-4ee9-a690-cd7aee0c67b8" d="M1239.33,174.09s26.71,10.28,12.17,49.1c0,0-18.72,40.65-53.48,20.64L1239.79,222S1241.31,178.12,1239.33,174.09Z"/>
            <path class="f20b08af-c715-4ee9-a690-cd7aee0c67b8" d="M1242.51,150.25l4.39,5.5s-16.33,10.16-24,8.33l-4.4-5.26s-15.31,3.35-9.8,13.81c0,0-3,3.68-4.5,2.32s-13.33-19.79,10.12-21.22l7.69,4.6Z"/>
            <path class="ad148d69-85b3-47f7-ae04-99aec9e11ded" d="M1219.52,160.33s23.26-7.36,23-10.08c0,0-33.4-41.72-62.57,6.22,0,0-32.17,77.35,24,88.94,15.4,3.17,37.47-3.8,44.6-35.35,2.79-12.34,7-44.33-33-38.4,0,0-22.91,6.44-11.79-13.84C1203.77,157.82,1214,150.48,1219.52,160.33Z"/>
            <g>
              <ellipse class="b53285bf-2b78-4a04-8223-704e0bbe1644" cx="1213.16" cy="206.03" rx="20.41" ry="15.03" transform="matrix(0.22, -0.98, 0.98, 0.22, 748.26, 1345.36)"/>
              <path class="f20b08af-c715-4ee9-a690-cd7aee0c67b8" d="M1207.63,225.64s-7.67-31.1,15.51-36.52c0,0-14.33-12.49-24.19,11.88C1199,201,1193.56,218.26,1207.63,225.64Z"/>
            </g>
          </g>
          <path class="f93c4cfd-53cf-4af3-ab74-57dd956c18dd" d="M1203,167.13s12.74,8.11,21.7-4.41C1224.73,162.72,1216.3,202.56,1203,167.13Z"/>
          <g>
            <ellipse class="b0b783b5-1679-49af-8660-fc2268e4a50b" cx="1197.68" cy="141.24" rx="8.57" ry="15.91" transform="translate(1.2 292.35) rotate(-13.92)"/>
            <ellipse class="b0b783b5-1679-49af-8660-fc2268e4a50b" cx="1215.89" cy="137.44" rx="8.57" ry="15.91" transform="translate(2.65 296.62) rotate(-13.92)"/>
            <ellipse class="fbd81d81-7c3a-4966-b829-ae094db863db" cx="1196.87" cy="142" rx="2.4" ry="3.52" transform="translate(1 292.17) rotate(-13.92)"/>
            <ellipse class="fbd81d81-7c3a-4966-b829-ae094db863db" cx="1215.96" cy="137.27" rx="2.32" ry="3.52" transform="translate(2.7 296.63) rotate(-13.92)"/>
          </g>
        </g>
        <g>
          <ellipse class="b53285bf-2b78-4a04-8223-704e0bbe1644" cx="1213.16" cy="206.03" rx="20.41" ry="15.03" transform="matrix(0.22, -0.98, 0.98, 0.22, 748.26, 1345.36)"/>
          <path class="f20b08af-c715-4ee9-a690-cd7aee0c67b8" d="M1207.63,225.64s-7.67-31.1,15.51-36.52c0,0-14.33-12.49-24.19,11.88C1199,201,1193.56,218.26,1207.63,225.64Z"/>
        </g>
      </g>
      <g>
        <g>
          <path class="b1929cff-6d9e-4fcd-b8d4-878cc9966211" d="M1014.84,215s-22.78,7.33-31.26,5.69c0,0-1.09-11-4.1-12.67,0,0-11.69,2.59-15.27,5.09,0,0-4.93-14.4-9.87-11.49,0,0-4.89,1.84.65,10.8,0,0-12.87-5.47-16.06-1.38,0,0-1.36,4.84,11.55,8.85,0,0-14.45-.3-15.3,4.45,0,0-1.55,5.41,15,2,0,0-15.2,6-13.41,8.91,0,0-.72,5.42,16.46-2.4,0,0-4.78,7.59-2.58,10.77,0,0,4.36,1.07,10.86-10.12,0,0,13.09,3.81,15.95,1.72,0,0,4.87-3,7-10.95,0,0,24-1,30.95-5.18Z"/>
          <path d="M983.58,220.71l.87,3.57s26.09-1.38,30.95-5.18l-.56-4.08S991.7,222.32,983.58,220.71Z"/>
        </g>
        <g>
          <path class="fd4dc21f-684e-4c6c-9925-227a01589c0c" d="M1025,139.13S1077.6,142,1049.62,194c0,0,59.46,19.59,17.69,71.3,0,0-28.59,29.3-63.76-.25,0,0,52.26,24.57,64-21.47,0,0,9.71-41.69-30.16-49.4C1037.34,194.13,1065.19,157.92,1025,139.13Z"/>
          <path class="fd4dc21f-684e-4c6c-9925-227a01589c0c" d="M1014.82,220.08s5.9,1.93,7.25,1.65c0,0,12.19-10.65,16.48-9.21C1038.55,212.52,1026.33,203.77,1014.82,220.08Z"/>
          <path class="fd4dc21f-684e-4c6c-9925-227a01589c0c" d="M973.69,198.27s6.43,2,8.4,1.4c0,0,22.78-8.31,27.19-11.24,0,0-5.78-16.06,7.51-20.35,0,0-10.25-12.41-20.3,14.83Z"/>
          <path class="ef7c06e8-9252-4482-8d6b-8ab7ebf3edf9" d="M973.69,198.27s25.7-8.61,28.29-11.46c0,0-8.57-17.52,11.32-19.05,0,0,23.47,11.12-1.52,30.66,0,0-7.09,7.28,3,21.66,0,0,15.24-12.35,22-7.07,0,0,18.86,11.6,7.17,30,0,0-10.3,11.52-27.13-3.31,0,0-21.63,9.64-18.75,20.41,0,0,22.75,25.12,49.34,12.18,0,0,27.21-11.2,27.76-48.29,0,0-8-29.59-34.17-31.92,0,0,27-33.67-13.87-52.69,0,0-49.69-7.8-55.67,43.89C971.52,183.26,969.49,191.49,973.69,198.27Z"/>
        </g>
        <path class="f93c4cfd-53cf-4af3-ab74-57dd956c18dd" d="M1012.4,192.52s17,5.28,23.35-11.78C1035.75,180.74,1038.55,228.77,1012.4,192.52Z"/>
        <g>
          <ellipse class="b0b783b5-1679-49af-8660-fc2268e4a50b" cx="983.49" cy="150.72" rx="10.12" ry="18.79" transform="translate(51.44 498.93) rotate(-29.2)"/>
          <ellipse class="b0b783b5-1679-49af-8660-fc2268e4a50b" cx="1008.95" cy="138.82" rx="10.12" ry="18.79" transform="translate(60.48 509.84) rotate(-29.2)"/>
          <ellipse class="fbd81d81-7c3a-4966-b829-ae094db863db" cx="982.8" cy="151.83" rx="2.84" ry="4.16" transform="translate(50.81 498.74) rotate(-29.2)"/>
          <ellipse class="fbd81d81-7c3a-4966-b829-ae094db863db" cx="1008.95" cy="138.82" rx="2.74" ry="4.16" transform="translate(60.48 509.84) rotate(-29.2)"/>
        </g>
        <g>
          <path class="b1929cff-6d9e-4fcd-b8d4-878cc9966211" d="M1051.58,159.67s11.16-13.65,12.09-20.23c0,0-7.81-4.55-8.31-7.28,0,0,4.86-7.41,7.61-9.09,0,0-9.38-8.46-6-11,0,0,2.6-2.84,7.8,4.18,0,0-.78-11,3-11.87,0,0,3.91.69,3.61,11.24,0,0,3.43-10.36,7.15-9.33,0,0,4.38.77-2.32,11.31,0,0,8.28-8.71,10-6.44,0,0,4.18,1.35-5.92,10.86,0,0,6.8-.78,8.59,1.88,0,0-.31,3.46-10.2,4.22,0,0-.5,10.6-2.76,11.91,0,0-3.48,2.41-9.86,1.22,0,0-6.81,16.67-11.63,20.18Z"/>
          <path d="M1063.67,139.44l2.41,1.85s-7.6,18-11.63,20.18l-2.87-1.8S1062.81,145.76,1063.67,139.44Z"/>
        </g>
      </g>
      <g>
        <g>
          <path class="b1929cff-6d9e-4fcd-b8d4-878cc9966211" d="M1287.89,513.5s-16.41,13.36-23.76,14.85c0,0-4-8.37-6.92-8.74,0,0-8.76,5.92-11,9.09,0,0-8.08-9.84-11.26-5.89,0,0-3.45,3.08,3.58,8.39,0,0-12-.12-13.42,4.19,0,0,.26,4.31,11.87,3.24,0,0-11.8,4.53-11.15,8.6,0,0,.27,4.82,12.71-3.36,0,0-10.63,9.8-8.36,11.52,0,0,1,4.55,12.69-7.34,0,0-1.73,7.62,1,9.43,0,0,3.84-.59,6-11.64,0,0,11.69-1.29,13.42-3.9,0,0,3.1-4,2.61-11,0,0,19.18-8.73,23.65-14.33Z"/>
          <path d="M1264.13,528.35l1.72,2.55s20.78-9.7,23.65-14.33l-1.61-3.07S1271.18,527,1264.13,528.35Z"/>
        </g>
        <g>
          <path class="fb8b826d-b482-4054-b5c3-7ecb9a35e891" d="M1284.82,446.86s62.16-2.28,37.62,88.42l-16.71,9.53S1336.62,480.5,1284.82,446.86Z"/>
          <path class="fb8b826d-b482-4054-b5c3-7ecb9a35e891" d="M1239.48,506s8.7,6.42,12,5.27c0,0,22.71-6.9,23.74-10.69,0,0-13.08-27,9.83-31.36,0,0-23.29-15.31-25.12,18.24l1.92,6.18Z"/>
          <g>
            <path class="fb8b826d-b482-4054-b5c3-7ecb9a35e891" d="M1340.6,522.26s12.48-.18,15.08,5.45c0,0,16.7,20.55,8,24.78,0,0-70,42.52-74.31,42.38,0,0-9-1.27-9.77-8.42l72-42S1352.25,535.21,1340.6,522.26Z"/>
            <path class="a945a494-b205-482b-b530-aa8e263db0dd" d="M1239.48,506s21.1-5.05,27.94-9.87c0,0-16.13-26.12,9.69-29,0,0,21.72,7.15,5,47.59,0,0-24,51.34-.72,75.36,0,0,46-30.84,74.52-42.49a32.69,32.69,0,0,0-13.33-26.5l-33.84,20.6s20.94-48.41,2.72-73.31c0,0-9.91-41.47-58.87-15.21C1252.58,453.14,1221.52,473,1239.48,506Z"/>
          </g>
        </g>
        <g>
          <ellipse class="b0b783b5-1679-49af-8660-fc2268e4a50b" cx="1260.16" cy="451.91" rx="10.26" ry="19.05" transform="translate(-58.41 683.44) rotate(-29.69)"/>
          <ellipse class="b0b783b5-1679-49af-8660-fc2268e4a50b" cx="1283.2" cy="441.5" rx="10.26" ry="19.05" transform="translate(-50.23 693.48) rotate(-29.69)"/>
          <ellipse class="fbd81d81-7c3a-4966-b829-ae094db863db" cx="1259.47" cy="453.04" rx="2.88" ry="4.22" transform="translate(-59.06 683.24) rotate(-29.69)"/>
          <ellipse class="fbd81d81-7c3a-4966-b829-ae094db863db" cx="1282.13" cy="442.11" rx="2.78" ry="4.22" transform="translate(-50.67 693.03) rotate(-29.69)"/>
        </g>
        <path class="eb19dd77-3419-4b9d-8539-78e423867de3" d="M1286.11,477.7s17.32,5.21,23.56-12.14C1309.67,465.56,1312.93,514.22,1286.11,477.7Z"/>
        <g>
          <path class="b1929cff-6d9e-4fcd-b8d4-878cc9966211" d="M1321.37,484.76s11.7-9.24,13.65-14.53c0,0-5.64-5.22-5.56-7.57,0,0,5.36-5.25,7.94-6.12,0,0-6.24-8.76-3-10.21,0,0,2.66-1.87,5.71,4.92,0,0,1.33-9.28,4.65-9.28,0,0,3.11,1.3,1,10,0,0,4.7-7.95,7.6-6.4,0,0,3.48,1.44-4,8.94,0,0,8.42-5.69,9.4-3.49,0,0,3.21,1.89-6.86,7.9,0,0,5.77.62,6.77,3.16,0,0-.88,2.81-9.2,1.6,0,0-2.33,8.7-4.43,9.37,0,0-3.31,1.35-8.37-.82,0,0-8.65,12.56-13.27,14.57Z"/>
          <path d="M1335,470.23l1.67,2s-9.55,13.55-13.27,14.57l-2.05-2S1333.17,475.32,1335,470.23Z"/>
        </g>
      </g>
      <g>
        <g>
          <path class="b1929cff-6d9e-4fcd-b8d4-878cc9966211" d="M576.87,415.23s8.34-20.19,7.07-28.34c0,0-10.9-2.59-12.47-5.65,0,0,3.1-10.54,5.76-13.51,0,0-14.17-6.67-11-10.86,0,0,2.06-4.3,10.76,2.16,0,0-4.89-12.79-.66-15.18,0,0,4.89-.58,8.32,12,0,0,.34-13.52,5.13-13.63,0,0,5.47-.67,1.31,14.25,0,0,6.69-13.31,9.5-11.23,0,0,5.44.11-3.12,15,0,0,7.79-3.36,10.87-.85,0,0,.87,4.22-10.59,8.68,0,0,3.22,12.75,1,15.11,0,0-3.26,4.12-11.25,5,0,0-2.09,22.23-6.55,28.12Z"/>
          <path d="M583.94,386.89l3.53,1.33s-2.53,24.14-6.55,28.12l-4-1.11S585.19,394.7,583.94,386.89Z"/>
        </g>
        <g>
          <path class="b1929cff-6d9e-4fcd-b8d4-878cc9966211" d="M498,468.34s-21.16,14.87-30.25,16.06c0,0-4.15-10.55-7.69-11.25,0,0-11.19,6.47-14.14,10.15,0,0-9-12.7-13.23-8.15,0,0-4.48,3.46,3.65,10.54,0,0-14.62-1.17-16.73,4,0,0-.05,5.28,14.2,5,0,0-14.78,4.51-14.33,9.53,0,0-.09,5.9,15.78-3,0,0-13.8,11.05-11.17,13.33,0,0,.76,5.64,16.09-7.86,0,0-2.76,9.15.37,11.58,0,0,4.73-.39,8.25-13.69,0,0,14.38-.57,16.71-3.59,0,0,4.12-4.66,4.12-13.25,0,0,24.14-9,30.08-15.45Z"/>
          <path d="M467.76,484.4l1.88,3.26s26.18-10.05,30.08-15.45L498,468.34S476.48,483.3,467.76,484.4Z"/>
        </g>
        <g>
          <path class="b9ef3c81-674f-47d3-ac45-525ab37ede07" d="M511.15,359.9s11.9-5.82,35.16,25.77c0,0-47.3,39-27.35,50.66,0,0-4,11.6-5,10.39s-22.71-21.89-1.59-41.62C512.39,405.1,535.46,390.14,511.15,359.9Z"/>
          <path class="b9ef3c81-674f-47d3-ac45-525ab37ede07" d="M512.05,492s7.85,2.33,10.88.27c0,0,16.64-16.18,17.41-18.06,0,0-14.07-24.36,12.44-37.55,0,0-32.93-10-28.76,35.45Z"/>
          <path class="b9ef3c81-674f-47d3-ac45-525ab37ede07" d="M554.17,406.88s71.54.36,64,84.45c-1.33,14.79-36.58,41.94-56.06,36.6C562.1,527.93,659.14,471.67,554.17,406.88Z"/>
          <path class="f41a2dec-a44a-4657-b0fc-1060b569283e" d="M511.15,359.9s-60.74,62.66-57.68,64.92c0,0,51.34,44.59,57.61,66.35,0,0,2.44,7.07,20-17.71,0,0-18.4-38,23.11-34.67,0,0,41.66,21.65,21.4,51.72,0,0-15.51,7.76-27.91-9.09,0,0-25.67,25.91-15.93,33.56,0,0,30.48,32.52,66.42-5.49,0,0,34.06-43.67-8.34-85.94,0,0-42.82-46.17-73.18,15,0,0-18.43-10.95-7.48-25,0,0,29.17-23.74,28.22-32C537.43,381.56,516.5,360.34,511.15,359.9Z"/>
        </g>
        <g>
          <ellipse class="b0b783b5-1679-49af-8660-fc2268e4a50b" cx="489.49" cy="415.94" rx="12.54" ry="23.3" transform="translate(-149.68 479.71) rotate(-46.05)"/>
          <ellipse class="b0b783b5-1679-49af-8660-fc2268e4a50b" cx="509.11" cy="397.04" rx="12.54" ry="23.3" transform="translate(-130.07 488.05) rotate(-46.05)"/>
          <ellipse class="fbd81d81-7c3a-4966-b829-ae094db863db" cx="489.08" cy="417.51" rx="3.52" ry="5.16" transform="translate(-150.94 479.89) rotate(-46.05)"/>
          <ellipse class="fbd81d81-7c3a-4966-b829-ae094db863db" cx="509.06" cy="396.77" rx="3.4" ry="5.16" transform="translate(-129.89 487.93) rotate(-46.05)"/>
        </g>
        <path class="f93c4cfd-53cf-4af3-ab74-57dd956c18dd" d="M507.73,443.11s21.83-3.52,19.44-25.93C527.17,417.18,556.73,469,507.73,443.11Z"/>
      </g>
      <g>
        <g>
          <path class="b1929cff-6d9e-4fcd-b8d4-878cc9966211" d="M571,684s-20.88,14.69-29.85,15.87c0,0-4.1-10.41-7.59-11.09,0,0-11,6.38-14,10,0,0-8.9-12.53-13.06-8,0,0-4.42,3.43,3.61,10.41,0,0-14.43-1.15-16.51,3.92,0,0-.05,5.2,14,4.89,0,0-14.59,4.46-14.15,9.41,0,0-.08,5.83,15.58-3,0,0-13.61,10.91-11,13.16,0,0,.76,5.56,15.88-7.77,0,0-2.72,9,.36,11.43,0,0,4.67-.38,8.14-13.51,0,0,14.19-.57,16.49-3.56,0,0,4.07-4.59,4.06-13.07,0,0,23.82-8.9,29.67-15.27Z"/>
          <path d="M541.19,699.85l1.86,3.22s25.83-9.94,29.67-15.27L571,684S549.8,698.76,541.19,699.85Z"/>
        </g>
        <g>
          <path class="a72ab704-2d3d-48a9-9f4e-2449116b6526" d="M664.34,678.19s29-39.18-15.2-59.94c0,0-20.81-9.19-37.88,3.24,0,0-57.13,29.74-22.39,72.56,0,0,13,14.8,27.39,12.78,0,0-27.64,22.43,6.83,54.69,0,0,28.21,24.74,51,11.05,0,0,47.14-20.83,26.39-68.31C700.45,704.26,686.81,672.93,664.34,678.19Z"/>
          <path class="a963fa44-d6ba-44ed-b598-572702e45a43" d="M597.13,621.79S540,651.52,574.74,694.35c0,0,13,14.79,27.39,12.78,0,0-27.64,22.42,6.83,54.68,0,0,28.21,24.74,51,11.05,0,0,47.13-20.83,26.39-68.31,0,0-13.64-31.33-36.11-26.07,0,0,29-39.17-15.2-59.93C635,618.55,614.2,609.35,597.13,621.79Z"/>
          <g>
            <ellipse class="b53285bf-2b78-4a04-8223-704e0bbe1644" cx="614.39" cy="662.14" rx="18.29" ry="17.02" transform="translate(-253.42 411.5) rotate(-31.03)"/>
            <path class="a72ab704-2d3d-48a9-9f4e-2449116b6526" d="M614.26,679.48s-22.48-24.4,9.14-32.89c0,0-19.7-8.52-26.67,13.45C596.73,660,592.61,678.23,614.26,679.48Z"/>
          </g>
          <g>
            <ellipse class="b53285bf-2b78-4a04-8223-704e0bbe1644" cx="643.43" cy="726.88" rx="19.51" ry="21.77" transform="translate(-218.03 279.39) rotate(-21.03)"/>
            <path class="a72ab704-2d3d-48a9-9f4e-2449116b6526" d="M641.22,748s-21.57-36.22,13.89-37.49c0,0-20.44-16.06-30.67,8.74C624.44,719.24,617.78,740.25,641.22,748Z"/>
          </g>
        </g>
        <g>
          <ellipse class="b0b783b5-1679-49af-8660-fc2268e4a50b" cx="583.76" cy="637.3" rx="12.38" ry="22.99" transform="translate(-245 392.16) rotate(-31.03)"/>
          <ellipse class="b0b783b5-1679-49af-8660-fc2268e4a50b" cx="607.3" cy="624.3" rx="12.38" ry="22.99" transform="translate(-234.93 402.44) rotate(-31.03)"/>
          <ellipse class="fbd81d81-7c3a-4966-b829-ae094db863db" cx="582.97" cy="638.69" rx="3.47" ry="5.09" transform="translate(-245.82 391.95) rotate(-31.03)"/>
          <ellipse class="fbd81d81-7c3a-4966-b829-ae094db863db" cx="607.32" cy="624.04" rx="3.35" ry="5.09" transform="translate(-234.79 402.41) rotate(-31.03)"/>
        </g>
        <path class="f93c4cfd-53cf-4af3-ab74-57dd956c18dd" d="M609.08,686.3s21.57,3.28,26.09-18.5C635.17,667.8,647.31,725.38,609.08,686.3Z"/>
        <g>
          <path class="b1929cff-6d9e-4fcd-b8d4-878cc9966211" d="M659,632.31s18.75-10.65,22.71-17.76c0,0-6.91-8.63-6.27-12,0,0,8.81-6.32,12.68-7,0,0-7-13.79-2-15.15,0,0,4.22-2.09,7.07,8.22,0,0,3.95-12.93,8.69-12.22,0,0,4.16,2.52-.83,14.42,0,0,8.47-10.31,12.27-7.49,0,0,4.66,2.8-7.63,11.88,0,0,13.28-6.29,14.2-3,0,0,4.17,3.38-11.54,9.78,0,0,8.11,2.11,9,5.93,0,0-1.88,3.82-13.51.33,0,0-5.24,11.87-8.39,12.37,0,0-5,1.22-11.78-2.95,0,0-15.12,16-22.17,17.91Z"/>
          <path d="M681.74,614.55l1.94,3.18S667.05,635,661.51,635.64L659,632.31S678,621.39,681.74,614.55Z"/>
        </g>
      </g>
      <g>
        <g>
          <path class="b1929cff-6d9e-4fcd-b8d4-878cc9966211" d="M962.69,683.51s19-9.67,23.26-16.52c0,0-6.43-8.85-5.66-12.11,0,0,9-5.84,12.87-6.36,0,0-6.27-13.95-1.29-15.06,0,0,4.27-1.88,6.61,8.44,0,0,4.51-12.6,9.16-11.68,0,0,4,2.68-1.49,14.22,0,0,8.85-9.81,12.47-6.85,0,0,4.48,3-8.08,11.4,0,0,13.42-5.61,14.18-2.28,0,0,4,3.53-11.86,9.14,0,0,7.91,2.46,8.6,6.28,0,0-2,3.68-13.37-.3,0,0-5.72,11.5-8.86,11.85,0,0-5,1-11.51-3.46,0,0-15.68,15.15-22.74,16.69Z"/>
          <path d="M986,667l1.77,3.23S970.5,686.5,965,686.91l-2.29-3.4S981.91,673.58,986,667Z"/>
        </g>
        <g>
          <path class="b1929cff-6d9e-4fcd-b8d4-878cc9966211" d="M867.33,676.92s-25.15-2.43-32.64-7.33c0,0,3.63-10.45,1.45-13.22,0,0-12.41-2.33-16.93-1.47,0,0,1.39-15.14-4.63-14.46,0,0-5.52-.27-4,10.14,0,0-10.1-10.16-14.93-7.7,0,0-3.38,3.88,7.38,12.71,0,0-13.83-6.06-16.69-2.05,0,0-3.81,4.32,13.62,7.81,0,0-17.26-.59-16.77,2.78,0,0-3,4.66,16.93,4.4,0,0-7.86,5-7.09,8.82,0,0,3.76,2.72,14.82-4.9,0,0,11,8.72,14.68,8,0,0,6-.83,11.47-7.2,0,0,23.62,8.67,32.12,7.66Z"/>
          <path d="M834.69,669.59l-.68,3.62s25.8,9.19,32.12,7.66l1.2-4S841.85,674.32,834.69,669.59Z"/>
        </g>
        <g>
          <path class="aa2f203a-2fae-4bb4-86a2-6385422f8f6c" d="M929,635.09s60.21,2.68,38.7,100.95c0,0-10.66,68.76-69.2,52.3C898.49,788.34,1002.91,759.35,929,635.09Z"/>
          <g>
            <path class="a32ea5e5-0c0a-43b8-b593-146509e1bbeb" d="M923.37,726.86s-36.1,29-54.91-28.64c0,0-24.83-74.24,59.48-63.39,0,0,32.85,6.86,33.24,40.13,0,0,15.24,66.84-26.78,103.59,0,0-50.54,34.79-65.6-24.29,0,0,21.9-6.4,25.61-3.8,0,0,22.34,29.95,35.33-4.59C929.74,745.87,937.38,722.44,923.37,726.86Z"/>
            <g>
              <ellipse class="b53285bf-2b78-4a04-8223-704e0bbe1644" cx="905.66" cy="681.9" rx="19.7" ry="26.75" transform="translate(-49.33 70.99) rotate(-4.37)"/>
              <path class="aa2f203a-2fae-4bb4-86a2-6385422f8f6c" d="M906.22,708.61s-21.5-36.08,5.51-51.73c0,0-22.75-10.19-25.81,24.13C885.92,681,885.76,704.73,906.22,708.61Z"/>
            </g>
          </g>
        </g>
        <path class="f93c4cfd-53cf-4af3-ab74-57dd956c18dd" d="M915.8,674.46s20.07,8,29.28-12C945.08,662.44,944,720.66,915.8,674.46Z"/>
        <g>
          <ellipse class="b0b783b5-1679-49af-8660-fc2268e4a50b" cx="911.91" cy="633.56" rx="12.25" ry="22.75" transform="translate(-55.92 89.25) rotate(-5.44)"/>
          <ellipse class="b0b783b5-1679-49af-8660-fc2268e4a50b" cx="938.47" cy="632.02" rx="12.25" ry="22.75" transform="matrix(1, -0.09, 0.09, 1, -55.66, 91.76)"/>
          <ellipse class="fbd81d81-7c3a-4966-b829-ae094db863db" cx="910.61" cy="634.46" rx="3.44" ry="5.04" transform="translate(-56.01 89.13) rotate(-5.44)"/>
          <ellipse class="fbd81d81-7c3a-4966-b829-ae094db863db" cx="938.6" cy="631.8" rx="3.32" ry="5.04" transform="translate(-55.64 91.77) rotate(-5.44)"/>
        </g>
      </g>
      <g>
        <g>
          <path class="f13b94ba-2a63-4b78-860f-0d926c0ac32c" d="M616.61,312.38s6.31,3.09,10.09,1.88c0,0,20.81-16.39,17.28-30.25l-6.63-11.95a46.26,46.26,0,0,0-6.35,3.53c-2.4,1.72-4.88,7.25-6.69,10s-4.56,5.69-5.85,9.77S616.61,312.38,616.61,312.38Z"/>
          <g>
            <path class="f13b94ba-2a63-4b78-860f-0d926c0ac32c" d="M652.72,208.16s9,1.3,10.64,4.32c0,0,31.22,107.13,52.81,146.77,0,0,2.28,6.25-36.51,22.23,0,0-2.54,2.2-8.29-3.9l32-22.5-49-102.17-4-22.12Z"/>
            <path class="a71435c7-f5a7-433d-8f8d-6b9341e9d889" d="M597.6,282.05s29.14-19.13,32.79-58.53l22.33-15.36s35.54,119.31,53.73,150l-35.08,19.46s-18.28-72.92-33.1-100.29c0,0-7,30.13-21.66,35.09C616.61,312.38,609.05,305.89,597.6,282.05Z"/>
          </g>
        </g>
        <path class="f93c4cfd-53cf-4af3-ab74-57dd956c18dd" d="M638,275.53s19.34,6.07,26.57-13.29C664.53,262.24,667.54,316.82,638,275.53Z"/>
        <g>
          <ellipse class="b0b783b5-1679-49af-8660-fc2268e4a50b" cx="622.89" cy="249.14" rx="11.5" ry="21.36" transform="translate(-42.66 333.46) rotate(-29.02)"/>
          <ellipse class="b0b783b5-1679-49af-8660-fc2268e4a50b" cx="645.16" cy="237.84" rx="11.5" ry="21.36" transform="translate(-34.38 342.84) rotate(-29.02)"/>
          <ellipse class="fbd81d81-7c3a-4966-b829-ae094db863db" cx="622.1" cy="250.4" rx="3.23" ry="4.73" transform="translate(-43.37 333.23) rotate(-29.02)"/>
          <ellipse class="fbd81d81-7c3a-4966-b829-ae094db863db" cx="645.19" cy="237.59" rx="3.11" ry="4.73" transform="translate(-34.25 342.83) rotate(-29.02)"/>
        </g>
        <g>
          <path class="b1929cff-6d9e-4fcd-b8d4-878cc9966211" d="M682.1,280.72s13.22-10.21,15.49-16.11c0,0-6.26-5.92-6.14-8.56,0,0,6.07-5.81,9-6.76,0,0-6.88-9.9-3.21-11.47,0,0,3-2.07,6.33,5.58,0,0,1.62-10.39,5.34-10.34,0,0,3.47,1.5.94,11.21,0,0,5.38-8.85,8.6-7.08,0,0,3.89,1.67-4.55,10,0,0,9.51-6.27,10.58-3.8,0,0,3.58,2.17-7.79,8.77,0,0,6.46.77,7.55,3.63,0,0-1,3.14-10.34,1.68,0,0-2.72,9.71-5.08,10.43,0,0-3.73,1.48-9.38-1,0,0-9.85,14-15.06,16.17Z"/>
          <path d="M697.59,264.61l1.83,2.24S688.55,281.92,684.36,283l-2.26-2.3S695.44,270.28,697.59,264.61Z"/>
        </g>
        <g>
          <path class="b1929cff-6d9e-4fcd-b8d4-878cc9966211" d="M654.07,316.74S634,329.34,625.6,330c0,0-3.28-9.85-6.49-10.66,0,0-10.56,5.38-13.43,8.61,0,0-7.64-12.07-11.73-8.11,0,0-4.26,3,2.84,9.83,0,0-13.33-1.78-15.51,2.82,0,0-.3,4.82,12.77,5.23,0,0-13.76,3.42-13.59,8,0,0-.36,5.4,14.6-2,0,0-13.17,9.45-10.88,11.67,0,0,.43,5.19,15.12-6.42,0,0-3,8.24-.23,10.62,0,0,4.35-.13,8.22-12.14,0,0,13.19.18,15.47-2.48,0,0,4-4.06,4.41-11.93,0,0,22.54-7.07,28.28-12.7Z"/>
          <path d="M625.6,330l1.57,3.08s24.45-7.94,28.28-12.7l-1.38-3.62S633.64,329.4,625.6,330Z"/>
        </g>
      </g>
    </g>
  </g>
</svg>