<svg id="Layer_1" data-name="Layer 1" xmlns="http://www.w3.org/2000/svg" viewBox="0 0 30.69 49.26"><defs><style>.cls-1{fill:#5c5249;}.cls-2{fill:#e8c11c;}.cls-2,.cls-3{stroke:#333024;stroke-miterlimit:10;stroke-width:0.5px;}.cls-3{fill:#f4de71;}.cls-4{fill:#a2c943;opacity:0.5;}</style></defs><path class="cls-1" d="M2.1,47.78c0-.8.19-1.05-.05-1.77s-.74-.69-1-.81-.37.19-.69,0c-.58,1.89-.07,1-.26,1.41s.37.22.49.58a3.2,3.2,0,0,0,.54,1.1c.14.07.19.3.47.49A1.06,1.06,0,0,0,2.1,47.78Z"/><path class="cls-1" d="M8.19,4c.28-.58,1.33-.24,1.56-.71S9,3,9.08,2.16,8.22,1.34,8.75.83s.56.5.81,0A.89.89,0,0,0,9.63.57a2.21,2.21,0,0,0-1-.52C8,0,7.88,1,8,1.33s-.32,1-.38,1.12a5.61,5.61,0,0,1-.22.94,2.72,2.72,0,0,0-.23,1.37c.11.31.45.15.63.24s.33-.21.7-.16h0A.64.64,0,0,1,8.19,4Z"/><path class="cls-2" d="M16.27,4.51c-3.69.28-5.74-3.16-5.74-3.16a9.6,9.6,0,0,0-.9-.78.89.89,0,0,1-.07.26c-.25.5-.28-.51-.81,0s.38.5.33,1.33.9.63.67,1.1C16,7.07,16.39,7.89,16.39,7.89,33.28,30,2.05,46,2.05,46c.24.72.05,1,.05,1.77a1.06,1.06,0,0,1-.5,1l.12.07a48.29,48.29,0,0,0,5,.06C8.52,49,22,45.75,28.72,29S20,4.23,16.27,4.51Z"/><path class="cls-3" d="M16.39,7.89S16,7.07,9.75,3.26c-.23.47-1.28.13-1.56.71a.64.64,0,0,0,.3.87.81.81,0,0,1,.27.08s3.85,1.69,4.35,3.18a38.71,38.71,0,0,0,2.32,5.6c1.06,2,2.92,11.57-5.25,20.15s-8.94,8.63-9.7,11c0,.14-.08.26-.12.38.32.16.44-.16.69,0s.75.08,1,.81C2.05,46,33.28,30,16.39,7.89Z"/><path class="cls-4" d="M16.73,4.52a2.4,2.4,0,0,0-.46,0c-3.69.28-5.74-3.16-5.74-3.16a9.6,9.6,0,0,0-.9-.78.89.89,0,0,1-.07.26c-.25.5-.28-.51-.81,0s.38.5.33,1.33.9.63.67,1.1S8.47,3.39,8.19,4a.64.64,0,0,0,.3.87.81.81,0,0,1,.27.08s3.85,1.69,4.35,3.18c.22.63.47,1.36.78,2.16C13.89,10.25,12.93,5.8,16.73,4.52Z"/></svg>