<svg id="Layer_1" data-name="Layer 1" xmlns="http://www.w3.org/2000/svg" viewBox="0 0 347.25 84.31"><defs><style>.cls-1,.cls-2,.cls-3{fill:#7f7b71;}.cls-2{stroke:#333024;stroke-miterlimit:10;stroke-width:0.5px;}.cls-3{opacity:0.5;}</style></defs><path class="cls-1" d="M42.19,64.2c0-.81.19-1.06-.06-1.78s-.74-.68-1-.81-.37.19-.69,0c-.58,1.89-.07,1-.26,1.41s.37.22.49.58.36,1,.53,1.1.2.31.47.49A1,1,0,0,0,42.19,64.2Z"/><path class="cls-1" d="M48.27,20.38c.29-.58,1.33-.24,1.57-.71s-.72-.27-.67-1.1-.87-.82-.33-1.33.56.51.81,0a1.38,1.38,0,0,0,.07-.26,2.21,2.21,0,0,0-1-.52c-.64,0-.74,1-.64,1.28s-.32,1-.37,1.12a6.23,6.23,0,0,1-.22.94,2.72,2.72,0,0,0-.23,1.37c.11.31.44.15.62.24s.33-.21.7-.16h0A.65.65,0,0,1,48.27,20.38Z"/><path class="cls-2" d="M56.36,20.92c-3.69.29-5.74-3.16-5.74-3.16a9.6,9.6,0,0,0-.9-.78,1.38,1.38,0,0,1-.07.26c-.25.51-.28-.51-.81,0s.38.51.33,1.33.9.63.67,1.1c6.24,3.81,6.64,4.63,6.64,4.63C73.37,46.41,42.13,62.42,42.13,62.42c.25.72.06,1,.06,1.78a1,1,0,0,1-.51,1l.12.07a47.72,47.72,0,0,0,5,.07c1.78,0,15.28-3.2,22-19.9S60,20.64,56.36,20.92Z"/><path class="cls-2" d="M56.48,24.3s-.4-.82-6.64-4.63c-.24.47-1.28.13-1.57.71a.65.65,0,0,0,.3.87.8.8,0,0,1,.28.08S52.7,23,53.2,24.51a39.69,39.69,0,0,0,2.31,5.6c1.07,2,2.93,11.57-5.25,20.15s-8.94,8.63-9.7,11l-.11.37c.32.16.44-.15.69,0s.75.08,1,.81C42.13,62.42,73.37,46.41,56.48,24.3Z"/><path class="cls-3" d="M56.82,20.93a2.42,2.42,0,0,0-.46,0c-3.69.29-5.74-3.16-5.74-3.16a9.6,9.6,0,0,0-.9-.78,1.38,1.38,0,0,1-.07.26c-.25.51-.28-.51-.81,0s.38.51.33,1.33.9.63.67,1.1-1.28.13-1.57.71a.65.65,0,0,0,.3.87.8.8,0,0,1,.28.08S52.7,23,53.2,24.51c.21.63.47,1.37.77,2.16C54,26.66,53,22.21,56.82,20.93Z"/><path class="cls-1" d="M104.79,64.2a4.23,4.23,0,0,0-.05-1.78c-.25-.73-.74-.68-1-.81s-.38.19-.7,0c-.58,1.89-.07,1-.26,1.41s.37.22.49.58.37,1,.54,1.1.19.31.47.49A1,1,0,0,0,104.79,64.2Z"/><path class="cls-1" d="M110.88,20.38c.28-.58,1.33-.24,1.56-.71s-.72-.27-.67-1.1-.86-.82-.33-1.33.56.51.81,0a.89.89,0,0,0,.07-.26,2.21,2.21,0,0,0-1-.52c-.64,0-.74,1-.63,1.28s-.32,1-.37,1.12a6.51,6.51,0,0,1-.23.94,2.72,2.72,0,0,0-.23,1.37c.11.31.45.15.63.24s.33-.21.7-.16h0A.64.64,0,0,1,110.88,20.38Z"/><path class="cls-2" d="M119,20.92c-3.69.29-5.74-3.16-5.74-3.16a9.6,9.6,0,0,0-.9-.78.89.89,0,0,1-.07.26c-.25.51-.28-.51-.81,0s.38.51.33,1.33.9.63.67,1.1c6.24,3.81,6.64,4.63,6.64,4.63C136,46.41,104.74,62.42,104.74,62.42a4.23,4.23,0,0,1,.05,1.78,1,1,0,0,1-.5,1,.35.35,0,0,0,.12.07,47.51,47.51,0,0,0,5,.07c1.78,0,15.28-3.2,22-19.9S122.65,20.64,119,20.92Z"/><path class="cls-2" d="M119.08,24.3s-.4-.82-6.64-4.63c-.23.47-1.28.13-1.56.71a.64.64,0,0,0,.3.87.81.81,0,0,1,.27.08s3.85,1.69,4.36,3.18a37.43,37.43,0,0,0,2.31,5.6c1.06,2,2.92,11.57-5.25,20.15s-8.94,8.63-9.7,11c0,.13-.08.26-.12.37.32.16.44-.15.7,0s.74.08,1,.81C104.74,62.42,136,46.41,119.08,24.3Z"/><path class="cls-3" d="M119.42,20.93a2.4,2.4,0,0,0-.46,0c-3.69.29-5.74-3.16-5.74-3.16a9.6,9.6,0,0,0-.9-.78.89.89,0,0,1-.07.26c-.25.51-.28-.51-.81,0s.38.51.33,1.33.9.63.67,1.1-1.28.13-1.56.71a.64.64,0,0,0,.3.87.81.81,0,0,1,.27.08s3.85,1.69,4.36,3.18c.21.63.46,1.37.77,2.16C116.58,26.66,115.62,22.21,119.42,20.93Z"/><path class="cls-1" d="M164.47,64.2c0-.81.19-1.06-.05-1.78s-.74-.68-1-.81-.37.19-.69,0c-.58,1.89-.07,1-.26,1.41s.37.22.49.58.37,1,.54,1.1.19.31.47.49A1,1,0,0,0,164.47,64.2Z"/><path class="cls-1" d="M170.56,20.38c.28-.58,1.33-.24,1.56-.71s-.72-.27-.67-1.1-.86-.82-.33-1.33.56.51.81,0A.89.89,0,0,0,172,17a2.21,2.21,0,0,0-1-.52c-.64,0-.74,1-.63,1.28s-.32,1-.38,1.12a5.2,5.2,0,0,1-.22.94,2.72,2.72,0,0,0-.23,1.37c.11.31.44.15.63.24s.32-.21.7-.16h0A.64.64,0,0,1,170.56,20.38Z"/><path class="cls-2" d="M178.64,20.92c-3.69.29-5.74-3.16-5.74-3.16A9.6,9.6,0,0,0,172,17a.89.89,0,0,1-.07.26c-.25.51-.28-.51-.81,0s.38.51.33,1.33.9.63.67,1.1c6.24,3.81,6.64,4.63,6.64,4.63,16.89,22.11-14.34,38.12-14.34,38.12.24.72.05,1,.05,1.78a1,1,0,0,1-.5,1,.35.35,0,0,0,.12.07,47.51,47.51,0,0,0,5,.07c1.78,0,15.28-3.2,22-19.9S182.33,20.64,178.64,20.92Z"/><path class="cls-2" d="M178.76,24.3s-.4-.82-6.64-4.63c-.23.47-1.28.13-1.56.71a.64.64,0,0,0,.3.87.81.81,0,0,1,.27.08S175,23,175.48,24.51a38.71,38.71,0,0,0,2.32,5.6c1.06,2,2.92,11.57-5.25,20.15s-8.94,8.63-9.7,11c0,.13-.09.26-.12.37.32.16.44-.15.69,0s.75.08,1,.81C164.42,62.42,195.65,46.41,178.76,24.3Z"/><path class="cls-3" d="M179.1,20.93a2.42,2.42,0,0,0-.46,0c-3.69.29-5.74-3.16-5.74-3.16A9.6,9.6,0,0,0,172,17a.89.89,0,0,1-.07.26c-.25.51-.28-.51-.81,0s.38.51.33,1.33.9.63.67,1.1-1.28.13-1.56.71a.64.64,0,0,0,.3.87.81.81,0,0,1,.27.08S175,23,175.48,24.51c.22.63.47,1.37.78,2.16C176.26,26.66,175.29,22.21,179.1,20.93Z"/><path class="cls-1" d="M229.12,64.2a4.23,4.23,0,0,0-.05-1.78c-.25-.73-.74-.68-1-.81s-.38.19-.7,0c-.58,1.89-.07,1-.26,1.41s.37.22.5.58.36,1,.53,1.1.19.31.47.49A1,1,0,0,0,229.12,64.2Z"/><path class="cls-1" d="M235.21,20.38c.28-.58,1.33-.24,1.56-.71s-.72-.27-.67-1.1-.86-.82-.33-1.33.56.51.81,0a.89.89,0,0,0,.07-.26,2.17,2.17,0,0,0-1-.52c-.64,0-.74,1-.63,1.28s-.32,1-.37,1.12a6.51,6.51,0,0,1-.23.94,2.61,2.61,0,0,0-.22,1.37c.1.31.44.15.62.24s.33-.21.7-.16h0A.64.64,0,0,1,235.21,20.38Z"/><path class="cls-2" d="M243.29,20.92c-3.69.29-5.74-3.16-5.74-3.16a9.6,9.6,0,0,0-.9-.78.89.89,0,0,1-.07.26c-.25.51-.27-.51-.81,0s.38.51.33,1.33.9.63.67,1.1c6.24,3.81,6.64,4.63,6.64,4.63,16.89,22.11-14.34,38.12-14.34,38.12a4.23,4.23,0,0,1,.05,1.78,1,1,0,0,1-.5,1,.35.35,0,0,0,.12.07,47.51,47.51,0,0,0,5,.07c1.78,0,15.28-3.2,22-19.9S247,20.64,243.29,20.92Z"/><path class="cls-2" d="M243.41,24.3s-.4-.82-6.64-4.63c-.23.47-1.28.13-1.56.71a.64.64,0,0,0,.3.87.81.81,0,0,1,.27.08s3.85,1.69,4.36,3.18a37.43,37.43,0,0,0,2.31,5.6c1.06,2,2.92,11.57-5.25,20.15s-8.94,8.63-9.7,11c-.05.13-.08.26-.12.37.32.16.44-.15.7,0s.74.08,1,.81C229.07,62.42,260.3,46.41,243.41,24.3Z"/><path class="cls-3" d="M243.75,20.93a2.4,2.4,0,0,0-.46,0c-3.69.29-5.74-3.16-5.74-3.16a9.6,9.6,0,0,0-.9-.78.89.89,0,0,1-.07.26c-.25.51-.27-.51-.81,0s.38.51.33,1.33.9.63.67,1.1-1.28.13-1.56.71a.64.64,0,0,0,.3.87.81.81,0,0,1,.27.08s3.85,1.69,4.36,3.18c.21.63.46,1.37.77,2.16C240.91,26.66,240,22.21,243.75,20.93Z"/><path class="cls-1" d="M284.71,64.2c0-.81.19-1.06-.06-1.78s-.74-.68-1-.81-.38.19-.7,0c-.57,1.89-.07,1-.26,1.41s.38.22.5.58.36,1,.53,1.1.2.31.47.49A1,1,0,0,0,284.71,64.2Z"/><path class="cls-1" d="M290.79,20.38c.29-.58,1.33-.24,1.56-.71s-.72-.27-.67-1.1-.86-.82-.33-1.33.56.51.81,0a.88.88,0,0,0,.08-.26,2.26,2.26,0,0,0-1-.52c-.64,0-.74,1-.64,1.28s-.32,1-.37,1.12a7.78,7.78,0,0,1-.22.94,2.53,2.53,0,0,0-.23,1.37c.1.31.44.15.62.24s.33-.21.7-.16h0A.64.64,0,0,1,290.79,20.38Z"/><path class="cls-2" d="M298.87,20.92c-3.69.29-5.74-3.16-5.74-3.16a10.29,10.29,0,0,0-.89-.78.88.88,0,0,1-.08.26c-.25.51-.27-.51-.81,0s.38.51.33,1.33.91.63.67,1.1c6.24,3.81,6.64,4.63,6.64,4.63,16.89,22.11-14.34,38.12-14.34,38.12.25.72.06,1,.06,1.78a1,1,0,0,1-.51,1l.12.07a47.65,47.65,0,0,0,5,.07c1.77,0,15.27-3.2,22-19.9S302.56,20.64,298.87,20.92Z"/><path class="cls-2" d="M299,24.3s-.4-.82-6.64-4.63c-.23.47-1.27.13-1.56.71a.64.64,0,0,0,.3.87.81.81,0,0,1,.27.08s3.86,1.69,4.36,3.18a38.53,38.53,0,0,0,2.31,5.6c1.06,2,2.92,11.57-5.25,20.15s-8.94,8.63-9.7,11c0,.13-.08.26-.12.37.32.16.45-.15.7,0s.75.08,1,.81C284.65,62.42,315.88,46.41,299,24.3Z"/><path class="cls-3" d="M299.33,20.93a2.4,2.4,0,0,0-.46,0c-3.69.29-5.74-3.16-5.74-3.16a10.29,10.29,0,0,0-.89-.78.88.88,0,0,1-.08.26c-.25.51-.27-.51-.81,0s.38.51.33,1.33.91.63.67,1.1-1.27.13-1.56.71a.64.64,0,0,0,.3.87.81.81,0,0,1,.27.08s3.86,1.69,4.36,3.18c.21.63.47,1.37.77,2.16C296.49,26.66,295.53,22.21,299.33,20.93Z"/></svg>