<svg xmlns="http://www.w3.org/2000/svg" xmlns:xlink="http://www.w3.org/1999/xlink" viewBox="0 0 185.65 286.59"><defs><style>.cls-1{isolation:isolate;}.cls-2{fill:url(#linear-gradient);}.cls-3{fill:url(#linear-gradient-2);}.cls-4{fill:url(#linear-gradient-3);}.cls-100,.cls-103,.cls-105,.cls-108,.cls-11,.cls-110,.cls-113,.cls-115,.cls-118,.cls-120,.cls-123,.cls-125,.cls-128,.cls-130,.cls-133,.cls-135,.cls-139,.cls-14,.cls-142,.cls-144,.cls-147,.cls-149,.cls-152,.cls-154,.cls-157,.cls-159,.cls-16,.cls-162,.cls-164,.cls-166,.cls-168,.cls-171,.cls-173,.cls-176,.cls-178,.cls-181,.cls-183,.cls-186,.cls-188,.cls-19,.cls-191,.cls-194,.cls-196,.cls-198,.cls-200,.cls-203,.cls-205,.cls-207,.cls-209,.cls-21,.cls-211,.cls-214,.cls-216,.cls-219,.cls-221,.cls-224,.cls-226,.cls-229,.cls-230,.cls-26,.cls-30,.cls-32,.cls-35,.cls-37,.cls-40,.cls-42,.cls-45,.cls-47,.cls-5,.cls-51,.cls-53,.cls-55,.cls-57,.cls-60,.cls-62,.cls-65,.cls-67,.cls-70,.cls-72,.cls-75,.cls-77,.cls-80,.cls-83,.cls-85,.cls-87,.cls-89,.cls-9,.cls-92,.cls-94,.cls-96,.cls-98{mix-blend-mode:multiply;}.cls-5{fill:url(#linear-gradient-4);}.cls-6{fill:#f9e33c;}.cls-22,.cls-27,.cls-48,.cls-6{mix-blend-mode:screen;opacity:0.75;}.cls-7{fill:url(#linear-gradient-5);}.cls-8{fill:url(#linear-gradient-6);}.cls-9{fill:url(#linear-gradient-7);}.cls-10{fill:url(#linear-gradient-8);}.cls-11{fill:url(#linear-gradient-9);}.cls-12{fill:url(#linear-gradient-10);}.cls-13{fill:url(#linear-gradient-11);}.cls-14{fill:url(#linear-gradient-12);}.cls-15{fill:url(#linear-gradient-13);}.cls-16{fill:url(#linear-gradient-14);}.cls-17{fill:url(#linear-gradient-15);}.cls-18{fill:url(#linear-gradient-16);}.cls-19{fill:url(#linear-gradient-17);}.cls-20{fill:url(#linear-gradient-18);}.cls-21{fill:url(#linear-gradient-19);}.cls-22{fill:#f9e018;}.cls-23{fill:url(#linear-gradient-20);}.cls-24{fill:url(#linear-gradient-21);}.cls-25{fill:url(#linear-gradient-22);}.cls-26{fill:url(#linear-gradient-23);}.cls-27{fill:#ffff5e;}.cls-28{fill:url(#linear-gradient-24);}.cls-29{fill:url(#linear-gradient-25);}.cls-30{fill:url(#linear-gradient-26);}.cls-31{fill:url(#linear-gradient-27);}.cls-32{fill:url(#linear-gradient-28);}.cls-33{fill:url(#linear-gradient-29);}.cls-34{fill:url(#linear-gradient-30);}.cls-35{fill:url(#linear-gradient-31);}.cls-36{fill:url(#linear-gradient-32);}.cls-37{fill:url(#linear-gradient-33);}.cls-38{fill:url(#linear-gradient-34);}.cls-39{fill:url(#linear-gradient-35);}.cls-40{fill:url(#linear-gradient-36);}.cls-41{fill:url(#linear-gradient-37);}.cls-42{fill:url(#linear-gradient-38);}.cls-43{fill:url(#linear-gradient-39);}.cls-44{fill:url(#linear-gradient-40);}.cls-45{fill:url(#linear-gradient-41);}.cls-46{fill:url(#linear-gradient-42);}.cls-47{fill:url(#linear-gradient-43);}.cls-48{fill:#ffff3b;}.cls-49{fill:url(#linear-gradient-44);}.cls-50{fill:url(#linear-gradient-45);}.cls-51{fill:url(#linear-gradient-46);}.cls-52{fill:url(#linear-gradient-47);}.cls-53{fill:url(#linear-gradient-48);}.cls-54{fill:url(#linear-gradient-49);}.cls-55{fill:url(#linear-gradient-50);}.cls-56{fill:url(#linear-gradient-51);}.cls-57{fill:url(#linear-gradient-52);}.cls-58{fill:url(#linear-gradient-53);}.cls-59{fill:url(#linear-gradient-54);}.cls-60{fill:url(#linear-gradient-55);}.cls-61{fill:url(#linear-gradient-56);}.cls-62{fill:url(#linear-gradient-57);}.cls-63{fill:url(#linear-gradient-58);}.cls-64{fill:url(#linear-gradient-59);}.cls-65{fill:url(#linear-gradient-60);}.cls-66{fill:url(#linear-gradient-61);}.cls-67{fill:url(#linear-gradient-62);}.cls-68{fill:url(#linear-gradient-63);}.cls-69{fill:url(#linear-gradient-64);}.cls-70{fill:url(#linear-gradient-65);}.cls-71{fill:url(#linear-gradient-66);}.cls-72{fill:url(#linear-gradient-67);}.cls-73{fill:url(#linear-gradient-68);}.cls-74{fill:url(#linear-gradient-69);}.cls-75{fill:url(#linear-gradient-70);}.cls-76{fill:url(#linear-gradient-71);}.cls-77{fill:url(#linear-gradient-72);}.cls-78{fill:url(#linear-gradient-73);}.cls-79{fill:url(#linear-gradient-74);}.cls-80{fill:url(#linear-gradient-75);}.cls-81{fill:url(#linear-gradient-76);}.cls-82{fill:url(#linear-gradient-77);}.cls-83{fill:url(#linear-gradient-78);}.cls-84{fill:url(#linear-gradient-79);}.cls-85{fill:url(#linear-gradient-80);}.cls-86{fill:url(#linear-gradient-81);}.cls-87{fill:url(#linear-gradient-82);}.cls-88{fill:url(#linear-gradient-83);}.cls-89{fill:url(#linear-gradient-84);}.cls-90{fill:url(#linear-gradient-85);}.cls-91{fill:url(#linear-gradient-86);}.cls-92{fill:url(#linear-gradient-87);}.cls-93{fill:url(#linear-gradient-88);}.cls-94{fill:url(#linear-gradient-89);}.cls-95{fill:url(#linear-gradient-90);}.cls-96{fill:url(#linear-gradient-91);}.cls-97{fill:url(#linear-gradient-92);}.cls-98{fill:url(#linear-gradient-93);}.cls-99{fill:url(#linear-gradient-94);}.cls-100{fill:url(#linear-gradient-95);}.cls-101{fill:url(#linear-gradient-96);}.cls-102{fill:url(#linear-gradient-97);}.cls-103{fill:url(#linear-gradient-98);}.cls-104{fill:url(#linear-gradient-99);}.cls-105{fill:url(#linear-gradient-100);}.cls-106{fill:url(#linear-gradient-101);}.cls-107{fill:url(#linear-gradient-102);}.cls-108{fill:url(#linear-gradient-103);}.cls-109{fill:url(#linear-gradient-104);}.cls-110{fill:url(#linear-gradient-105);}.cls-111{fill:url(#linear-gradient-106);}.cls-112{fill:url(#linear-gradient-107);}.cls-113{fill:url(#linear-gradient-108);}.cls-114{fill:url(#linear-gradient-109);}.cls-115{fill:url(#linear-gradient-110);}.cls-116{fill:url(#linear-gradient-111);}.cls-117{fill:url(#linear-gradient-112);}.cls-118{fill:url(#linear-gradient-113);}.cls-119{fill:url(#linear-gradient-114);}.cls-120{fill:url(#linear-gradient-115);}.cls-121{fill:url(#linear-gradient-116);}.cls-122{fill:url(#linear-gradient-117);}.cls-123{fill:url(#linear-gradient-118);}.cls-124{fill:url(#linear-gradient-119);}.cls-125{fill:url(#linear-gradient-120);}.cls-126{fill:url(#linear-gradient-121);}.cls-127{fill:url(#linear-gradient-122);}.cls-128{fill:url(#linear-gradient-123);}.cls-129{fill:url(#linear-gradient-124);}.cls-130{fill:url(#linear-gradient-125);}.cls-131{fill:url(#linear-gradient-126);}.cls-132{fill:url(#linear-gradient-127);}.cls-133{fill:url(#linear-gradient-128);}.cls-134{fill:url(#linear-gradient-129);}.cls-135{fill:url(#linear-gradient-130);}.cls-136{fill:url(#linear-gradient-131);}.cls-137{fill:url(#linear-gradient-132);}.cls-138{fill:url(#linear-gradient-133);}.cls-139{fill:url(#linear-gradient-134);}.cls-140{fill:url(#linear-gradient-135);}.cls-141{fill:url(#linear-gradient-136);}.cls-142{fill:url(#linear-gradient-137);}.cls-143{fill:url(#linear-gradient-138);}.cls-144{fill:url(#linear-gradient-139);}.cls-145{fill:url(#linear-gradient-140);}.cls-146{fill:url(#linear-gradient-141);}.cls-147{fill:url(#linear-gradient-142);}.cls-148{fill:url(#linear-gradient-143);}.cls-149{fill:url(#linear-gradient-144);}.cls-150{fill:url(#linear-gradient-145);}.cls-151{fill:url(#linear-gradient-146);}.cls-152{fill:url(#linear-gradient-147);}.cls-153{fill:url(#linear-gradient-148);}.cls-154{fill:url(#linear-gradient-149);}.cls-155{fill:url(#linear-gradient-150);}.cls-156{fill:url(#linear-gradient-151);}.cls-157{fill:url(#linear-gradient-152);}.cls-158{fill:url(#linear-gradient-153);}.cls-159{fill:url(#linear-gradient-154);}.cls-160{fill:url(#linear-gradient-155);}.cls-161{fill:url(#linear-gradient-156);}.cls-162{fill:url(#linear-gradient-157);}.cls-163{fill:url(#linear-gradient-158);}.cls-164{fill:url(#linear-gradient-159);}.cls-165{fill:url(#linear-gradient-160);}.cls-166{fill:url(#linear-gradient-161);}.cls-167{fill:url(#linear-gradient-162);}.cls-168{fill:url(#linear-gradient-163);}.cls-169{fill:url(#linear-gradient-164);}.cls-170{fill:url(#linear-gradient-165);}.cls-171{fill:url(#linear-gradient-166);}.cls-172{fill:url(#linear-gradient-167);}.cls-173{fill:url(#linear-gradient-168);}.cls-174{fill:url(#linear-gradient-169);}.cls-175{fill:url(#linear-gradient-170);}.cls-176{fill:url(#linear-gradient-171);}.cls-177{fill:url(#linear-gradient-172);}.cls-178{fill:url(#linear-gradient-173);}.cls-179{fill:url(#linear-gradient-174);}.cls-180{fill:url(#linear-gradient-175);}.cls-181{fill:url(#linear-gradient-176);}.cls-182{fill:url(#linear-gradient-177);}.cls-183{fill:url(#linear-gradient-178);}.cls-184{fill:url(#linear-gradient-179);}.cls-185{fill:url(#linear-gradient-180);}.cls-186{fill:url(#linear-gradient-181);}.cls-187{fill:url(#linear-gradient-182);}.cls-188{fill:url(#linear-gradient-183);}.cls-189{fill:url(#linear-gradient-184);}.cls-190{fill:url(#linear-gradient-185);}.cls-191{fill:url(#linear-gradient-186);}.cls-192{fill:url(#linear-gradient-187);}.cls-193{fill:url(#linear-gradient-188);}.cls-194{fill:url(#linear-gradient-189);}.cls-195{fill:url(#linear-gradient-190);}.cls-196{fill:url(#linear-gradient-191);}.cls-197{fill:url(#linear-gradient-192);}.cls-198{fill:url(#linear-gradient-193);}.cls-199{fill:url(#linear-gradient-194);}.cls-200{fill:url(#linear-gradient-195);}.cls-201{fill:url(#linear-gradient-196);}.cls-202{fill:url(#linear-gradient-197);}.cls-203{fill:url(#linear-gradient-198);}.cls-204{fill:url(#linear-gradient-199);}.cls-205{fill:url(#linear-gradient-200);}.cls-206{fill:url(#linear-gradient-201);}.cls-207{fill:url(#linear-gradient-202);}.cls-208{fill:url(#linear-gradient-203);}.cls-209{fill:url(#linear-gradient-204);}.cls-210{fill:url(#linear-gradient-205);}.cls-211{fill:url(#linear-gradient-206);}.cls-212{fill:url(#linear-gradient-207);}.cls-213{fill:url(#linear-gradient-208);}.cls-214{fill:url(#linear-gradient-209);}.cls-215{fill:url(#linear-gradient-210);}.cls-216{fill:url(#linear-gradient-211);}.cls-217{fill:url(#linear-gradient-212);}.cls-218{fill:url(#linear-gradient-213);}.cls-219{fill:url(#linear-gradient-214);}.cls-220{fill:url(#linear-gradient-215);}.cls-221{fill:url(#linear-gradient-216);}.cls-222{fill:url(#linear-gradient-217);}.cls-223{fill:url(#linear-gradient-218);}.cls-224{fill:url(#linear-gradient-219);}.cls-225{fill:url(#linear-gradient-220);}.cls-226{fill:url(#linear-gradient-221);}.cls-227{fill:url(#linear-gradient-222);}.cls-228{fill:url(#linear-gradient-223);}.cls-229{fill:url(#linear-gradient-224);}.cls-230{fill:url(#linear-gradient-225);}</style><linearGradient id="linear-gradient" x1="1098.96" y1="148.64" x2="1152.27" y2="148.64" gradientTransform="matrix(-0.97, 0.25, 0.25, 0.97, 1150.71, -162.63)" gradientUnits="userSpaceOnUse"><stop offset="0" stop-color="#4c9800"/><stop offset="1" stop-color="#094b00"/></linearGradient><linearGradient id="linear-gradient-2" x1="125.61" y1="380.61" x2="177.59" y2="380.61" gradientTransform="translate(15.95 -138.88) rotate(10.15)" gradientUnits="userSpaceOnUse"><stop offset="0" stop-color="#a9bc00"/><stop offset="1" stop-color="#217900"/></linearGradient><linearGradient id="linear-gradient-3" x1="-1209.61" y1="455.36" x2="-1176.04" y2="464.26" gradientTransform="matrix(1, 0.04, -0.04, 1, 1297.25, -158.76)" gradientUnits="userSpaceOnUse"><stop offset="0" stop-color="#ffe30b"/><stop offset="1" stop-color="#c99300"/></linearGradient><linearGradient id="linear-gradient-4" x1="127.03" y1="364.53" x2="151.42" y2="371" gradientTransform="translate(15.95 -138.88) rotate(10.15)" xlink:href="#linear-gradient-3"/><linearGradient id="linear-gradient-5" x1="-1224.84" y1="489.44" x2="-1219.81" y2="490.78" gradientTransform="matrix(1, 0.04, -0.04, 1, 1297.25, -158.76)" gradientUnits="userSpaceOnUse"><stop offset="0" stop-color="#937500"/><stop offset="1" stop-color="#c99300"/></linearGradient><linearGradient id="linear-gradient-6" x1="-1186.86" y1="419.04" x2="-1190.34" y2="418.35" xlink:href="#linear-gradient-5"/><linearGradient id="linear-gradient-7" x1="135.93" y1="342.91" x2="135.03" y2="375.41" gradientTransform="translate(15.95 -138.88) rotate(10.15)" gradientUnits="userSpaceOnUse"><stop offset="0" stop-color="#cb8d00"/><stop offset="1" stop-color="#ffff2d"/></linearGradient><linearGradient id="linear-gradient-8" x1="-1087.59" y1="839.42" x2="-1052.78" y2="848.65" gradientTransform="translate(1376.86 -123.89) rotate(22.96)" xlink:href="#linear-gradient-3"/><linearGradient id="linear-gradient-9" x1="100.73" y1="353.9" x2="130.8" y2="361.88" gradientTransform="translate(15.95 -138.88) rotate(10.15)" xlink:href="#linear-gradient-3"/><linearGradient id="linear-gradient-10" x1="-1102.89" y1="872.81" x2="-1097.7" y2="874.18" gradientTransform="translate(1376.86 -123.89) rotate(22.96)" xlink:href="#linear-gradient-5"/><linearGradient id="linear-gradient-11" x1="-1064.21" y1="804.03" x2="-1067.8" y2="803.31" gradientTransform="translate(1376.86 -123.89) rotate(22.96)" xlink:href="#linear-gradient-5"/><linearGradient id="linear-gradient-12" x1="112.69" y1="343.04" x2="130.8" y2="350.91" xlink:href="#linear-gradient-7"/><linearGradient id="linear-gradient-13" x1="-1104.45" y1="808.72" x2="-1069.33" y2="818.04" gradientTransform="translate(1376.86 -123.89) rotate(22.96)" xlink:href="#linear-gradient-3"/><linearGradient id="linear-gradient-14" x1="91.33" y1="320.11" x2="121.56" y2="328.13" gradientTransform="translate(15.95 -138.88) rotate(10.15)" xlink:href="#linear-gradient-3"/><linearGradient id="linear-gradient-15" x1="-1119.59" y1="841.66" x2="-1114.39" y2="843.05" gradientTransform="translate(1376.86 -123.89) rotate(22.96)" xlink:href="#linear-gradient-5"/><linearGradient id="linear-gradient-16" x1="-1080.71" y1="773.38" x2="-1084.3" y2="772.66" gradientTransform="translate(1376.86 -123.89) rotate(22.96)" xlink:href="#linear-gradient-5"/><linearGradient id="linear-gradient-17" x1="101.81" y1="314.26" x2="114.76" y2="324.08" xlink:href="#linear-gradient-7"/><linearGradient id="linear-gradient-18" x1="-485.8" y1="1288.53" x2="-448.39" y2="1298.45" gradientTransform="translate(1420.02 -19.35) rotate(63.64)" gradientUnits="userSpaceOnUse"><stop offset="0" stop-color="#fede00"/><stop offset="1" stop-color="#c28300"/></linearGradient><linearGradient id="linear-gradient-19" x1="62.86" y1="253.21" x2="126.41" y2="270.06" gradientTransform="translate(15.95 -138.88) rotate(10.15)" xlink:href="#linear-gradient-18"/><linearGradient id="linear-gradient-20" x1="-501.45" y1="1321.52" x2="-496.22" y2="1322.91" gradientTransform="translate(1420.02 -19.35) rotate(63.64)" gradientUnits="userSpaceOnUse"><stop offset="0" stop-color="#7f6000"/><stop offset="1" stop-color="#c28300"/></linearGradient><linearGradient id="linear-gradient-21" x1="-458.64" y1="1254.97" x2="-462.37" y2="1254.23" xlink:href="#linear-gradient-20"/><linearGradient id="linear-gradient-22" x1="-726.46" y1="1225.11" x2="-689.46" y2="1234.93" gradientTransform="matrix(0.61, 0.79, -0.79, 0.61, 1460.46, -34.1)" gradientUnits="userSpaceOnUse"><stop offset="0" stop-color="#ffff2d"/><stop offset="1" stop-color="#ecc300"/></linearGradient><linearGradient id="linear-gradient-23" x1="70.17" y1="274.45" x2="125.7" y2="289.18" gradientTransform="translate(15.95 -138.88) rotate(10.15)" xlink:href="#linear-gradient-22"/><linearGradient id="linear-gradient-24" x1="-741.83" y1="1257.56" x2="-736.56" y2="1258.96" gradientTransform="matrix(0.61, 0.79, -0.79, 0.61, 1460.46, -34.1)" gradientUnits="userSpaceOnUse"><stop offset="0" stop-color="#ad9c00"/><stop offset="1" stop-color="#ecc300"/></linearGradient><linearGradient id="linear-gradient-25" x1="-700.25" y1="1191.1" x2="-703.96" y2="1190.36" xlink:href="#linear-gradient-24"/><linearGradient id="linear-gradient-26" x1="78.09" y1="284.55" x2="109.83" y2="276.88" gradientTransform="translate(15.95 -138.88) rotate(10.15)" gradientUnits="userSpaceOnUse"><stop offset="0" stop-color="#ab5c00"/><stop offset="1" stop-color="#ffff2d"/></linearGradient><linearGradient id="linear-gradient-27" x1="856.42" y1="-446.78" x2="887.1" y2="-438.64" gradientTransform="matrix(-0.74, 0.67, 0.67, 0.74, 1083.4, -78.27)" xlink:href="#linear-gradient-18"/><linearGradient id="linear-gradient-28" x1="152.39" y1="281.37" x2="224.51" y2="300.5" gradientTransform="translate(15.95 -138.88) rotate(10.15)" xlink:href="#linear-gradient-18"/><linearGradient id="linear-gradient-29" x1="842.14" y1="-412.72" x2="846.89" y2="-411.46" gradientTransform="matrix(-0.74, 0.67, 0.67, 0.74, 1083.4, -78.27)" xlink:href="#linear-gradient-20"/><linearGradient id="linear-gradient-30" x1="874.95" y1="-483.54" x2="871.65" y2="-484.2" gradientTransform="matrix(-0.74, 0.67, 0.67, 0.74, 1083.4, -78.27)" xlink:href="#linear-gradient-20"/><linearGradient id="linear-gradient-31" x1="203.66" y1="282.48" x2="145.85" y2="284.63" xlink:href="#linear-gradient-7"/><linearGradient id="linear-gradient-32" x1="1087.61" y1="184.82" x2="1119.97" y2="193.41" gradientTransform="matrix(-0.98, 0.18, 0.18, 0.98, 1172.51, -169.62)" xlink:href="#linear-gradient-3"/><linearGradient id="linear-gradient-33" x1="148.28" y1="319.99" x2="210.48" y2="336.49" gradientTransform="translate(15.95 -138.88) rotate(10.15)" xlink:href="#linear-gradient-3"/><linearGradient id="linear-gradient-34" x1="1072.36" y1="221.17" x2="1077.21" y2="222.46" gradientTransform="matrix(-0.98, 0.18, 0.18, 0.98, 1172.51, -169.62)" xlink:href="#linear-gradient-5"/><linearGradient id="linear-gradient-35" x1="1109.25" y1="146.42" x2="1105.84" y2="145.74" gradientTransform="matrix(-0.98, 0.18, 0.18, 0.98, 1172.51, -169.62)" xlink:href="#linear-gradient-5"/><linearGradient id="linear-gradient-36" x1="167.94" y1="327.4" x2="168.26" y2="347.95" xlink:href="#linear-gradient-7"/><linearGradient id="linear-gradient-37" x1="1119.94" y1="317.93" x2="1152.16" y2="326.49" gradientTransform="matrix(-1, 0.08, 0.08, 1, 1212.72, -168.77)" xlink:href="#linear-gradient-18"/><linearGradient id="linear-gradient-38" x1="140.88" y1="351.19" x2="198.05" y2="366.36" gradientTransform="translate(15.95 -138.88) rotate(10.15)" xlink:href="#linear-gradient-18"/><linearGradient id="linear-gradient-39" x1="1104.86" y1="353.65" x2="1109.66" y2="354.92" gradientTransform="matrix(-1, 0.08, 0.08, 1, 1212.72, -168.77)" xlink:href="#linear-gradient-20"/><linearGradient id="linear-gradient-40" x1="1141.79" y1="280.37" x2="1138.41" y2="279.7" gradientTransform="matrix(-1, 0.08, 0.08, 1, 1212.72, -168.77)" xlink:href="#linear-gradient-20"/><linearGradient id="linear-gradient-41" x1="157.54" y1="342.33" x2="156.53" y2="378.89" xlink:href="#linear-gradient-7"/><linearGradient id="linear-gradient-42" x1="1048.24" y1="-65.49" x2="1080.79" y2="-56.85" gradientTransform="matrix(-0.93, 0.37, 0.37, 0.93, 1141.02, -140.73)" gradientUnits="userSpaceOnUse"><stop offset="0" stop-color="#ff0"/><stop offset="1" stop-color="#e3b100"/></linearGradient><linearGradient id="linear-gradient-43" x1="149.44" y1="298.95" x2="219.56" y2="317.55" gradientTransform="translate(15.95 -138.88) rotate(10.15)" xlink:href="#linear-gradient-42"/><linearGradient id="linear-gradient-44" x1="1032.85" y1="-28.59" x2="1037.8" y2="-27.28" gradientTransform="matrix(-0.93, 0.37, 0.37, 0.93, 1141.02, -140.73)" gradientUnits="userSpaceOnUse"><stop offset="0" stop-color="#968300"/><stop offset="1" stop-color="#e3b100"/></linearGradient><linearGradient id="linear-gradient-45" x1="1069.24" y1="-104.83" x2="1065.78" y2="-105.52" xlink:href="#linear-gradient-44"/><linearGradient id="linear-gradient-46" x1="164.61" y1="297.22" x2="159.21" y2="304.26" xlink:href="#linear-gradient-7"/><linearGradient id="linear-gradient-47" x1="1087.28" y1="51.39" x2="1112.49" y2="52.99" gradientTransform="matrix(-0.96, 0.28, 0.28, 0.96, 1148.44, -159)" gradientUnits="userSpaceOnUse"><stop offset="0" stop-color="#ffff2d"/><stop offset="0.52" stop-color="#fbe306"/><stop offset="1" stop-color="#ecc300"/></linearGradient><linearGradient id="linear-gradient-48" x1="166.42" y1="344.26" x2="108.66" y2="272.92" gradientTransform="translate(15.95 -138.88) rotate(10.15)" xlink:href="#linear-gradient-22"/><linearGradient id="linear-gradient-49" x1="1102.05" y1="99.98" x2="1106.15" y2="99.98" gradientTransform="matrix(-0.96, 0.28, 0.28, 0.96, 1148.44, -159)" xlink:href="#linear-gradient-24"/><linearGradient id="linear-gradient-50" x1="142.94" y1="299.6" x2="134.77" y2="345.98" xlink:href="#linear-gradient-7"/><linearGradient id="linear-gradient-51" x1="898.07" y1="-377.09" x2="928.28" y2="-369.08" gradientTransform="matrix(-0.81, 0.59, 0.59, 0.81, 1097.4, -100.38)" xlink:href="#linear-gradient-18"/><linearGradient id="linear-gradient-52" x1="146.53" y1="239.14" x2="217.51" y2="257.97" gradientTransform="translate(15.95 -138.88) rotate(10.15)" xlink:href="#linear-gradient-18"/><linearGradient id="linear-gradient-53" x1="883.77" y1="-342.63" x2="888.46" y2="-341.38" gradientTransform="matrix(-0.81, 0.59, 0.59, 0.81, 1097.4, -100.38)" xlink:href="#linear-gradient-20"/><linearGradient id="linear-gradient-54" x1="916.52" y1="-414.24" x2="913.28" y2="-414.89" gradientTransform="matrix(-0.81, 0.59, 0.59, 0.81, 1097.4, -100.38)" xlink:href="#linear-gradient-20"/><linearGradient id="linear-gradient-55" x1="170.86" y1="237.38" x2="158.45" y2="246.97" xlink:href="#linear-gradient-7"/><linearGradient id="linear-gradient-56" x1="1022.71" y1="-142.88" x2="1055.92" y2="-134.07" gradientTransform="matrix(-0.92, 0.39, 0.39, 0.92, 1133.06, -136.13)" xlink:href="#linear-gradient-42"/><linearGradient id="linear-gradient-57" x1="132.85" y1="249.22" x2="205.92" y2="268.61" gradientTransform="translate(15.95 -138.88) rotate(10.15)" xlink:href="#linear-gradient-42"/><linearGradient id="linear-gradient-58" x1="1006.88" y1="-104.72" x2="1011.95" y2="-103.37" gradientTransform="matrix(-0.92, 0.39, 0.39, 0.92, 1133.06, -136.13)" xlink:href="#linear-gradient-44"/><linearGradient id="linear-gradient-59" x1="1044.03" y1="-183.59" x2="1040.48" y2="-184.29" gradientTransform="matrix(-0.92, 0.39, 0.39, 0.92, 1133.06, -136.13)" xlink:href="#linear-gradient-44"/><linearGradient id="linear-gradient-60" x1="158.79" y1="244.63" x2="159.38" y2="284.55" xlink:href="#linear-gradient-26"/><linearGradient id="linear-gradient-61" x1="582.37" y1="-868.86" x2="612.74" y2="-860.81" gradientTransform="matrix(-0.42, 0.79, 0.8, 0.43, 1085.44, -3.14)" xlink:href="#linear-gradient-18"/><linearGradient id="linear-gradient-62" x1="140.17" y1="207.4" x2="204.29" y2="224.42" gradientTransform="translate(15.95 -138.88) rotate(10.15)" xlink:href="#linear-gradient-18"/><linearGradient id="linear-gradient-63" x1="568.01" y1="-835.83" x2="572.84" y2="-834.55" gradientTransform="matrix(-0.42, 0.79, 0.8, 0.43, 1085.44, -3.14)" xlink:href="#linear-gradient-20"/><linearGradient id="linear-gradient-64" x1="599.54" y1="-904.86" x2="596.21" y2="-905.52" gradientTransform="matrix(-0.42, 0.79, 0.8, 0.43, 1085.44, -3.14)" xlink:href="#linear-gradient-20"/><linearGradient id="linear-gradient-65" x1="171.07" y1="201.01" x2="151.19" y2="216.37" xlink:href="#linear-gradient-7"/><linearGradient id="linear-gradient-66" x1="858.46" y1="-461.29" x2="888.57" y2="-453.3" gradientTransform="matrix(-0.77, 0.64, 0.64, 0.77, 1095.79, -93.32)" xlink:href="#linear-gradient-22"/><linearGradient id="linear-gradient-67" x1="131.71" y1="213.73" x2="203.65" y2="232.82" gradientTransform="translate(15.95 -138.88) rotate(10.15)" xlink:href="#linear-gradient-22"/><linearGradient id="linear-gradient-68" x1="844.19" y1="-426.81" x2="848.88" y2="-425.57" gradientTransform="matrix(-0.77, 0.64, 0.64, 0.77, 1095.79, -93.32)" xlink:href="#linear-gradient-24"/><linearGradient id="linear-gradient-69" x1="876.59" y1="-498.51" x2="873.35" y2="-499.16" gradientTransform="matrix(-0.77, 0.64, 0.64, 0.77, 1095.79, -93.32)" xlink:href="#linear-gradient-24"/><linearGradient id="linear-gradient-70" x1="146.22" y1="211.66" x2="138.57" y2="221.58" xlink:href="#linear-gradient-7"/><linearGradient id="linear-gradient-71" x1="-905.48" y1="1095.04" x2="-869.15" y2="1104.68" gradientTransform="matrix(0.76, 0.65, -0.65, 0.76, 1439.89, -79.05)" xlink:href="#linear-gradient-22"/><linearGradient id="linear-gradient-72" x1="73.96" y1="298.26" x2="119.77" y2="310.41" gradientTransform="translate(15.95 -138.88) rotate(10.15)" xlink:href="#linear-gradient-22"/><linearGradient id="linear-gradient-73" x1="-920.75" y1="1127.61" x2="-915.48" y2="1129.01" gradientTransform="matrix(0.76, 0.65, -0.65, 0.76, 1439.89, -79.05)" xlink:href="#linear-gradient-24"/><linearGradient id="linear-gradient-74" x1="-880.37" y1="1060.55" x2="-884.05" y2="1059.81" gradientTransform="matrix(0.76, 0.65, -0.65, 0.76, 1439.89, -79.05)" xlink:href="#linear-gradient-24"/><linearGradient id="linear-gradient-75" x1="76.84" y1="353.21" x2="105.73" y2="277.89" xlink:href="#linear-gradient-7"/><linearGradient id="linear-gradient-76" x1="1120.77" y1="233.01" x2="1114.65" y2="225.45" gradientTransform="matrix(-1, 0.03, 0.03, 1, 1203.2, -178.57)" xlink:href="#linear-gradient-5"/><linearGradient id="linear-gradient-77" x1="1145.82" y1="230.84" x2="1145.44" y2="254.76" gradientTransform="matrix(-1, 0.03, 0.03, 1, 1203.2, -178.57)" xlink:href="#linear-gradient-3"/><linearGradient id="linear-gradient-78" x1="63.04" y1="222.51" x2="117.59" y2="222.51" gradientTransform="translate(15.95 -138.88) rotate(10.15)" xlink:href="#linear-gradient-3"/><linearGradient id="linear-gradient-79" x1="1166.27" y1="228.02" x2="1170.92" y2="228.02" gradientTransform="matrix(-1, 0.03, 0.03, 1, 1203.2, -178.57)" xlink:href="#linear-gradient-5"/><linearGradient id="linear-gradient-80" x1="89.24" y1="230.07" x2="93.07" y2="201.63" xlink:href="#linear-gradient-7"/><linearGradient id="linear-gradient-81" x1="-1118.28" y1="760.48" x2="-1095.3" y2="761.94" gradientTransform="translate(1373.22 -157.27) rotate(19.4)" xlink:href="#linear-gradient-47"/><linearGradient id="linear-gradient-82" x1="132.57" y1="331.91" x2="92.87" y2="282.88" gradientTransform="translate(15.95 -138.88) rotate(10.15)" xlink:href="#linear-gradient-22"/><linearGradient id="linear-gradient-83" x1="-1105.48" y1="802.89" x2="-1101.71" y2="802.89" gradientTransform="translate(1373.22 -157.27) rotate(19.4)" xlink:href="#linear-gradient-24"/><linearGradient id="linear-gradient-84" x1="111.75" y1="291.47" x2="129.07" y2="315.28" xlink:href="#linear-gradient-7"/><linearGradient id="linear-gradient-85" x1="-960" y1="960.95" x2="-966.82" y2="952.52" gradientTransform="matrix(0.83, 0.56, -0.56, 0.83, 1435.22, -120.68)" xlink:href="#linear-gradient-24"/><linearGradient id="linear-gradient-86" x1="-935.98" y1="963.15" x2="-936.36" y2="987.03" gradientTransform="matrix(0.83, 0.56, -0.56, 0.83, 1435.22, -120.68)" xlink:href="#linear-gradient-22"/><linearGradient id="linear-gradient-87" x1="123.39" y1="276.5" x2="169.91" y2="276.5" gradientTransform="translate(15.95 -138.88) rotate(10.15)" xlink:href="#linear-gradient-22"/><linearGradient id="linear-gradient-88" x1="-916.03" y1="962.52" x2="-911.54" y2="962.52" gradientTransform="matrix(0.83, 0.56, -0.56, 0.83, 1435.22, -120.68)" xlink:href="#linear-gradient-24"/><linearGradient id="linear-gradient-89" x1="145.61" y1="262.56" x2="130.6" y2="284.17" xlink:href="#linear-gradient-7"/><linearGradient id="linear-gradient-90" x1="-951.05" y1="1002.08" x2="-928.85" y2="1003.49" gradientTransform="matrix(0.81, 0.59, -0.59, 0.81, 1430.65, -110)" xlink:href="#linear-gradient-47"/><linearGradient id="linear-gradient-91" x1="125.05" y1="283.1" x2="96.93" y2="248.36" gradientTransform="translate(15.95 -138.88) rotate(10.15)" xlink:href="#linear-gradient-22"/><linearGradient id="linear-gradient-92" x1="-938.91" y1="1042.14" x2="-935.17" y2="1042.14" gradientTransform="matrix(0.81, 0.59, -0.59, 0.81, 1430.65, -110)" xlink:href="#linear-gradient-24"/><linearGradient id="linear-gradient-93" x1="113.89" y1="252.88" x2="128.82" y2="261.91" xlink:href="#linear-gradient-26"/><linearGradient id="linear-gradient-94" x1="-852.8" y1="1109.9" x2="-815.89" y2="1119.69" gradientTransform="translate(1449.13 -58.28) rotate(46.25)" xlink:href="#linear-gradient-22"/><linearGradient id="linear-gradient-95" x1="75.45" y1="224.75" x2="126.05" y2="238.17" gradientTransform="translate(15.95 -138.88) rotate(10.15)" xlink:href="#linear-gradient-22"/><linearGradient id="linear-gradient-96" x1="-868.03" y1="1141.86" x2="-862.77" y2="1143.26" gradientTransform="translate(1449.13 -58.28) rotate(46.25)" xlink:href="#linear-gradient-24"/><linearGradient id="linear-gradient-97" x1="-826.77" y1="1076.35" x2="-830.47" y2="1075.61" gradientTransform="translate(1449.13 -58.28) rotate(46.25)" xlink:href="#linear-gradient-24"/><linearGradient id="linear-gradient-98" x1="75.77" y1="276.26" x2="103.07" y2="205.08" xlink:href="#linear-gradient-7"/><linearGradient id="linear-gradient-99" x1="-1120.33" y1="774.31" x2="-1084.99" y2="783.69" gradientTransform="translate(1405.54 -122.86) rotate(24.83)" xlink:href="#linear-gradient-22"/><linearGradient id="linear-gradient-100" x1="95.18" y1="237.8" x2="127.46" y2="246.36" gradientTransform="translate(15.95 -138.88) rotate(10.15)" xlink:href="#linear-gradient-22"/><linearGradient id="linear-gradient-101" x1="-1135.31" y1="806.44" x2="-1130.11" y2="807.82" gradientTransform="translate(1405.54 -122.86) rotate(24.83)" xlink:href="#linear-gradient-24"/><linearGradient id="linear-gradient-102" x1="-1096.37" y1="739.93" x2="-1099.96" y2="739.21" gradientTransform="translate(1405.54 -122.86) rotate(24.83)" xlink:href="#linear-gradient-24"/><linearGradient id="linear-gradient-103" x1="119.5" y1="227.57" x2="126.54" y2="227.57" xlink:href="#linear-gradient-7"/><linearGradient id="linear-gradient-104" x1="1083.14" y1="87.76" x2="1114.29" y2="96.02" gradientTransform="matrix(-0.98, 0.18, 0.18, 0.98, 1172.51, -169.62)" xlink:href="#linear-gradient-22"/><linearGradient id="linear-gradient-105" x1="119.14" y1="227.42" x2="179.75" y2="243.5" gradientTransform="translate(15.95 -138.88) rotate(10.15)" xlink:href="#linear-gradient-22"/><linearGradient id="linear-gradient-106" x1="1068.29" y1="123.37" x2="1072.98" y2="124.61" gradientTransform="matrix(-0.98, 0.18, 0.18, 0.98, 1172.51, -169.62)" xlink:href="#linear-gradient-24"/><linearGradient id="linear-gradient-107" x1="1104.04" y1="50.27" x2="1100.75" y2="49.61" gradientTransform="matrix(-0.98, 0.18, 0.18, 0.98, 1172.51, -169.62)" xlink:href="#linear-gradient-24"/><linearGradient id="linear-gradient-108" x1="114.69" y1="203.99" x2="150.01" y2="225.72" xlink:href="#linear-gradient-7"/><linearGradient id="linear-gradient-109" x1="9.71" y1="-954.84" x2="41.97" y2="-946.28" gradientTransform="matrix(-0.02, 1, 1, 0.02, 1085.73, 77.7)" xlink:href="#linear-gradient-22"/><linearGradient id="linear-gradient-110" x1="130.03" y1="187.01" x2="187.01" y2="202.13" gradientTransform="translate(15.95 -138.88) rotate(10.15)" xlink:href="#linear-gradient-22"/><linearGradient id="linear-gradient-111" x1="-4.7" y1="-922.65" x2="0.31" y2="-921.32" gradientTransform="matrix(-0.02, 1, 1, 0.02, 1085.73, 77.7)" xlink:href="#linear-gradient-24"/><linearGradient id="linear-gradient-112" x1="28.45" y1="-989.22" x2="24.96" y2="-989.92" gradientTransform="matrix(-0.02, 1, 1, 0.02, 1085.73, 77.7)" xlink:href="#linear-gradient-24"/><linearGradient id="linear-gradient-113" x1="59.05" y1="231.03" x2="131.13" y2="260.69" xlink:href="#linear-gradient-7"/><linearGradient id="linear-gradient-114" x1="-1216.23" y1="406.5" x2="-1182.66" y2="415.41" xlink:href="#linear-gradient-3"/><linearGradient id="linear-gradient-115" x1="114.02" y1="316.98" x2="138.4" y2="323.45" gradientTransform="translate(15.95 -138.88) rotate(10.15)" xlink:href="#linear-gradient-3"/><linearGradient id="linear-gradient-116" x1="-1231.46" y1="440.59" x2="-1226.44" y2="441.92" xlink:href="#linear-gradient-5"/><linearGradient id="linear-gradient-117" x1="-1193.49" y1="370.19" x2="-1196.97" y2="369.49" xlink:href="#linear-gradient-5"/><linearGradient id="linear-gradient-118" x1="122.91" y1="295.36" x2="122.01" y2="327.86" xlink:href="#linear-gradient-7"/><linearGradient id="linear-gradient-119" x1="-1110.82" y1="795.94" x2="-1076.02" y2="805.17" gradientTransform="translate(1376.86 -123.89) rotate(22.96)" xlink:href="#linear-gradient-3"/><linearGradient id="linear-gradient-120" x1="87.71" y1="306.35" x2="117.78" y2="314.33" gradientTransform="translate(15.95 -138.88) rotate(10.15)" xlink:href="#linear-gradient-3"/><linearGradient id="linear-gradient-121" x1="-1126.13" y1="829.32" x2="-1120.93" y2="830.7" gradientTransform="translate(1376.86 -123.89) rotate(22.96)" xlink:href="#linear-gradient-5"/><linearGradient id="linear-gradient-122" x1="-1087.45" y1="760.55" x2="-1091.03" y2="759.83" gradientTransform="translate(1376.86 -123.89) rotate(22.96)" xlink:href="#linear-gradient-5"/><linearGradient id="linear-gradient-123" x1="99.67" y1="295.49" x2="117.78" y2="303.36" xlink:href="#linear-gradient-7"/><linearGradient id="linear-gradient-124" x1="-1127.69" y1="765.24" x2="-1092.56" y2="774.56" gradientTransform="translate(1376.86 -123.89) rotate(22.96)" xlink:href="#linear-gradient-3"/><linearGradient id="linear-gradient-125" x1="78.31" y1="272.56" x2="108.54" y2="280.58" gradientTransform="translate(15.95 -138.88) rotate(10.15)" xlink:href="#linear-gradient-3"/><linearGradient id="linear-gradient-126" x1="-1142.83" y1="798.18" x2="-1137.62" y2="799.56" gradientTransform="translate(1376.86 -123.89) rotate(22.96)" xlink:href="#linear-gradient-5"/><linearGradient id="linear-gradient-127" x1="-1103.94" y1="729.9" x2="-1107.54" y2="729.18" gradientTransform="translate(1376.86 -123.89) rotate(22.96)" xlink:href="#linear-gradient-5"/><linearGradient id="linear-gradient-128" x1="88.8" y1="266.71" x2="101.74" y2="276.53" xlink:href="#linear-gradient-7"/><linearGradient id="linear-gradient-129" x1="-531.76" y1="1270.7" x2="-494.36" y2="1280.62" xlink:href="#linear-gradient-18"/><linearGradient id="linear-gradient-130" x1="49.85" y1="205.66" x2="113.4" y2="222.51" gradientTransform="translate(15.95 -138.88) rotate(10.15)" xlink:href="#linear-gradient-18"/><linearGradient id="linear-gradient-131" x1="-547.42" y1="1303.69" x2="-542.18" y2="1305.07" xlink:href="#linear-gradient-20"/><linearGradient id="linear-gradient-132" x1="-504.6" y1="1237.14" x2="-508.33" y2="1236.4" xlink:href="#linear-gradient-20"/><linearGradient id="linear-gradient-133" x1="-768" y1="1198.57" x2="-731.01" y2="1208.39" xlink:href="#linear-gradient-22"/><linearGradient id="linear-gradient-134" x1="57.16" y1="226.9" x2="112.68" y2="241.63" gradientTransform="translate(15.95 -138.88) rotate(10.15)" xlink:href="#linear-gradient-22"/><linearGradient id="linear-gradient-135" x1="-783.37" y1="1231.02" x2="-778.11" y2="1232.42" xlink:href="#linear-gradient-24"/><linearGradient id="linear-gradient-136" x1="-741.8" y1="1164.56" x2="-745.51" y2="1163.82" xlink:href="#linear-gradient-24"/><linearGradient id="linear-gradient-137" x1="65.07" y1="237" x2="96.81" y2="229.33" xlink:href="#linear-gradient-26"/><linearGradient id="linear-gradient-138" x1="826.74" y1="-486.15" x2="857.43" y2="-478.01" gradientTransform="matrix(-0.74, 0.67, 0.67, 0.74, 1083.4, -78.27)" xlink:href="#linear-gradient-18"/><linearGradient id="linear-gradient-139" x1="139.37" y1="233.82" x2="211.49" y2="252.95" gradientTransform="translate(15.95 -138.88) rotate(10.15)" xlink:href="#linear-gradient-18"/><linearGradient id="linear-gradient-140" x1="812.47" y1="-452.09" x2="817.22" y2="-450.83" gradientTransform="matrix(-0.74, 0.67, 0.67, 0.74, 1083.4, -78.27)" xlink:href="#linear-gradient-20"/><linearGradient id="linear-gradient-141" x1="845.27" y1="-522.91" x2="841.98" y2="-523.57" gradientTransform="matrix(-0.74, 0.67, 0.67, 0.74, 1083.4, -78.27)" xlink:href="#linear-gradient-20"/><linearGradient id="linear-gradient-142" x1="190.64" y1="234.93" x2="132.83" y2="237.08" xlink:href="#linear-gradient-7"/><linearGradient id="linear-gradient-143" x1="1083.03" y1="135.74" x2="1115.39" y2="144.32" gradientTransform="matrix(-0.98, 0.18, 0.18, 0.98, 1172.51, -169.62)" xlink:href="#linear-gradient-3"/><linearGradient id="linear-gradient-144" x1="135.26" y1="272.44" x2="197.46" y2="288.94" gradientTransform="translate(15.95 -138.88) rotate(10.15)" xlink:href="#linear-gradient-3"/><linearGradient id="linear-gradient-145" x1="1067.79" y1="172.08" x2="1072.64" y2="173.37" gradientTransform="matrix(-0.98, 0.18, 0.18, 0.98, 1172.51, -169.62)" xlink:href="#linear-gradient-5"/><linearGradient id="linear-gradient-146" x1="1104.67" y1="97.34" x2="1101.26" y2="96.65" gradientTransform="matrix(-0.98, 0.18, 0.18, 0.98, 1172.51, -169.62)" xlink:href="#linear-gradient-5"/><linearGradient id="linear-gradient-147" x1="154.92" y1="279.85" x2="155.24" y2="300.39" xlink:href="#linear-gradient-7"/><linearGradient id="linear-gradient-148" x1="1120.32" y1="268.64" x2="1152.55" y2="277.19" gradientTransform="matrix(-1, 0.08, 0.08, 1, 1212.72, -168.77)" xlink:href="#linear-gradient-18"/><linearGradient id="linear-gradient-149" x1="127.86" y1="303.64" x2="185.03" y2="318.81" gradientTransform="translate(15.95 -138.88) rotate(10.15)" xlink:href="#linear-gradient-18"/><linearGradient id="linear-gradient-150" x1="1105.25" y1="304.35" x2="1110.04" y2="305.62" gradientTransform="matrix(-1, 0.08, 0.08, 1, 1212.72, -168.77)" xlink:href="#linear-gradient-20"/><linearGradient id="linear-gradient-151" x1="1142.17" y1="231.07" x2="1138.79" y2="230.4" gradientTransform="matrix(-1, 0.08, 0.08, 1, 1212.72, -168.77)" xlink:href="#linear-gradient-20"/><linearGradient id="linear-gradient-152" x1="144.52" y1="294.78" x2="143.51" y2="331.34" xlink:href="#linear-gradient-7"/><linearGradient id="linear-gradient-153" x1="1034.13" y1="-112.72" x2="1066.67" y2="-104.09" xlink:href="#linear-gradient-42"/><linearGradient id="linear-gradient-154" x1="136.42" y1="251.4" x2="206.54" y2="270" gradientTransform="translate(15.95 -138.88) rotate(10.15)" xlink:href="#linear-gradient-42"/><linearGradient id="linear-gradient-155" x1="1018.73" y1="-75.83" x2="1023.68" y2="-74.52" xlink:href="#linear-gradient-44"/><linearGradient id="linear-gradient-156" x1="1055.13" y1="-152.07" x2="1051.67" y2="-152.76" xlink:href="#linear-gradient-44"/><linearGradient id="linear-gradient-157" x1="151.59" y1="249.67" x2="146.19" y2="256.71" xlink:href="#linear-gradient-7"/><linearGradient id="linear-gradient-158" x1="1077.68" y1="3.04" x2="1102.89" y2="4.64" xlink:href="#linear-gradient-47"/><linearGradient id="linear-gradient-159" x1="153.4" y1="296.71" x2="95.64" y2="225.37" gradientTransform="translate(15.95 -138.88) rotate(10.15)" xlink:href="#linear-gradient-22"/><linearGradient id="linear-gradient-160" x1="1092.45" y1="51.62" x2="1096.55" y2="51.62" gradientTransform="matrix(-0.96, 0.28, 0.28, 0.96, 1148.44, -159)" xlink:href="#linear-gradient-24"/><linearGradient id="linear-gradient-161" x1="129.92" y1="252.05" x2="121.76" y2="298.43" xlink:href="#linear-gradient-7"/><linearGradient id="linear-gradient-162" x1="872.69" y1="-419.36" x2="902.9" y2="-411.34" gradientTransform="matrix(-0.81, 0.59, 0.59, 0.81, 1097.4, -100.38)" xlink:href="#linear-gradient-18"/><linearGradient id="linear-gradient-163" x1="133.52" y1="191.59" x2="204.49" y2="210.42" gradientTransform="translate(15.95 -138.88) rotate(10.15)" xlink:href="#linear-gradient-18"/><linearGradient id="linear-gradient-164" x1="858.39" y1="-384.89" x2="863.07" y2="-383.65" gradientTransform="matrix(-0.81, 0.59, 0.59, 0.81, 1097.4, -100.38)" xlink:href="#linear-gradient-20"/><linearGradient id="linear-gradient-165" x1="891.14" y1="-456.51" x2="887.89" y2="-457.15" gradientTransform="matrix(-0.81, 0.59, 0.59, 0.81, 1097.4, -100.38)" xlink:href="#linear-gradient-20"/><linearGradient id="linear-gradient-166" x1="157.84" y1="189.83" x2="145.43" y2="199.42" xlink:href="#linear-gradient-7"/><linearGradient id="linear-gradient-167" x1="1007.42" y1="-189.75" x2="1040.63" y2="-180.94" gradientTransform="matrix(-0.92, 0.39, 0.39, 0.92, 1133.06, -136.13)" xlink:href="#linear-gradient-42"/><linearGradient id="linear-gradient-168" x1="119.83" y1="201.67" x2="192.91" y2="221.06" gradientTransform="translate(15.95 -138.88) rotate(10.15)" xlink:href="#linear-gradient-42"/><linearGradient id="linear-gradient-169" x1="991.59" y1="-151.59" x2="996.66" y2="-150.24" gradientTransform="matrix(-0.92, 0.39, 0.39, 0.92, 1133.06, -136.13)" xlink:href="#linear-gradient-44"/><linearGradient id="linear-gradient-170" x1="1028.74" y1="-230.46" x2="1025.2" y2="-231.16" gradientTransform="matrix(-0.92, 0.39, 0.39, 0.92, 1133.06, -136.13)" xlink:href="#linear-gradient-44"/><linearGradient id="linear-gradient-171" x1="145.77" y1="197.08" x2="146.36" y2="236.99" xlink:href="#linear-gradient-26"/><linearGradient id="linear-gradient-172" x1="536.4" y1="-898.63" x2="566.77" y2="-890.57" gradientTransform="matrix(-0.42, 0.79, 0.8, 0.43, 1085.44, -3.14)" xlink:href="#linear-gradient-18"/><linearGradient id="linear-gradient-173" x1="127.15" y1="159.85" x2="191.28" y2="176.87" gradientTransform="translate(15.95 -138.88) rotate(10.15)" xlink:href="#linear-gradient-18"/><linearGradient id="linear-gradient-174" x1="522.03" y1="-865.6" x2="526.87" y2="-864.32" gradientTransform="matrix(-0.42, 0.79, 0.8, 0.43, 1085.44, -3.14)" xlink:href="#linear-gradient-20"/><linearGradient id="linear-gradient-175" x1="553.56" y1="-934.62" x2="550.24" y2="-935.29" gradientTransform="matrix(-0.42, 0.79, 0.8, 0.43, 1085.44, -3.14)" xlink:href="#linear-gradient-20"/><linearGradient id="linear-gradient-176" x1="158.05" y1="153.46" x2="138.17" y2="168.82" xlink:href="#linear-gradient-7"/><linearGradient id="linear-gradient-177" x1="830.66" y1="-502" x2="860.77" y2="-494.02" gradientTransform="matrix(-0.77, 0.64, 0.64, 0.77, 1095.79, -93.32)" xlink:href="#linear-gradient-22"/><linearGradient id="linear-gradient-178" x1="118.69" y1="166.18" x2="190.63" y2="185.27" gradientTransform="translate(15.95 -138.88) rotate(10.15)" xlink:href="#linear-gradient-22"/><linearGradient id="linear-gradient-179" x1="816.39" y1="-467.53" x2="821.08" y2="-466.28" gradientTransform="matrix(-0.77, 0.64, 0.64, 0.77, 1095.79, -93.32)" xlink:href="#linear-gradient-24"/><linearGradient id="linear-gradient-180" x1="848.79" y1="-539.23" x2="845.54" y2="-539.88" gradientTransform="matrix(-0.77, 0.64, 0.64, 0.77, 1095.79, -93.32)" xlink:href="#linear-gradient-24"/><linearGradient id="linear-gradient-181" x1="133.2" y1="164.11" x2="125.56" y2="174.03" xlink:href="#linear-gradient-7"/><linearGradient id="linear-gradient-182" x1="-940.74" y1="1060.58" x2="-904.4" y2="1070.22" gradientTransform="matrix(0.76, 0.65, -0.65, 0.76, 1439.89, -79.05)" xlink:href="#linear-gradient-22"/><linearGradient id="linear-gradient-183" x1="60.95" y1="250.71" x2="106.75" y2="262.86" gradientTransform="translate(15.95 -138.88) rotate(10.15)" xlink:href="#linear-gradient-22"/><linearGradient id="linear-gradient-184" x1="-956" y1="1093.15" x2="-950.74" y2="1094.54" gradientTransform="matrix(0.76, 0.65, -0.65, 0.76, 1439.89, -79.05)" xlink:href="#linear-gradient-24"/><linearGradient id="linear-gradient-185" x1="-915.63" y1="1026.09" x2="-919.3" y2="1025.35" gradientTransform="matrix(0.76, 0.65, -0.65, 0.76, 1439.89, -79.05)" xlink:href="#linear-gradient-24"/><linearGradient id="linear-gradient-186" x1="63.82" y1="305.66" x2="92.71" y2="230.34" xlink:href="#linear-gradient-7"/><linearGradient id="linear-gradient-187" x1="1123.92" y1="183.81" x2="1117.79" y2="176.25" gradientTransform="matrix(-1, 0.03, 0.03, 1, 1203.2, -178.57)" xlink:href="#linear-gradient-5"/><linearGradient id="linear-gradient-188" x1="1148.96" y1="181.64" x2="1148.58" y2="205.56" gradientTransform="matrix(-1, 0.03, 0.03, 1, 1203.2, -178.57)" xlink:href="#linear-gradient-3"/><linearGradient id="linear-gradient-189" x1="50.02" y1="174.96" x2="104.58" y2="174.96" gradientTransform="translate(15.95 -138.88) rotate(10.15)" xlink:href="#linear-gradient-3"/><linearGradient id="linear-gradient-190" x1="1169.41" y1="178.82" x2="1174.07" y2="178.82" gradientTransform="matrix(-1, 0.03, 0.03, 1, 1203.2, -178.57)" xlink:href="#linear-gradient-5"/><linearGradient id="linear-gradient-191" x1="76.22" y1="182.52" x2="80.05" y2="154.08" xlink:href="#linear-gradient-7"/><linearGradient id="linear-gradient-192" x1="-1138.77" y1="715.64" x2="-1115.8" y2="717.1" gradientTransform="translate(1373.22 -157.27) rotate(19.4)" xlink:href="#linear-gradient-47"/><linearGradient id="linear-gradient-193" x1="119.55" y1="284.36" x2="79.86" y2="235.33" gradientTransform="translate(15.95 -138.88) rotate(10.15)" xlink:href="#linear-gradient-22"/><linearGradient id="linear-gradient-194" x1="-1125.98" y1="758.05" x2="-1122.2" y2="758.05" gradientTransform="translate(1373.22 -157.27) rotate(19.4)" xlink:href="#linear-gradient-24"/><linearGradient id="linear-gradient-195" x1="98.73" y1="243.92" x2="116.05" y2="267.73" xlink:href="#linear-gradient-7"/><linearGradient id="linear-gradient-196" x1="-991.22" y1="922.8" x2="-998.05" y2="914.37" gradientTransform="matrix(0.83, 0.56, -0.56, 0.83, 1435.22, -120.68)" xlink:href="#linear-gradient-24"/><linearGradient id="linear-gradient-197" x1="-967.21" y1="925" x2="-967.58" y2="948.88" gradientTransform="matrix(0.83, 0.56, -0.56, 0.83, 1435.22, -120.68)" xlink:href="#linear-gradient-22"/><linearGradient id="linear-gradient-198" x1="110.37" y1="228.95" x2="156.89" y2="228.95" gradientTransform="translate(15.95 -138.88) rotate(10.15)" xlink:href="#linear-gradient-22"/><linearGradient id="linear-gradient-199" x1="-947.25" y1="924.37" x2="-942.76" y2="924.37" gradientTransform="matrix(0.83, 0.56, -0.56, 0.83, 1435.22, -120.68)" xlink:href="#linear-gradient-24"/><linearGradient id="linear-gradient-200" x1="132.6" y1="215.01" x2="117.58" y2="236.62" xlink:href="#linear-gradient-7"/><linearGradient id="linear-gradient-201" x1="-983.53" y1="965" x2="-961.33" y2="966.41" gradientTransform="matrix(0.81, 0.59, -0.59, 0.81, 1430.65, -110)" xlink:href="#linear-gradient-47"/><linearGradient id="linear-gradient-202" x1="112.04" y1="235.55" x2="83.91" y2="200.81" gradientTransform="translate(15.95 -138.88) rotate(10.15)" xlink:href="#linear-gradient-22"/><linearGradient id="linear-gradient-203" x1="-971.39" y1="1005.05" x2="-967.65" y2="1005.05" gradientTransform="matrix(0.81, 0.59, -0.59, 0.81, 1430.65, -110)" xlink:href="#linear-gradient-24"/><linearGradient id="linear-gradient-204" x1="100.87" y1="205.33" x2="115.8" y2="214.36" xlink:href="#linear-gradient-26"/><linearGradient id="linear-gradient-205" x1="-891.33" y1="1079.15" x2="-854.43" y2="1088.94" gradientTransform="translate(1449.13 -58.28) rotate(46.25)" xlink:href="#linear-gradient-22"/><linearGradient id="linear-gradient-206" x1="62.44" y1="177.2" x2="113.03" y2="190.62" gradientTransform="translate(15.95 -138.88) rotate(10.15)" xlink:href="#linear-gradient-22"/><linearGradient id="linear-gradient-207" x1="-906.56" y1="1111.12" x2="-901.3" y2="1112.51" gradientTransform="translate(1449.13 -58.28) rotate(46.25)" xlink:href="#linear-gradient-24"/><linearGradient id="linear-gradient-208" x1="-865.31" y1="1045.6" x2="-869.01" y2="1044.86" gradientTransform="translate(1449.13 -58.28) rotate(46.25)" xlink:href="#linear-gradient-24"/><linearGradient id="linear-gradient-209" x1="62.75" y1="228.71" x2="90.05" y2="157.53" xlink:href="#linear-gradient-7"/><linearGradient id="linear-gradient-210" x1="-1144.97" y1="731.61" x2="-1109.63" y2="740.99" gradientTransform="translate(1405.54 -122.86) rotate(24.83)" xlink:href="#linear-gradient-22"/><linearGradient id="linear-gradient-211" x1="82.16" y1="190.25" x2="114.44" y2="198.81" gradientTransform="translate(15.95 -138.88) rotate(10.15)" xlink:href="#linear-gradient-22"/><linearGradient id="linear-gradient-212" x1="-1159.95" y1="763.74" x2="-1154.74" y2="765.12" gradientTransform="translate(1405.54 -122.86) rotate(24.83)" xlink:href="#linear-gradient-24"/><linearGradient id="linear-gradient-213" x1="-1121" y1="697.23" x2="-1124.6" y2="696.51" gradientTransform="translate(1405.54 -122.86) rotate(24.83)" xlink:href="#linear-gradient-24"/><linearGradient id="linear-gradient-214" x1="106.48" y1="180.02" x2="113.52" y2="180.02" xlink:href="#linear-gradient-7"/><linearGradient id="linear-gradient-215" x1="1078.56" y1="38.67" x2="1109.72" y2="46.94" gradientTransform="matrix(-0.98, 0.18, 0.18, 0.98, 1172.51, -169.62)" xlink:href="#linear-gradient-22"/><linearGradient id="linear-gradient-216" x1="106.12" y1="179.87" x2="166.73" y2="195.95" gradientTransform="translate(15.95 -138.88) rotate(10.15)" xlink:href="#linear-gradient-22"/><linearGradient id="linear-gradient-217" x1="1063.72" y1="74.28" x2="1068.4" y2="75.53" gradientTransform="matrix(-0.98, 0.18, 0.18, 0.98, 1172.51, -169.62)" xlink:href="#linear-gradient-24"/><linearGradient id="linear-gradient-218" x1="1099.46" y1="1.18" x2="1096.17" y2="0.52" gradientTransform="matrix(-0.98, 0.18, 0.18, 0.98, 1172.51, -169.62)" xlink:href="#linear-gradient-24"/><linearGradient id="linear-gradient-219" x1="101.67" y1="156.44" x2="137" y2="178.17" xlink:href="#linear-gradient-7"/><linearGradient id="linear-gradient-220" x1="-39.28" y1="-960.36" x2="-7.02" y2="-951.8" gradientTransform="matrix(-0.02, 1, 1, 0.02, 1085.73, 77.7)" xlink:href="#linear-gradient-22"/><linearGradient id="linear-gradient-221" x1="117.01" y1="139.46" x2="174" y2="154.58" gradientTransform="translate(15.95 -138.88) rotate(10.15)" xlink:href="#linear-gradient-22"/><linearGradient id="linear-gradient-222" x1="-53.69" y1="-928.17" x2="-48.68" y2="-926.85" gradientTransform="matrix(-0.02, 1, 1, 0.02, 1085.73, 77.7)" xlink:href="#linear-gradient-24"/><linearGradient id="linear-gradient-223" x1="-20.54" y1="-994.74" x2="-24.03" y2="-995.44" gradientTransform="matrix(-0.02, 1, 1, 0.02, 1085.73, 77.7)" xlink:href="#linear-gradient-24"/><linearGradient id="linear-gradient-224" x1="46.03" y1="183.48" x2="118.11" y2="213.14" xlink:href="#linear-gradient-7"/><linearGradient id="linear-gradient-225" x1="45.01" y1="182.08" x2="117.09" y2="211.74" xlink:href="#linear-gradient-7"/></defs><g class="cls-1"><g id="Layer_1" data-name="Layer 1"><path class="cls-2" d="M73,272.57a14.83,14.83,0,0,1,4.68-11.16,14.51,14.51,0,0,1-4.47,1.28c-5.09-13.88,25.59-37.45,34.3-11.79,6.47-1.5,13.86,2.14,17.13,8.42-4.6,1.81-10.59,3.18-14.31-1.19,6,5.17,9.82,14.18,11,22.06-5.3,1.34-9-8.91-13.12-12,.3,4.84,5.92,13.12,1.71,16.65A141.78,141.78,0,0,1,101,268.22c.17,4.54,4.59,14.26-2.56,14.85a37.87,37.87,0,0,0-5.14-11.38c2.51,3.94-.5,12.23-4.86,7.58-.9-1.95.86-4.25.14-6.26a7.1,7.1,0,0,1-6.25,5.63,10.32,10.32,0,0,1-.16-8.72A10.54,10.54,0,0,1,73,272.57Z"/><path class="cls-3" d="M86.7,255.56a10.83,10.83,0,0,1,1.33-1C87.6,254.89,87.15,255.23,86.7,255.56Zm-4.5,14.36a10.32,10.32,0,0,0,.16,8.72A7.1,7.1,0,0,0,88.61,273c.72,2-1,4.31-.14,6.26,4.36,4.65,7.37-3.64,4.86-7.58a37.87,37.87,0,0,1,5.14,11.38c7.15-.59,2.73-10.31,2.56-14.85a141.78,141.78,0,0,0,8.89,16.58c4.21-3.53-1.41-11.81-1.71-16.65,4.08,3.13,7.82,13.38,13.12,12-1.16-7.88-5-16.89-11-22.06,3.72,4.37,9.71,3,14.31,1.19a16.6,16.6,0,0,0-11.4-8.48,10.91,10.91,0,0,1,4.86,6,25.77,25.77,0,0,1-10.17-1.2,16.65,16.65,0,0,1,5.42,11.82l-10.15-9.09a8.85,8.85,0,0,1,.87,9.18,9,9,0,0,1-6.29-6.85,10.26,10.26,0,0,1-6,8.14,10,10,0,0,1-1-9.11,22.21,22.21,0,0,1-8,6,12.35,12.35,0,0,1,4-10.19c-2.41,2.28-7.67,2.24-8-1.81,1.56-5.46,6.29-9.7,10.26-13.41-7.52,3.21-19.59,12.93-15.74,22.35a14.51,14.51,0,0,0,4.47-1.28A14.83,14.83,0,0,0,73,272.57,10.54,10.54,0,0,0,82.2,269.92Z"/><path class="cls-4" d="M73.5,242.7C69.67,261.77,51.12,271.06,54,277.2c14.71,11.77,35.29-8.35,41.14-23.46C110.8,213.45,81.51,180.08,73.5,242.7Z"/><path class="cls-5" d="M89.4,207.82c24.51,13.76,3.32,69.6-22.62,70.28C90.78,265.39,100.5,233.35,89.4,207.82Z"/><path class="cls-6" d="M85.8,208.18c-1.31,26-7.3,56.55-30.79,70.42-6.82-6,14.54-15.76,18.49-35.9C75.62,236.49,77.89,212.1,85.8,208.18Z"/><path class="cls-7" d="M54.17,274c-9.83,3.43,6.44,7.37.15.59Z"/><path class="cls-8" d="M93.48,202.64a2.14,2.14,0,0,0-1-1.65c-4.68.94-6.35,5.58-8,9.51l8-1.53A7.66,7.66,0,0,1,93.48,202.64Z"/><path class="cls-9" d="M90.44,262.49c6.46-19.14-9.29-29.41-20.28-11.15,7-12.56,4.62-33.31,15.25-43a10.1,10.1,0,0,1,7-7.4,2.14,2.14,0,0,1,1,1.65,7.66,7.66,0,0,0-1,6.33l-.42.08c12.81,10.7,7.56,33.4,2,47A52.3,52.3,0,0,1,90.44,262.49Z"/><path class="cls-10" d="M52.73,227.23c-9.83,16-31,18-30.37,24.72,10.21,16.43,36.7,5.32,47.39-6.5C98.56,213.26,81,172.88,52.73,227.23Z"/><path class="cls-11" d="M79.64,200.91c12.94,10.91-1.9,36.09-9.89,44.54-9,9.52-22.78,15-35.4,12.08C61.16,254.76,81.75,229.08,79.64,200.91Z"/><path class="cls-6" d="M76.07,199.91c-10,23.9-26.46,49.76-53.19,53.72-4.52-8.07,19.47-9.4,29.85-26.4C56.84,222.27,67.19,200.61,76.07,199.91Z"/><path class="cls-12" d="M23.65,249c-10.63-.47,3.69,9.23,0,.61Z"/><path class="cls-13" d="M85.27,197.64a2.15,2.15,0,0,0-.42-1.9c-4.79-.85-7.91,2.76-10.87,5.8l8.19,1.54A7.11,7.11,0,0,1,85.27,197.64Z"/><path class="cls-14" d="M57.66,235.54c-3.66-13.33,6.68-31.46,18-35.58a9.85,9.85,0,0,1,9.22-4.22,2.15,2.15,0,0,1,.42,1.9,7.11,7.11,0,0,0-3.1,5.44l-.44-.08c9.37,15.26-6.11,39-18.88,48.45C68.48,245.75,60.28,240.92,57.66,235.54Z"/><path class="cls-15" d="M49.5,192.31c-5.78,6.91-13.73,14.95-22.32,17.6-7.63,1.35-11.61,8.34-3.35,12.15,14.12,7.2,32.16-.38,42.69-11.45C95.32,178.69,77.76,138.3,49.5,192.31Z"/><path class="cls-16" d="M76.41,166.25c12.93,10.94-1.9,36-9.89,44.36-9,9.43-22.78,14.85-35.4,11.81C57.91,219.84,78.51,194.38,76.41,166.25Z"/><path class="cls-6" d="M72.84,165.23C62.8,189,46.33,214.7,19.66,218.45c-4.53-8.08,19.51-9.3,29.84-26.14C53.61,187.4,64,165.87,72.84,165.23Z"/><path class="cls-17" d="M20.42,213.83c-10.63-.53,3.7,9.23-.05.61Z"/><path class="cls-18" d="M82,163a2.15,2.15,0,0,0-.41-1.9c-4.79-.88-7.91,2.69-10.87,5.71l8.18,1.6A7.09,7.09,0,0,1,82,163Z"/><path class="cls-19" d="M38.24,203.65c14.44-9.15,18.93-31.92,34.16-38.38a9.79,9.79,0,0,1,9.22-4.14A2.15,2.15,0,0,1,82,163a7.09,7.09,0,0,0-3.1,5.41l-.43-.09c10.42,22.1-12.65,48.7-31.74,54.73C63.4,209.21,60,197.22,38.24,203.65Z"/><path class="cls-20" d="M52.05,124.36c-17.69,4.58-35.49-8.63-39.17-3.4C10.84,140.32,38.4,150,54,149.16,98.45,145.24,106.42,105.41,52.05,124.36Z"/><path class="cls-21" d="M89.46,124.24c3.38,16.8-23.89,24.39-35.41,24.92-13,.58-27.29-5.06-35.32-15.93C40.54,149.3,73,146.5,89.46,124.24Z"/><path class="cls-22" d="M87.28,121.07c-23.23,10.37-52.22,16.84-75.06,1.44,1.56-8.87,21.07,6.77,39.83,1.85C58.36,123.68,79.88,115.44,87.28,121.07Z"/><path class="cls-23" d="M15.72,119.75c-8-7.61-2.87,9.12-.41.4Z"/><path class="cls-24" d="M95.9,125.8a1.86,1.86,0,0,0,.84-1.63c-3.21-3.89-7.87-3.51-12.11-3.38l5.48,6.74A6.56,6.56,0,0,1,95.9,125.8Z"/><path class="cls-25" d="M50.64,146.66c-8.41,2.81-19.3,5.46-28.22,3.25-7.24-2.74-14.39.8-8.74,8.49,9.22,13.39,29,16.36,43.6,12.48C99.3,158,99.8,116.32,50.64,146.66Z"/><path class="cls-26" d="M86.88,138.68c6.48,15.9-18.51,29.28-29.6,32.2-12.47,3.3-27.39.71-37.25-8.41C44.41,173.91,75.24,164.11,86.88,138.68Z"/><path class="cls-27" d="M84.17,136c-20.48,15.16-47.42,27.74-72.51,17.22-.22-9.13,21.89,2.27,39-6.54C56.62,144.66,75.93,131.94,84.17,136Z"/><path class="cls-28" d="M14.53,149.71c-9.26-5.87-1,9.67-.33.49Z"/><path class="cls-29" d="M93.42,138.88a2,2,0,0,0,.51-1.8c-3.86-3.19-8.28-1.84-12.38-.82l6.58,5.56A6.57,6.57,0,0,1,93.42,138.88Z"/><path class="cls-30" d="M55.75,144.33c8.2-3.81,19.5-11.07,28-8.53a10.26,10.26,0,0,1,10.18,1.28,2,2,0,0,1-.51,1.8,6.57,6.57,0,0,0-5.29,2.94l-.37-.31C85.78,169,46,178.62,25.2,168.11,36.8,168.78,63.85,160,55.75,144.33Z"/><path class="cls-31" d="M146.68,167.8c7.41,5.17,17.09,10.87,25.67,11.36,3.62.21,8.44.71,9.28,4.51-4.61,18-31.71,13.75-45.16,5.4C99.71,165.87,103.69,122.71,146.68,167.8Z"/><path class="cls-32" d="M172.53,191.74c-20.19,14.61-70.08-17.29-59-42.57a59.93,59.93,0,0,0,23.14,33.62A51.22,51.22,0,0,0,172.53,191.74Z"/><path class="cls-22" d="M146.68,167.8c13.67,13,36.91,9.26,35,17.56-26.58,2.56-48.71-18.39-65.06-38C125.16,146,141.38,164.1,146.68,167.8Z"/><path class="cls-33" d="M179.61,181.24c9.23-3-.51,9.47.22.55Z"/><path class="cls-34" d="M107.19,147.35a2.1,2.1,0,0,1-.19-1.91c4.28-1.94,8.45.87,12.07,3l-7.25,3.36A7.86,7.86,0,0,0,107.19,147.35Z"/><path class="cls-35" d="M111,150.27a35.74,35.74,0,0,1,2.54-4.87,10.59,10.59,0,0,1,3.52,1.94c11.83.86,21.79,15.56,31.7,21.85l.41,2.52c-17.38-2.8,1.33,24.31,13.35,24.43-21.36.68-52.82-19.2-50.29-44.49l-.38.18A9.05,9.05,0,0,0,111,150.27Z"/><path class="cls-36" d="M132.66,211.37c4.11,8.65,10,19.06,17.65,24.39,3.21,2.25,7.37,5.44,6.19,9.19-13.79,12.86-36.12-6.49-44.15-21.22C90.53,181.32,117.3,149.86,132.66,211.37Z"/><path class="cls-37" d="M144,246.67c-12.7-1-24.9-10.74-31.66-22.94-5.89-10.87-15.53-40.28-.32-47a61,61,0,0,0,3.76,41.8A59.37,59.37,0,0,0,144,246.67Z"/><path class="cls-6" d="M132.66,211.37c6.37,19.73,29,28.78,23,35-25-12.51-35.1-42.89-39.94-69.52C124.22,180.59,129.72,205.2,132.66,211.37Z"/><path class="cls-38" d="M155.89,241.71c10,2.71-5.33,7.88-.08.6Z"/><path class="cls-39" d="M107.18,171.54a2,2,0,0,1,.82-1.73c4.86.79,7.19,5.46,9.41,9.41L109.09,178A8.29,8.29,0,0,0,107.18,171.54Z"/><path class="cls-40" d="M116.14,177.1c12.89,10.67,12.66,33.35,23.35,46.62-21.9-8.11-9.83,19.13,1.51,24.42-24.11-6.31-48.3-46.77-31.47-70.12l-.44-.07a8.29,8.29,0,0,0-1.91-6.41,2.09,2.09,0,0,1,0-.56,21.12,21.12,0,0,1,2.5-.59A11.91,11.91,0,0,1,116.14,177.1Z"/><path class="cls-41" d="M118.34,241.05c3.24,8.83,8.1,19.57,15.1,25.53,2.95,2.51,6.75,6,5.23,9.58-14.76,11.17-35-9.91-41.5-25.08C79.71,207.52,109,179.7,118.34,241.05Z"/><path class="cls-42" d="M126.19,276.59c-12.42-2.26-23.53-12.95-29-25.51-4.81-11.18-11.45-40.82,4.13-45.85a58.74,58.74,0,0,0,24.89,71.36Z"/><path class="cls-22" d="M118.34,241c4.36,19.75,25.87,31,19.38,36.47-23.38-14.59-30.57-45.21-32.8-71.7C112.93,210.25,116,234.74,118.34,241Z"/><path class="cls-43" d="M138.38,272.93c9.65,3.66-6,7.15-.13.58Z"/><path class="cls-44" d="M97,199.75a1.9,1.9,0,0,1,1-1.59c4.71,1.24,6.56,6,8.38,10.07l-8.08-2A8.07,8.07,0,0,0,97,199.75Z"/><path class="cls-45" d="M111.34,270.58C96,256.83,82.21,223.3,98.72,206.29l-.43-.11A8.1,8.1,0,0,0,97,199.75a1.87,1.87,0,0,1,1-1.59,11.6,11.6,0,0,1,7.32,7.89c11.88,12,9.48,35.09,19.37,49.18-1.37.13-1.6,1.52-1.82,2.66-2.44,4.37-7.12-.54-8.79-3.4-4.07-5.81-9.67-.93-7.59,5.39A38.3,38.3,0,0,0,111.34,270.58Z"/><path class="cls-46" d="M140.05,189.52c5.71,7.89,13.54,17.18,22.08,21,3.6,1.61,8.32,4,7.85,8-11.17,15.82-37,1-47.7-12.25C92.75,168.36,112.89,130,140.05,189.52Z"/><path class="cls-47" d="M157.94,222.83c-12.75,1.61-26.66-5.66-35.66-16.58-7.89-9.77-23.09-37.47-9.28-47.59a63.61,63.61,0,0,0,11.69,41.56A58.59,58.59,0,0,0,157.94,222.83Z"/><path class="cls-48" d="M140.05,189.52c10,18.59,34.13,23.07,29.38,30.63-27.39-7.58-42.9-36.3-52.71-62C125.85,160.1,136,183.88,140.05,189.52Z"/><path class="cls-49" d="M168.77,215.35c10.41.65-3.79,9.05,0,.62Z"/><path class="cls-50" d="M107.22,154.45a2.1,2.1,0,0,1,.48-1.92c5-.21,8.2,4.07,11.14,7.58l-8.51.46A8.53,8.53,0,0,0,107.22,154.45Z"/><path class="cls-51" d="M110.78,160.54l-.45,0a8.53,8.53,0,0,0-3.11-6.12,2.1,2.1,0,0,1,.48-1.92,11.66,11.66,0,0,1,9.47,5.71c9.38,3.83,16,20.08,21,28.23-24.52-7.2-14.71,24.77-1.24,32.39-16.29-10.06-29.26-29.93-29.35-50A14.48,14.48,0,0,1,110.78,160.54Z"/><path class="cls-52" d="M108.44,167.69c5.93,22.71,13.86,45.76,14.32,69.3,1.34,16.24-14.82,13.14-19.41,1.56C92.12,218.85,88.49,196.16,89.09,174,88.25,155.78,102.77,145.62,108.44,167.69Z"/><path class="cls-27" d="M117.49,248.19c-2.94-31.32-10.42-62.31-17-93,12.52,10.39,21.27,64.3,22.24,81.82C122.91,241.51,122.12,247,117.49,248.19Z"/><path class="cls-53" d="M99.49,154.9c-8.85,18.62,3.53,78,16.37,93.53C92.74,241.28,89,195.35,89.09,174,89,166.82,91.19,154.87,99.49,154.9Z"/><path class="cls-54" d="M115.68,245.62a1.48,1.48,0,0,1,2.45.19l.61-.17a7.25,7.25,0,0,1-1.31,6.51C115.92,250.61,114.34,247.68,115.68,245.62Z"/><path class="cls-55" d="M101.35,155.56c10.64,11,10.45,29.67,15.64,43.91-19.57-32.91-28,4.06-20.42,24.48-5.92-15.84-7.94-33.08-7.48-50C88.89,166.7,91.87,152.15,101.35,155.56Z"/><path class="cls-56" d="M147.58,126.94c6.89,6,16,12.74,24.52,14.25,3.6.63,8.36,1.7,8.82,5.55-6.49,17.22-33,9.68-45.64-.08C100.67,119.13,109.42,77.7,147.58,126.94Z"/><path class="cls-57" d="M171,153.59c-21.36,12-68.36-25.39-54.69-48.92a60.8,60.8,0,0,0,19.76,35.83A52.88,52.88,0,0,0,171,153.59Z"/><path class="cls-22" d="M147.58,126.94c12.25,14.31,36,13.55,33.21,21.46-26.73-.65-46.78-23.81-61.21-45.11C128.25,103,142.66,122.67,147.58,126.94Z"/><path class="cls-58" d="M179.14,144.11c9.51-1.84-1.42,9.27.17.56Z"/><path class="cls-59" d="M110.19,102.13a2.06,2.06,0,0,1,0-1.9c4.45-1.39,8.34,1.86,11.73,4.41l-7.57,2.44A8,8,0,0,0,110.19,102.13Z"/><path class="cls-60" d="M114.77,107l-.41.13a8,8,0,0,0-4.17-5,2.06,2.06,0,0,1,0-1.9,10.56,10.56,0,0,1,9.81,3.06c12.6,2.62,21,19.47,31.44,26.87-21.73-1.33.39,22.73,9.21,26.57-11.86-.94-23.59-7.11-32-16.1C121,132,110,119.5,114.77,107Z"/><path class="cls-61" d="M133.63,137.78c6.06,8,14.35,17.44,23.21,21.21,3.75,1.59,8.65,3.93,8.27,8.08-11.19,16.47-38,1.6-49.36-11.8C84.38,116.67,104.36,77.16,133.63,137.78Z"/><path class="cls-62" d="M152.83,171.73c-13.07,1.87-27.56-5.38-37.08-16.46-8.34-9.91-24.68-38.11-10.69-48.78a65.68,65.68,0,0,0,13,42.54A61,61,0,0,0,152.83,171.73Z"/><path class="cls-48" d="M133.63,137.78c10.93,19.13,35.64,23.1,31,31-28.36-7.34-45-36.59-55.71-62.91C118.31,107.76,129.3,132.05,133.63,137.78Z"/><path class="cls-63" d="M163.79,163.86c10.71.49-3.67,9.37.05.64Z"/><path class="cls-64" d="M99,102.25a2.1,2.1,0,0,1,.44-2c5.13-.31,8.55,4,11.65,7.61l-8.74.61A8.92,8.92,0,0,0,99,102.25Z"/><path class="cls-65" d="M102.82,108.46l-.46,0A8.92,8.92,0,0,0,99,102.25a2.1,2.1,0,0,1,.44-2,12.09,12.09,0,0,1,9.89,5.71c17.09,9.9,21.67,35.72,38.08,46.89-14.61-.42.54,20.56,9.48,20.35C128.76,179.31,90.14,138,102.82,108.46Z"/><path class="cls-66" d="M143.88,90.37c14.11,6.62,30.12-1.92,33.6,3,1.53,16.66-22.23,21.63-35.86,18.43C105.3,103.59,94.12,64.28,143.88,90.37Z"/><path class="cls-67" d="M172.27,103.17c-13.9,18.77-62,6.83-61.34-18.8,6.91,10.61,17.49,18.68,29,22A43.44,43.44,0,0,0,172.27,103.17Z"/><path class="cls-22" d="M143.88,90.37c14.45,6.95,33.44-3.16,34.12,4.5-21.68,10.41-46-1.26-65-13C119.65,78.09,138.4,88.79,143.88,90.37Z"/><path class="cls-68" d="M175.1,91.94c6.84-5.36,2.29,8.32.35.41Z"/><path class="cls-69" d="M105.13,84.74a2,2,0,0,1-.72-1.6c3-3,7.3-1.82,10.9-1.07l-5,5.13A6.81,6.81,0,0,0,105.13,84.74Z"/><path class="cls-70" d="M106.36,81.89a8.9,8.9,0,0,1,6.93-.17c11.82-2.89,25,8.72,37,10.25C140,100,162.81,108.3,169,108c-18.22,10.76-53.06,2.12-58.47-21.12l-.27.28a6.91,6.91,0,0,0-4.4-2.38A23.84,23.84,0,0,1,106.36,81.89Z"/><path class="cls-71" d="M137.94,98.59c7.19,5.6,16.64,11.86,25.22,12.9,3.62.43,8.42,1.24,9.09,5.06-5.52,17.59-32.4,11.55-45.5,2.48C90.81,93.51,97.07,51.3,137.94,98.59Z"/><path class="cls-72" d="M162.77,124C142,137.14,93.32,102.48,105.56,78a61,61,0,0,0,21.68,34.79A52.62,52.62,0,0,0,162.77,124Z"/><path class="cls-27" d="M137.94,98.59c12.85,13.57,36.61,11.59,34.27,19.63-26.76.83-48-21.29-63.5-41.77C117.35,75.64,132.79,94.59,137.94,98.59Z"/><path class="cls-73" d="M170.33,114c9.38-2.37-.91,9.36.2.56Z"/><path class="cls-74" d="M99.29,75.81a2,2,0,0,1-.11-1.9c4.38-1.65,8.43,1.41,11.95,3.77l-7.41,2.86A8.08,8.08,0,0,0,99.29,75.81Z"/><path class="cls-75" d="M99.29,75.81a2,2,0,0,1-.11-1.9,10.49,10.49,0,0,1,10,2.52c11.63,1.56,21,16.49,30.38,23.37-22.92-4.21-16.25,16.83-2.28,24.69-15.44-6.88-37.09-24.2-33.13-44.1l-.39.15A8.08,8.08,0,0,0,99.29,75.81Z"/><path class="cls-76" d="M44.8,170c-7.61,4.63-17.65,9.63-26.75,9.39-7.68-1.16-13.74,4-6.8,10.32C22.85,201,42.57,199.65,56,192.62,93.82,171.12,87.05,128.91,44.8,170Z"/><path class="cls-77" d="M78.41,154.21c9.39,14.33-12.22,33.1-22.41,38.41-11.44,6-26.42,6.66-37.78-.22C44.42,198.47,72.18,181.71,78.41,154.21Z"/><path class="cls-27" d="M75.24,152.11C58.45,171.49,34.83,190,8.27,185c-2-9,21.79-2.56,36.53-15C50.21,166.74,66.46,149.89,75.24,152.11Z"/><path class="cls-78" d="M10.36,180.94c-10.15-3.81.93,9.81-.23.55Z"/><path class="cls-79" d="M84.79,153a2.05,2.05,0,0,0,.14-1.9c-4.37-2.34-8.4,0-12.17,1.88l7.47,4.09A6.68,6.68,0,0,1,84.79,153Z"/><path class="cls-80" d="M26.34,197.32c23.65-.8,28.3-16,31.09-37.31,6-4.3,11.23-8.54,17.37-8a10,10,0,0,1,10.13-.94,2.05,2.05,0,0,1-.14,1.9,6.68,6.68,0,0,0-4.56,4.07l-.42-.22C84.7,172,65.9,187,56,192.62,47.15,197.18,36.34,199.24,26.34,197.32Z"/><path class="cls-81" d="M84.59,82.48c.06-4.68,5.2-5.24,9-5.22,1.8,1.41-.09,3.47-.1,5.18,2.47,6.3-4.25,5.41-5.29.55Z"/><path class="cls-82" d="M92.26,98.77C70.05,137.11,14.75,94,41.63,78c8.83-.31,17.17,6.5,26.28,5.95,6.16.16,10.41-3,16.14-3.57C95,79.42,95.34,92.72,92.26,98.77Z"/><path class="cls-6" d="M36.06,82.31c8.28-13,22.23,9.17,48.6-1.92C76.39,92.46,56,93.79,44.07,86.15a18.85,18.85,0,0,0,2.32,11.13C40.67,94,36.71,88.22,36.06,82.31Z"/><path class="cls-83" d="M37.57,98.07c15.91,12.9,50.75,7.52,53-15.85,4.31,3.72,3.92,12.09,1.65,16.55C82.59,119.26,47.76,118.6,37.57,98.07Z"/><path class="cls-84" d="M39.77,76.85c9.71,7.13-3.61,10.91-.67-.33Z"/><path class="cls-85" d="M77.15,82.09a25.61,25.61,0,0,1,7.51-1.7h.42c1.56-3,5.27-3,8.52-3.12,1.81,1.41-.09,3.48-.1,5.18,0,1.44,1.41,3.35-.18,4.21C97.7,117.75,49,122.87,37.54,98,52.11,99.2,66.14,91.25,77.15,82.09Z"/><path class="cls-86" d="M77.33,162.92c-2.74,11.59-31.49,76.24-5.3,69.92,18.61-16.38,24.26-47.63,21-72.21C88.89,148.44,80.13,152.9,77.33,162.92Z"/><path class="cls-27" d="M84.93,153.09c-7.29,26.38-15.36,52.76-19.39,80a6.13,6.13,0,0,1-2.22-1.54C55.58,223.19,75.27,156.37,84.93,153.09Z"/><path class="cls-87" d="M67,233.5C79.77,220.29,92.63,170.61,85.86,153c3.27.11,6,4.12,7.17,7.61C96.9,180.15,89,230.38,67,233.5Z"/><path class="cls-88" d="M67.28,231c-.52-.77-1.8-1-2.21-.15l-.55-.23a6.75,6.75,0,0,0,.88,6C66.89,235.39,68.37,232.94,67.28,231Z"/><path class="cls-89" d="M66.44,195.65C71.91,184,74,157.72,85.86,153h0c16.83,7.49,5.15,45.57.33,59.28.9-10,2.9-20.16.1-29.83C81,169.42,69.6,189.64,66.44,195.65Z"/><path class="cls-90" d="M105.24,137.42c2.56-3.88-.8-7.95-3.81-10.45-2.21.1-1.91,3.2-2.86,4.63-5.24,3.64-.2,7.69,3.67,3.92Z"/><path class="cls-91" d="M90.23,146.82c-5.07,47.13,59.54,45.83,49.21,14.11-6.28-5.85-16.19-5.2-22.61-11.48-4.66-3.81-6-9.37-10-13.52C99.16,128,91.34,139.48,90.23,146.82Z"/><path class="cls-27" d="M125.28,174.73a19.25,19.25,0,0,0,7.87-8.25c-14-1.16-27.26-15.46-26.78-30.95,13.54,26.78,35.94,16.15,34.74,32.64A17.71,17.71,0,0,1,125.28,174.73Z"/><path class="cls-92" d="M100.87,133.28C89.81,153,110.18,181.94,131.3,181A26.41,26.41,0,0,1,105,180C90.08,171.72,81.83,140.45,100.87,133.28Z"/><path class="cls-93" d="M141.43,161.09c-11.28.31-3.11,11.54.67.13Z"/><path class="cls-94" d="M96.3,135.45c-.68-1.79,1.41-2.61,2.27-3.85,1-1.42.65-4.53,2.86-4.63,2.42,2.17,5.16,4.83,4.62,8.28,4.19,3.64,5.6,9.2,9.61,13.14-21.51-4.37-17.76,21.45-8.17,32.93A24.44,24.44,0,0,1,105,180C91.25,171.45,83.53,148,96.3,135.45Z"/><path class="cls-95" d="M89.5,120.19C78.31,136,65.6,151,58.63,169.67c-5.54,12,7.78,16.63,15.29,8.86,16.31-13.37,28.43-34.05,31-55.72C104.51,110.79,94.53,111.88,89.5,120.19Z"/><path class="cls-27" d="M99.25,113.53C85.41,135.39,70.81,157,59.79,180.72a6.46,6.46,0,0,1-1.69-2.08C53,168.62,89.38,113.55,99.25,113.53Z"/><path class="cls-96" d="M61,181.55c15.24-7.83,41-49.94,39.11-67.81,3,1.08,4.57,5.55,4.75,9.07C103.47,141.92,82.26,185.53,61,181.55Z"/><path class="cls-97" d="M62,179.36c-.29-.86-1.45-1.41-2-.8l-.45-.37a6.28,6.28,0,0,0-.76,5.72C60.43,183.26,62.5,181.47,62,179.36Z"/><path class="cls-98" d="M97.69,113.6C115,117.39,97,148.35,92,157.83c6.57-29.15-6.65-30.82-22.6-9.29C78.52,137.12,85.13,120.84,97.69,113.6Z"/><path class="cls-99" d="M61.9,98.35c-8,3.63-18.39,7.35-27.37,6-7.49-2-14,2.31-7.72,9.31,10.41,12.39,30.07,13.39,44.05,8.09C110.71,104.87,107.26,63.25,61.9,98.35Z"/><path class="cls-100" d="M96.69,86.83c8,15.08-15.22,31-25.83,35-11.9,4.52-26.81,3.41-37.41-4.67C58.57,126.07,87.8,113.25,96.69,86.83Z"/><path class="cls-27" d="M93.75,84.41c-18.58,17.12-43.84,32.29-69.45,24.3-1.17-9,21.9,0,37.6-10.36C67.58,95.77,85.26,81.2,93.75,84.41Z"/><path class="cls-101" d="M26.76,105c-9.7-4.93,0,9.71-.27.52Z"/><path class="cls-102" d="M103.12,86.38a2,2,0,0,0,.32-1.85c-4.1-2.79-8.3-1-12.23.41l7,4.88A6.45,6.45,0,0,1,103.12,86.38Z"/><path class="cls-103" d="M31.74,118.23C73.31,124.87,76,82,93.32,84.26a10,10,0,0,1,10.12.27,2,2,0,0,1-.32,1.85,6.45,6.45,0,0,0-4.9,3.44l-.39-.27c2.85,16.66-16.93,28.35-29.3,33C56.82,126.28,42,125.71,31.74,118.23Z"/><path class="cls-104" d="M68.74,112.18c-5.93,6.52-14,14.06-22.61,16.25-7.69,1-11.68,7.71-3.69,11.82,13.76,7.8,31.85,1.22,42.6-9.18C114.49,101,98.38,60.28,68.74,112.18Z"/><path class="cls-105" d="M96.16,87.81c18.16,22.65-22.39,63.54-46.52,53.15C76.22,139.75,97.4,115.69,96.16,87.81Z"/><path class="cls-27" d="M92.66,86.62c-10.65,23-27.83,47.53-54.24,49.86-4.22-8.24,19.42-8.06,30.32-24.3C73,107.53,83.85,86.81,92.66,86.62Z"/><path class="cls-106" d="M39.32,132c-10.53-1,3.39,9.28-.07.6Z"/><path class="cls-107" d="M101.83,84.91a2.15,2.15,0,0,0-.36-1.89c-4.71-1.11-7.89,2.24-10.93,5.09l8,2A6.77,6.77,0,0,1,101.83,84.91Z"/><path class="cls-108" d="M92.22,86.64a9.41,9.41,0,0,1,3.56-2.86l4.78,2.12a7,7,0,0,0-2,4.19L98.17,90c7.5,12.63-2.52,28.17-10.3,38-2.56-14.23-2.4-29.48,4-41.31C92,86.7,92.11,86.65,92.22,86.64Z"/><path class="cls-109" d="M119.57,115.06c4,8.44,9.77,18.61,17.17,23.91,3.13,2.24,7.17,5.4,6,9-13.58,12.17-35.12-7-42.95-21.35C78.5,84.7,104.91,55.78,119.57,115.06Z"/><path class="cls-110" d="M130.59,149.39c-12.35-1.23-24.22-10.86-30.78-22.77-5.73-10.61-15.1-39.19-.29-45.47a58.91,58.91,0,0,0,31.07,68.24Z"/><path class="cls-27" d="M119.58,115.06c5.88,18.72,28.21,28.49,22.37,34.31-24.21-12.47-34.13-41.95-38.83-67.93C111.38,85.17,116.72,109,119.58,115.06Z"/><path class="cls-111" d="M142.17,144.82c9.76,2.8-5.19,7.53-.08.58Z"/><path class="cls-112" d="M94.81,76.09a1.86,1.86,0,0,1,.8-1.64c4.72.85,7,5.39,9.15,9.26l-8.1-1.38A8.09,8.09,0,0,0,94.81,76.09Z"/><path class="cls-113" d="M91.88,93c.36-4.14,2-8.19,5.21-10.61l-.43-.07a8.09,8.09,0,0,0-1.85-6.24,1.86,1.86,0,0,1,.8-1.64,11.68,11.68,0,0,1,7.91,7.19c9.33,6.67,11.53,23.54,16.28,33.88-7.6-8.1-13.84-20.42-24-24.82A4.86,4.86,0,0,0,91.88,93Z"/><path class="cls-114" d="M131.37,69.38c17.86-1.17,28.15-18.29,33.44-14.61,9.29,16-10.87,34.12-25.48,38C101,103.39,71.27,68.86,131.37,69.38Z"/><path class="cls-115" d="M164.41,67.59c-3.65,26.61-57.08,39.59-67.31,13,11.62,7.3,25.53,10,38.07,7.35A46.75,46.75,0,0,0,164.41,67.59Z"/><path class="cls-27" d="M131.37,69.38c18.76-1.13,30-21,34.61-13.39-15.39,22-44.37,23.12-68.13,21C102.44,69.5,125.4,70.64,131.37,69.38Z"/><path class="cls-116" d="M161.85,54.5c4.07-9.2,6,7.4.52.24Z"/><path class="cls-117" d="M91.74,84.07a2.14,2.14,0,0,1-1.45-1.27c1.44-4.67,6-5.73,9.9-6.88l-2.36,8A6.73,6.73,0,0,0,91.74,84.07Z"/><path class="cls-118" d="M11.7,152.77c1.91,11.44,14.72,17.06,25,19,15.1-4,24.54-18.36,35.63-28.8-12.61,4.79-33.51,4.2-35.44-13.18,20.32-2.1,36.72-29,46.94,4.93,3.54-5.92,12.43-7.21,17.34-2.53-5-14.79-.84-42.16,18.69-37-8.29-3.63-14.3-14-11.89-23.35-3.29.76-5.71,1.76-8.82,2.11a2,2,0,0,0-.05,1.54l-.37.36c-1.3-.77-4-2.47-4,.28a8.61,8.61,0,0,1,.81,1.19,9.89,9.89,0,0,0-1.45.74,1.69,1.69,0,0,0-.57-.76c-3.19.1-6.88.1-8.52,3.12h-1c-20.45,7.8-24.74-.25-42.85-2.27a8.24,8.24,0,0,0-2.1-1.6,9.4,9.4,0,0,0-.33,2.65c-8.11,6.45-2.63,19.26,3.57,25.21-5.41,1.21-10.92-1.7-16.06.42-4.34-2.43-4.84.83-2,3.49,2.75,10.74,15.63,15.19,25.24,16.3-11.95,2.45-23.25-2.82-34.24-5.15-3.48-3.55-5-.83-3,2.67.4,15.51,18.18,24.16,31.91,26.47-10,4-20.46.39-30.2.92-1.1-.33-2.25-1.41-3.38-1.2A3.74,3.74,0,0,0,11.7,152.77Zm82-69.37a6.83,6.83,0,0,1,2-.07,8.51,8.51,0,0,0-1.85.67.93.93,0,0,0,0-.13C93.75,83.72,93.7,83.56,93.66,83.4Z"/><path class="cls-119" d="M69.07,193.6C65.24,212.67,46.68,222,49.55,228.1c14.71,11.77,35.29-8.35,41.13-23.46C106.37,164.35,77.08,131,69.07,193.6Z"/><path class="cls-120" d="M85,158.72c24.5,13.76,3.32,69.6-22.62,70.28C86.35,216.29,96.07,184.25,85,158.72Z"/><path class="cls-6" d="M81.36,159.08c-1.3,26-7.3,56.55-30.78,70.42-6.82-6,14.53-15.76,18.49-35.9C71.19,187.39,73.46,163,81.36,159.08Z"/><path class="cls-121" d="M49.73,224.85c-9.82,3.43,6.44,7.37.16.59Z"/><path class="cls-122" d="M89,153.54a2.1,2.1,0,0,0-1-1.65c-4.68.94-6.36,5.58-8,9.51l8-1.53A7.66,7.66,0,0,1,89,153.54Z"/><path class="cls-123" d="M86,213.39c6.46-19.14-9.3-29.41-20.28-11.15,7-12.56,4.61-33.31,15.25-43a10.1,10.1,0,0,1,7-7.4,2.1,2.1,0,0,1,1,1.65,7.66,7.66,0,0,0-1,6.33l-.43.08c12.82,10.7,7.57,33.4,2.06,47A53.64,53.64,0,0,1,86,213.39Z"/><path class="cls-124" d="M48.29,178.13c-9.83,16-31,18-30.36,24.72,10.21,16.43,36.7,5.32,47.39-6.5C94.13,164.16,76.54,123.78,48.29,178.13Z"/><path class="cls-125" d="M75.21,151.81c12.94,10.91-1.91,36.09-9.89,44.54-9,9.52-22.78,15-35.41,12.08C56.73,205.66,77.32,180,75.21,151.81Z"/><path class="cls-6" d="M71.64,150.81c-10,23.9-26.46,49.76-53.19,53.72-4.52-8.07,19.47-9.4,29.84-26.4C52.41,173.17,62.75,151.51,71.64,150.81Z"/><path class="cls-126" d="M19.21,199.9c-10.62-.47,3.7,9.23-.05.61Z"/><path class="cls-127" d="M80.84,148.54a2.18,2.18,0,0,0-.42-1.9c-4.79-.85-7.91,2.76-10.87,5.8L77.73,154A7.15,7.15,0,0,1,80.84,148.54Z"/><path class="cls-128" d="M53.22,186.44c-3.65-13.33,6.69-31.46,18-35.58a9.84,9.84,0,0,1,9.22-4.22,2.18,2.18,0,0,1,.42,1.9A7.15,7.15,0,0,0,77.73,154l-.43-.08c9.37,15.26-6.11,39-18.88,48.45C64.05,196.65,55.85,191.82,53.22,186.44Z"/><path class="cls-129" d="M45.06,143.21c-5.78,6.91-13.72,14.95-22.31,17.6-7.63,1.35-11.61,8.34-3.36,12.15,14.12,7.2,32.16-.38,42.69-11.45C90.89,129.59,73.33,89.2,45.06,143.21Z"/><path class="cls-130" d="M72,117.15c12.93,10.94-1.89,36-9.89,44.36-9,9.43-22.77,14.85-35.4,11.81C53.48,170.74,74.08,145.28,72,117.15Z"/><path class="cls-6" d="M68.4,116.13c-10,23.79-26.5,49.47-53.17,53.22-4.53-8.08,19.51-9.3,29.83-26.14C49.18,138.3,59.52,116.77,68.4,116.13Z"/><path class="cls-131" d="M16,164.73c-10.63-.53,3.7,9.23-.05.61Z"/><path class="cls-132" d="M77.6,113.93a2.15,2.15,0,0,0-.42-1.9c-4.78-.88-7.9,2.69-10.86,5.71l8.18,1.6A7,7,0,0,1,77.6,113.93Z"/><path class="cls-133" d="M33.81,154.55C48.25,145.4,52.73,122.63,68,116.17A9.81,9.81,0,0,1,77.18,112a2.15,2.15,0,0,1,.42,1.9,7,7,0,0,0-3.1,5.41l-.43-.09C84.49,141.35,61.42,168,42.33,174,59,160.11,55.54,148.12,33.81,154.55Z"/><path class="cls-134" d="M47.62,75.26c-17.7,4.58-35.49-8.63-39.18-3.4-2,19.36,25.53,29.05,41.17,28.2C94,96.14,102,56.31,47.62,75.26Z"/><path class="cls-135" d="M85,75.14c3.38,16.8-23.9,24.39-35.42,24.92-13,.58-27.28-5.06-35.31-15.94C36.11,100.2,68.58,97.4,85,75.14Z"/><path class="cls-22" d="M82.85,72C59.62,82.34,30.62,88.81,7.79,73.41c1.56-8.87,21.07,6.77,39.83,1.85C53.92,74.58,75.45,66.34,82.85,72Z"/><path class="cls-136" d="M11.29,70.65c-8-7.61-2.87,9.12-.42.4Z"/><path class="cls-137" d="M91.47,76.7a1.87,1.87,0,0,0,.84-1.63c-3.21-3.89-7.87-3.51-12.11-3.38l5.47,6.74A6.59,6.59,0,0,1,91.47,76.7Z"/><path class="cls-138" d="M46.21,97.56c-8.42,2.81-19.3,5.46-28.23,3.25-7.23-2.74-14.38.8-8.74,8.49,9.23,13.39,29,16.36,43.61,12.48C94.87,108.88,95.37,67.22,46.21,97.56Z"/><path class="cls-139" d="M82.45,89.58c6.47,15.9-18.52,29.28-29.6,32.2-12.48,3.3-27.4.71-37.26-8.41C40,124.81,70.8,115,82.45,89.58Z"/><path class="cls-27" d="M79.74,86.88C59.26,102,32.32,114.62,7.23,104.1c-.22-9.13,21.89,2.27,39-6.54C52.19,95.56,71.5,82.84,79.74,86.88Z"/><path class="cls-140" d="M10.1,100.61c-9.26-5.87-1,9.67-.33.49Z"/><path class="cls-141" d="M89,89.78a1.94,1.94,0,0,0,.5-1.8c-3.85-3.19-8.28-1.84-12.37-.82l6.57,5.56A6.57,6.57,0,0,1,89,89.78Z"/><path class="cls-142" d="M51.32,95.23c8.2-3.81,19.49-11.07,28-8.53A10.25,10.25,0,0,1,89.49,88a1.94,1.94,0,0,1-.5,1.8,6.57,6.57,0,0,0-5.3,2.94l-.36-.31c-2,27.45-41.79,37.11-62.56,26.6C32.37,119.68,59.42,110.88,51.32,95.23Z"/><path class="cls-143" d="M142.25,118.7c7.41,5.17,17.09,10.87,25.67,11.36,3.62.21,8.43.71,9.27,4.51-4.6,18-31.7,13.75-45.16,5.4C95.28,116.77,99.25,73.61,142.25,118.7Z"/><path class="cls-144" d="M168.09,142.64c-20.19,14.61-70.07-17.29-59-42.57a60,60,0,0,0,23.14,33.62A51.23,51.23,0,0,0,168.09,142.64Z"/><path class="cls-22" d="M142.25,118.7c13.67,13,36.9,9.26,35,17.56-26.59,2.56-48.71-18.39-65.07-38C120.73,96.92,137,115,142.25,118.7Z"/><path class="cls-145" d="M175.17,132.14c9.24-3-.51,9.47.23.55Z"/><path class="cls-146" d="M102.76,98.25a2.1,2.1,0,0,1-.19-1.91c4.28-1.94,8.45.87,12.06,3l-7.25,3.36A7.84,7.84,0,0,0,102.76,98.25Z"/><path class="cls-147" d="M106.53,101.17a38.13,38.13,0,0,1,2.54-4.87,10.5,10.5,0,0,1,3.52,1.94c11.84.86,21.79,15.56,31.7,21.85l.42,2.52c-17.38-2.8,1.32,24.31,13.35,24.43-21.37.68-52.82-19.2-50.29-44.49l-.39.18A7.87,7.87,0,0,0,106.53,101.17Z"/><path class="cls-148" d="M128.22,162.27c4.12,8.65,10,19.06,17.65,24.39,3.22,2.25,7.38,5.44,6.19,9.19-13.78,12.86-36.11-6.49-44.15-21.22C86.09,132.22,112.87,100.76,128.22,162.27Z"/><path class="cls-149" d="M139.56,197.57c-12.69-1-24.9-10.74-31.65-22.94-5.9-10.87-15.53-40.28-.32-47a61,61,0,0,0,3.76,41.8A59.35,59.35,0,0,0,139.56,197.57Z"/><path class="cls-6" d="M128.22,162.27c6.38,19.73,29,28.78,23,35-25-12.51-35.11-42.89-39.94-69.52C119.78,131.49,125.29,156.1,128.22,162.27Z"/><path class="cls-150" d="M151.46,192.61c10,2.71-5.33,7.88-.08.6Z"/><path class="cls-151" d="M102.75,122.44a2,2,0,0,1,.81-1.73c4.87.79,7.2,5.46,9.42,9.41l-8.33-1.27A8.25,8.25,0,0,0,102.75,122.44Z"/><path class="cls-152" d="M111.71,128c12.89,10.67,12.66,33.35,23.34,46.62-21.89-8.11-9.82,19.13,1.51,24.42-24.11-6.31-48.29-46.77-31.47-70.12l-.44-.07a8.25,8.25,0,0,0-1.9-6.41,2.09,2.09,0,0,1,0-.56,21.44,21.44,0,0,1,2.49-.59A11.93,11.93,0,0,1,111.71,128Z"/><path class="cls-153" d="M113.91,192c3.23,8.83,8.09,19.57,15.09,25.53,3,2.51,6.76,6,5.24,9.57-14.76,11.18-35-9.9-41.51-25.07C75.27,158.42,104.6,130.6,113.91,192Z"/><path class="cls-154" d="M121.76,227.49c-12.42-2.26-23.53-13-29-25.51-4.8-11.18-11.44-40.82,4.13-45.85a58.76,58.76,0,0,0,24.9,71.36Z"/><path class="cls-22" d="M113.91,191.94c4.36,19.75,25.87,31,19.37,36.47-23.37-14.59-30.56-45.21-32.79-71.7C108.5,161.15,111.6,185.64,113.91,191.94Z"/><path class="cls-155" d="M134,223.83c9.65,3.66-6,7.15-.13.58Z"/><path class="cls-156" d="M92.59,150.65a1.89,1.89,0,0,1,1-1.59c4.71,1.24,6.57,6,8.38,10.07l-8.07-2A8.07,8.07,0,0,0,92.59,150.65Z"/><path class="cls-157" d="M106.9,221.48c-15.37-13.75-29.12-47.28-12.62-64.29l-.42-.11a8.07,8.07,0,0,0-1.27-6.43,1.89,1.89,0,0,1,1-1.59,11.61,11.61,0,0,1,7.33,7.89c11.88,12,9.48,35.09,19.37,49.18-1.37.13-1.61,1.52-1.82,2.66-2.44,4.37-7.12-.54-8.8-3.4-4.06-5.81-9.66-.93-7.59,5.39A38.88,38.88,0,0,0,106.9,221.48Z"/><path class="cls-158" d="M135.62,140.42c5.71,7.89,13.54,17.18,22.08,21,3.6,1.61,8.31,4,7.85,8-11.18,15.82-37,1-47.7-12.25C88.31,119.26,108.46,80.94,135.62,140.42Z"/><path class="cls-159" d="M153.51,173.73c-12.75,1.61-26.67-5.66-35.66-16.58-7.89-9.77-23.1-37.47-9.28-47.59a63.54,63.54,0,0,0,11.68,41.56A58.61,58.61,0,0,0,153.51,173.73Z"/><path class="cls-48" d="M135.62,140.42c10,18.59,34.13,23.07,29.38,30.63-27.39-7.58-42.9-36.3-52.72-62C121.42,111,131.54,134.78,135.62,140.42Z"/><path class="cls-160" d="M164.34,166.25c10.41.65-3.79,9.05,0,.62Z"/><path class="cls-161" d="M102.79,105.35a2.1,2.1,0,0,1,.48-1.92c5-.21,8.2,4.07,11.13,7.58l-8.5.46A8.53,8.53,0,0,0,102.79,105.35Z"/><path class="cls-162" d="M106.35,111.44l-.45,0a8.53,8.53,0,0,0-3.11-6.12,2.1,2.1,0,0,1,.48-1.92,11.68,11.68,0,0,1,9.47,5.71c9.38,3.83,16,20.08,21,28.23-24.52-7.2-14.71,24.77-1.24,32.39-16.29-10.06-29.26-29.93-29.36-50A14.56,14.56,0,0,1,106.35,111.44Z"/><path class="cls-163" d="M104,118.59c5.94,22.71,13.87,45.76,14.33,69.3,1.34,16.24-14.83,13.14-19.41,1.56-11.23-19.7-14.86-42.39-14.27-64.58C83.81,106.68,98.34,96.52,104,118.59Z"/><path class="cls-27" d="M113.05,199.09c-2.93-31.32-10.41-62.31-17-93,12.52,10.39,21.27,64.3,22.24,81.82C118.48,192.41,117.68,197.92,113.05,199.09Z"/><path class="cls-164" d="M95.05,105.8c-8.84,18.62,3.54,78,16.38,93.53-23.12-7.15-26.85-53.08-26.78-74.46C84.57,117.72,86.75,105.77,95.05,105.8Z"/><path class="cls-165" d="M111.25,196.52a1.48,1.48,0,0,1,2.45.19l.61-.17a7.25,7.25,0,0,1-1.31,6.51C111.49,201.51,109.91,198.58,111.25,196.52Z"/><path class="cls-166" d="M96.91,106.46c10.64,11,10.45,29.67,15.64,43.91-19.57-32.91-28,4.06-20.42,24.48-5.91-15.84-7.93-33.08-7.48-50C84.46,117.6,87.44,103.05,96.91,106.46Z"/><path class="cls-167" d="M143.15,77.84c6.89,6,16,12.74,24.52,14.25,3.59.63,8.35,1.7,8.82,5.55-6.49,17.22-33,9.68-45.64-.08C96.23,70,105,28.6,143.15,77.84Z"/><path class="cls-168" d="M166.61,104.49c-21.37,12-68.37-25.39-54.7-48.92A60.81,60.81,0,0,0,131.68,91.4,52.88,52.88,0,0,0,166.61,104.49Z"/><path class="cls-22" d="M143.15,77.84c12.24,14.31,36,13.55,33.21,21.46-26.73-.65-46.78-23.81-61.22-45.11C123.82,53.86,138.23,73.57,143.15,77.84Z"/><path class="cls-169" d="M174.71,95c9.5-1.84-1.42,9.27.17.56Z"/><path class="cls-170" d="M105.76,53a2.06,2.06,0,0,1,0-1.9c4.46-1.39,8.34,1.86,11.74,4.41L109.93,58A8,8,0,0,0,105.76,53Z"/><path class="cls-171" d="M110.33,57.85l-.4.13A8,8,0,0,0,105.76,53a2.06,2.06,0,0,1,0-1.9,10.57,10.57,0,0,1,9.82,3.06c12.6,2.62,21,19.47,31.43,26.87-21.72-1.33.4,22.73,9.22,26.57-11.86-.94-23.59-7.11-32-16.1C116.52,82.92,105.6,70.4,110.33,57.85Z"/><path class="cls-172" d="M129.2,88.68c6.06,8,14.34,17.44,23.21,21.21,3.74,1.59,8.65,3.93,8.26,8.08-11.18,16.47-38,1.6-49.35-11.8C80,67.57,99.92,28.06,129.2,88.68Z"/><path class="cls-173" d="M148.4,122.63c-13.08,1.86-27.57-5.39-37.09-16.46C103,96.26,86.64,68.06,100.62,57.39a65.69,65.69,0,0,0,13,42.54A60.92,60.92,0,0,0,148.4,122.63Z"/><path class="cls-48" d="M129.2,88.68c10.93,19.13,35.63,23.1,31,31-28.37-7.34-45-36.59-55.72-62.91C113.88,58.66,124.87,83,129.2,88.68Z"/><path class="cls-174" d="M159.36,114.76c10.71.49-3.68,9.37,0,.64Z"/><path class="cls-175" d="M94.57,53.15a2.1,2.1,0,0,1,.45-2c5.12-.31,8.54,4,11.64,7.61l-8.74.61A8.85,8.85,0,0,0,94.57,53.15Z"/><path class="cls-176" d="M98.39,59.36l-.47,0a8.85,8.85,0,0,0-3.35-6.25,2.13,2.13,0,0,1,.45-2,12.09,12.09,0,0,1,9.88,5.72C122,66.79,126.58,92.61,143,103.78c-14.61-.42.53,20.56,9.48,20.35C124.33,130.2,85.7,88.85,98.39,59.36Z"/><path class="cls-177" d="M139.44,41.27c14.12,6.62,30.12-1.92,33.61,3C174.58,61,150.82,66,137.18,62.75,100.87,54.49,89.69,15.18,139.44,41.27Z"/><path class="cls-178" d="M167.84,54.07c-13.91,18.77-62,6.83-61.34-18.8,6.91,10.61,17.49,18.68,29,22A43.44,43.44,0,0,0,167.84,54.07Z"/><path class="cls-22" d="M139.44,41.27c14.46,6.95,33.45-3.16,34.13,4.5-21.68,10.41-46-1.26-65.06-13C115.21,29,134,39.69,139.44,41.27Z"/><path class="cls-179" d="M170.67,42.84c6.84-5.36,2.28,8.32.34.41Z"/><path class="cls-180" d="M100.7,35.64A2,2,0,0,1,100,34c3-3,7.29-1.82,10.9-1.07l-5,5.13A6.78,6.78,0,0,0,100.7,35.64Z"/><path class="cls-181" d="M101.93,32.79a8.88,8.88,0,0,1,6.92-.17c11.83-2.89,25,8.72,37,10.25-10.25,8,12.57,16.33,18.79,16.07-18.22,10.76-53.06,2.12-58.47-21.12l-.28.28a6.91,6.91,0,0,0-4.39-2.38A22.08,22.08,0,0,1,101.93,32.79Z"/><path class="cls-182" d="M133.5,49.49c7.2,5.6,16.64,11.86,25.22,12.9,3.62.43,8.43,1.24,9.1,5.06C162.3,85,135.41,79,122.32,69.93,86.38,44.41,92.64,2.2,133.5,49.49Z"/><path class="cls-183" d="M158.34,74.87C137.58,88,88.89,53.38,101.13,28.92a61,61,0,0,0,21.68,34.79A52.62,52.62,0,0,0,158.34,74.87Z"/><path class="cls-27" d="M133.5,49.49c12.86,13.57,36.61,11.59,34.28,19.63-26.77.83-48-21.29-63.5-41.77C112.91,26.54,128.36,45.49,133.5,49.49Z"/><path class="cls-184" d="M165.9,64.92c9.37-2.37-.92,9.36.2.56Z"/><path class="cls-185" d="M94.85,26.71a2.07,2.07,0,0,1-.1-1.9c4.37-1.65,8.43,1.41,12,3.77l-7.41,2.86A8.12,8.12,0,0,0,94.85,26.71Z"/><path class="cls-186" d="M94.85,26.71a2.07,2.07,0,0,1-.1-1.9,10.5,10.5,0,0,1,10,2.52c11.63,1.56,21,16.49,30.37,23.37-22.91-4.21-16.24,16.83-2.27,24.69-15.45-6.88-37.1-24.2-33.13-44.1l-.39.15A8.12,8.12,0,0,0,94.85,26.71Z"/><path class="cls-187" d="M40.37,120.93c-7.61,4.63-17.65,9.63-26.75,9.39-7.68-1.16-13.74,4-6.8,10.32,11.6,11.27,31.32,9.91,44.75,2.88C89.39,122,82.61,79.81,40.37,120.93Z"/><path class="cls-188" d="M74,105.11c9.39,14.33-12.21,33.1-22.4,38.41-11.44,6-26.42,6.66-37.78-.22C40,149.37,67.74,132.61,74,105.11Z"/><path class="cls-27" d="M70.81,103C54,122.39,30.4,140.9,3.84,135.92c-2-9,21.79-2.56,36.53-15C45.78,117.64,62,100.79,70.81,103Z"/><path class="cls-189" d="M5.93,131.84c-10.16-3.81.93,9.81-.23.55Z"/><path class="cls-190" d="M80.36,103.88a2.05,2.05,0,0,0,.13-1.9c-4.36-2.34-8.4,0-12.17,1.88L75.79,108A6.7,6.7,0,0,1,80.36,103.88Z"/><path class="cls-191" d="M21.91,148.22c23.64-.8,28.3-16,31.08-37.31,6-4.3,11.24-8.54,17.38-8A10,10,0,0,1,80.49,102a2.05,2.05,0,0,1-.13,1.9A6.7,6.7,0,0,0,75.79,108l-.41-.22c4.89,15.17-13.91,30.17-23.81,35.79C42.72,148.08,31.9,150.14,21.91,148.22Z"/><path class="cls-192" d="M80.16,33.38c.06-4.68,5.2-5.24,9-5.22,1.81,1.41-.08,3.47-.1,5.18,2.48,6.3-4.24,5.41-5.29.55Z"/><path class="cls-193" d="M87.83,49.67C65.62,88,10.32,44.88,37.19,28.91c8.83-.31,17.18,6.5,26.28,5.95,6.17.16,10.42-3.05,16.15-3.57C90.55,30.32,90.91,43.62,87.83,49.67Z"/><path class="cls-6" d="M31.62,33.21c8.29-13,22.24,9.17,48.61-1.92C72,43.36,51.57,44.69,39.64,37.05A18.84,18.84,0,0,0,42,48.18C36.24,44.88,32.28,39.12,31.62,33.21Z"/><path class="cls-194" d="M33.13,49c15.92,12.9,50.75,7.52,53.05-15.85,4.31,3.72,3.92,12.09,1.65,16.55C78.16,70.16,43.33,69.5,33.13,49Z"/><path class="cls-195" d="M35.34,27.75c9.71,7.13-3.62,10.91-.67-.33Z"/><path class="cls-196" d="M72.72,33a25.61,25.61,0,0,1,7.51-1.7h.42c1.56-3,5.27-3,8.51-3.12,1.81,1.41-.08,3.48-.1,5.18,0,1.44,1.41,3.35-.18,4.21,4.39,31.1-44.27,36.22-55.77,11.36C47.67,50.1,61.71,42.15,72.72,33Z"/><path class="cls-197" d="M72.89,113.82c-2.74,11.59-31.49,76.24-5.29,69.92,18.61-16.38,24.25-47.63,21-72.21C84.46,99.34,75.7,103.8,72.89,113.82Z"/><path class="cls-27" d="M80.49,104c-7.28,26.38-15.36,52.76-19.38,80a6.13,6.13,0,0,1-2.22-1.54C51.14,174.09,70.84,107.27,80.49,104Z"/><path class="cls-198" d="M62.55,184.4c12.78-13.21,25.65-62.89,18.88-80.48,3.27.11,6,4.12,7.17,7.61C92.47,131.05,84.55,181.28,62.55,184.4Z"/><path class="cls-199" d="M62.85,181.92c-.52-.77-1.81-.95-2.22-.15l-.54-.23a6.72,6.72,0,0,0,.88,6C62.46,186.29,63.94,183.84,62.85,181.92Z"/><path class="cls-200" d="M62,146.55c5.48-11.67,7.55-37.93,19.43-42.63h0c16.83,7.49,5.15,45.57.33,59.28.9-10,2.89-20.16.09-29.83C76.58,120.32,65.17,140.54,62,146.55Z"/><path class="cls-201" d="M100.81,88.32c2.55-3.88-.8-7.95-3.81-10.45-2.21.1-1.91,3.2-2.86,4.63-5.25,3.64-.2,7.69,3.66,3.92Z"/><path class="cls-202" d="M85.8,97.72c-5.07,47.13,59.54,45.83,49.21,14.11-6.28-5.85-16.19-5.2-22.61-11.48-4.67-3.81-6-9.37-10-13.52C94.73,78.87,86.91,90.38,85.8,97.72Z"/><path class="cls-27" d="M120.84,125.63a19.21,19.21,0,0,0,7.88-8.25c-14-1.16-27.26-15.46-26.79-30.95,13.55,26.78,35.95,16.15,34.75,32.64A17.72,17.72,0,0,1,120.84,125.63Z"/><path class="cls-203" d="M96.44,84.18c-11.07,19.71,9.31,48.66,30.42,47.67a26.4,26.4,0,0,1-26.27-.95C85.65,122.62,77.4,91.35,96.44,84.18Z"/><path class="cls-204" d="M137,112c-11.28.31-3.12,11.54.67.13Z"/><path class="cls-205" d="M91.87,86.35c-.68-1.79,1.4-2.61,2.27-3.85,1-1.42.65-4.53,2.86-4.63,2.42,2.17,5.16,4.83,4.62,8.28,4.19,3.64,5.59,9.2,9.61,13.14-21.51-4.37-17.76,21.45-8.17,32.93a23.41,23.41,0,0,1-2.47-1.32C86.82,122.35,79.1,98.85,91.87,86.35Z"/><path class="cls-206" d="M85.07,71.09c-11.2,15.81-23.9,30.85-30.87,49.48-5.54,12,7.78,16.63,15.29,8.86,16.3-13.37,28.43-34.05,31-55.72C100.08,61.69,90.1,62.78,85.07,71.09Z"/><path class="cls-27" d="M94.82,64.43C81,86.29,66.38,107.94,55.36,131.62a6.46,6.46,0,0,1-1.69-2.08C48.59,119.52,85,64.45,94.82,64.43Z"/><path class="cls-207" d="M56.61,132.45c15.24-7.83,41-49.94,39.11-67.81,3,1.08,4.57,5.55,4.74,9.07C99,92.82,77.83,136.43,56.61,132.45Z"/><path class="cls-208" d="M57.55,130.26c-.29-.86-1.45-1.41-2-.8l-.45-.37a6.25,6.25,0,0,0-.76,5.72C56,134.16,58.06,132.37,57.55,130.26Z"/><path class="cls-209" d="M93.25,64.5c17.31,3.79-.67,34.75-5.65,44.23C94.17,79.58,81,77.91,65,99.44,74.09,88,80.7,71.74,93.25,64.5Z"/><path class="cls-210" d="M57.47,49.25c-8,3.63-18.39,7.35-27.38,6-7.48-2-14,2.31-7.72,9.31C32.79,77,52.45,78,66.43,72.68,106.28,55.77,102.82,14.15,57.47,49.25Z"/><path class="cls-211" d="M92.25,37.73c8,15.08-15.21,31-25.82,35C54.52,77.2,39.62,76.09,29,68,54.14,77,83.37,64.15,92.25,37.73Z"/><path class="cls-27" d="M89.32,35.31C70.74,52.43,45.47,67.6,19.87,59.61c-1.18-9,21.9,0,37.6-10.36C63.14,46.67,80.83,32.1,89.32,35.31Z"/><path class="cls-212" d="M22.33,55.86c-9.71-4.93,0,9.71-.27.52Z"/><path class="cls-213" d="M98.69,37.28A2,2,0,0,0,99,35.43c-4.11-2.79-8.3-1-12.24.41l7,4.88A6.45,6.45,0,0,1,98.69,37.28Z"/><path class="cls-214" d="M27.3,69.13c41.58,6.64,44.23-36.2,61.59-34A10,10,0,0,1,99,35.43a2,2,0,0,1-.32,1.85,6.45,6.45,0,0,0-4.9,3.44l-.39-.27c2.85,16.66-16.93,28.35-29.3,33C52.39,77.18,37.55,76.61,27.3,69.13Z"/><path class="cls-215" d="M64.31,63.08c-5.93,6.52-14,14.06-22.62,16.25C34,80.3,30,87,38,91.15,51.76,99,69.85,92.37,80.61,82,110.06,51.93,94,11.18,64.31,63.08Z"/><path class="cls-216" d="M91.73,38.71c18.16,22.64-22.4,63.54-46.52,53.15C71.79,90.65,93,66.59,91.73,38.71Z"/><path class="cls-27" d="M88.22,37.52C77.58,60.53,60.39,85.05,34,87.38c-4.22-8.24,19.42-8.06,30.32-24.3C68.53,58.43,79.41,37.71,88.22,37.52Z"/><path class="cls-217" d="M34.88,82.86c-10.52-1,3.4,9.28-.06.6Z"/><path class="cls-218" d="M97.39,35.81A2.09,2.09,0,0,0,97,33.92c-4.7-1.11-7.88,2.24-10.92,5.09l8,2A6.79,6.79,0,0,1,97.39,35.81Z"/><path class="cls-219" d="M87.79,37.54a9.34,9.34,0,0,1,3.56-2.86l4.77,2.12a7,7,0,0,0-2,4.19l-.42-.11c7.5,12.63-2.52,28.17-10.31,38-2.55-14.23-2.39-29.48,4-41.31C87.57,37.6,87.68,37.55,87.79,37.54Z"/><path class="cls-220" d="M115.14,66c4,8.44,9.76,18.61,17.17,23.91,3.12,2.24,7.17,5.4,6,9-13.57,12.17-35.12-7-42.95-21.35C74.07,35.6,100.47,6.68,115.14,66Z"/><path class="cls-221" d="M126.16,100.29c-12.36-1.23-24.23-10.86-30.79-22.77-5.72-10.61-15.1-39.19-.29-45.47a58.93,58.93,0,0,0,31.08,68.24Z"/><path class="cls-27" d="M115.14,66c5.89,18.72,28.22,28.49,22.37,34.31C113.3,87.8,103.38,58.32,98.68,32.34,107,36.07,112.29,59.94,115.14,66Z"/><path class="cls-222" d="M137.74,95.72c9.76,2.8-5.19,7.53-.08.58Z"/><path class="cls-223" d="M90.38,27a1.83,1.83,0,0,1,.79-1.64c4.73.85,7,5.39,9.16,9.26l-8.1-1.38A8.09,8.09,0,0,0,90.38,27Z"/><path class="cls-224" d="M87.45,43.91c.36-4.14,2-8.19,5.21-10.61l-.43-.07A8.09,8.09,0,0,0,90.38,27a1.83,1.83,0,0,1,.79-1.64,11.68,11.68,0,0,1,7.92,7.19c9.33,6.67,11.53,23.54,16.27,33.88-7.59-8.1-13.84-20.42-24-24.82A4.85,4.85,0,0,0,87.45,43.91Z"/><path class="cls-225" d="M126.93,20.28C144.79,19.11,155.09,2,160.38,5.67c9.29,16-10.87,34.12-25.48,38C96.58,54.29,66.84,19.76,126.93,20.28Z"/><path class="cls-226" d="M160,18.49c-3.65,26.61-57.09,39.59-67.31,13,11.62,7.3,25.53,10,38.07,7.35A46.75,46.75,0,0,0,160,18.49Z"/><path class="cls-27" d="M126.93,20.28c18.77-1.13,30-21,34.62-13.39-15.4,22-44.38,23.12-68.13,21C98,20.4,121,21.54,126.93,20.28Z"/><path class="cls-227" d="M157.42,5.4c4.06-9.2,6,7.4.52.24Z"/><path class="cls-228" d="M87.3,35a2.14,2.14,0,0,1-1.44-1.27c1.44-4.67,6-5.73,9.9-6.88l-2.36,8A6.75,6.75,0,0,0,87.3,35Z"/><path class="cls-229" d="M7.27,103.67c1.91,11.44,14.72,17.06,25,19,15.11-4,24.55-18.36,35.64-28.8-12.61,4.79-33.51,4.2-35.44-13.18,20.32-2.1,36.71-29.05,46.94,4.93C83,79.69,91.85,78.4,96.77,83.08c-5-14.79-.85-42.16,18.68-37-8.28-3.63-14.29-14-11.88-23.35-3.29.76-5.71,1.76-8.82,2.11a2,2,0,0,0,0,1.54l-.38.36c-1.29-.77-4-2.47-3.94.28a8.61,8.61,0,0,1,.81,1.19,9.89,9.89,0,0,0-1.45.74,1.64,1.64,0,0,0-.58-.76c-3.19.1-6.88.1-8.51,3.12h-1C59.16,39.09,54.88,31,36.77,29a8.42,8.42,0,0,0-2.1-1.6,9.4,9.4,0,0,0-.33,2.65c-8.11,6.45-2.63,19.26,3.57,25.21-5.41,1.21-10.93-1.7-16.07.42-4.34-2.43-4.83.83-2,3.49,2.75,10.74,15.62,15.19,25.24,16.3-12,2.45-23.25-2.82-34.25-5.15-3.47-3.55-5-.83-2.95,2.67.4,15.51,18.18,24.16,31.91,26.47-10,4-20.46.39-30.2.92-1.1-.33-2.26-1.41-3.38-1.2A3.74,3.74,0,0,0,7.27,103.67Zm82-69.37a6.81,6.81,0,0,1,2-.07,8.51,8.51,0,0,0-1.85.67.5.5,0,0,1,0-.13C89.31,34.62,89.27,34.46,89.23,34.3Z"/><path class="cls-230" d="M6.51,102.12c1.91,11.43,14.72,17,25,19,15.11-4,24.55-18.36,35.64-28.8-12.61,4.79-33.51,4.2-35.44-13.18C52.05,77,68.45,50.07,78.67,84.06,82.2,78.14,91.1,76.84,96,81.53c-5-14.79-.85-42.17,18.68-37-8.28-3.63-14.29-14-11.88-23.36-3.29.76-5.71,1.76-8.82,2.11a2,2,0,0,0,0,1.55,4.17,4.17,0,0,0-.37.36c-1.3-.77-4-2.48-3.95.28a8,8,0,0,1,.81,1.18,9.89,9.89,0,0,0-1.45.74,1.69,1.69,0,0,0-.57-.76c-3.19.11-6.89.1-8.52,3.13h-1C58.4,37.53,54.12,29.48,36,27.46a8.92,8.92,0,0,0-2.1-1.6,9.44,9.44,0,0,0-.33,2.65C25.47,35,31,47.77,37.15,53.73c-5.41,1.2-10.93-1.7-16.07.41-4.33-2.43-4.83.84-2,3.49,2.75,10.74,15.62,15.19,25.24,16.31-12,2.44-23.25-2.83-34.25-5.15-3.47-3.56-5-.83-2.95,2.66C7.55,87,25.33,95.62,39.06,97.92c-10,4-20.46.4-30.2.92-1.1-.32-2.26-1.41-3.38-1.2A3.75,3.75,0,0,0,6.51,102.12Zm82-69.37a6.81,6.81,0,0,1,2-.08,9.07,9.07,0,0,0-1.85.67l0-.12C88.55,33.06,88.51,32.9,88.47,32.75Z"/></g></g></svg>