<svg id="Layer_1" data-name="Layer 1" xmlns="http://www.w3.org/2000/svg" viewBox="0 0 512 633.01"><defs><style>.cls-1{fill:#020202;opacity:0.2;}.cls-2,.cls-3{fill:#fbd3c7;}.cls-2{stroke:#453323;}.cls-2,.cls-5,.cls-6,.cls-9{stroke-miterlimit:10;}.cls-4{fill:#dd9f8f;}.cls-5{fill:#fac7b3;}.cls-5,.cls-6{stroke:#323232;stroke-width:0.75px;}.cls-6{fill:#fad2c6;}.cls-7{fill:#e7b4a7;}.cls-8{fill:#561211;}.cls-9{fill:#311415;stroke:#211e1f;}.cls-10{fill:#c28974;}.cls-11{fill:#f3eae3;}.cls-12{fill:#4f3317;}.cls-13{fill:#451f16;}.cls-14{fill:#fff;}.cls-15{fill:#e8194e;}.cls-16{fill:#bc7757;}</style></defs><ellipse class="cls-1" cx="255.83" cy="600.86" rx="73.83" ry="22.68"/><path class="cls-2" d="M277,574.39l.11,2.87c.62.37-8.05,24.7,2.23,29.63,13.25,6.36,36.55,1,35.74-7.59s-8.6-24.34-8.6-24.34l-1.69-110.75.44-12.52-.74-64.59-2.57-77.38s.76-4.71,4.18-.47,17.3,33.08,17.3,33.08,19.09,45.79,23.36,54.93a89.35,89.35,0,0,1,6.5,20.27c.57,2.77,3.06,22.88,3.31,24.22s1.76,5.59,3.21,3.41.77-13.77.86-15.28.43-2.41,1.54-1.3,2.45,8.27,4.45,14.5,3.84,5.45,3.84,5.45,1.48.17,1.45-3-1.65-13.3-2-16.5.48-2.9,1.9-1.63,6.32,13.75,7.23,15.38,2.55,3.64,4.46,2.82c1.08-.45.73-2,.45-4s-4.77-13.62-5.53-15.93-.1-3.11.44-2.55,8,9.59,8,9.59,4.68,4.93,6.86,3.41c1.28-.89-1.59-5.54-1.59-5.54s-11.32-16.92-13.17-19.84-1.76-3.39-.47-4.42,5.45,1.12,6.82,1.44,8.33,2,8.86-.51c.4-1.89-6.81-4.63-6.81-4.63-17.44-7-19.61-10.63-21.25-12.25s-18.43-49.28-18.43-49.28l-20.56-49.4s-5.09-13.68-11-21.36a45.37,45.37,0,0,0-18.35-14.69c-6.65-3-17.43-7.26-17.43-7.26-5.84-4-6.71-15.37-6.71-15.37H240.9s-.19,1.85-2.27,8a24,24,0,0,1-4.56,7.25c-14.21,2.72-16.76,7.14-28.8,14.65s-26.3,48-26.3,48L160.91,356.6s-12.58,32.87-15,35.65-7,5.63-9.94,7.2-14.4,4.65-16.58,7.69,1.91,3.39,1.91,3.39c5-1.17,7.93-2.67,11-2.53s2.59,1.57,2.59,1.57l-4.09,7c-3.94,6.22-12.42,16.56-12.76,17.34s-.25,4.36,1.45,3.84,4.09-2.58,7.9-7,6.62-6.91,7.17-6.61-.18,2.3-2.77,8.59c-2.39,5.82-2.94,6.85-3.78,10.5,0,0-.27,2.81,1,3.37s2-.59,2.85-1.82,6.91-13.42,7.31-14.08,3.29-4.24,3.44-2.16-3.39,11.22-3.64,16.28c-.2,4.11,1.1,4.22,2.05,4.49s1.92-.6,2.63-2.14,4.66-14.72,5.46-15.54,3.59-7.05,3,4.26c-.51,9.87.83,10.87,1,11.29s2.47.47,2.9-2.46c.69-4.68-.21-6.66,1.9-20.43s5.83-21.86,5.83-21.86l16.1-36.29s26.36-55.95,29.29-57.89,3.51,1.49,3.51,1.49-2.55,76.1-2.68,82.59-.42,65.28-.42,65.28L208,575s-7.78,15.71-8.59,24.34,22.49,14,35.73,7.59c10.28-4.93,1.62-29.26,2.23-29.63l.11-2.87,9.71-124S248,417.25,257.27,417s10.27,35.53,10.27,35.53S277.78,567.09,277,574.39Z"/><path class="cls-3" d="M280.34,248.37s-7.77,11.49-24.52,11.91-21.75-12-21.75-12a13,13,0,0,0,3.29-3.52c5.68-8.46-1.22-17.57-1.22-17.57s46.35-16.53,40.8,0c-3.77,11.25-1.14,16.31.67,19.17A6.11,6.11,0,0,0,280.34,248.37Z"/><path class="cls-4" d="M278.38,247.21a55.19,55.19,0,0,1-21.13,4.48c-7.32,0-15.09-2.63-21.11-5.35,8.62-10.7,0-19.18,0-19.18s46.35-16.53,40.8,0C273.17,238.41,275.46,243.33,278.38,247.21Z"/><path class="cls-5" d="M159.49,173.5c3,10.12,11.72,16.92,17.8,16.34s6.6-8.7,4.73-18.39-8.32-17.1-14.4-16.49C159.31,155.79,156.67,164,159.49,173.5Z"/><path class="cls-4" d="M173.16,160.86a6.36,6.36,0,0,0-6.13-1.53,4.58,4.58,0,0,0-2.64,3c-1.18,3.53-.42,7.35.8,11,1.47,4.39,4,9.08,9.32,11.28a3,3,0,0,0,1.53.31c1.17-.15,1.4-1.31,1.37-2.22l-.12-3.76a3.8,3.8,0,0,0-.64-2.38,7.61,7.61,0,0,0-2.41-1.59c-1.59-.83-3.1-1.93-3.54-3.33a2.41,2.41,0,0,1,1.3-2.87c1.11-.53,3.3.24,4.08-.45C177.4,167.17,174.34,162,173.16,160.86Z"/><path class="cls-6" d="M354.9,174.24c-3.92,9.42-13,14.45-18.78,12.71s-5.46-9.85-2.67-19.06,9.74-15.28,15.52-13.51C356.88,156.79,358.59,165.39,354.9,174.24Z"/><path class="cls-4" d="M344.14,158.37a4.48,4.48,0,0,1,5.12-.6,4.78,4.78,0,0,1,1.84,3.31c.61,3.57-.39,7.14-1.73,10.46-1.62,4-4.16,8.19-8.67,9.56a2.09,2.09,0,0,1-1.26.08c-.94-.3-1-1.46-.89-2.33l.46-3.61a4,4,0,0,1,.75-2.2,5.66,5.66,0,0,1,2.12-1.2,5.52,5.52,0,0,0,3.19-2.71,2.66,2.66,0,0,0-.77-2.95c-.84-.66-2.69-.24-3.26-1C340.09,163.87,343.07,159.3,344.14,158.37Z"/><path class="cls-2" d="M336.66,183.78c-4.7,44.11-60.85,63.56-76.9,61.86-20.48-2.17-75.47-7.73-84.46-85.32a14.72,14.72,0,0,1,.08-2v0c.79-30.34-10.23-58-7.32-69.74,10.09-40.68,17.42-24.81,65.55-29.38,45-4.28,64.19-4.41,91.91,18.74,2.44,2,10.59,4.37,10.71,11.67.22,12.44.51,21.76.78,29.24C337.92,144.62,340.38,148.78,336.66,183.78Z"/><path class="cls-7" d="M337,118.83c-12.56-16.51-28-23.74-46.8-26.85-21.15,15.11-43.55,24-69,18.89,30.4-26.06,8.22-17.21,14.07-23.44,0,6.63-12.7,16.34-25.76,11A84.83,84.83,0,0,1,186,127.08c-3.44,2.68-9,22.86-9.7,25.65-.41,1.64-.54,3.68-.88,5.57.79-30.34-10.23-58-7.32-69.74,10.09-40.68,17.42-24.81,65.55-29.38,45-4.28,64.19-4.41,91.91,18.74,2.44,2,10.59,4.37,10.71,11.67C336.45,102,336.74,111.35,337,118.83Z"/><path class="cls-4" d="M211.8,170.34a18,18,0,0,1-7.52-14.47c0-9.2,8-16.94,18.22-16.74,5,.09,10.79,1.38,17.26,8.9-4.48-8.53-14-11.7-21.4-10.71s-14.92,6.21-15.67,15.27C202,160.45,206.48,168.27,211.8,170.34Z"/><path class="cls-8" d="M235,125l-1.48-1.86c-3-3.79-7.32-5.83-11.41-5.14-5.06.85-10.5,3.81-14.36,10.46-.48.85-.86,1.18-.12.59C212.65,125,225.6,120,235,125Z"/><path class="cls-9" d="M283.39,92.27s-11.51,20.24-61.16,19.88c0,0,21.2-18.46,9.51-21.41,0,0-7.68,13.34-24.35,6.86,0,0,7.92,1.58-21.33,29.91,0,0-10.28,9.85-8.65,33.46.11,1.58-8.25-8.22-10.18-18.55,0,0-18.82-19.29-2.15-41.52,0,0-12.16-25.26,11.08-40,0,0,3.3-31.05,27.37-32.67,0,0,26.56-32.86,61.45-11.53,0,0,32.29-15.71,49.93,15.72,0,0,25.55,13.27,22.1,36.46,0,0,17,14.08,10.62,36.59,0,0,11.05,22.91-5.84,44.56L337,166.09l-1-12c-1.39-12.49-2-19.91-10.13-36.33C325.88,117.74,318.16,91.29,283.39,92.27Z"/><path class="cls-4" d="M302.44,171.88a18,18,0,0,0,9.42-13.3c1.24-9.11-5.5-17.87-15.63-19.1-5-.6-10.84-.13-18.26,6.42,5.6-7.82,15.45-9.64,22.59-7.63s13.84,8.21,13.33,17.29C313.45,163.43,308,170.56,302.44,171.88Z"/><path class="cls-10" d="M249.2,177.49s1.09,5.73,9.63,5.94S269,177.49,269,177.49,260.32,186.09,249.2,177.49Z"/><path class="cls-8" d="M282.05,122.73l1.48-1.86c3-3.79,7.32-5.83,11.41-5.14,5.06.85,10.5,3.81,14.35,10.46.49.85.87,1.18.13.59C304.36,122.74,291.41,117.68,282.05,122.73Z"/><path class="cls-11" d="M312.53,158.67c-1.3,9.55-10.89,16.27-21.41,15s-18-10.07-16.7-19.63,10.89-16.27,21.41-15S313.83,149.11,312.53,158.67Z"/><path class="cls-12" d="M312.63,158.68c-2.56,16.07-23.91,20.7-34.44,9.07-9.72-10.54-3.34-26.32,10.12-29.33,12.54-3.19,26.25,6.92,24.32,20.26Zm-.2,0c1.61-12.6-12.38-21.12-23.65-18.2-12.27,2.63-18.34,16.58-9.62,26.43,9.64,11.2,31,7.34,33.27-8.23Z"/><path class="cls-13" d="M304.07,154.8A11,11,0,0,1,295,167.31a10.68,10.68,0,0,1-12-9.4,11.06,11.06,0,0,1,9.09-12.51A10.65,10.65,0,0,1,304.07,154.8Z"/><path class="cls-14" d="M294,149.63a2.73,2.73,0,0,1-2.27,3.09,2.67,2.67,0,0,1-3-2.33A2.73,2.73,0,0,1,291,147.3,2.68,2.68,0,0,1,294,149.63Z"/><path class="cls-11" d="M203.6,155.85c0,9.65,8.57,17.63,19.21,17.83s19.32-7.46,19.35-17.1S233.6,139,223,138.75,203.64,146.21,203.6,155.85Z"/><path class="cls-12" d="M203.7,155.85c0,15.73,20.86,22.52,31.94,12.8,10.08-8.55,6-23.22-5.88-27.53-10.77-4.44-25.89,2-26.06,14.73Zm-.2,0c-.05-13.52,15-21.55,27-16.67,13,4.84,17.15,21.38,6,30.47-12.07,10-32.66,2.5-33-13.8Z"/><path class="cls-13" d="M212.56,153.2a11.05,11.05,0,0,0,7.29,13.66,10.72,10.72,0,0,0,13.25-7.63,11.05,11.05,0,0,0-7.3-13.66A10.7,10.7,0,0,0,212.56,153.2Z"/><path class="cls-14" d="M223.27,149.49a2.73,2.73,0,0,0,1.82,3.38A2.69,2.69,0,0,0,228.4,151a2.72,2.72,0,0,0-1.82-3.38A2.69,2.69,0,0,0,223.27,149.49Z"/><path class="cls-4" d="M232.62,194.78c0,2.52-.27,4.16-2.79,4.16s-8.5-5.34-9.12-7.78c-1.15-4.56,2.17-5.72,4.56-4.56S232.62,192.26,232.62,194.78Z"/><path class="cls-4" d="M289.87,196.15c0,2.52.27,4.16,2.79,4.16s8.5-5.34,9.12-7.78c1.16-4.56-2.17-5.71-4.56-4.56S289.87,193.63,289.87,196.15Z"/><path class="cls-8" d="M260,220.28c24.08,0,44.41-32.47,39.79-30.95-7.1,2.32-6.48,3.94-25.51,4.95-3.74.19-11.51.47-17.24.23a188.55,188.55,0,0,1-25.25-2.86c-3.49-.66-6.34-2.59-8.39-2.38C218.1,189.82,239,220.28,260,220.28Z"/><path class="cls-15" d="M260,220.28a25.21,25.21,0,0,1-13.44-4.06,16,16,0,0,1,10.34-6.52c6.31-1.21,16.07.23,19.52,5.11C272.86,218.46,264.45,220.17,260,220.28Z"/><path class="cls-14" d="M227.19,190.38c27,8,48.32,5.58,65.13,1.27-3.79,5.6-15.53,13.69-30.61,14.06C245.39,206.1,233.49,197.06,227.19,190.38Z"/><path class="cls-16" d="M223.53,189.17a.08.08,0,0,0-.06.14c4.9,2.3,37.2,16.05,76.31,0C299.78,189.33,269,200,223.53,189.17Z"/><path class="cls-16" d="M250.35,221.26s8,5.55,16.66.77C267,222,259,230.05,250.35,221.26Z"/></svg>