<svg id="Layer_1" data-name="Layer 1" xmlns="http://www.w3.org/2000/svg" viewBox="0 0 829.28 259.28"><defs><style>.cls-1{opacity:0.67;}.cls-2{fill:#fff;}.cls-3,.cls-8{opacity:0.29;}.cls-4,.cls-8{font-size:172.26px;font-family:CoopHeavy;}.cls-5{letter-spacing:-0.01em;}.cls-6{letter-spacing:-0.01em;}.cls-7{letter-spacing:-0.02em;}.cls-9{letter-spacing:-0.02em;}.cls-10,.cls-11{fill:#ff006c;stroke-miterlimit:10;stroke-width:2px;}.cls-10{stroke:#fff;}.cls-11{stroke:#fdfdff;}</style></defs><path class="cls-1" d="M35.2,41.34s65.7-12.44,89.36,35.22l17.49-1.71V83s25-13.27,45.26,6.81c0,0,34.29-24.51,63.78,4.43,0,0,33.61-25.87,68.24,2,0,0,20.23-25.19,52.46-6.13,0,0,1.72-27.23,24-28.25s27.43,14,28.8,22.81l18.52-3.07v8.17s27.6-14.92,47.15,9.65c0,0,17.48-19.35,37.54-10.16l-2.57-7.15,39.18,4.22,17.89,12.13,13.74,26.72L605,51.53h39.09V40.23l28.28,26.41s37-9.49,39.1,7.87l19.11,2.68L736.13,80s55-.8,52.46,63c-2.05,51.57-54.52,41.87-54.52,41.87l5.66,52.09s-25.72-4.6-57.61-8.68l3.77-24.35-13.71-2.72L668.41,193s-24.69,1.36-35.32-4.08L613.2,173.24l-13.38-2-21.94,11.57s-.09,54.62-58.64,50.38c-47-3.4-43.55-40.85-43.55-40.85l-23-6.47-.69,6.81-32.92-1.36-2.05-5.45-35.67,4.09v-6.13s-36.69,14-57.26-5.45c0,0-35.32,23.15-69.95-1.36,0,0-36,24.51-67.56-3.74l-11.14-15.49-15.43,3.06,1.54,24L109.08,191l1.79-22.71L104,168s-25.84,31.48-80.36,18.71C23.62,186.67,45,127.13,35.2,41.34Z"/><path class="cls-2" d="M31.91,33.83s68.43-12.93,91.92,34.73l17.36-1.71V75S166,61.75,186.13,81.83c0,0,34-24.51,63.32,4.43,0,0,33.36-25.87,67.74,2,0,0,20.09-25.19,52.09-6.13,0,0,1.7-27.23,23.83-28.25s27.23,14,28.59,22.81l18.38-3.07v8.17s27.41-14.92,46.81,9.65c0,0,17.36-19.35,37.28-10.16l-2.55-7.15,56.54-5.91.11,22.26,13.64,26.72,8.85-73.71h38.81V32.23l56.68-5.55s8.17,22.47,10.22,39.83L731,62.94v9s54.61-.8,52.08,63c-2,51.57-54.13,41.87-54.13,41.87l5.62,52.09s-25.53-4.6-57.19-8.68l3.75-24.35-13.62-2.72L663.74,185s-24.51,1.36-35.06-4.08l-19.75-15.66-13.27-2-21.79,11.57s-.09,54.62-58.21,50.38c-46.64-3.4-43.24-40.85-43.24-40.85l-22.8-6.47-.69,6.81-32.68-1.36-2-5.45-35.4,4.09v-6.13s-36.43,14-56.85-5.45c0,0-35.07,23.15-69.45-1.36,0,0-35.75,24.51-67.06-3.74l-11.07-15.49-15.32,3.06,1.53,24L108.46,183l1.78-22.71L103.4,160s-25.65,31.48-79.78,18.71C23.62,178.67,41.62,119.62,31.91,33.83Z"/><g class="cls-3"><text class="cls-4" transform="translate(38.38 168.2)"><tspan class="cls-5">D</tspan><tspan x="79.76" y="0">r</tspan><tspan class="cls-6" x="144.18" y="0">es</tspan><tspan class="cls-7" x="278.37" y="0">s</tspan><tspan x="340.22" y="0">ing</tspan></text></g><text class="cls-8" transform="translate(609.96 168.2)"><tspan class="cls-9">U</tspan><tspan x="81.48" y="0">p</tspan></text><path class="cls-10" d="M649.21,168c-43.07-2.41-38.42-61.84-24.64-110.24A83.82,83.82,0,0,0,648,59.84c-11,42.72-7.92,89.06,5.69,86.3,8.61-1.89,21.18-36.34.68-96.29,0,0,15-1.89,29.12-3.44,10,29.45,14.81,73.72,3.61,97C679.35,159.75,668.15,169.05,649.21,168Z"/><path class="cls-10" d="M737.06,164.58a24.82,24.82,0,0,1-18.78-7.93c.69,20.33,2.41,40.83,5,56.5-12.06-4.13-26.7-4.13-26.7-4.13,4-31.35,5-85.27,2.75-119,10.34-1.9,21.71-3.45,21.71-3.45-.69,2.93-1,6.55-1.55,10.51a27.73,27.73,0,0,1,18.08-7.23c16.71-.35,28.08,14.29,29.29,34.1C767.89,142.35,759.11,164.4,737.06,164.58Zm-10.51-55.13c-7.23,2.76-9.13,13.61-6.2,22.22,2.75,7.93,10.68,11.2,16.88,7.41,5.51-3.27,6.37-13.26,4-20.5C739,112,732.92,107,726.55,109.45Z"/><path class="cls-11" d="M96.43,150.45c-12.57,11.2-24.8,16.37-54.26,14,4.65-29.62,5.17-82.33,1.9-112.48,37-2.07,68.21,6.2,71.83,35.66C119.69,116.34,109.18,139.08,96.43,150.45ZM66.63,81.72s-.69,32,1.9,58.57c16.36-2.24,23.08-21.71,22.22-36.69C90.06,88.61,84.37,82.07,66.63,81.72Z"/><path class="cls-11" d="M155.86,127.2c.35-9.65-1.89-15.85-5.17-16.54-2.93-.52-6,.52-8.61,5,.69,17.74,2.41,37,4.48,49.61,0,0-12.92-.52-24.63,3.27,1.72-23.77,2.92-54.26-.52-77.69,0,0,12.23-.34,20.67-3.62-.17,2.76-.34,5.86-.34,9.13,6.54-6,15.67-8.44,22.56-7.23,11.37,1.89,17.23,13.09,16.88,32.38C169.64,122.55,155.86,127.2,155.86,127.2Z"/><path class="cls-11" d="M223,166.13c-14.3,1-30.66-7.07-36.17-28.94-6-24,4.48-50.47,28.42-50.82,22.91-.34,32.38,17.23,33.42,39.45,0,0-22.74.34-42.21,4,.87,10.85,4.83,19.47,10.51,18.95,5.34-.52,6.37-7.75,5.17-14.3,0,0,15.67-2.07,30.49-3.1C252.5,156.31,236.82,165.27,223,166.13Zm-8.1-62.19c-4.13.69-7.06,6.2-8.26,14a142,142,0,0,0,18.08-1.73C223.73,108.77,220.28,103.25,214.94,103.94Z"/><path class="cls-11" d="M287.12,167.16c-12.23-.17-23.08-4.31-32.21-16.54a119.75,119.75,0,0,1,15.5-17.91c5.86,11.88,16.37,14.81,18.95,11.71,2.07-2.58.69-7.06-10.51-11.88-10.16-4.31-19.12-10.68-19.63-22-.52-9.13,5.16-21.19,23.25-22,19.47-.86,28.94,12.57,33.08,25.84a68.22,68.22,0,0,0-22.23,6.54c-5.16-13.43-13.6-12.92-12.92-7.58,2.07,14.47,35.83,11.55,35.32,33.77C315.37,160.27,302.63,167.33,287.12,167.16Z"/><path class="cls-11" d="M350.52,167.16c-12.23-.17-23.09-4.31-32.22-16.54a119.5,119.5,0,0,1,15.51-17.91c5.85,11.88,16.36,14.81,18.95,11.71,2.06-2.58.68-7.06-10.51-11.88-10.16-4.31-19.12-10.68-19.64-22-.52-9.13,5.17-21.19,23.26-22,19.46-.86,28.93,12.57,33.07,25.84a68.11,68.11,0,0,0-22.22,6.54c-5.17-13.43-13.61-12.92-12.92-7.58,2.07,14.47,35.83,11.55,35.31,33.77C378.77,160.27,366,167.33,350.52,167.16Z"/><path class="cls-11" d="M399.78,83.62c-7.92,2.58-16.36,0-18.08-6.55C380,71,383.08,64.84,390,61.91c7.92-3.62,17-1,18.94,5.86C410.46,73.8,408.4,80.69,399.78,83.62Zm-15.15,84.06c3.44-21.71,2.06-53.75-1-74.93A176.53,176.53,0,0,0,408.05,89c-1.38,19.29.17,56.84,2.59,75.27C410.64,164.23,397.89,165.61,384.63,167.68Z"/><path class="cls-11" d="M448.53,163.2c8.44-24.12,6.2-50.82-1-52.88-3.45-1-6.72.34-9.65,4.3.69,19.64,2.07,40.65,3.45,54.26,0,0-12.41-.86-24.12-.51a450.39,450.39,0,0,0-.69-76.31s12.23-.52,21.19-3.79v7.58a24.91,24.91,0,0,1,20.5-6c20.84,3.27,26,32.9,16,77.34C462,164.92,448.53,163.2,448.53,163.2Z"/><path class="cls-11" d="M556.54,170.61c-5,22-20.68,42-43.58,39.61-21.71-2.23-30.32-23.08-24.29-44.44,12.05,5.51,26.18,8.27,26.18,8.27-1.38,5.51-.86,13.09,4.13,14.3,6.89,1.55,16-9,19.3-26.87.69-4.14,1.37-8.1,1.72-11.89-6.89,9.82-17.92,16.36-29.8,15.68-20.33-1.38-27.56-20.85-24.81-39.45,2.76-17.92,17.75-34.63,34.28-34.28a26.39,26.39,0,0,1,19.3,8.78c-.87-4.3-1.73-8.78-2.93-13.26,10.68-1.55,23.6-2.58,23.6-2.58C560.84,106.87,563.43,139.43,556.54,170.61Zm-42.21-51.16c-6.2,7.92-5.68,15.15-2.93,18.77,4.48,5.86,14,3.45,19.12-3.1,4.83-6,5.69-15,2.42-19.29C529.49,111.52,520,112.38,514.33,119.45Z"/></svg>