<svg xmlns="http://www.w3.org/2000/svg" xmlns:xlink="http://www.w3.org/1999/xlink" id="Layer_1" data-name="Layer 1" viewBox="0 0 1600 900"><defs><style>.cls-1{fill:none;}.cls-2{clip-path:url(#clip-path);}.cls-3{fill:#949cf4;}.cls-4{fill:#69fff0;}.cls-5{fill:#f2ff78;}.cls-6{fill:#ffacf6;stroke:#fff8f8;stroke-miterlimit:10;stroke-width:8px;}.cls-7{fill:#ffb513;}.cls-8{fill:#ffde03;}.cls-9{fill:#ff7815;}.cls-10{fill:#d64747;}.cls-11{fill:#262019;}.cls-12{fill:#fff;}.cls-13{fill:#720062;}.cls-14{fill:#9f1392;}.cls-15{fill:#c14040;}.cls-16{fill:#a53030;}.cls-17{fill:#e3728a;}.cls-18{fill:#bc3b3b;}.cls-19{fill:#1c76bc;}.cls-20{fill:#d9f5ff;}.cls-21{fill:#1a38ad;}.cls-22{fill:#5276e2;}.cls-23{fill:#163293;}.cls-24{fill:#ffffd1;}.cls-25{fill:#ff1e9d;}.cls-26{fill:#7787c8;}.cls-27{fill:#f3e63a;}.cls-28{fill:#778ac6;}.cls-29{fill:#a33838;}.cls-30{fill:#bb63ac;}.cls-31{fill:#199325;}.cls-32{fill:#46af46;}.cls-33{fill:#fff203;}.cls-34{fill:#fcb417;}.cls-35{fill:#558934;}.cls-36{fill:#ca3535;}.cls-37{fill:#801018;}.cls-38{fill:#ffab13;}.cls-39{fill:#3b4382;}.cls-40{fill:#247c24;}</style><clipPath id="clip-path"><rect class="cls-1" width="1600" height="900"/></clipPath></defs><g class="cls-2"><rect class="cls-3" x="-56.19" y="-10.96" width="1686.37" height="910.96"/><polygon class="cls-4" points="928.08 661.93 1424.66 -10.96 1661.6 -10.96 1650.61 930.45 817.38 910.59 928.08 661.93"/><polygon class="cls-5" points="636.23 614.59 223.64 -22.19 -9.05 -34.45 -9.05 912.11 825.04 910.57 636.23 614.59"/><path class="cls-7" d="M614,228.07s16.29-6.11,34.17,19.4,50.78,91.37,50.78,91.37-24,15.55-33.22,16.92C650.39,331.85,614.44,245.62,614,228.07Z"/><path class="cls-7" d="M563.65,232.59s-17.3-3.52-32.4,23.74-40.42,95.36-40.42,95.36,25.56,12.93,34.82,13.32C538.35,339.62,565,250.09,563.65,232.59Z"/><path class="cls-8" d="M573.4,223.15c-10.81,5.56-14.86,11.84-26.15,42.38-11.07,29.94-14.43,112.89-14.43,112.89s65.94,5.79,130.06-7.29c-11.44-45.3-28.48-140.09-53.24-148C588.91,216.43,582.8,218.32,573.4,223.15Z"/><path class="cls-9" d="M579.87,244.47s-6.3-14.24-26.16-18.06-19.62-40.73,1-61.72c22.85-23.25,58.5-25.81,75.62,23.22S583.88,216.83,579.87,244.47Z"/><path class="cls-8" d="M636.66,190.56C632.86,175,624,158.15,610.2,149.3c-25.68-16.46-57,4.19-69.2,27.79-6.77,13.11-10,31.07-2.78,44.65,3.31,6.21,8.81,8.79,15.34,10.31a34.92,34.92,0,0,1,18.62,11,25.32,25.32,0,0,1,3,4.32,3,3,0,0,0,.47.93c.93,1.93,2.71,2,4.43,1a7.89,7.89,0,0,0,4.61-6.37c.4-2.46,1.78-4,4.21-5.54,3.61-2.3,7.28-3.36,11.82-4.7,9.56-2.81,19.4-4.93,27.49-11.08C638,214.19,639.4,201.78,636.66,190.56Zm-11.45,15.55a9.69,9.69,0,0,1-1.52,4.24c.7-1.24-1.08,1.15-.78,1a19.92,19.92,0,0,1-1.81,1.62L621,213l-.36.23c-.41.28-.83.52-1.25.77-.86.5-1.75.95-2.65,1.37-11.2,5.28-27.89,6.11-36.2,16.13C575,225,566.29,221,558.41,219.33c-12.91-2.66-12.64-19.75-10.11-29.68,5.8-22.78,33.38-42.73,55.38-27.32,11.43,8,18.72,23.21,21.25,36.59A24.42,24.42,0,0,1,625.21,206.11Z"/><path class="cls-10" d="M584.12,272.19q-.84-13.45-1.69-26.91c-.1-1.6-2.45.08-2.37,1.34q3.71,59,7.4,118l.93,14.74,2.45-.09Z"/><path class="cls-11" d="M600,349.25a2.89,2.89,0,1,1-3.12-2.65A2.89,2.89,0,0,1,600,349.25Z"/><path class="cls-11" d="M601.57,368.87a2.9,2.9,0,1,1-3.13-2.65A2.9,2.9,0,0,1,601.57,368.87Z"/><path class="cls-11" d="M598.46,329.63a2.89,2.89,0,1,1-3.12-2.65A2.89,2.89,0,0,1,598.46,329.63Z"/><path class="cls-11" d="M596.67,310a2.89,2.89,0,1,1-3.13-2.64A2.89,2.89,0,0,1,596.67,310Z"/><path class="cls-11" d="M594.59,290.43a2.89,2.89,0,1,1-3.12-2.65A2.89,2.89,0,0,1,594.59,290.43Z"/><path class="cls-11" d="M592.63,270.83a2.89,2.89,0,1,1-3.13-2.65A2.91,2.91,0,0,1,592.63,270.83Z"/><path class="cls-11" d="M590.71,251.23a2.89,2.89,0,1,1-3.12-2.65A2.89,2.89,0,0,1,590.71,251.23Z"/><path class="cls-7" d="M544.36,328.72l34.37-1.46c.6,14.09.87,32.73-17.22,33.5C542.69,361.56,544.36,328.72,544.36,328.72Z"/><path class="cls-10" d="M544.38,333.5,578.89,332c0-1.62-.09-3.22-.16-4.76l-34.37,1.46S544.27,330.62,544.38,333.5Z"/><path class="cls-7" d="M607.56,324.45,641.79,321c1.42,14,2.79,32.63-15.24,34.46C607.81,357.33,607.56,324.45,607.56,324.45Z"/><path class="cls-10" d="M607.86,329.21l34.36-3.49c-.12-1.62-.28-3.21-.43-4.75l-34.23,3.48S607.57,326.35,607.86,329.21Z"/><path class="cls-10" d="M525.65,365c1.1-2.19,2.29-4.86,3.57-7.91L494,343.28c-2,5.23-3.19,8.41-3.19,8.41S516.39,364.62,525.65,365Z"/><path class="cls-10" d="M665.32,355.8c-1.31-2.06-2.78-4.6-4.35-7.5l33.92-17.39c2.53,5,4,8,4,8S674.5,354.46,665.32,355.8Z"/><path class="cls-11" d="M574,233.52a2.24,2.24,0,1,1-2.23-2.26A2.24,2.24,0,0,1,574,233.52Z"/><path class="cls-12" d="M570.92,233.31l-.3,35c0,1.2,1.62.46,1.63-.42q.13-17.52.29-35c0-1.2-1.61-.46-1.62.42Z"/><path class="cls-11" d="M597.06,231.29a2.27,2.27,0,1,1-2.52-2A2.26,2.26,0,0,1,597.06,231.29Z"/><path class="cls-12" d="M594,231.46q2.06,17.4,4.12,34.79c.14,1.19,1.66.25,1.55-.62l-4.11-34.79c-.14-1.19-1.66-.25-1.56.62Z"/><path class="cls-13" d="M959.13,361.27S956.78,368.44,968,372s17.82,3.1,24.67.33,10.54-7.28,16.68-8.34,7,.32,8.84-8.38C1005.13,358,959.13,361.27,959.13,361.27Z"/><path class="cls-14" d="M1025.91,294s-3.84,20-5.88,30.24,3.35,29-3.78,32.62-13,4.24-18.94,9.35-20.64,5.16-28.27,2.28-15-7.65-5-13.6c9.62-5.73,23.15-11.49,22.36-32.42s-2.78-30.27-2.78-30.27Z"/><path class="cls-13" d="M1026.25,293.58c-.11,2.49-9.78,4.07-21.58,3.54s-21.29-3-21.18-5.48,9.78-4.06,21.59-3.53S1026.36,291.1,1026.25,293.58Z"/><path class="cls-11" d="M1019.46,304.58a2.17,2.17,0,1,1-2.07-2.27A2.17,2.17,0,0,1,1019.46,304.58Z"/><path class="cls-11" d="M1002.65,313.71a2.17,2.17,0,1,1-2.07-2.27A2.17,2.17,0,0,1,1002.65,313.71Z"/><path class="cls-11" d="M1013.94,330.57a2.17,2.17,0,1,1-2.07-2.27A2.16,2.16,0,0,1,1013.94,330.57Z"/><path class="cls-11" d="M971.33,359.33a2.17,2.17,0,1,1-2.06-2.26A2.17,2.17,0,0,1,971.33,359.33Z"/><path class="cls-11" d="M990.62,361.63a2.17,2.17,0,1,1-2.06-2.26A2.16,2.16,0,0,1,990.62,361.63Z"/><path class="cls-11" d="M1009.47,351a2.18,2.18,0,0,1-2.27,2.06,2.17,2.17,0,0,1,.2-4.33A2.18,2.18,0,0,1,1009.47,351Z"/><path class="cls-11" d="M993.71,341.47a2.17,2.17,0,1,1-2.07-2.26A2.18,2.18,0,0,1,993.71,341.47Z"/><path class="cls-11" d="M987.84,301a2.15,2.15,0,0,0-3.19-2c.14,1.17.29,2.49.45,4a1.85,1.85,0,0,0,.48.08A2.16,2.16,0,0,0,987.84,301Z"/><path class="cls-11" d="M988.82,327.26a2.18,2.18,0,0,0-2.07-2.27l-.33,0a37.72,37.72,0,0,1-.31,4.25,2.12,2.12,0,0,0,.44.06A2.17,2.17,0,0,0,988.82,327.26Z"/><path class="cls-13" d="M1002.36,370.63s-2.35,7.17,8.89,10.69,17.82,3.1,24.67.33,10.53-7.28,16.67-8.34,7,.32,8.85-8.38C1048.36,367.34,1002.36,370.63,1002.36,370.63Z"/><path class="cls-14" d="M1069.14,303.4s-3.84,20-5.88,30.24,3.35,29-3.78,32.62-13,4.24-18.94,9.35-20.65,5.15-28.27,2.27-15-7.64-5-13.59c9.62-5.73,23.15-11.49,22.36-32.42s-2.78-30.27-2.78-30.27Z"/><ellipse class="cls-13" cx="1048.1" cy="301.97" rx="4.51" ry="21.4" transform="translate(698.9 1335.3) rotate(-87.4)"/><path class="cls-11" d="M1062.69,313.94a2.17,2.17,0,1,1-2.07-2.26A2.17,2.17,0,0,1,1062.69,313.94Z"/><path class="cls-11" d="M1045.88,323.07a2.17,2.17,0,1,1-2.07-2.27A2.17,2.17,0,0,1,1045.88,323.07Z"/><path class="cls-11" d="M1057.17,339.92a2.17,2.17,0,1,1-2.07-2.26A2.18,2.18,0,0,1,1057.17,339.92Z"/><path class="cls-11" d="M1014.56,368.69a2.17,2.17,0,1,1-2.07-2.27A2.17,2.17,0,0,1,1014.56,368.69Z"/><path class="cls-11" d="M1033.85,371a2.17,2.17,0,1,1-2.07-2.27A2.17,2.17,0,0,1,1033.85,371Z"/><path class="cls-11" d="M1052.69,360.3a2.17,2.17,0,1,1-2.06-2.26A2.16,2.16,0,0,1,1052.69,360.3Z"/><path class="cls-11" d="M1036.94,350.83a2.17,2.17,0,1,1-2.07-2.27A2.17,2.17,0,0,1,1036.94,350.83Z"/><path class="cls-11" d="M1031.07,310.33a2.17,2.17,0,0,0-2.07-2.26,2.11,2.11,0,0,0-1.12.26c.14,1.17.29,2.5.44,4a2.64,2.64,0,0,0,.49.08A2.17,2.17,0,0,0,1031.07,310.33Z"/><path class="cls-11" d="M1032.05,336.61a2.17,2.17,0,0,0-2.07-2.26l-.33,0a37.19,37.19,0,0,1-.31,4.24,2.13,2.13,0,0,0,.44.07A2.17,2.17,0,0,0,1032.05,336.61Z"/><path class="cls-15" d="M937.89,223s-21.49-7-32.13,5.63c-8.52-2.71-32.74-10.83-48.72-1.07-11.25-3.95-29.18-15.12-54.18-2.75-8.64-13.37-31.68-19.51-45.47-13-3-10.9-14.77-15.62-22.25-16.62C759.61,169.13,903.67,166.64,937.89,223Z"/><path class="cls-16" d="M763.46,204.7a82.34,82.34,0,0,1,7-11,183.35,183.35,0,0,1,25.35-28c1.73-1.57.17-3.28-1.55-1.7a193,193,0,0,0-25.65,28.17,88.14,88.14,0,0,0-7.89,12.31c-1.13,2.26,2,1.64,2.77.17Z"/><path class="cls-16" d="M810.28,214.49a84.06,84.06,0,0,1,2.31-12.79,183,183,0,0,1,12.91-35.48c1-2.11-1.08-3.1-2.09-1A194.79,194.79,0,0,0,810.3,201a90,90,0,0,0-2.65,14.39c-.19,2.51,2.51.74,2.63-.9Z"/><path class="cls-16" d="M877.85,180c10.4,11.11,20.69,25,24.29,40,.29,1.21,1.49,0,1.23-1.11-3.62-15.09-14-29.23-24.51-40.43-.82-.86-2.94,1.08-2.14,1.94Z"/><path class="cls-16" d="M854.12,173.22c4.5,14.54,7.67,31.57,4.36,46.61-.26,1.22,1.36.64,1.59-.46,3.34-15.16.16-32.43-4.38-47.08-.36-1.13-3.12-.3-2.77.82Z"/><path class="cls-11" d="M848.06,139.7a1.94,1.94,0,0,1-2.12,1.74h0a1.94,1.94,0,0,1-2-1.95l.48-9.66a1.94,1.94,0,0,1,2.13-1.76h0a2,2,0,0,1,1.94,2Z"/><path class="cls-11" d="M843.75,176.89c-1.55.08-2.69,2.07-2.84,3.42,0,.38-.07.76-.12,1.13q-.69,6.23-1.41,12.43-1.32,11.31-2.71,22.58-1.74,14.16-3.64,28.27-2,14.76-4.19,29.49c-1,6.52-2,13-3.17,19.49l4.08,1.88c.27-1.54.55-3.07.81-4.62,1.59-9.31,3-18.65,4.36-28q2.15-14.76,4-29.56,1.72-13.29,3.32-26.62c.78-6.42,1.52-12.83,2.26-19.25.28-2.48.56-4.94.84-7.41C845.48,179,845.45,176.82,843.75,176.89Z"/><path class="cls-17" d="M812.22,291c4,.5,4,2.52,4,5.08s.19,4.7,3.16,5,5.06.12,5.6-11,9.75-10.47,8.31-2.23c-1.39,8-1.24,23.85-14.43,22.19S806.34,290.22,812.22,291Z"/><path class="cls-17" d="M735.07,195.1s43.48-65.21,113.33-56.27c62.27,8,89.57,74.51,89.59,84.27-10.44-13.85-19.3-16.66-28.08-13.6-5.12-9.12-20.16-20.14-41.37-13-12.92-10.93-39-14.92-55.6-3.79-15.2-9.9-29.56-10.17-44.84-.18C755,183.28,741.58,189.35,735.07,195.1Z"/><path class="cls-18" d="M771.12,181.68c7.77-10.78,25.76-29,46.3-37,1.53-.6,3.78-3.36,1.42-2.46-19.52,7.52-37.63,22.32-49.86,39.31-1.49,2.07-.24,2.89.92,1.27Z"/><path class="cls-18" d="M836.34,145.24c-13.18,9.12-21.27,25.79-24.47,41-.47,2.23,2.09.85,2.39-.59,2.92-13.89,10.79-30.64,22.6-38.8,1.6-1.11,1.6-3.08-.52-1.61Z"/><path class="cls-18" d="M853.28,147.54c7.33,3.66,13.5,28.4,12.75,42.84-.07,1.46,2.38,0,2.43-1,.47-9.11-3.72-33.65-13.05-43.74-.81-.88-2.93,1.07-2.13,1.94Z"/><path class="cls-18" d="M865.14,147.53c6.23,3.48,11.54,8.3,16.9,13,10.9,9.52,20.32,21.35,24.64,35.32.31,1,2.24-.38,2-1.28-4.4-14.2-23.92-38-42.51-48.51-.8-.45-2.67.62-1.7,1.16Z"/><path class="cls-19" d="M1085.55,183.28s27.5,33.88,60.85,24.21c27.75,20.88,51.08,17.87,58.7,2.86s.35-35.92-13.09-37.16c5.65-5.95,8.69-42.45-34.43-35,4.34-25.33-37.56-51.82-57.73-23.79-12.75-13.27-35.51-7.57-38.17,9.4-18-6.33-34.91,7.42-30.62,29.61S1070.85,187.27,1085.55,183.28Z"/><path class="cls-20" d="M1061.12,192.74s-18.8,15.8-7.16,21S1061.12,192.74,1061.12,192.74Z"/><path class="cls-20" d="M1081.32,212.87s-18.81,15.78-7.16,21S1081.32,212.87,1081.32,212.87Z"/><path class="cls-20" d="M1122,229.3s-18.81,15.79-7.17,21S1122,229.3,1122,229.3Z"/><path class="cls-20" d="M1133.63,255.36s-18.81,15.8-7.17,21S1133.63,255.36,1133.63,255.36Z"/><path class="cls-20" d="M1147.83,227.76s-18.81,15.79-7.16,21S1147.83,227.76,1147.83,227.76Z"/><path class="cls-20" d="M1095.56,240s-18.81,15.8-7.17,21S1095.56,240,1095.56,240Z"/><path class="cls-20" d="M1106.3,211s-18.81,15.8-7.16,21S1106.3,211,1106.3,211Z"/><path class="cls-20" d="M1057.21,224.5s-18.8,15.8-7.17,21S1057.21,224.5,1057.21,224.5Z"/><path class="cls-21" d="M1260.44,629.4q4.89,1,9.77,2c2.29.48,6.49.57,8.5,2a1.37,1.37,0,0,1,.39,1.42,80.23,80.23,0,0,0-.51,8.21c0,.47-.28,1.23-.88,1.14l-18.46-3c-.76-.12-.89-1.06-.82-1.64l1.17-9.35C1259.64,629.84,1260,629.31,1260.44,629.4Z"/><path class="cls-22" d="M1292.31,545.52c2.74,6.73,3.88,16.38-1.29,23.89,3.24,4.84,3.38,16.34-3.35,24.13,3.85,2.48,7,16.29-1.8,24.43,1.22,8-1.48,12.91-6.53,17.68l-20.44-4.1c-1.39-2.11-8-12.83-1.8-18.11-8.44-6.24-5.66-17.47-.94-22.45a21.79,21.79,0,0,1,.78-19.37c2.4-3.91,30.21-44.19,30.21-44.19S1296.09,536.7,1292.31,545.52Z"/><path class="cls-21" d="M1286,617.35l-28.76-4.54c-1-.16-1.49,1.07-.34,1.25l28.77,4.54c1,.15,1.49-1.07.33-1.25Z"/><path class="cls-21" d="M1288.21,592.47l-32-2.36c-1-.08-1.51,1.16-.33,1.25l32,2.36c1,.07,1.51-1.16.33-1.25Z"/><path class="cls-21" d="M1291,568.79l-38.1,1.94c-1.11.06-.95,1.3.14,1.24l38.1-1.94c1.12-.06,1-1.3-.14-1.24Z"/><path class="cls-21" d="M1291.84,544.94l-30.44,3.6c-1.09.13-1,1.37.15,1.24l30.43-3.6c1.1-.13,1-1.37-.14-1.24Z"/><path class="cls-21" d="M1145.21,520.12q-1.26-4.83-2.55-9.65c-.6-2.26-.91-6.45-2.48-8.38a1.34,1.34,0,0,0-1.44-.31,79.34,79.34,0,0,1-8.18.94c-.46,0-1.2.34-1.08.94q2,9.13,4,18.27c.16.76,1.11.83,1.68.73l9.28-1.66C1144.81,520.94,1145.32,520.56,1145.21,520.12Z"/><path class="cls-22" d="M1227.29,483.86c-6.87-2.39-16.56-3-23.79,2.54-5-3-15.57-5.34-23.75,3.14-2.67-3.71-13.63-6.4-24.93,4.14-8.07-.8-12.36,2.6-16.85,7.89l5.18,20.2c2.18,1.28,12,7.28,17,.82,6.67,8.1,19.49,3.46,24.21-1.52,7.56,3,15,2.09,18.77-.51s42.61-33.25,42.61-33.25S1235.89,479.61,1227.29,483.86Z"/><path class="cls-21" d="M1154.18,493.76q2.65,14.44,5.3,28.9c.11.6,1.38.44,1.27-.14q-2.65-14.46-5.3-28.91c-.11-.59-1.38-.44-1.27.15Z"/><path class="cls-21" d="M1179.12,489.62q2.13,15.92,4.27,31.84c.08.6,1.35.45,1.27-.14q-2.15-15.93-4.27-31.85c-.09-.6-1.35-.45-1.27.15Z"/><path class="cls-21" d="M1202.87,486.47q1.28,14.65,2.56,29.3c.06.59,1.32.45,1.27-.15q-1.28-14.64-2.57-29.29c-.05-.6-1.31-.46-1.26.14Z"/><path class="cls-22" d="M1246.87,488s-6.1-4.81-18.71,2.52-29,20.71-29.37,27.67c-5.78-2.13-19.21,8.43-19.43,16.33-7.69.16-19.07,12.63-18.56,18.18-8.13.89-19.6,13.89-17.57,24.37,17.92,22.31,60,56.3,60,56.3s21.12-5.1,24.35-18.53c11.37-3.38,15.67-10.32,17.37-19.34,7-3.24,17.31-13.73,15.6-19.15,4.85.05,38.75-35.07,24.52-52.08S1246.87,488,1246.87,488Z"/><path class="cls-21" d="M1215.72,628.68c-39.9-32.31-61.44-56.39-68.79-65.17-2.93,4.64-4.66,9.71-3.72,13.5,17.92,22.31,60,56.3,60,56.3A44.41,44.41,0,0,0,1215.72,628.68Z"/><path class="cls-21" d="M1160.28,553l66.21,62.79c.41.38,1.56-.08,1-.57l-66.21-62.8c-.41-.38-1.56.09-1,.58Z"/><path class="cls-21" d="M1178.75,534.34l65.57,62.18c.41.39,1.56-.08,1-.57l-65.56-62.19c-.41-.38-1.56.09-1,.58Z"/><path class="cls-21" d="M1197.82,517.71l62.29,59.91c.45.43,1.74-.08,1.17-.62L1199,517.09c-.45-.43-1.74.07-1.17.62Z"/><polygon class="cls-11" points="1192.07 551.76 1171.67 556.81 1172.96 559.57 1193.7 554.44 1192.07 551.76"/><polygon class="cls-11" points="1226.33 584.01 1222.36 604.65 1219.54 603.51 1223.57 582.53 1226.33 584.01"/><path class="cls-23" d="M1278.38,556.55l-62.69-59.46c-.35.25-.69.51-1,.77l63,59.73C1277.9,557.25,1278.14,556.9,1278.38,556.55Z"/><path class="cls-11" d="M1267.88,504.83c-32.07,33.81-64.07,67.45-96.14,101.26-.1.47,1.39,1.78,1.62,1.53l96.49-101.74c1.14-1.2-1.14-1.93-2-1.05Z"/><path class="cls-22" d="M1256.24,507.5s-17.41-18.38-2-37.95,39-35.84,56.41-28.64,27.26,28.34,21,46.07-23.72,32.89-33.5,37.3-21.39.25-26.89-2.48S1256.24,507.5,1256.24,507.5Z"/><path class="cls-23" d="M1271,495.21s-6.18-9.2-3.6-18a35.06,35.06,0,0,1,14.62-19.59c6.6-4.39,21.77-9.47,30.38-2.52s11.8,21.23,8.43,29.59-12.74,19.85-20.2,21.3S1278,506.42,1271,495.21Z"/><path class="cls-24" d="M1321.92,457.28c-9.27-14.52-29.18-11.37-41.82-3.34-14.32,9.1-22.87,27.38-12.88,42.67,9.22,13.39,30.57,18,43.92,8.23C1326.59,493.52,1332.5,473.84,1321.92,457.28Zm-26.5,48.31c-8.8,0-17.39-3.41-22.46-10.78-7.37-11.27-3.83-23.69,5.12-33,8.74-9.1,26.3-15.25,36.24-5.07,5.15,5.27,7.18,13.3,7.28,20.44s-4.39,13.43-8.59,18.73C1308.34,501.78,1303.05,505.56,1295.42,505.59Z"/><path class="cls-11" d="M1261.72,502.25a2,2,0,1,1,.26-2.89A2.05,2.05,0,0,1,1261.72,502.25Z"/><path class="cls-24" d="M1260.06,500q-12.25,10.29-24.51,20.56c-.84.7.64,1.39,1.26.88q12.24-10.29,24.51-20.56c.84-.7-.64-1.39-1.26-.88Z"/><path class="cls-11" d="M1275.71,515.61a2.08,2.08,0,1,1-.12-2.93A2.07,2.07,0,0,1,1275.71,515.61Z"/><path class="cls-24" d="M1273.76,513.57,1252,537.05c-.75.8.81,1.3,1.35.71q10.86-11.75,21.73-23.47c.75-.81-.8-1.31-1.35-.72Z"/><path class="cls-12" d="M1277.73,303.91l-28.64,10.95,9.88-28.55a1.49,1.49,0,0,0-.92-1.89,1.48,1.48,0,0,0-1.89.92l-9.55,27.6-10.44-27.28a1.49,1.49,0,0,0-2.78,1.06l10.38,27.15-25.11-14.63a1.49,1.49,0,1,0-1.5,2.57l26.17,15.25-27.79,10.63a1.49,1.49,0,0,0,1.06,2.79l27.58-10.55-9.8,28.33a1.49,1.49,0,1,0,2.81,1l9.55-27.6,10.43,27.28a1.49,1.49,0,1,0,2.79-1.07l-10.38-27.15,25.11,14.63a1.48,1.48,0,0,0,2-.53,1.5,1.5,0,0,0-.54-2l-26-15.13,28.59-10.93a1.49,1.49,0,0,0-1.07-2.79Z"/><path class="cls-12" d="M1320.24,259.38s13.4,30.41,39.84,30c16.2,20.9,33.94,23.37,42.54,13.88s7.47-26.32-2.15-29.93c5.34-3.24,14.9-29.43-18.27-32.62,8.28-17.74-17.19-45.61-37.63-29.07-6.7-12.31-24.56-12.69-29.92-.75-11.93-8.26-27.14-1.56-28.44,15.6S1308.64,259.35,1320.24,259.38Z"/><path class="cls-25" d="M1377,366.58a12.67,12.67,0,1,1,9.84-15A12.67,12.67,0,0,1,1377,366.58Z"/><path class="cls-16" d="M1376.33,365.1c-13.92,2.2-17.71-17.94-4.29-21.4,6.37-1.64,11.94,3.59,12.87,9.51.89,5.63-3.38,10.56-8.58,11.89-.56.15-.22.72.26.59,5.89-1.51,10.65-7.3,9-13.66a11.89,11.89,0,0,0-13.82-8.92c-6,.95-10.54,7.74-9,13.66a11.87,11.87,0,0,0,13.82,8.92C1377.17,365.6,1376.81,365,1376.33,365.1Z"/><path class="cls-16" d="M1376,362c-10.14,1.6-12.87-13.14-3.11-15.65,4.65-1.19,8.69,2.64,9.36,6.95.65,4.11-2.45,7.73-6.25,8.7-.56.15-.22.72.26.59,4.4-1.13,8-5.44,6.74-10.19a8.88,8.88,0,0,0-10.36-6.64,8.64,8.64,0,0,0-6.74,10.19,8.88,8.88,0,0,0,10.36,6.64C1376.82,362.5,1376.47,361.93,1376,362Z"/><path class="cls-16" d="M1375.56,359.05c-5.92.93-7.45-7.76-1.77-9.22,2.7-.7,5,1.59,5.42,4.09a4.73,4.73,0,0,1-3.65,5.13c-.56.15-.22.72.26.59,2.73-.7,4.94-3.35,4.18-6.31a5.53,5.53,0,0,0-6.47-4.09,5.33,5.33,0,0,0-4.18,6.31,5.53,5.53,0,0,0,6.47,4.09C1376.4,359.55,1376,359,1375.56,359.05Z"/><path class="cls-26" d="M1353.92,418.45c13.62-15.45,31.51-41.5,13.63-58.15-16.52-15.38-42.06,2.37-56.64,15.22A253.38,253.38,0,0,0,1353.92,418.45Z"/><path class="cls-25" d="M1318.52,367.84s-1.82-4-5-1.88-13.17,5.81-9.27,13.76,8.08,13.64,17.74,25.35c9.79,11.86,26.77,24.5,30.74,20.86,4.41-4,9.73-9.44,7-11.91C1356,413.56,1323.45,390.54,1318.52,367.84Z"/><path class="cls-11" d="M1351.47,362.57c-.06.44.46.69.84.64l4.75-.67-.24,1.52-.49,3.22c-.07.45.47.69.84.64l3.1-.4,1.76-.23.31,0-1.46,6.28c-.11.45.49.69.84.64l6.94-1h0l0,2.42,0,4c0,.47.77.54,1.06.46l2.19-.64,1.71-.5.3-.08,0,5.53a.41.41,0,0,0,.29.38,31.65,31.65,0,0,0,.95-7.2,1.39,1.39,0,0,0-.71-.06l-2.2.65-1.71.49-.3.09.06-6.28c0-.37-.59-.53-.85-.49l-6.77.93.52-2.26.94-4c.1-.45-.5-.69-.85-.65l-5.23.68.24-1.54.49-3.21c.07-.45-.47-.7-.85-.65l-4.75.67.23-1.69.34-2.48c.07-.45-.46-.69-.84-.64l-5.79.68.67-2.47.18-.69c-.55.08-1.1.17-1.66.29l-.94,3.45c-.11.45.52.69.85.65l6-.71a2.61,2.61,0,0,0-.21.82Z"/><path class="cls-27" d="M1347.58,362.19c.7,1.45-2.4,3.39-3.35,1.45C1343.07,361.39,1346.66,360.31,1347.58,362.19Z"/><path class="cls-27" d="M1340.12,357.57c1,1.95,4.05,0,3.35-1.45a1.81,1.81,0,0,0-.33-.44c-1.08.31-2.16.67-3.25,1.07A1.86,1.86,0,0,0,1340.12,357.57Z"/><path class="cls-27" d="M1352.74,367.82c.71,1.45-2.39,3.4-3.35,1.45C1348.24,367,1351.83,365.94,1352.74,367.82Z"/><path class="cls-27" d="M1358.1,373.2c.71,1.47-2.39,3.41-3.36,1.44C1353.59,372.4,1357.18,371.31,1358.1,373.2Z"/><path class="cls-27" d="M1364.2,378.8c.71,1.45-2.4,3.4-3.35,1.45C1359.7,378,1363.29,376.92,1364.2,378.8Z"/><path class="cls-27" d="M1370,384c.71,1.45-2.4,3.4-3.35,1.45C1365.52,383.15,1369.1,382.07,1370,384Z"/><path class="cls-27" d="M1371.66,388.77a1.37,1.37,0,0,0,1.07.8c.39-1.05.74-2.11,1-3.16C1372.46,386.15,1370.83,387.15,1371.66,388.77Z"/><path class="cls-27" d="M1356.63,412.46c-.68-.4-1.45-.87-2.29-1.43a41.73,41.73,0,0,1-10.07,13.17c.8.43,1.58.82,2.31,1.13A43.78,43.78,0,0,0,1356.63,412.46Z"/><path class="cls-27" d="M1348.11,406.52c-.68-.53-1.37-1.08-2.08-1.66a41.31,41.31,0,0,1-11.34,12.72c.63.51,1.26,1,1.88,1.49A44.28,44.28,0,0,0,1348.11,406.52Z"/><path class="cls-27" d="M1339.51,399.16c-.63-.59-1.26-1.2-1.9-1.82a42.1,42.1,0,0,1-11.68,12.16c.52.54,1.06,1.09,1.61,1.63A44.13,44.13,0,0,0,1339.51,399.16Z"/><path class="cls-27" d="M1331.94,391.38c-.55-.62-1.09-1.26-1.63-1.9a77.68,77.68,0,0,1-12,11.08l1.46,1.79A79,79,0,0,0,1331.94,391.38Z"/><path class="cls-27" d="M1319.7,372.16c-.25-.67-.47-1.34-.67-2a44.93,44.93,0,0,0-14.91,9.51c.38.79.77,1.55,1.17,2.29A42.19,42.19,0,0,1,1319.7,372.16Z"/><path class="cls-27" d="M1325.13,382.58c-.4-.61-.8-1.23-1.18-1.85a45.1,45.1,0,0,0-13.17,10.09c.48.68,1,1.38,1.51,2.09A42.11,42.11,0,0,1,1325.13,382.58Z"/><path class="cls-11" d="M1342,373.45c-.11.37.43.65.72.65,1.72,0,3.44,0,5.14,0a2.11,2.11,0,0,0-.19.68l-.4,2.83c0,.38.41.64.73.62,1.36-.06,2.71-.14,4-.24l-.16,1.28-.32,2.72c0,.38.44.62.76.59l2.62-.22,1.48-.15.27,0q-.46,2.64-.82,5.34c0,.38.5.6.79.56,2-.25,3.9-.55,5.8-.9h0l.24,2.07c.14,1.14.31,2.28.49,3.43.07.4.74.43,1,.34l1.76-.68,1.35-.55.24-.1c.27,1.56.57,3.14.92,4.72.07.32.59.39.81.34l.09,0c.2-.38.4-.75.59-1.13l-.32.07c-.35-1.63-.66-3.24-.93-4.86-.07-.39-.72-.38-.94-.29l-1.74.7-1.36.54-.24.09q-.42-2.68-.7-5.34c0-.31-.55-.42-.76-.38q-2.79.51-5.64.89l.26-1.93.54-3.39c.06-.37-.45-.58-.74-.55-1.45.16-2.93.3-4.4.42l.14-1.3.34-2.7c0-.37-.41-.61-.73-.58-1.33.1-2.68.18-4,.25l.19-1.43.31-2.05c.06-.38-.39-.62-.71-.62-1.64,0-3.29,0-5,0l.64-2,.89-2.61c.14-.43-.56-.7-.86-.63-1.42.31-2.84.61-4.28.9q.48-2.62,1-5.19c.09-.36-.32-.64-.66-.65l-3.81-.21.2-.83.65-2.24c.12-.39-.33-.61-.64-.68l-1.35-.33c-.44.21-.87.41-1.3.63.62.15,1.24.31,1.86.45-.09,0-.08.26-.28.94L1335,363c-.09.36.35.67.67.69l2.35.14,1.53.08c-.39,1.79-.75,3.59-1.08,5.42-.09.44.51.74.87.67,1.38-.27,2.75-.56,4.12-.86C1343,370.53,1342.49,372,1342,373.45Z"/><path class="cls-24" d="M1332.29,374.38l-3.12-3.31,4.62-.3a.26.26,0,0,0,.22-.24.23.23,0,0,0-.24-.21l-4.45.3,3.35-3a.22.22,0,0,0,0-.32.23.23,0,0,0-.32,0l-3.34,3,.78-4.31a.2.2,0,0,0-.18-.24.23.23,0,0,0-.27.18l-.81,4.49-3-3.25a.24.24,0,0,0-.33,0,.22.22,0,0,0,0,.31l3,3.24-4.59.25a.22.22,0,0,0-.22.23.23.23,0,0,0,.24.22l4.46-.25-3.34,3a.22.22,0,0,0,0,.31.22.22,0,0,0,.32,0l3.33-3-.72,4.34a.22.22,0,0,0,.19.25.24.24,0,0,0,.26-.2l.75-4.48,3.12,3.3a.22.22,0,0,0,.31,0A.22.22,0,0,0,1332.29,374.38Z"/><path class="cls-24" d="M1341.15,385.11l-3.29-3.15,4.6-.53a.26.26,0,0,0,.21-.25.23.23,0,0,0-.25-.2l-4.44.52,3.2-3.18a.21.21,0,0,0,0-.31.23.23,0,0,0-.32,0l-3.19,3.16.56-4.34a.2.2,0,0,0-.19-.24.25.25,0,0,0-.26.2l-.58,4.52-3.15-3.1a.25.25,0,0,0-.33,0,.22.22,0,0,0,0,.32l3.13,3.07-4.58.49a.24.24,0,0,0-.21.24.23.23,0,0,0,.25.21l4.45-.47-3.18,3.18a.22.22,0,1,0,.31.31l3.17-3.17-.5,4.37a.22.22,0,0,0,.2.24.25.25,0,0,0,.26-.21l.52-4.51,3.28,3.14a.23.23,0,0,0,.32-.33Z"/><path class="cls-24" d="M1351.25,395.26l-3.49-2.93,4.56-.84a.24.24,0,0,0,.19-.26.22.22,0,0,0-.26-.18l-4.39.82,3-3.39a.22.22,0,1,0-.33-.28l-3,3.37.26-4.38a.2.2,0,0,0-.21-.22.25.25,0,0,0-.24.22l-.27,4.55-3.36-2.88a.22.22,0,0,0-.32,0,.21.21,0,0,0,0,.31l3.33,2.86-4.53.79a.24.24,0,0,0-.2.26.24.24,0,0,0,.27.19l4.41-.77-3,3.4a.22.22,0,0,0,0,.31.22.22,0,0,0,.32,0l3-3.38-.21,4.4a.22.22,0,0,0,.22.22.25.25,0,0,0,.24-.22l.21-4.54,3.49,2.92a.22.22,0,0,0,.31,0A.2.2,0,0,0,1351.25,395.26Z"/><path class="cls-24" d="M1363.05,403.4l-3.7-2.65,4.47-1.18a.24.24,0,0,0,.17-.28.22.22,0,0,0-.27-.16l-4.32,1.15,2.72-3.6a.22.22,0,0,0,0-.31.24.24,0,0,0-.32.05l-2.7,3.59-.07-4.38a.2.2,0,0,0-.22-.21.24.24,0,0,0-.23.23l.07,4.56-3.56-2.61a.24.24,0,0,0-.32,0,.21.21,0,0,0,0,.31l3.54,2.6-4.46,1.14a.22.22,0,0,0-.18.27.23.23,0,0,0,.28.16l4.34-1.1-2.7,3.61a.23.23,0,0,0,0,.32.25.25,0,0,0,.32,0l2.68-3.6.13,4.39a.22.22,0,0,0,.23.21.22.22,0,0,0,.22-.24l-.13-4.54,3.7,2.64a.23.23,0,0,0,.31,0A.22.22,0,0,0,1363.05,403.4Z"/><path class="cls-28" d="M1166.66,380.6s16.66,4.7,17.21,10.5c1.7,15.5,2.2,24.38-1.82,24.78s-6.84-13.1-6.84-13.1-2.47,23.84-18.57,20.58S1142.09,398.27,1166.66,380.6Z"/><path class="cls-25" d="M1186.61,391.31c2.33-3.2,5-5.41,2-8.07s-8.57-6.91-14.22-8.95-7.72-.23-8.3,1.59-2.63,4.42.16,5.32C1179.12,385.35,1184.29,394.5,1186.61,391.31Z"/><path class="cls-16" d="M1184.49,391.76l5.31-6.9a3.36,3.36,0,0,0-.2-.44l-5.5,7.17Z"/><path class="cls-16" d="M1183,390.92l5.63-7.68-.32-.29q-2.82,3.87-5.66,7.73C1182.76,390.76,1182.87,390.85,1183,390.92Z"/><path class="cls-16" d="M1181.67,390q2.82-3.94,5.63-7.88l-.32-.27-5.65,7.89Z"/><path class="cls-16" d="M1180.27,388.92c1.88-2.64,3.75-5.3,5.64-7.94l-.34-.26c-1.89,2.65-3.77,5.29-5.65,7.95Z"/><path class="cls-16" d="M1178.84,387.86l5.37-8.15-.35-.25-5.37,8.15Z"/><path class="cls-16" d="M1177.2,386.7q2.67-4.08,5.35-8.14l-.36-.24-5.35,8.13Z"/><path class="cls-16" d="M1175.43,385.54c1.79-2.7,3.56-5.41,5.34-8.11l-.37-.23-5.33,8.11Z"/><path class="cls-16" d="M1173.78,384.55q2.58-4.1,5.14-8.19l-.38-.2c-1.72,2.72-3.42,5.45-5.13,8.18Z"/><path class="cls-16" d="M1171.86,383.52l4.78-8.3-.41-.18q-2.38,4.14-4.76,8.28Z"/><path class="cls-16" d="M1170.05,382.66c1.42-2.8,2.86-5.59,4.29-8.38l-.43-.15q-2.15,4.17-4.28,8.35Z"/><path class="cls-16" d="M1168.19,381.9c1.29-2.76,2.56-5.52,3.85-8.28l-.47-.09q-1.9,4.11-3.8,8.21Z"/><path class="cls-16" d="M1165.76,381a2.31,2.31,0,0,0,.42.18q1.8-3.89,3.61-7.77l-.53,0Z"/><path class="cls-11" d="M1173.8,406.85l-.16.12c-.57-1.28-1.1-2.57-1.59-3.85-.09-.23-.49-.19-.65-.12-1.31.7-2.65,1.36-4,2l-.19-1.52-.28-2.68c0-.3-.45-.33-.66-.24-1.06.46-2.13.91-3.21,1.34l-.15-1-.29-2.11c0-.29-.42-.36-.65-.27-1,.39-2,.77-3,1.13l-.14-1.12-.18-1.62c0-.3-.41-.37-.65-.29-1.23.4-2.46.78-3.7,1.14l.08-1.66.13-2.19c0-.35-.56-.39-.76-.27l-1.44.8c-.35.49-.69,1-1,1.46l2.12-1.19c-.08,1.2-.15,2.41-.2,3.62,0,.31.45.39.67.33,1.29-.38,2.57-.78,3.84-1.19a2.36,2.36,0,0,0,0,.56l.27,2.23c0,.29.43.38.67.29,1-.36,2-.74,3-1.12l.13,1,.31,2.12c.05.3.45.37.69.27l1.91-.78,1.07-.46.2-.08c.12,1.4.28,2.8.46,4.22,0,.3.49.34.7.24,1.41-.65,2.8-1.33,4.15-2h0l.6,1.5c.34.82.69,1.65,1.05,2.47.13.29.64.15.79,0l.61-.48c.11-.42.2-.82.28-1.2Z"/><path class="cls-11" d="M1170.33,415.07l-.17.12c-.57-1.29-1.1-2.57-1.59-3.85-.09-.23-.49-.2-.64-.12q-2,1-4,2l-.19-1.52-.28-2.68c0-.3-.45-.34-.66-.24-1.06.46-2.12.91-3.21,1.34l-.15-1-.28-2.11c0-.3-.43-.37-.66-.27-1,.39-2,.76-3,1.13l-.14-1.12-.18-1.62c0-.3-.41-.38-.65-.3-1.22.4-2.45.79-3.7,1.15l.08-1.67.14-2.17c0-.36-.56-.4-.77-.28-.91.52-1.83,1-2.76,1.54-.13.37-.26.74-.38,1.1.95-.51,1.89-1,2.82-1.57-.09,1.2-.16,2.41-.21,3.62,0,.31.45.39.67.33,1.29-.38,2.58-.78,3.84-1.19a2,2,0,0,0,0,.56l.26,2.23c0,.29.44.38.68.29,1-.36,2-.74,3-1.12l.13,1,.3,2.12c.05.3.46.36.69.27l1.91-.78,1.08-.46.19-.08c.13,1.39.28,2.8.46,4.22,0,.3.49.34.71.24q2.11-1,4.15-2h0l.59,1.5c.34.82.69,1.65,1.06,2.47.13.29.63.15.79,0l1.17-.93.23-.18c.27-.53.53-1.07.76-1.61l-1.15.94Z"/><path class="cls-27" d="M1151.87,399c1,.43.29,2.88-1.1,2.29C1149.14,400.6,1150.52,398.39,1151.87,399Z"/><path class="cls-27" d="M1156,400.9c1,.43.29,2.87-1.1,2.29C1153.22,402.54,1154.61,400.33,1156,400.9Z"/><path class="cls-27" d="M1161,403.39c1,.44.29,2.88-1.1,2.29C1158.28,405,1159.67,402.82,1161,403.39Z"/><path class="cls-27" d="M1165.36,405.84c1,.44.29,2.88-1.1,2.29C1162.62,407.48,1164,405.27,1165.36,405.84Z"/><path class="cls-27" d="M1170.7,408.05c1,.44.29,2.88-1.1,2.29C1168,409.69,1169.35,407.48,1170.7,408.05Z"/><path class="cls-24" d="M1162.65,391.3l-2.56-.25,1.85-1.84a.13.13,0,0,0,0-.18.14.14,0,0,0-.18,0l-1.79,1.79.31-2.53a.12.12,0,0,0-.1-.14.12.12,0,0,0-.14.11l-.31,2.52-1.27-2.13a.13.13,0,0,0-.17,0,.13.13,0,0,0,0,.18l1.32,2.21-2.48-.28a.13.13,0,0,0-.14.12.11.11,0,0,0,.1.14l2.47.27-1.87,1.82a.13.13,0,0,0,.18.18l1.81-1.76-.3,2.53a.13.13,0,0,0,.25,0l.3-2.52,1.3,2.11a.13.13,0,0,0,.18,0,.14.14,0,0,0,0-.18l-1.34-2.19,2.55.25a.13.13,0,0,0,0-.26Z"/><path class="cls-24" d="M1168.77,395.23l-2.56-.25,1.86-1.84a.15.15,0,0,0,0-.19.12.12,0,0,0-.17,0l-1.79,1.78.31-2.53c0-.07-.05-.14-.11-.14a.13.13,0,0,0-.14.12l-.31,2.51-1.27-2.12a.12.12,0,0,0-.17,0,.14.14,0,0,0,0,.18l1.32,2.21-2.48-.27a.13.13,0,0,0,0,.26l2.47.27-1.86,1.81a.13.13,0,0,0,.17.19l1.81-1.77-.3,2.53a.13.13,0,1,0,.25,0l.3-2.52,1.3,2.12a.14.14,0,0,0,.18,0,.14.14,0,0,0,0-.18l-1.35-2.18,2.55.24a.13.13,0,0,0,0-.25Z"/><path class="cls-24" d="M1153.56,412.56l-2.56-.25,1.86-1.85a.14.14,0,0,0,0-.18.13.13,0,0,0-.18,0l-1.79,1.78.31-2.53a.12.12,0,0,0-.11-.14.13.13,0,0,0-.14.12l-.31,2.51-1.27-2.12a.11.11,0,0,0-.16,0,.13.13,0,0,0,0,.18l1.32,2.21L1148,412a.13.13,0,0,0-.14.12c0,.06,0,.13.11.14l2.46.27-1.86,1.81a.13.13,0,0,0,0,.18.13.13,0,0,0,.19,0l1.8-1.77-.3,2.53a.14.14,0,0,0,.12.15.12.12,0,0,0,.13-.12l.3-2.52,1.31,2.12a.12.12,0,0,0,.17,0,.13.13,0,0,0,0-.18l-1.35-2.18,2.56.24a.11.11,0,0,0,.13-.11A.12.12,0,0,0,1153.56,412.56Z"/><path class="cls-24" d="M1158.36,417.68l-2.56-.25,1.86-1.84a.13.13,0,1,0-.17-.19l-1.79,1.79.31-2.53a.13.13,0,0,0-.11-.14.12.12,0,0,0-.14.11l-.31,2.52-1.27-2.13a.12.12,0,0,0-.17,0,.14.14,0,0,0,0,.18l1.32,2.21-2.48-.28a.14.14,0,0,0-.14.12.12.12,0,0,0,.11.14l2.46.27-1.86,1.82a.12.12,0,0,0,0,.18.13.13,0,0,0,.18,0l1.81-1.76-.3,2.53a.12.12,0,0,0,.11.14.13.13,0,0,0,.14-.12l.3-2.52,1.31,2.12a.12.12,0,0,0,.17,0,.13.13,0,0,0,0-.18l-1.35-2.19,2.56.25a.13.13,0,0,0,0-.26Z"/><path class="cls-24" d="M1165.44,418.58l-2.56-.25,1.86-1.84a.15.15,0,0,0,0-.19.11.11,0,0,0-.17,0l-1.79,1.79.31-2.53a.13.13,0,0,0-.11-.15.14.14,0,0,0-.14.12l-.31,2.52-1.27-2.13a.11.11,0,0,0-.16,0,.13.13,0,0,0,0,.18l1.32,2.21-2.48-.28a.14.14,0,0,0-.14.12.12.12,0,0,0,.11.14l2.46.27-1.86,1.82a.12.12,0,1,0,.17.18l1.81-1.76-.3,2.53a.12.12,0,0,0,.11.14.13.13,0,0,0,.14-.12l.3-2.51,1.31,2.11a.13.13,0,0,0,.17,0,.13.13,0,0,0,0-.18l-1.35-2.19,2.56.25c.06,0,.12,0,.13-.12A.12.12,0,0,0,1165.44,418.58Z"/><path class="cls-24" d="M1175.26,399l-2.56-.25,1.86-1.84a.14.14,0,0,0,0-.18.13.13,0,0,0-.18,0l-1.79,1.78.31-2.52a.13.13,0,0,0-.11-.15.14.14,0,0,0-.14.12l-.31,2.52-1.27-2.13c0-.06-.1-.07-.17,0a.14.14,0,0,0,0,.18l1.32,2.21-2.48-.28a.14.14,0,0,0-.14.12.12.12,0,0,0,.11.14l2.46.27-1.86,1.82a.12.12,0,0,0,0,.18.13.13,0,0,0,.18,0l1.82-1.76-.31,2.53a.14.14,0,0,0,.11.14.14.14,0,0,0,.15-.12l.29-2.51,1.31,2.11a.13.13,0,0,0,.17,0,.13.13,0,0,0,0-.18l-1.35-2.19,2.56.25a.12.12,0,0,0,.13-.12A.12.12,0,0,0,1175.26,399Z"/><path class="cls-24" d="M1170.08,386.55l-2.56-.25,1.86-1.85a.13.13,0,0,0-.18-.18l-1.78,1.78.31-2.53a.12.12,0,0,0-.11-.14.13.13,0,0,0-.14.12l-.31,2.51-1.27-2.12a.12.12,0,0,0-.17,0,.14.14,0,0,0,0,.18l1.32,2.21-2.48-.27a.12.12,0,0,0-.14.11.11.11,0,0,0,.11.14l2.46.28-1.86,1.81a.12.12,0,0,0,0,.18.13.13,0,0,0,.18,0l1.81-1.77-.3,2.53a.15.15,0,0,0,.11.15.13.13,0,0,0,.14-.12l.3-2.52,1.31,2.12a.12.12,0,0,0,.17,0,.13.13,0,0,0,0-.18l-1.35-2.18,2.56.24a.11.11,0,0,0,.13-.11A.12.12,0,0,0,1170.08,386.55Z"/><path class="cls-24" d="M1177.41,391.25l-2.56-.25,1.86-1.85a.13.13,0,0,0,0-.18.11.11,0,0,0-.17,0l-1.79,1.78.31-2.53a.12.12,0,0,0-.11-.14.13.13,0,0,0-.14.12l-.31,2.51-1.27-2.12a.12.12,0,0,0-.17,0,.14.14,0,0,0,0,.18l1.32,2.21-2.48-.27a.12.12,0,0,0-.14.11.13.13,0,0,0,.11.15l2.46.27-1.86,1.81a.13.13,0,0,0,0,.18.12.12,0,0,0,.18,0l1.81-1.77-.3,2.53a.14.14,0,0,0,.11.15.13.13,0,0,0,.14-.12l.3-2.52,1.31,2.12a.12.12,0,0,0,.17,0,.14.14,0,0,0,0-.18l-1.35-2.18,2.56.25a.14.14,0,0,0,.13-.12A.12.12,0,0,0,1177.41,391.25Z"/><path class="cls-24" d="M1182.94,399.22l-2.56-.25,1.85-1.85a.14.14,0,0,0,0-.18.13.13,0,0,0-.18,0l-1.79,1.78.31-2.53a.12.12,0,0,0-.11-.14.12.12,0,0,0-.13.11l-.31,2.52-1.27-2.12a.12.12,0,0,0-.17,0,.14.14,0,0,0,0,.18l1.33,2.21-2.49-.27a.12.12,0,0,0-.14.11.12.12,0,0,0,.11.14l2.46.28L1178,401a.14.14,0,0,0,0,.18.13.13,0,0,0,.19,0l1.81-1.77-.3,2.53a.13.13,0,1,0,.25,0l.29-2.52,1.31,2.12a.12.12,0,0,0,.17,0,.13.13,0,0,0,0-.18l-1.34-2.18,2.55.24a.12.12,0,0,0,.14-.11A.13.13,0,0,0,1182.94,399.22Z"/><path class="cls-24" d="M1184,408l-2.56-.25,1.85-1.85a.12.12,0,1,0-.17-.18l-1.79,1.78.31-2.53a.12.12,0,0,0-.11-.14.12.12,0,0,0-.13.12l-.31,2.51-1.27-2.12a.12.12,0,0,0-.17,0,.13.13,0,0,0,0,.18l1.32,2.21-2.48-.27a.13.13,0,0,0,0,.26l2.47.27-1.87,1.81a.14.14,0,0,0,0,.19.13.13,0,0,0,.18,0l1.81-1.76-.3,2.52a.13.13,0,0,0,.11.15.14.14,0,0,0,.14-.12l.3-2.52,1.3,2.12a.14.14,0,0,0,.18,0,.15.15,0,0,0,0-.19l-1.34-2.18,2.55.25a.13.13,0,0,0,.14-.12A.12.12,0,0,0,1184,408Z"/><path class="cls-28" d="M1225.48,411.14s-12.63-11.94-17.91-9.42c-14.24,6.52-22.15,10.64-20.43,14.32s14.82-.84,14.82-.84-19.28,14.4-8.17,26.59S1222.9,441.42,1225.48,411.14Z"/><path class="cls-25" d="M1206,399.46c1.56-3.66,2.12-7.06,5.92-5.89s10.36,3.83,15,7.64,4.18,6.54,2.9,8-2.45,4.54-4.66,2.6C1215,402.85,1204.42,403.1,1206,399.46Z"/><path class="cls-16" d="M1206.67,401.52q1.61-4.06,3.22-8.12a2.42,2.42,0,0,1,.48-.06q-1.68,4.21-3.34,8.43A2.53,2.53,0,0,1,1206.67,401.52Z"/><path class="cls-16" d="M1208.17,402.38l3.72-8.8.41.13q-1.87,4.43-3.74,8.85Z"/><path class="cls-16" d="M1209.66,403l3.89-8.9.4.14c-1.29,3-2.6,6-3.89,8.93Z"/><path class="cls-16" d="M1211.29,403.7q2-4.47,4-8.95l.4.16q-2,4.47-4,9Z"/><path class="cls-16" d="M1212.94,404.39l4.26-8.83.41.18q-2.14,4.41-4.27,8.81Z"/><path class="cls-16" d="M1214.79,405.2l4.26-8.8.39.19c-1.42,2.93-2.83,5.86-4.26,8.79Z"/><path class="cls-16" d="M1216.7,406.12l4.24-8.77c.13.07.26.13.39.21l-4.25,8.76Z"/><path class="cls-16" d="M1218.4,407c1.47-2.88,2.94-5.77,4.41-8.64l.38.22-4.41,8.63C1218.65,407.18,1218.53,407.1,1218.4,407Z"/><path class="cls-16" d="M1220.28,408.16l4.7-8.38c.12.08.23.17.36.25l-4.69,8.37Z"/><path class="cls-16" d="M1222,409.29l5-8,.35.29q-2.49,4-5,8C1222.2,409.46,1222.08,409.37,1222,409.29Z"/><path class="cls-16" d="M1223.56,410.49l5.16-7.57.31.35-5.11,7.5Z"/><path class="cls-16" d="M1225.59,412.13a4.33,4.33,0,0,1-.37-.27l4.84-7.11c.09.16.16.32.23.47Z"/><path class="cls-11" d="M1199.18,418.5l0,.21c1.4-.18,2.78-.38,4.14-.62.25,0,.42.33.43.5.09,1.49.2,3,.36,4.5l1.4-.62,2.46-1.14c.27-.13.52.22.55.44.14,1.15.3,2.3.49,3.46l1-.39,2-.84c.27-.12.53.18.57.42.16,1.05.35,2.1.55,3.14l1-.45,1.5-.68c.27-.12.53.16.59.41.28,1.26.58,2.51.91,3.78l1.4-.93,1.8-1.24c.3-.2.63.28.64.52,0,.55,0,1.1,0,1.65-.24.55-.49,1.1-.74,1.62,0-.81-.06-1.63-.07-2.44-1,.69-2,1.37-3,2-.25.17-.56-.19-.62-.41-.34-1.31-.66-2.62-1-3.92a2,2,0,0,1-.48.29l-2.06.92c-.27.12-.56-.18-.6-.43-.2-1.05-.39-2.09-.56-3.14l-.93.41-2,.83c-.28.11-.54-.21-.58-.46l-.32-2.05-.15-1.16,0-.21c-1.27.61-2.57,1.2-3.87,1.77-.29.12-.55-.25-.57-.48-.17-1.55-.3-3.09-.38-4.62h0l-1.6.25c-.89.14-1.78.26-2.68.37-.31,0-.45-.47-.43-.67l.1-.77c.31-.31.61-.59.9-.86Z"/><path class="cls-11" d="M1193.88,425.73l0,.2c1.4-.17,2.78-.37,4.14-.61.25,0,.42.32.43.5q.12,2.24.36,4.5l1.4-.63,2.45-1.14c.28-.12.52.22.55.45.15,1.15.31,2.3.5,3.46l1-.39,2-.84c.27-.12.54.18.57.42.17,1.05.36,2.09.55,3.14l1-.45,1.49-.68c.27-.12.54.16.59.41.29,1.26.59,2.51.92,3.78l1.39-.93,1.81-1.24c.3-.2.63.28.64.52,0,1.05.05,2.11.09,3.17-.25.3-.5.6-.76.89,0-1.08-.07-2.15-.09-3.23-1,.69-2,1.37-3,2-.25.17-.56-.19-.62-.41-.34-1.31-.66-2.62-1-3.92a1.68,1.68,0,0,1-.47.29l-2.06.92c-.28.11-.56-.18-.6-.43-.21-1-.39-2.09-.56-3.14l-.93.4-2,.83c-.28.12-.55-.2-.59-.45l-.31-2.05-.16-1.16,0-.21c-1.27.61-2.57,1.2-3.88,1.77-.28.12-.54-.25-.57-.48-.16-1.55-.29-3.09-.38-4.62h0l-1.6.26c-.88.14-1.77.26-2.67.37-.31,0-.46-.47-.43-.67l.19-1.49,0-.29c.32-.51.65-1,1-1.48l-.22,1.47Z"/><path class="cls-27" d="M1217.27,433.34c-.91-.67-2.63,1.23-1.41,2.13C1217.26,436.54,1218.45,434.21,1217.27,433.34Z"/><path class="cls-27" d="M1213.5,430.82c-.91-.67-2.64,1.23-1.41,2.13C1213.49,434,1214.68,431.69,1213.5,430.82Z"/><path class="cls-27" d="M1208.74,427.75c-.91-.67-2.63,1.23-1.41,2.12C1208.73,431,1209.92,428.61,1208.74,427.75Z"/><path class="cls-27" d="M1204.39,425.26c-.9-.67-2.63,1.23-1.41,2.13C1204.39,428.46,1205.57,426.13,1204.39,425.26Z"/><path class="cls-27" d="M1199.74,421.8c-.91-.67-2.63,1.23-1.41,2.12C1199.73,425,1200.92,422.66,1199.74,421.8Z"/><path class="cls-24" d="M1218.31,420.11l1.54,2.08.63-2.55a.13.13,0,0,1,.16-.1.13.13,0,0,1,.09.15l-.62,2.46,2-1.57a.13.13,0,0,1,.18,0,.13.13,0,0,1,0,.18l-2,1.56h2.49a.11.11,0,0,1,.11.13.13.13,0,0,1-.13.13h-2.58l1.51,2a.15.15,0,0,1,0,.19.14.14,0,0,1-.18,0l-1.51-2-.6,2.54a.13.13,0,1,1-.25-.05l.59-2.47-2,1.56a.14.14,0,0,1-.18,0,.13.13,0,0,1,0-.18l2-1.55-2.5,0a.12.12,0,0,1-.12-.13.14.14,0,0,1,.14-.13l2.57,0-1.52-2.08a.12.12,0,0,1,0-.17A.12.12,0,0,1,1218.31,420.11Z"/><path class="cls-24" d="M1211.78,416.85l1.53,2.08.64-2.55a.13.13,0,1,1,.25.06l-.62,2.45,2-1.56a.12.12,0,1,1,.15.19l-2,1.57h2.48a.12.12,0,0,1,.12.12.13.13,0,0,1-.13.13h-2.59l1.52,2a.13.13,0,0,1,0,.18.12.12,0,0,1-.18,0l-1.5-2-.61,2.54a.12.12,0,1,1-.24-.06l.58-2.47-2,1.57a.13.13,0,0,1-.18,0,.13.13,0,0,1,0-.18l2-1.55-2.5,0a.13.13,0,0,1-.12-.14.13.13,0,0,1,.14-.12l2.57,0-1.53-2.07a.13.13,0,0,1,0-.18A.14.14,0,0,1,1211.78,416.85Z"/><path class="cls-24" d="M1204.67,438.88l1.54,2.08.63-2.55a.14.14,0,0,1,.16-.1.13.13,0,0,1,.09.15l-.62,2.46,2-1.57a.14.14,0,0,1,.18,0,.13.13,0,0,1,0,.18l-2,1.57h2.49a.11.11,0,0,1,.12.12.14.14,0,0,1-.14.13h-2.58l1.51,2a.14.14,0,0,1,0,.18.13.13,0,0,1-.18,0l-1.51-2-.6,2.54a.13.13,0,0,1-.15.1.14.14,0,0,1-.1-.16l.59-2.47-2,1.56a.12.12,0,0,1-.18,0,.14.14,0,0,1,0-.18l2-1.55-2.5,0a.13.13,0,1,1,0-.25l2.57,0-1.52-2.07a.13.13,0,0,1,0-.18A.12.12,0,0,1,1204.67,438.88Z"/><path class="cls-24" d="M1197.79,437.39l1.53,2.07.63-2.55a.16.16,0,0,1,.16-.1.13.13,0,0,1,.09.16l-.61,2.45,2-1.56a.12.12,0,0,1,.18,0,.12.12,0,0,1,0,.17l-2,1.57h2.48a.12.12,0,0,1,.12.13.14.14,0,0,1-.13.13h-2.59l1.52,2a.13.13,0,0,1,0,.18.12.12,0,0,1-.18,0l-1.5-2-.61,2.54a.13.13,0,0,1-.15.1.14.14,0,0,1-.1-.16l.59-2.46-2,1.56a.13.13,0,0,1-.18,0,.14.14,0,0,1,0-.18l2-1.55-2.49,0a.12.12,0,0,1-.12-.13.13.13,0,0,1,.13-.13l2.58,0-1.53-2.07a.13.13,0,0,1,.21-.15Z"/><path class="cls-24" d="M1193.37,431.75l1.53,2.07.63-2.55a.14.14,0,0,1,.16-.09.11.11,0,0,1,.09.15l-.61,2.46,2-1.57a.12.12,0,0,1,.18,0,.14.14,0,0,1,0,.17l-2,1.57h2.49a.12.12,0,0,1,.12.13.13.13,0,0,1-.13.13h-2.59l1.52,2a.13.13,0,0,1,0,.18.12.12,0,0,1-.18,0l-1.5-2-.61,2.54a.13.13,0,0,1-.15.1.14.14,0,0,1-.1-.16l.59-2.46-2,1.56a.13.13,0,0,1-.18,0,.11.11,0,0,1,0-.17l2-1.56-2.49,0a.14.14,0,0,1-.13-.13.15.15,0,0,1,.14-.13l2.58,0-1.53-2.08a.13.13,0,0,1,.21-.15Z"/><path class="cls-24" d="M1205.17,413.21l1.53,2.08.63-2.55a.15.15,0,0,1,.16-.1.12.12,0,0,1,.09.15l-.61,2.46,2-1.57a.12.12,0,0,1,.17,0,.13.13,0,0,1,0,.18l-2,1.57h2.48a.12.12,0,0,1,.12.12.14.14,0,0,1-.13.13H1207l1.52,2a.14.14,0,0,1,0,.18.12.12,0,0,1-.18,0l-1.5-2-.61,2.54a.13.13,0,0,1-.15.1.14.14,0,0,1-.1-.16l.59-2.47-2,1.56a.13.13,0,0,1-.16-.2l2-1.55-2.49,0a.13.13,0,0,1-.13-.13.15.15,0,0,1,.14-.13l2.58,0-1.53-2.07a.13.13,0,0,1,.21-.16Z"/><path class="cls-24" d="M1218.58,411.25l1.54,2.08.63-2.55a.15.15,0,0,1,.16-.1.14.14,0,0,1,.09.16l-.61,2.45,2-1.56a.12.12,0,1,1,.15.19l-2,1.57H1223a.12.12,0,0,1,.12.13c0,.06-.06.13-.13.12h-2.59l1.51,2a.15.15,0,0,1,0,.19.13.13,0,0,1-.18,0l-1.5-2-.61,2.54a.13.13,0,0,1-.15.1.14.14,0,0,1-.1-.16l.59-2.47-2,1.57a.12.12,0,0,1-.17,0,.13.13,0,0,1,0-.18l2-1.55-2.49,0a.13.13,0,1,1,0-.26l2.57,0-1.52-2.07a.13.13,0,0,1,0-.18A.12.12,0,0,1,1218.58,411.25Z"/><path class="cls-24" d="M1210.76,407.36l1.53,2.07.64-2.54a.13.13,0,0,1,.15-.1.13.13,0,0,1,.1.15l-.62,2.46,2-1.57a.13.13,0,0,1,.18,0,.13.13,0,0,1,0,.18l-2,1.56h2.48a.12.12,0,0,1,.12.13.13.13,0,0,1-.13.13h-2.58l1.51,2a.14.14,0,0,1,0,.19.14.14,0,0,1-.18,0l-1.5-2-.6,2.54a.13.13,0,0,1-.16.1.12.12,0,0,1-.09-.16l.59-2.46-2,1.56a.14.14,0,0,1-.18,0,.13.13,0,0,1,0-.18l2-1.55-2.5,0a.12.12,0,0,1-.12-.13.13.13,0,0,1,.14-.13l2.57,0-1.53-2.08a.13.13,0,0,1,0-.17A.12.12,0,0,1,1210.76,407.36Z"/><path class="cls-24" d="M1201.05,406.7l1.53,2.08.64-2.55a.13.13,0,0,1,.15-.1.12.12,0,0,1,.09.15l-.61,2.46,2-1.57a.14.14,0,0,1,.18,0,.13.13,0,0,1,0,.18l-2,1.56h2.48a.12.12,0,0,1,.12.13.13.13,0,0,1-.13.13h-2.59l1.52,2a.13.13,0,0,1-.21.16l-1.5-2-.61,2.54a.14.14,0,0,1-.15.1.14.14,0,0,1-.1-.16l.59-2.47-2,1.56a.13.13,0,0,1-.18,0,.13.13,0,0,1,0-.18l2-1.55-2.49,0a.12.12,0,0,1-.12-.13.13.13,0,0,1,.13-.13l2.58,0-1.53-2.08a.12.12,0,0,1,0-.17A.13.13,0,0,1,1201.05,406.7Z"/><path class="cls-24" d="M1193,410.27l1.53,2.07.63-2.54a.14.14,0,0,1,.16-.1.11.11,0,0,1,.09.15l-.61,2.46,2-1.57a.13.13,0,0,1,.18,0,.16.16,0,0,1,0,.18l-2,1.56h2.48a.12.12,0,0,1,.12.13.13.13,0,0,1-.13.13h-2.59l1.52,2a.14.14,0,0,1,0,.18.14.14,0,0,1-.18,0l-1.5-2-.61,2.54a.12.12,0,0,1-.15.1.13.13,0,0,1-.1-.15l.59-2.47-2,1.56a.14.14,0,0,1-.18,0,.13.13,0,0,1,0-.18l2-1.56-2.49,0a.12.12,0,0,1-.12-.13.13.13,0,0,1,.13-.13l2.58,0-1.53-2.08a.12.12,0,0,1,0-.17A.12.12,0,0,1,1193,410.27Z"/><path class="cls-29" d="M1419,665.26l-11.39-6.59c-.36-.21-1.37.27-.88.55l11.39,6.59c.36.21,1.37-.26.88-.55Z"/><path class="cls-29" d="M1419.93,663.37l-11.39-6.59c-.36-.21-1.37.26-.88.55l11.39,6.58c.36.22,1.37-.26.88-.54Z"/><path class="cls-29" d="M1421.13,661.76l-11.38-6.58c-.37-.22-1.38.26-.88.54l11.38,6.59c.36.21,1.37-.26.88-.55Z"/><path class="cls-29" d="M1422,659.74l-11.39-6.59c-.37-.2-1.37.27-.88.55l11.38,6.59c.37.21,1.38-.26.89-.55Z"/><path class="cls-29" d="M1422.82,657.77l-11.38-6.59c-.37-.21-1.38.27-.89.55l11.39,6.59c.36.21,1.37-.27.88-.55Z"/><path class="cls-29" d="M1424.52,655.65l-11.38-6.59c-.37-.21-1.37.26-.88.55l11.38,6.59c.37.21,1.38-.27.88-.55Z"/><path class="cls-29" d="M1426,653.89l-11.38-6.59c-.37-.21-1.38.27-.89.55l11.39,6.59c.36.21,1.37-.27.88-.55Z"/><path class="cls-29" d="M1427.2,651.83l-11.39-6.59c-.36-.21-1.37.27-.88.55l11.39,6.59c.36.21,1.37-.26.88-.55Z"/><path class="cls-29" d="M1428.7,649.94l-11.38-6.59c-.37-.21-1.37.26-.88.55l11.39,6.59c.36.21,1.36-.27.87-.55Z"/><path class="cls-29" d="M1370.44,543.63q1.65-6.36,3.32-12.73c.1-.41-.62-1.25-.76-.7q-1.66,6.36-3.32,12.73c-.11.4.62,1.25.76.7Z"/><path class="cls-29" d="M1372.51,544l3.33-12.73c.1-.4-.62-1.25-.76-.7l-3.33,12.73c-.1.41.62,1.25.76.7Z"/><path class="cls-29" d="M1374.38,544.76q1.66-6.36,3.32-12.73c.11-.4-.61-1.24-.76-.7q-1.67,6.38-3.32,12.73c-.11.41.62,1.25.76.7Z"/><path class="cls-29" d="M1376.55,545q1.65-6.36,3.32-12.73c.1-.41-.62-1.25-.76-.7q-1.66,6.36-3.32,12.72c-.11.41.61,1.26.76.71Z"/><path class="cls-29" d="M1378.68,545.33,1382,532.6c.11-.4-.62-1.25-.76-.7q-1.66,6.36-3.32,12.73c-.11.41.62,1.25.76.7Z"/><path class="cls-29" d="M1381.18,546.41q1.65-6.36,3.32-12.73c.11-.4-.62-1.25-.76-.7l-3.33,12.73c-.1.4.62,1.25.77.7Z"/><path class="cls-29" d="M1383.26,547.35q1.66-6.37,3.32-12.73c.11-.41-.61-1.26-.76-.7q-1.65,6.36-3.32,12.72c-.11.41.62,1.25.76.71Z"/><path class="cls-29" d="M1385.57,548q1.65-6.36,3.32-12.73c.11-.41-.62-1.25-.76-.7q-1.67,6.36-3.32,12.73c-.11.4.61,1.25.76.7Z"/><path class="cls-29" d="M1387.79,548.92c1.11-4.25,2.22-8.48,3.32-12.73.11-.41-.61-1.25-.76-.7q-1.65,6.36-3.32,12.73c-.11.4.62,1.25.76.7Z"/><path class="cls-30" d="M1406.24,660.66s-15.86-13-44.12-5.27-60.72,1.24-53.24-30.71,60.35-29.18,58.72-84.55c4.74-1.47,22,1,21.67,13.34s-4.61,30.25-41.26,54.07c-33.51,21.79-15.37,39.51,4.12,33.29,17.89-5.72,58-7.64,66.1,1.55C1414.26,656.35,1406.24,660.66,1406.24,660.66Z"/><path class="cls-11" d="M1410.47,639.33c.73,1.09,1.41,2.22,2.07,3.39l-1.33.22-2.35.33c-.26,0-.27.4-.17.58.48.89.94,1.81,1.38,2.73l-.89.16-1.85.29c-.26,0-.3.38-.21.57.39.84.78,1.69,1.15,2.55l-1,.14-1.43.18c-.26,0-.32.36-.24.57.41,1.05.8,2.11,1.18,3.19l-1.49-.05-1.94-.1c-.31,0-.33.48-.22.67l1.61,2.58c-1.22.11-2.44.2-3.65.27.56.27,1.08.53,1.56.79.91-.06,1.83-.11,2.76-.2.31,0,.37-.46.24-.68l-1.55-2.5,3.22.14c.27,0,.33-.39.26-.58-.38-1.12-.78-2.22-1.2-3.31a1.93,1.93,0,0,0,.49,0l2-.27c.26,0,.32-.38.23-.59q-.55-1.29-1.14-2.55l.88-.13,1.87-.32c.26,0,.29-.4.2-.6l-.8-1.64-.47-.92-.09-.16c1.23-.15,2.47-.33,3.71-.55.26,0,.27-.44.16-.62-.68-1.21-1.38-2.38-2.12-3.51h0l1.09-.51c-.4-.14-.84-.28-1.27-.41l-.59.29C1410.32,638.86,1410.39,639.2,1410.47,639.33Z"/><path class="cls-11" d="M1399.29,638.09l-2.28.66c-.26.07-.21.43-.09.6.6.81,1.18,1.65,1.75,2.51l-.86.28-1.8.55c-.25.07-.24.41-.12.6.51.77,1,1.56,1.49,2.35l-1,.28-1.39.38c-.26.07-.27.4-.16.59.55,1,1.09,2,1.61,3l-1.48.16-1.93.17c-.32,0-.26.53-.12.7l2,2.33c-1.21.28-2.41.54-3.61.78a.29.29,0,0,0-.19.15c.62.13,1.22.27,1.8.43l2.78-.6c.3-.08.3-.52.14-.72L1394,651l3.21-.31c.27,0,.27-.44.18-.62-.54-1.05-1.09-2.09-1.66-3.11a1.46,1.46,0,0,0,.48-.07l1.92-.54c.25-.07.26-.42.14-.61-.48-.8-1-1.59-1.49-2.37l.86-.26,1.8-.57c.25-.08.24-.44.12-.62l-1-1.51-.59-.85-.11-.15c1.2-.32,2.4-.67,3.59-1.06.26-.08.21-.47.08-.64-.33-.42-.67-.81-1-1.22l-.9-.08c.34.41.69.81,1,1.24Z"/><path class="cls-11" d="M1387.48,637.18l-2.26.72c-.25.08-.2.44-.07.6.62.8,1.23,1.62,1.82,2.46l-.85.3-1.78.61c-.24.08-.23.42-.1.6q.79,1.14,1.56,2.31l-1,.31-1.38.42c-.25.07-.25.41-.13.6.58,1,1.14,1.94,1.7,2.94l-1.48.2-1.92.24c-.32,0-.25.53-.1.69l2,2.28-2.1.52c1,0,2,.09,3,.17a.46.46,0,0,0,.06-.67l-2-2.2,3.2-.41c.27,0,.26-.44.16-.62-.57-1-1.15-2-1.75-3.06a1.93,1.93,0,0,0,.48-.08l1.9-.6c.25-.08.25-.43.12-.62-.5-.79-1-1.56-1.56-2.32l.85-.28,1.79-.63c.25-.09.22-.45.09-.63l-1.06-1.48-.62-.82-.11-.14c1.18-.37,2.37-.75,3.55-1.18.25-.09.19-.48.06-.64s-.44-.49-.65-.75h-.84c.2.24.41.46.61.7Z"/><path class="cls-11" d="M1373.55,637.63l-2.2.87c-.25.09-.17.45,0,.6q1,1.14,2,2.34l-.83.36-1.73.72c-.25.09-.2.43-.07.6.58.72,1.15,1.46,1.71,2.2l-.92.37-1.35.52c-.25.09-.22.42-.1.6.65.93,1.27,1.86,1.89,2.83l-1.46.29-1.91.37c-.31.05-.21.54,0,.69l2.17,2.14c-1.09.36-2.16.71-3.24,1,1.47-.29,2.9-.52,4.3-.7a.64.64,0,0,0-.14-.37l-2.09-2.06,3.17-.62c.26-.06.23-.46.11-.63q-.95-1.5-2-2.94a1.31,1.31,0,0,0,.48-.12l1.85-.72c.25-.09.23-.44.09-.62q-.84-1.12-1.71-2.22l.83-.33,1.74-.74c.25-.11.2-.46.06-.64l-1.16-1.4-.68-.79-.12-.13c1.16-.44,2.32-.91,3.48-1.4.24-.11.15-.5,0-.65l-.4-.41-.83.08c.12.12.24.23.35.35Z"/><path class="cls-11" d="M1358.87,639.82l-2.1,1.11c-.23.12-.11.47,0,.6.75.68,1.5,1.38,2.23,2.1l-.78.45-1.65.91c-.22.12-.15.45,0,.61.65.65,1.3,1.32,1.94,2l-.88.47-1.28.66c-.23.11-.17.44,0,.61.75.85,1.48,1.71,2.19,2.59l-1.41.46-1.85.58c-.3.09-.15.57,0,.7l2.39,1.88c-1.12.53-2.24,1-3.37,1.5a.3.3,0,0,0-.13.12c1.27-.22,2.53-.48,3.79-.76l.63-.28c.29-.13.19-.56,0-.72l-2.3-1.82,3.07-1c.26-.09.18-.48,0-.64-.74-.92-1.5-1.82-2.27-2.7a1.6,1.6,0,0,0,.47-.17l1.76-.92c.22-.13.16-.47,0-.63-.64-.69-1.29-1.36-1.94-2l.78-.43,1.65-.93c.23-.14.14-.48,0-.64l-1.31-1.27-.76-.7-.13-.12c1.1-.56,2.21-1.16,3.29-1.78.23-.14.1-.51,0-.64l-.39-.31-.81.16.32.26Z"/><path class="cls-11" d="M1344.4,643c-.25.09-.18.45-.05.6.64.79,1.27,1.59,1.89,2.41l-.84.33-1.76.66c-.25.08-.23.42-.09.6.55.74,1.09,1.5,1.62,2.26l-.94.34-1.36.46c-.25.08-.24.41-.12.6.61,1,1.2,1.91,1.78,2.89l-1.47.25-1.92.29c-.31,0-.23.54-.08.69l2.09,2.22c-.89.26-1.77.5-2.66.74,1.17,0,2.34,0,3.53-.07a.48.48,0,0,0,0-.68l-2-2.14,3.19-.5c.26-.05.24-.45.14-.62-.6-1-1.21-2-1.84-3a1.39,1.39,0,0,0,.48-.1l1.88-.65c.24-.09.24-.44.11-.62q-.8-1.15-1.62-2.28l.84-.3,1.77-.68c.24-.1.2-.45.07-.63l-1.11-1.45-.64-.8-.11-.15c1.17-.39,2.35-.81,3.52-1.26.25-.11.18-.49,0-.65l-.08-.09c-.34.07-.68.11-1,.16l-1,.4Z"/><path class="cls-11" d="M1334.42,640.69c.35,1.26.65,2.55.92,3.87l-1.34-.21-2.33-.41c-.26-.05-.38.29-.35.49.18,1,.33,2,.46,3l-.88-.13L1329,647c-.26,0-.4.26-.37.48.11.92.21,1.84.29,2.77l-1-.17-1.42-.27c-.26-.05-.41.24-.4.47q.09,1.68.12,3.39l-1.39-.51-1.82-.69c-.29-.12-.46.35-.41.56l.57,2.31.77.31-.5-2.06,3,1.13c.25.09.43-.27.43-.47,0-1.19-.06-2.36-.12-3.53a1.43,1.43,0,0,0,.46.15l2,.36c.25,0,.42-.26.4-.49-.08-.93-.18-1.86-.29-2.78l.88.15,1.87.28c.26,0,.41-.29.38-.51l-.25-1.81-.17-1,0-.18q1.83.36,3.69.63c.27,0,.4-.34.35-.54q-.39-2-.93-4h0l1.39-.17.4-.06q-.8-.33-1.53-.72l-.8.11C1334.42,640.2,1334.38,640.54,1334.42,640.69Z"/><path class="cls-11" d="M1327.19,634.24c-.2,1.3-.45,2.6-.74,3.9l-1.14-.72-2-1.34c-.22-.15-.47.12-.52.32-.25,1-.52,2-.81,3l-.77-.48-1.57-1c-.21-.15-.47.07-.54.29-.27.88-.55,1.77-.85,2.65l-.83-.55-1.18-.83c-.21-.15-.47.05-.55.26-.41,1.05-.83,2.1-1.28,3.15l-1.06-1L1312,640.4c-.22-.22-.57.14-.6.35l-.55,3-1.39-1.09a17.92,17.92,0,0,0,.81,1.78l.5.39c.24.18.58-.1.63-.35l.53-2.88,2.3,2.26c.19.19.51-.07.58-.25.47-1.09.91-2.18,1.33-3.27a1.62,1.62,0,0,0,.37.33l1.64,1.12c.21.15.49-.06.56-.28.31-.88.6-1.77.87-2.66l.74.5,1.6,1c.22.14.49-.1.55-.31l.51-1.75.26-1,0-.18c1,.72,2.06,1.41,3.11,2.08.23.14.5-.14.54-.35.31-1.35.58-2.68.78-4h0l1.34.41c.53.16,1.08.3,1.63.44a11.28,11.28,0,0,1-.55-1.1c-.87-.23-1.73-.46-2.57-.73C1327.39,633.79,1327.21,634.09,1327.19,634.24Z"/><path class="cls-11" d="M1330.53,621.81c-.17-.12-.43.11-.5.24-.57,1.19-1.19,2.35-1.85,3.52l-.87-1-1.49-1.85c-.16-.21-.48,0-.58.15q-.79,1.3-1.65,2.58l-.58-.68-1.2-1.45c-.17-.2-.48-.06-.6.12-.52.77-1.06,1.53-1.6,2.28l-.63-.77-.89-1.13c-.16-.21-.46-.09-.6.08-.69.89-1.41,1.77-2.14,2.64l-.72-1.3-.91-1.72c-.15-.28-.59,0-.68.16l-1.4,2.7c-.73-1-1.43-2-2.11-3a.3.3,0,0,0-.27-.13c-.1.34-.18.69-.27,1l0,0c.72,1.06,1.45,2.12,2.21,3.16.18.25.59.08.71-.14l1.35-2.61,1.53,2.84c.14.24.51.08.64-.07q1.14-1.35,2.22-2.73a1.7,1.7,0,0,0,.26.42l1.24,1.56c.16.2.49.07.62-.11.55-.76,1.09-1.52,1.61-2.28l.56.69,1.23,1.44c.17.2.5,0,.62-.13l1-1.53.56-.88.09-.15c.76,1,1.55,2,2.37,2.9.17.2.51,0,.62-.18.69-1.2,1.33-2.39,1.92-3.61h0l1,.7c.15-.27.29-.54.45-.82C1331.43,622.38,1331,622.11,1330.53,621.81Z"/><path class="cls-11" d="M1335,614c-.89,1-1.83,1.9-2.81,2.82l-.53-1.24-.87-2.2c-.1-.25-.46-.17-.61,0-.75.68-1.53,1.34-2.33,2l-.36-.83-.72-1.73c-.1-.24-.44-.2-.61-.07-.72.58-1.45,1.15-2.2,1.72l-.37-.92-.51-1.35c-.09-.25-.43-.23-.61-.1-.92.65-1.86,1.27-2.82,1.89l-.3-1.45-.37-1.91c0-.31-.55-.21-.69-.05l-2.14,2.17c-.14-.42-.27-.84-.4-1.27-.24.28-.46.55-.69.84.14.42.27.85.42,1.28s.53.25.72.07l2-2.09.63,3.16c.06.27.46.23.63.12,1-.64,2-1.29,2.93-2a1.55,1.55,0,0,0,.12.48l.72,1.85c.1.24.45.22.63.09.75-.56,1.49-1.13,2.21-1.71l.34.82.74,1.74c.11.24.46.19.64.06l1.4-1.17.78-.67.14-.13c.44,1.17.91,2.32,1.41,3.47.11.25.49.16.64,0,1-.94,2-1.9,2.9-2.89h0l.88,1.09c.2.26.43.51.65.75l.64-.65c-.6-.69-1.19-1.38-1.74-2.08C1335.37,613.78,1335.05,613.92,1335,614Z"/><path class="cls-11" d="M1343.05,607.1c-1,.81-2.11,1.58-3.22,2.34l-.32-1.31-.52-2.32c0-.26-.42-.23-.59-.13-.85.55-1.73,1.08-2.62,1.59l-.22-.86-.44-1.83c-.06-.26-.4-.27-.59-.16-.8.46-1.62.91-2.44,1.34l-.23-1-.29-1.41c0-.26-.38-.29-.58-.19-1,.49-2,1-3.08,1.42l-.07-1.48-.06-1.94a.23.23,0,0,0-.15-.2q-1.89,1.35-3.69,2.75a.55.55,0,0,0,.6,0l2.37-1.74.11,3.22c0,.27.42.3.61.22,1.08-.48,2.15-1,3.2-1.47a2,2,0,0,0,0,.49l.43,1.94c.06.25.4.29.6.18.83-.43,1.65-.88,2.45-1.34l.21.87L1335,608c.07.25.42.26.62.15l1.57-.93.87-.54.16-.1c.24,1.22.53,2.43.84,3.65.07.26.46.23.63.12q1.72-1.15,3.33-2.4h0l.69,1.22c.19.33.4.64.6,1l.74-.54c-.51-.81-1-1.63-1.46-2.45C1343.5,606.91,1343.17,607,1343.05,607.1Z"/><path class="cls-11" d="M1356.44,600.46l-.91,1-.72.74-.13.13c-.6-1.06-1.15-2.14-1.65-3.22-.09-.19-.43-.12-.56,0-1.08.75-2.2,1.45-3.36,2.13l-.24-1.33-.36-2.35c0-.26-.41-.26-.58-.16-.89.49-1.8,1-2.72,1.42l-.16-.89-.32-1.85c0-.26-.38-.29-.58-.2-.83.41-1.68.8-2.53,1.19l-.15-1-.2-1.42c0-.27-.37-.32-.57-.23-1,.42-2.1.82-3.17,1.21l0-1.45-.9.63,0,1.39c0,.27.4.32.58.25q1.66-.6,3.3-1.26a1.35,1.35,0,0,0,0,.49l.29,2c0,.26.39.31.59.22.86-.38,1.7-.77,2.54-1.18l.14.88.35,1.87c0,.26.4.29.6.19l1.63-.82.91-.49.16-.09c.17,1.23.37,2.47.6,3.7,0,.26.45.26.63.16,1.19-.7,2.35-1.41,3.47-2.17h0l.61,1.26c.35.7.72,1.38,1.11,2.06a.21.21,0,0,0,.19.11l1.09-.77.34-.36.71-.75.12-.13c.05.09.12.18.18.27l.74-.54c-.14-.21-.29-.42-.42-.64S1356.55,600.33,1356.44,600.46Z"/><path class="cls-11" d="M1366.56,590.87l-.91,1-.72.74-.13.12c-.6-1.06-1.15-2.14-1.65-3.21-.09-.2-.43-.13-.56,0-1.08.74-2.2,1.44-3.36,2.12l-.24-1.33-.36-2.34c0-.27-.4-.26-.58-.17-.89.49-1.8,1-2.72,1.42l-.17-.89-.32-1.85c0-.26-.37-.29-.57-.2-.83.41-1.68.81-2.53,1.19l-.15-1-.2-1.43c0-.26-.37-.31-.58-.23-.68.28-1.38.54-2.08.8q-.72.63-1.44,1.23h0c1.11-.4,2.21-.82,3.3-1.25a1.35,1.35,0,0,0,0,.49l.29,2c0,.26.39.31.59.22.86-.37,1.7-.77,2.54-1.17l.15.88.33,1.86c.06.26.41.29.61.19l1.63-.82.91-.48.16-.09c.17,1.22.37,2.46.6,3.69,0,.27.45.27.63.16,1.19-.69,2.35-1.41,3.47-2.17h0l.61,1.26c.35.7.72,1.38,1.11,2.07.13.24.56.06.68-.06l.94-1,.71-.75.12-.14c.25.42.54.83.81,1.25.24-.2.46-.41.69-.61-.34-.52-.69-1-1-1.55C1367.07,590.54,1366.67,590.75,1366.56,590.87Z"/><path class="cls-11" d="M1379.26,580.39l-.8,1.06-.64.81-.12.14c-.71-1-1.36-2-2-3-.11-.18-.44-.08-.56,0-1,.85-2,1.67-3.11,2.47l-.39-1.3-.61-2.29c-.06-.26-.42-.22-.59-.1-.83.58-1.68,1.15-2.55,1.69l-.26-.86-.51-1.81c-.07-.25-.41-.25-.59-.13-.79.49-1.59,1-2.39,1.44l-.26-1-.35-1.4c-.06-.26-.4-.27-.59-.17-1,.54-2,1-3,1.55l-.12-1.48-.14-1.94c0-.27-.37-.27-.59-.18-.42.64-.86,1.27-1.31,1.89l1.06-.85.25,3.21c0,.27.43.28.61.19,1.06-.51,2.11-1,3.14-1.59a1.69,1.69,0,0,0,.06.48l.5,1.93c.07.25.42.27.62.16.81-.47,1.61-1,2.39-1.44l.24.86.54,1.81c.08.26.43.25.62.13l1.53-1,.86-.58.15-.1c.29,1.2.62,2.41,1,3.61.08.26.47.22.64.09,1.12-.81,2.19-1.65,3.22-2.53h0l.74,1.19c.38.61.79,1.19,1.2,1.77.84-1,1.61-2,2.33-2.94A.88.88,0,0,0,1379.26,580.39Z"/><path class="cls-11" d="M1386,566.94l-.66,1.15-.53.88-.1.16c-.83-.9-1.61-1.83-2.34-2.76-.13-.16-.45,0-.55.09-.89,1-1.82,1.91-2.79,2.84l-.54-1.24-.89-2.2c-.09-.25-.45-.16-.6,0-.75.68-1.53,1.35-2.32,2l-.37-.82-.73-1.73c-.1-.24-.44-.2-.61-.06-.71.58-1.45,1.16-2.19,1.73l-.37-.92-.53-1.34c-.09-.25-.42-.23-.6-.1-.92.65-1.86,1.29-2.81,1.91l-.31-1.45-.38-1.91c-.06-.3-.55-.2-.7,0l-1,1c-.2.55-.41,1.09-.64,1.63l1.64-1.68.64,3.16c.07.26.47.22.63.11,1-.65,2-1.3,2.92-2a1.92,1.92,0,0,0,.12.48l.74,1.85c.1.24.45.21.63.08.75-.57,1.48-1.14,2.19-1.73l.35.83.76,1.73c.11.24.46.19.63,0l1.4-1.17.77-.68.14-.13c.45,1.16.92,2.32,1.43,3.47.11.24.49.15.64,0,1-.95,2-1.91,2.89-2.91h0l.88,1.09c.5.6,1,1.17,1.55,1.76.19.2.57-.07.66-.22l.69-1.15.51-.89.1-.16.16.16c.12-.31.24-.62.35-.93-.07-.08-.16-.15-.24-.23S1386.08,566.79,1386,566.94Z"/><path class="cls-11" d="M1389.24,553.64c-.19-.19-.52.09-.61.24L1388,555l-.53.88-.1.16q-1.23-1.35-2.34-2.76c-.13-.16-.45,0-.55.09-.89,1-1.82,1.91-2.79,2.84l-.54-1.24-.89-2.2c-.09-.25-.45-.16-.6,0-.75.67-1.53,1.34-2.32,2l-.37-.82-.73-1.73c-.1-.24-.43-.2-.61-.06-.71.59-1.44,1.16-2.18,1.73L1373,553l-.52-1.35c-.1-.25-.43-.22-.61-.09-.92.66-1.86,1.29-2.81,1.91l-.31-1.45-.38-1.91c-.06-.3-.55-.2-.7,0l-.5.51c0,.37-.08.75-.13,1.11l.61-.62.65,3.16c.06.26.46.22.62.11,1-.64,2-1.3,2.93-2a1.31,1.31,0,0,0,.12.48l.73,1.85c.1.24.45.21.63.08.75-.57,1.48-1.14,2.2-1.73l.34.83.76,1.73c.11.24.46.19.63,0l1.4-1.17.78-.68.13-.12c.44,1.15.92,2.31,1.43,3.45.11.25.5.16.64,0,1-1,2-1.91,2.89-2.91h0l.89,1.08c.49.61,1,1.18,1.54,1.77.19.2.57-.07.66-.22l.69-1.15.52-.89.09-.16.25.24c0-.41,0-.82,0-1.22Z"/><path class="cls-31" d="M241.92,584.7s15.14-13.56,23.29-42.94c9,7.49,7.52,17-1.84,32.45C254.6,588.75,244.73,586.16,241.92,584.7Z"/><path class="cls-32" d="M283.93,528.66h0c-5,2.6-15.9,9.13-18.72,13.1,12.68,13.59-1,47.33-23.14,42.74,0,0-2.6,4-4,25.46h0c-.48,13.22-.06,35.83,6.52,54.27,18.38,1.87,31.4,3.07,37.94.91a115.67,115.67,0,0,0,2.91-24.86h0c30,18.81,61.82,42.53,61.82,42.53s28.47-45,55.33-92.83c-19.72-12.52-49.69-24.78-70-35.92h0s13.93-5.42,24.16-14.46c-1.21-6.78-8.45-17.66-18.85-32.94C319.24,509.06,294.44,522.53,283.93,528.66Z"/><path class="cls-8" d="M331.93,580.31a29.65,29.65,0,0,0,1-6.36,28.68,28.68,0,0,0-6.41.43,26.5,26.5,0,0,0-4.91,1.38l-.92-.53a26.56,26.56,0,0,0-1-5,29,29,0,0,0-2.56-5.91,29.37,29.37,0,0,0-5.17,3.83,26.89,26.89,0,0,0-3.57,4.12l-.66,0a25.43,25.43,0,0,0-3.76-4,29.7,29.7,0,0,0-5.34-3.6,29,29,0,0,0-2.29,6,25.48,25.48,0,0,0-.8,5.65l-.28.19a25.33,25.33,0,0,0-5.55-1.37,29.21,29.21,0,0,0-6.43-.14,29.34,29.34,0,0,0,1.33,6.3,26,26,0,0,0,2.47,5.33l-.06.13a25.54,25.54,0,0,0-5.56,1.89,29,29,0,0,0-5.48,3.36,28.9,28.9,0,0,0,4.53,4.58,26.86,26.86,0,0,0,4.89,3.12l0,.24a26.32,26.32,0,0,0-3.61,4.53,29.69,29.69,0,0,0-2.81,5.8,29.69,29.69,0,0,0,6.29,1.4,25.86,25.86,0,0,0,5.77,0l.18.2a26.76,26.76,0,0,0-.58,5.75,29.12,29.12,0,0,0,.78,6.38,29,29,0,0,0,6.05-2.21,25.72,25.72,0,0,0,4.77-3.09l.36.1a26.32,26.32,0,0,0,2.59,5.06,30,30,0,0,0,4.11,5,29.4,29.4,0,0,0,3.89-5.13,26.68,26.68,0,0,0,2.33-5.1l.46-.14a25.71,25.71,0,0,0,4.83,2.82,29,29,0,0,0,6.14,1.95,29.54,29.54,0,0,0,.5-6.42,26.17,26.17,0,0,0-.83-5.62l.11-.12.14-.18a25.94,25.94,0,0,0,5.67-.24,29.26,29.26,0,0,0,6.22-1.69,29.42,29.42,0,0,0-3.06-5.66,26.1,26.1,0,0,0-3.49-4.05l.12-.8a25.92,25.92,0,0,0,4.31-3.09,30.23,30.23,0,0,0,4.33-4.78,30.13,30.13,0,0,0-5.63-3.11,25.44,25.44,0,0,0-4.68-1.45c-.17-.41-.37-.82-.57-1.21A26.58,26.58,0,0,0,331.93,580.31ZM323,607.91a19.29,19.29,0,1,1-2.56-27.16A19.3,19.3,0,0,1,323,607.91Z"/><path class="cls-33" d="M297.19,586.56a14.19,14.19,0,1,0,20-1.89A14.17,14.17,0,0,0,297.19,586.56Z"/><path class="cls-7" d="M242.32,657l41.16,3.5c.48-2.62.84-5.11,1.12-7.4l-44-3.74C241.07,651.9,241.65,654.46,242.32,657Z"/><path class="cls-7" d="M239.62,643.83l45.49,4c.06-.9.12-1.71.16-2.48l-46-4.1C239.36,642.15,239.49,643,239.62,643.83Z"/><path class="cls-7" d="M325.23,509.58,346.61,547c2.05-1.25,4.16-2.64,6.22-4.17L332.69,507.6C330.26,508.12,327.76,508.8,325.23,509.58Z"/><path class="cls-7" d="M317.63,512.21,340,550.71l2.2-1.16L320,511.33Z"/><path class="cls-34" d="M264.48,541.34c-5.83,15.3-11.92,29.75-23.23,41.84-.69.29-.63,1.52-.12,2.34.31.58.8,1,1.27.78,15.24,1.49,23.48-9.63,28.19-22.88C273.22,556,272,546.3,266,540.81,265.4,540.27,264.72,540.73,264.48,541.34ZM266.26,567c-4.19,9.53-11,16-21,16.29,9.75-11.43,15.53-24.72,20.92-38.75C271.36,550.44,269.26,560.13,266.26,567Z"/><path class="cls-7" d="M385.78,580.43l-54.72,90.92c3,2.11,5.62,4,7.87,5.66l55.36-92C391.56,583.5,388.71,582,385.78,580.43Z"/><path class="cls-34" d="M344.69,680.85,401,588.94c-.81-.51-1.62-1-2.47-1.51l-56.15,91.71Z"/><path class="cls-35" d="M286.5,640.89l-.84-.53Z"/><path class="cls-35" d="M285.66,640.36l-.1-.07Z"/><path class="cls-35" d="M286.5,640.89Z"/><path class="cls-35" d="M285.46,640.23a.33.33,0,0,0,.1.06l-.07,0Z"/><path class="cls-31" d="M289.18,642.58a38.36,38.36,0,0,0-6.22-5.86A177.33,177.33,0,0,0,266.73,625c-9-5.47-18.5-10.24-28.71-12.78,0,.49,0,1,0,1.51,9,2.24,17.19,6.29,25.29,10.83a87.87,87.87,0,0,1,13.2,9c3.06,2.52,6.22,4.67,9,7.13,0-.26,0-.42,0-.42l0,0C286.72,641,288,641.8,289.18,642.58Z"/><path class="cls-31" d="M285.75,527.66c6.51,6.31,14.07,11.37,21.88,16.07,5.27,3.17,10.93,5.34,16.46,8a37.77,37.77,0,0,0,11,3.65l-2.34-1.26,1.2-.5c-4.52-.85-8.77-3-13.19-5a149.26,149.26,0,0,1-15.74-8A109.28,109.28,0,0,1,286.89,527Zm47.36,26.64-.32-.18Zm.95.51Zm-.38-.21-.35-.18Z"/><path class="cls-10" d="M390.06,479.86s41,78.65,44.31,79.34c3.16.66,38.83-18.34,39.75-28.65s-15.38-34.16-15.38-34.16,27.06,25.14,30.46,25,35.92-25.58,34.65-33.72-68.68-58.31-68.68-58.31S432.36,451.54,390.06,479.86Z"/><path class="cls-36" d="M446.75,449.58l14.86-15.34c5.24,4.49,13.28,9.57,20.8,16.09-3.18,2.42-9.65,7.84-15.55,9.44C456.92,462.49,446.75,449.58,446.75,449.58Z"/><path class="cls-37" d="M481.56,449.59c-4.23,3.59-8.91,7.36-13.73,9-7,2.34-13.87-1.79-17.61-7.7-.52-.82-2.73-.65-2.07.4,3.54,5.58,10.27,10.49,17.16,9.62C472,460,477.9,455,483.09,450.8Z"/><path class="cls-37" d="M430.86,468.62l19.64,24.63c.16.2.47.47.76.3a8.91,8.91,0,0,0,4.4-9.92c-1.49-5.51-6.31-10.05-9.85-14.33q-3.37-4.1-6.92-8c-.82-.91-1.49,1.21-.84,1.93,1.93,2.14,3.81,4.34,5.67,6.55C447.29,474,452,478.6,454,483.83c1.13,3-.59,5.81-3,7.44-.28.19.92.8.3,0l-1.52-1.9L432,467.06c-.87-1.09-1.79.76-1.15,1.56Z"/><path class="cls-36" d="M414.61,477.86l-19.24,12.26c3.22,6.11,7.5,14.2,12.05,22.67a65.33,65.33,0,0,0,11.43-12.63C427.35,488.11,414.61,477.86,414.61,477.86Z"/><path class="cls-37" d="M416.32,478.68c-.88-.88-1.53,1.24-.85,1.93,4.94,5,7.44,12.57,3.6,18.87-2.76,4.54-7.78,8.4-12.38,11.84.3.57.61,1.13.91,1.71,5.39-4.22,11.9-8.94,14.29-15.48S421,483.37,416.32,478.68Z"/><path class="cls-7" d="M467.26,438.54c-6.72-5.49-12.37-9.73-12.37-9.73s-22.92,22.68-65.22,51c0,0,3.43,6.42,7.39,13.39C406.67,487.72,445.88,461.26,467.26,438.54Z"/><path class="cls-10" d="M424.12,475.3l2.87-2.1-9.76-13-2.46,1.85Z"/><path class="cls-10" d="M443.5,460.71l2.77-2.28-11.11-12.49-2.36,1.95Z"/><path class="cls-38" d="M438.94,499.47c-3-.06-3.22,2.75-1.6,7.5-2.61-3.22-7.1-3.78-7.34-.34-.31,4.45,6.74,3.51,6.74,3.51-3.47,1.38-6.23,5.56-3.75,7.26s4.56-.51,6.26-5c1.17,4.42,4.24,6,6.54,3.54,1.87-2,.44-3.65-4-6.37,4.44,1.72,7.21-1.35,6.71-3.14s-2.84-2.7-7.85.58C443.06,504.63,442.59,499.54,438.94,499.47Zm.8,11.56c-2.21.91-2.95-2.56-1.1-3.28C440.06,507.19,441.66,510.28,439.74,511Z"/><path class="cls-38" d="M467.47,512.85a4.38,4.38,0,0,0,.66-.83c-1.19-2.3-2.43-4.51-3.61-6.52-1.77.72-1.69,3.32-.33,7.28-2.61-3.21-7.1-3.77-7.35-.33-.31,4.45,6.74,3.5,6.74,3.5-3.46,1.38-6.23,5.56-3.75,7.26s4.57-.5,6.26-5c1.16,4.36,4.16,6,6.45,3.62-.61-1.73-1.36-3.53-2.2-5.34-.51-.35-1.08-.72-1.72-1.11a7.52,7.52,0,0,0,1.39.39c-.55-1.16-1.12-2.32-1.71-3.47Zm-.88,4c-2.21.91-2.95-2.57-1.11-3.28C466.91,513,468.5,516.1,466.59,516.85Z"/><path class="cls-38" d="M475.37,479c-3-.06-3.22,2.74-1.59,7.49-2.61-3.22-7.1-3.77-7.35-.33-.31,4.44,6.74,3.5,6.74,3.5-3.46,1.38-6.23,5.56-3.75,7.26s4.56-.51,6.26-5c1.18,4.41,4.24,6,6.54,3.53,1.87-2,.44-3.65-4-6.36,4.43,1.71,7.2-1.35,6.7-3.14s-2.84-2.71-7.85.58C479.5,484.17,479,479.08,475.37,479Zm.81,11.55c-2.21.91-2.95-2.56-1.11-3.28C476.5,486.73,478.09,489.81,476.18,490.56Z"/><path class="cls-38" d="M458.33,543.12c-.51-1.79-2.85-2.7-7.86.59,2.44-2.41,2-7.49-1.69-7.56-3-.06-3.22,2.74-1.59,7.49-2.62-3.22-7.11-3.78-7.35-.34-.31,4.45,6.74,3.51,6.74,3.51-3.46,1.38-6.23,5.56-3.75,7.26s4.56-.51,6.26-5a9.26,9.26,0,0,0,1.23,2.81c1.64-.95,3.31-2,5-3a21.92,21.92,0,0,0-3.67-2.64C456.05,548,458.82,544.92,458.33,543.12Zm-8.74,4.58c-2.21.91-2.95-2.56-1.11-3.28C449.91,543.87,451.5,547,449.59,547.7Z"/><path class="cls-38" d="M496.62,468.19c-2.61-3.21-7.1-3.77-7.34-.33-.32,4.45,6.73,3.5,6.73,3.5-3.46,1.38-6.23,5.56-3.75,7.26s4.56-.51,6.26-5c1.18,4.41,4.24,6,6.54,3.54,1.87-2,.45-3.65-4-6.37,2.62,1,4.65.36,5.78-.72l-4-3.41a17.77,17.77,0,0,0-2.89,1.57,5.19,5.19,0,0,0,1.42-2.79c-1.64-1.37-3.32-2.75-5-4.13C495.23,462.41,495.45,464.8,496.62,468.19Zm2.4,4.07c-2.21.91-2.95-2.57-1.11-3.28C499.34,468.42,500.93,471.51,499,472.26Z"/><path class="cls-38" d="M421,532.58c1.18,4.41,4.24,6,6.54,3.53,1.87-2,.44-3.65-4-6.37,4.44,1.72,7.2-1.34,6.7-3.14s-2.84-2.7-7.85.58c2.44-2.4,2-7.48-1.68-7.55-3-.06-3.23,2.74-1.6,7.49a6.41,6.41,0,0,0-5.27-2.64l3.22,5.89c.84,0,1.44-.08,1.44-.08a8.37,8.37,0,0,0-1.16.58l2.43,4.42A19.24,19.24,0,0,0,421,532.58Zm-.61-4.68c1.43-.55,3,2.53,1.11,3.28C419.26,532.09,418.52,528.62,420.36,527.9Z"/><path class="cls-38" d="M512.14,501.75c-.5-1.79-2.84-2.7-7.86.58,2.44-2.4,2-7.48-1.68-7.55-3-.06-3.23,2.74-1.6,7.49-2.61-3.22-7.1-3.78-7.34-.34-.31,4.45,6.73,3.51,6.73,3.51-3.46,1.38-6.23,5.56-3.74,7.26s4.56-.51,6.26-5a8.62,8.62,0,0,0,1.51,3.19c1.44-1.2,2.89-2.44,4.33-3.72a26.12,26.12,0,0,0-3.32-2.31C509.87,506.61,512.64,503.55,512.14,501.75Zm-8.74,4.58c-2.21.91-2.95-2.56-1.1-3.28C503.72,502.5,505.31,505.58,503.4,506.33Z"/><path class="cls-38" d="M309.17,250.16a60,60,0,0,0,1.64-13.28,61.06,61.06,0,0,0-13.3,1.43,54.29,54.29,0,0,0-10.05,3.3c-.65-.37-1.31-.71-2-1a52.91,52.91,0,0,0-2.5-10.34,59.25,59.25,0,0,0-5.81-12.06,61.33,61.33,0,0,0-10.41,8.41,54.75,54.75,0,0,0-7.06,8.84l-1.36.11a54.18,54.18,0,0,0-8.17-7.88,60.38,60.38,0,0,0-11.38-7,61,61,0,0,0-4.24,12.69,53,53,0,0,0-1.19,11.81l-.57.42a53,53,0,0,0-11.63-2.38,61.45,61.45,0,0,0-13.38.26,61.78,61.78,0,0,0,3.31,13,53.41,53.41,0,0,0,5.58,10.86l-.12.28a54,54,0,0,0-11.39,4.38,61.55,61.55,0,0,0-11.1,7.47,61.4,61.4,0,0,0,9.8,9.11,55,55,0,0,0,10.42,6.06c0,.17.06.33.1.49a55.49,55.49,0,0,0-7.13,9.72A61.62,61.62,0,0,0,201.92,317a60.66,60.66,0,0,0,13.17,2.38,53.34,53.34,0,0,0,12-.53l.39.38a54.44,54.44,0,0,0-.72,12,61,61,0,0,0,2.16,13.19,60.17,60.17,0,0,0,12.37-5.11,53.6,53.6,0,0,0,9.66-6.83l.75.18A53.58,53.58,0,0,0,257.5,343a61.42,61.42,0,0,0,9,9.92,61.65,61.65,0,0,0,7.63-11,54.49,54.49,0,0,0,4.4-10.77l.94-.34a54.37,54.37,0,0,0,10.29,5.45,61,61,0,0,0,12.9,3.52,60.49,60.49,0,0,0,.49-13.37,54.64,54.64,0,0,0-2.18-11.6l.21-.26.28-.39a53.91,53.91,0,0,0,11.75-1,60.39,60.39,0,0,0,12.77-4,61,61,0,0,0-6.84-11.51,54.1,54.1,0,0,0-7.6-8.12c.07-.55.14-1.1.19-1.66a54.49,54.49,0,0,0,8.71-6.79A61.47,61.47,0,0,0,329,270.82a61.61,61.61,0,0,0-11.95-6,55.57,55.57,0,0,0-9.82-2.61c-.4-.83-.84-1.65-1.3-2.46A54.4,54.4,0,0,0,309.17,250.16Z"/><path class="cls-8" d="M285.31,252.06a40.09,40.09,0,1,1-56.18,7.62A40.09,40.09,0,0,1,285.31,252.06Z"/><path class="cls-32" d="M372.88,412.4c-4.37-2.12-12.55-3-18.95-4.3S336.88,398,342,385.22s19.69-8.11,29.43-1.35,23.16,10.47,29.6,15.35C407.14,403.86,405.11,428.1,372.88,412.4Z"/><path class="cls-10" d="M370.83,409.66c-3.45.69-5.77,0-8.62-2s-4.83-5.66-6.19-8.93c-.91-2.19-2.65-6.36-.68-8.42a8.47,8.47,0,0,1,3.49-2.19,46.29,46.29,0,0,1,6.89-1.52,17.41,17.41,0,0,1,15,4.54c1.63,1.47,1.66-2.08.62-3-5-4.49-11.19-5.91-17.75-5.11a38.46,38.46,0,0,0-7.76,1.92c-2.08.72-4.18,1.37-4.85,3.73-.94,3.31.29,6.95,1.49,10,1.53,3.91,3.51,8,6.5,11,3.26,3.26,8.68,4.36,13.11,3.48,1.44-.29.31-3.84-1.23-3.53Z"/><path class="cls-27" d="M387.28,393.24c1.76-.87,4.12,2.91,1.76,4.07C386.3,398.71,385,394.34,387.28,393.24Z"/><path class="cls-27" d="M396.81,403.38c1.76-.86,4.12,2.92,1.76,4.08C395.83,408.85,394.53,404.49,396.81,403.38Z"/><path class="cls-27" d="M386.49,412.67c1.77-.86,4.13,2.92,1.76,4.08C385.52,418.14,384.21,413.78,386.49,412.67Z"/><path class="cls-27" d="M379.59,403.64c1.77-.86,4.13,2.91,1.76,4.07C378.62,409.11,377.31,404.75,379.59,403.64Z"/><path class="cls-27" d="M373,390.21c1.76-.86,4.12,2.92,1.75,4.08C372.05,395.69,370.74,391.32,373,390.21Z"/><path class="cls-27" d="M355.06,377.53c1.77-.87,4.13,2.91,1.76,4.07C354.09,383,352.78,378.63,355.06,377.53Z"/><path class="cls-27" d="M342.91,385.71c1.77-.86,4.13,2.92,1.76,4.07C341.94,391.18,340.63,386.82,342.91,385.71Z"/><path class="cls-27" d="M348.19,399c1.76-.86,4.12,2.91,1.76,4.07C347.21,404.46,345.91,400.1,348.19,399Z"/><path class="cls-27" d="M366.28,402.43c1.76-.86,4.12,2.92,1.75,4.08C365.3,407.91,364,403.54,366.28,402.43Z"/><path class="cls-27" d="M360.63,392c1.76-.86,4.12,2.91,1.75,4.07C359.65,397.42,358.34,393.06,360.63,392Z"/><path class="cls-32" d="M420.16,377.9c-3.57-3.29-7.41-10.57-10.92-16.07s-15.6-12.2-25.67-2.79-.36,21.29,9.48,27.9,18.2,17.74,25.1,22C424.71,412.91,446.54,402.18,420.16,377.9Z"/><path class="cls-10" d="M416.86,377c-.62-3.46-2.08-5.38-5-7.29s-7-2.44-10.57-2.51c-2.38-.05-6.89-.14-8.09,2.44a8.41,8.41,0,0,0-.76,4.05,47,47,0,0,0,1.09,7,17.46,17.46,0,0,0,9.69,12.29c2,1-1.32,2.31-2.58,1.68-6-3-9.58-8.26-11.23-14.66a37.79,37.79,0,0,1-1-7.92c-.1-2.2-.26-4.4,1.7-5.88,2.74-2.08,6.57-2.27,9.87-2.27,4.2,0,8.76.33,12.64,2,4.23,1.84,7.23,6.48,8,10.93.26,1.45-3.46,1.69-3.73.14Z"/><path class="cls-27" d="M407.57,398.3c-.16,2,4.22,2.78,4.44.15C412.31,395.4,407.77,395.77,407.57,398.3Z"/><path class="cls-27" d="M420.5,403.47c-.16,2,4.21,2.78,4.43.15C425.23,400.57,420.69,400.94,420.5,403.47Z"/><path class="cls-27" d="M425.38,390.48c-.16,1.95,4.22,2.77,4.44.15C430.12,387.57,425.58,388,425.38,390.48Z"/><path class="cls-27" d="M414.45,387.35c-.16,2,4.22,2.77,4.44.15C419.19,384.45,414.65,384.82,414.45,387.35Z"/><path class="cls-27" d="M399.56,386.13c-.16,2,4.22,2.78,4.43.15C404.3,383.23,399.75,383.6,399.56,386.13Z"/><path class="cls-27" d="M381.19,374c-.16,2,4.22,2.77,4.43.15C385.92,371.13,381.39,371.51,381.19,374Z"/><path class="cls-27" d="M384.37,359.74c-.15,2,4.22,2.78,4.44.15C389.11,356.84,384.57,357.21,384.37,359.74Z"/><path class="cls-27" d="M398.66,359.81c-.16,1.95,4.22,2.77,4.44.15C403.4,356.9,398.86,357.28,398.66,359.81Z"/><path class="cls-27" d="M408.47,375.39c-.16,2,4.22,2.78,4.44.15C413.21,372.49,408.67,372.86,408.47,375.39Z"/><path class="cls-27" d="M396.65,374c-.16,2,4.22,2.77,4.43.15C401.39,371.05,396.85,371.43,396.65,374Z"/><path class="cls-32" d="M206.19,543.9S163,528.29,180.45,489.56C199.08,448.3,238.08,464,238.08,464S242,514.06,206.19,543.9Z"/><path class="cls-39" d="M183.92,481.85c-2.29,2.08-3.93,7-5,9.94a42.16,42.16,0,0,0-1.25,26c4.66,16.78,22.79,23.74,27.32,25.67.72.31,1.13.45,1.13.45a72.69,72.69,0,0,0,12.65-13.17C182.3,520,179.12,498.41,183.92,481.85Z"/><path class="cls-8" d="M237.93,464c-2.42-.77-32.48-14.77-53.69,17.32,2.06,13.22,27.11,28.64,47.45,26,1.79-4.25,1.2-4.15,2.32-8.22C238.35,482.62,239.3,468.42,237.93,464Z"/><path class="cls-17" d="M223.29,483.15c-1.73,1.93-3.81.71-5.76.1-.37-.11-1.53-.75-1.95-.44l-3.37,2.46c-4.35,3.18-3.94-3.23-4-4.73,0-2-1.15-2.08-2.84-3.19-1.1-.71-4.61-2.6-.7-4.59a9.86,9.86,0,0,1,1.6-.49c.76-.23,2.43-.39,3-1s.57-1.75.74-2.31.41-1.36.61-2c.52-1.71,3.3-1.76,4.33-.43,1.68,2.16,1.91,3.48,4.58,3.42,1.19,0,7.32-.54,4.87,3.2-.74,1.12-1.64,2.17-2.45,3.25-1.31,1.73,2.07,4.62,1.19,6.91-.14.37.44.95.64.44.57-1.48,0-2.63-.49-4-1.06-2.78-1.08-2.32.72-4.69,1.63-2.17,2.44-6.11-1.66-6-1.06,0-4.14.65-4.8-.2-.85-1.11-2.06-3.49-3.42-4.07-1.81-.77-3.29-.29-4.08,1.56-.29.69-.78,4.1-1.32,4.26-1.87.58-8.33,1.72-6.18,5.22.89,1.45,2.39,2.17,3.79,3.08.9.59,1.17.61,1.18.92,0,1.22,0,2.44,0,3.66,0,4.06,3.5,3.71,6,1.89s2.45-1.7,5.25-.83c1.91.6,3.4,1.07,4.9-.61C224,483.6,223.59,482.82,223.29,483.15Z"/><path class="cls-15" d="M222.49,472.4a1,1,0,0,1-.22.62l-2.44,3.24a1.29,1.29,0,0,0-.22.81,1.14,1.14,0,0,0,.06.29l1.45,3.78a1,1,0,0,1,.08.36.69.69,0,0,1-.29.64,1,1,0,0,1-.89.09L216,481a1.49,1.49,0,0,0-1.15.18l-3.32,2.43a.94.94,0,0,1-1,.16.86.86,0,0,1-.49-.78v-.06l0-4v0a1.38,1.38,0,0,0-.55-1L206,475.63a1,1,0,0,1-.48-.71.84.84,0,0,1,.69-.79l4-1.23a1.4,1.4,0,0,0,.81-.79l1.16-3.85a.88.88,0,0,1,.68-.67.94.94,0,0,1,.89.42l2.52,3.25a1.52,1.52,0,0,0,1.06.5l4.22-.09C222.16,471.66,222.47,472,222.49,472.4Z"/><path class="cls-15" d="M182,480.36c1.77-1.22,3.52-.66,3.92,1.26a6.1,6.1,0,0,1-2.48,5.69c-1.77,1.22-3.52.66-3.92-1.26A6.11,6.11,0,0,1,182,480.36Z"/><path class="cls-40" d="M254.67,461.6s11.19-5.05,11-11.71-13.48-.7-17.64,3.66A59.59,59.59,0,0,0,254.67,461.6Z"/><path class="cls-32" d="M238.64,460.11S252.72,447,261.23,447c-7.41,6.68-8.84,13.3-2.79,27,5,11.33-9.26,32.78-27.06,33.85,3.69-10.5,3.26-19.06,2.48-25.86C232.71,471.78,233.65,464.54,238.64,460.11Z"/><rect class="cls-1" width="1600" height="900"/></g></svg>