<svg id="Layer_1" data-name="Layer 1" xmlns="http://www.w3.org/2000/svg" viewBox="0 0 228 228"><defs><style>.cls-1{fill:#fcac04;stroke:#75471c;stroke-miterlimit:10;}.cls-2{fill:#fff200;}.cls-3{fill:#c19e0e;}.cls-4{fill:#b1d456;}.cls-5{fill:#afc8e6;}</style></defs><path id="T-shirt" class="cls-1" d="M196.71,107.34c-3.37-6.16-10.56-20.66-18.3-34.73-11.47-20.83-42.62-29.75-43.59-28.89-2.63,2.29-7.55,10.67-21.53,10.37-13.83-.89-17.48-8-20.11-10.32-1-.85-32.12,8-43.59,28.84-7.74,14.07-14.93,28.57-18.3,34.73-2.19,4,22.45,22.79,24.89,18.64,4.08-6.93,9.15-19.74,11-18.4s-6.88,65.9-6.88,65.9c-.26,2.28,4.8,5.94,10,7.14,7.49,1.72,14,3.72,43.68,3.72,31.06,0,39.43-1.52,45.57-2.92,6.38-1.46,8.7-3.56,8-6.39,0,0-8.58-66.11-6.75-67.45s6.9,11.47,11,18.4C174.26,130.13,198.9,111.36,196.71,107.34Z"/><path class="cls-2" d="M36.25,107.65a.61.61,0,0,1-.66-.05l-.87-.68a.53.53,0,0,1,0-.79.66.66,0,0,1,.86-.09l.87.69a.52.52,0,0,1,0,.78A.9.9,0,0,1,36.25,107.65Z"/><path class="cls-2" d="M51.92,120.09a.64.64,0,0,1-.67,0l-1.74-1.39a.51.51,0,0,1,0-.78.66.66,0,0,1,.86-.09l1.74,1.38a.58.58,0,0,1-.19.92Zm-5.22-4.15a.64.64,0,0,1-.67,0l-1.74-1.38a.53.53,0,0,1,0-.79.66.66,0,0,1,.86-.09L46.88,115a.52.52,0,0,1,0,.78A.62.62,0,0,1,46.7,115.94Zm-5.23-4.14a.63.63,0,0,1-.66,0l-1.74-1.38a.52.52,0,0,1,0-.78.66.66,0,0,1,.86-.1l1.74,1.38a.53.53,0,0,1,0,.79Z"/><path class="cls-2" d="M56.27,123.54a.64.64,0,0,1-.67,0l-.86-.69a.51.51,0,0,1,0-.78.66.66,0,0,1,.86-.09l.86.68a.52.52,0,0,1,0,.78A.62.62,0,0,1,56.27,123.54Z"/><path class="cls-2" d="M174.15,122.79a.62.62,0,0,1-.22.63l-.9.64a.51.51,0,0,1-.75-.2.65.65,0,0,1,.14-.85l.9-.65a.51.51,0,0,1,.75.2A.63.63,0,0,1,174.15,122.79Z"/><path class="cls-2" d="M190.37,111.08a.62.62,0,0,1-.22.63l-1.8,1.3a.53.53,0,0,1-.76-.21.66.66,0,0,1,.14-.85l1.81-1.3a.51.51,0,0,1,.75.2A.63.63,0,0,1,190.37,111.08ZM185,115a.65.65,0,0,1-.23.63l-1.8,1.3a.51.51,0,0,1-.75-.2.65.65,0,0,1,.14-.85l1.8-1.31a.51.51,0,0,1,.75.21A.6.6,0,0,1,185,115Zm-5.41,3.91a.66.66,0,0,1-.22.63l-1.81,1.3a.52.52,0,0,1-.75-.21.65.65,0,0,1,.14-.85l1.8-1.3a.52.52,0,0,1,.76.2A.63.63,0,0,1,179.56,118.89Z"/><path class="cls-2" d="M194.88,107.83a.65.65,0,0,1-.23.63l-.89.64a.52.52,0,0,1-.76-.2.65.65,0,0,1,.14-.85l.9-.65a.51.51,0,0,1,.75.2A.92.92,0,0,1,194.88,107.83Z"/><path class="cls-2" d="M116.66,64.32a.56.56,0,0,1-.61-.5.57.57,0,0,1,.51-.62c.36,0,.73-.07,1.09-.12l1.08-.17a.54.54,0,0,1,.66.44.58.58,0,0,1-.45.66l-1.13.18c-.38,0-.77.1-1.15.13Zm-4.49.17h-.68c-.56,0-1.11,0-1.66-.07a.56.56,0,1,1,.09-1.12c.52,0,1,.06,1.57.06h.63a.57.57,0,0,1,.56.57A.56.56,0,0,1,112.17,64.49Zm11-1.7a.54.54,0,0,1-.57-.35.57.57,0,0,1,.32-.73c.68-.26,1.35-.55,2-.88a.57.57,0,0,1,.49,1c-.69.33-1.4.64-2.11.91A.4.4,0,0,1,123.2,62.79Zm-17.68.8a.58.58,0,0,1-.22,0,22.46,22.46,0,0,1-2.16-.79.56.56,0,0,1-.3-.74.57.57,0,0,1,.74-.29c.67.28,1.36.54,2,.75a.56.56,0,0,1-.11,1.1Zm23.6-4a.55.55,0,0,1-.51-.23.56.56,0,0,1,.13-.78c.59-.43,1.17-.89,1.73-1.36a.56.56,0,0,1,.79.06.57.57,0,0,1-.06.79c-.59.5-1.19,1-1.8,1.42A.5.5,0,0,1,129.12,59.59ZM99.48,60.65a.59.59,0,0,1-.36-.09c-.63-.43-1.25-.89-1.85-1.38a.56.56,0,1,1,.72-.87c.57.47,1.16.91,1.76,1.32a.56.56,0,0,1-.27,1ZM134.05,55a.59.59,0,0,1-.42-.13.58.58,0,0,1-.06-.8c.48-.56.93-1.14,1.35-1.73a.56.56,0,0,1,.92.65c-.44.62-.92,1.22-1.41,1.81A.59.59,0,0,1,134.05,55Zm-39.6,1.16A.54.54,0,0,1,94,56c-.51-.57-1-1.16-1.45-1.77a.56.56,0,1,1,.89-.68c.45.59.91,1.16,1.4,1.71a.56.56,0,0,1-.37.93Zm43.28-6.79a.52.52,0,0,1-.32-.07.56.56,0,0,1-.22-.76l.07-.13c.36-.64.69-1.23,1-1.83a.56.56,0,0,1,.75-.26.57.57,0,0,1,.26.75c-.3.62-.64,1.23-1,1.89l-.07.12A.56.56,0,0,1,137.73,49.39ZM90.58,50.68a.56.56,0,0,1-.54-.29c-.38-.67-.72-1.35-1-2a.55.55,0,0,1,.27-.74.56.56,0,0,1,.74.27c.32.66.65,1.32,1,2a.57.57,0,0,1-.22.77A.63.63,0,0,1,90.58,50.68Z"/><path class="cls-2" d="M126.56,177a.68.68,0,0,1-.74-.63.69.69,0,0,1,.72-.65l2.9,0c.34,0,.74.27.75.62a.69.69,0,0,1-.72.66l-2.91,0Zm-5.83.05h-2.92a.69.69,0,0,1-.72-.65c0-.36.37-.58.73-.64h2.9a.65.65,0,1,1,0,1.29Zm14.56-.27a.7.7,0,0,1-.74-.61.68.68,0,0,1,.7-.67l2.9-.12a.72.72,0,0,1,.77.6.69.69,0,0,1-.7.68c-1,.05-1.94.09-2.91.12ZM112,177h0l-2.91-.06a.68.68,0,0,1-.71-.65.7.7,0,0,1,.75-.63l2.91.05a.68.68,0,0,1,.71.66A.7.7,0,0,1,112,177Zm32-.65a.7.7,0,0,1-.73-.6.68.68,0,0,1,.67-.69c1-.06,1.94-.13,2.89-.21a.65.65,0,1,1,.13,1.28c-1,.08-1.94.15-2.92.21Zm-40.75.45h0l-2.91-.1a.68.68,0,0,1-.7-.67.73.73,0,0,1,.76-.62l2.91.1a.68.68,0,0,1,.7.66A.7.7,0,0,1,103.26,176.8Zm-8.73-.33h0l-2.92-.13a.65.65,0,1,1,.09-1.29l2.9.14a.67.67,0,0,1,.69.67A.69.69,0,0,1,94.53,176.47Zm58.18-.86A.7.7,0,0,1,152,175a.66.66,0,0,1,.64-.71l2.87-.33a.69.69,0,0,1,.82.55.66.66,0,0,1-.63.72c-1,.12-1.92.23-2.9.33Zm-66.9.43h-.06l-2.91-.17a.67.67,0,0,1-.67-.69.7.7,0,0,1,.77-.6l2.91.17a.69.69,0,0,1,.68.69A.71.71,0,0,1,85.81,176Zm75.54-1.57a.72.72,0,0,1-.73-.53.67.67,0,0,1,.59-.75c1-.15,1.91-.32,2.84-.49a.73.73,0,0,1,.86.5.65.65,0,0,1-.56.76c-2,.38-.21.07-2.88.5Zm-84.26,1H77l-2.92-.21a.67.67,0,0,1-.66-.69.7.7,0,0,1,.79-.59l2.9.2a.68.68,0,0,1,.67.7A.71.71,0,0,1,77.09,175.5Zm-8.71-.66H68.3c-1.88-.15-2.92-.25-2.92-.25a.66.66,0,0,1-.64-.71.7.7,0,0,1,.8-.57s1,.1,2.9.25a.66.66,0,0,1,.65.7A.68.68,0,0,1,68.38,174.84Z"/><path class="cls-3" d="M70.43,106.8c-.15.75-.55,2.12-.61,2.28a16,16,0,0,1-2,4.55c.08-1.15.16-3.68.08-5.19l-.17-.83a3.52,3.52,0,0,0,.16-.35,29,29,0,0,0,2.06-9c.25-2.8.45-5.6.55-8.4.17-3.71.67-10.57.84-14.29.5,2.09.5,8.88.5,11,0,2.52-.12,5.78-.2,7.7-.13,3-.29,5.1-.5,7.54A28.78,28.78,0,0,1,70.43,106.8Z"/><path class="cls-3" d="M157.46,106.85c.16.75.56,2.12.61,2.28a16.58,16.58,0,0,0,2,4.55c-.07-1.15-.16-3.68-.08-5.19l.18-.83a2.14,2.14,0,0,1-.16-.35,28.71,28.71,0,0,1-2.06-9q-.39-4.2-.56-8.4c-.16-3.71-.67-10.57-.83-14.29-.5,2.09-.5,8.88-.5,11,0,2.52.11,5.78.2,7.7.13,3,.28,5.1.49,7.54A29.79,29.79,0,0,0,157.46,106.85Z"/><path class="cls-2" d="M134.7,134.74v.65a13.91,13.91,0,0,1-.06,1.61v.29a14.23,14.23,0,0,1-.12,1.66,31.46,31.46,0,0,1-2.9,10.86c-.24.47-.48.89-.72,1.36v.06a23.53,23.53,0,0,1-6.88,8.19,12,12,0,0,1-1.42,1h-.06a16,16,0,0,1-17,0,12.91,12.91,0,0,1-1.49-1,23.63,23.63,0,0,1-6.88-8.19c-.23-.47-.47-.95-.71-1.42A31.46,31.46,0,0,1,93.6,139a14.18,14.18,0,0,1-.12-1.6V137a13.91,13.91,0,0,1-.06-1.61v-.65a33.41,33.41,0,0,1,1-7.41c.12-.65.29-1.31.47-2,0-.06.06-.18.06-.24v-.06c.18-.53.36-1,.53-1.54a28.48,28.48,0,0,1,4-7.41,15.81,15.81,0,0,1,1-1.25,19,19,0,0,1,7.17-5.45,5.92,5.92,0,0,1,1.6-.6,14.85,14.85,0,0,1,9.79,0,6.66,6.66,0,0,1,1.54.6,19.12,19.12,0,0,1,7.18,5.45c.36.42.71.83,1,1.25a28.16,28.16,0,0,1,4,7.41c.18.54.36,1.13.54,1.66,0,.06.06.12.06.18.17.65.35,1.31.47,2A33.54,33.54,0,0,1,134.7,134.74Z"/><path class="cls-4" d="M92,96.9a52.68,52.68,0,0,1,11.53,5.46,73.28,73.28,0,0,0-2.59-15,32.84,32.84,0,0,1,9.89,11.69,52,52,0,0,1,3.9-17.38l1.92,17.54a48.16,48.16,0,0,1,10-13,55.71,55.71,0,0,0-3.24,14.53,26,26,0,0,1,13.88-10.37c-6.19,9.25-12.48,18.72-15.33,29.48,0-.07-11.35,0-12.37,0-3.2-.28-3.69-1.44-4.92-4.28A56.81,56.81,0,0,0,92,96.9Z"/><path class="cls-5" d="M120.52,109.42a57.64,57.64,0,0,1-5.27,5.33c-.36.36-.78.66-1.19,1a65.94,65.94,0,0,1-7.12,5.16,14.93,14.93,0,0,1-1.42.83,80.65,80.65,0,0,1-7.65,4c-.54.23-1,.47-1.55.65a15.32,15.32,0,0,1-1.95.89c.12-.65.29-1.31.47-2a.31.31,0,0,0,.24-.12,11.86,11.86,0,0,0,1.54-.65,83.86,83.86,0,0,0,7.71-3.92c.48-.29,1-.59,1.37-.83a62.47,62.47,0,0,0,7.23-5.1c.42-.35.83-.71,1.19-1a55,55,0,0,0,4.86-4.93A6.66,6.66,0,0,1,120.52,109.42Z"/><path class="cls-5" d="M128.71,116.12c-1.6,1.54-3.2,3.08-4.86,4.56-.36.36-.78.72-1.19,1.07h-.06c-1.84,1.66-3.74,3.21-5.75,4.69-.48.29-.89.65-1.37,1s-1,.65-1.42,1a79.33,79.33,0,0,1-8.07,4.8c-.53.24-1,.53-1.54.77-2.67,1.37-5.28,2.61-7.77,3.74-.06.06-.18.06-.24.12-.53.23-1,.41-1.54.65a8.41,8.41,0,0,1-1.3.53,14.18,14.18,0,0,1-.12-1.6.29.29,0,0,0,.23-.12,14.6,14.6,0,0,0,1.55-.65c.23-.12.53-.24.77-.36,2.25-1,4.68-2.13,7.11-3.44a10.39,10.39,0,0,0,1.55-.71,90.72,90.72,0,0,0,8-4.68c.48-.3,1-.6,1.43-1s1.24-.83,1.84-1.25a52.42,52.42,0,0,0,5.28-4.27l1.24-1.07c1.78-1.6,3.56-3.26,5.22-5C128.06,115.29,128.41,115.7,128.71,116.12Z"/><path class="cls-5" d="M132.92,136.58l1.78-1.78v.59a13.91,13.91,0,0,1-.06,1.61.49.49,0,0,1-.24.23c-.35.42-.77.77-1.18,1.19-2.61,2.55-5.34,5.1-8.07,7.53-.36.36-.77.65-1.13,1l-.12.12c-2.31,2-5,4.45-8.06,6.7a1.59,1.59,0,0,0-.36.3h-.06c-.41.35-.89.65-1.3.95h-.06a100.24,100.24,0,0,1-8.48,5.39,12.91,12.91,0,0,1-1.49-1,79.66,79.66,0,0,0,8.6-5.34c.48-.3,1-.59,1.43-1,.29-.18.53-.42.83-.59,2.79-2.14,5.4-4.39,7.59-6.29a3,3,0,0,1,.48-.42c.23-.23.53-.47.77-.71,2.67-2.37,5.33-4.86,7.94-7.35C132.15,137.35,132.51,136.94,132.92,136.58Z"/><path class="cls-5" d="M133.22,125.19l-.12.12-1.25,1.13-3.08,2.9c-1.25,1.13-2.49,2.32-3.74,3.44-.47.36-.89.78-1.36,1.13-.89.77-1.78,1.48-2.67,2.2-1.78,1.36-3.62,2.67-5.52,3.85-.47.3-1,.65-1.42.89-.59.42-1.13.77-1.72,1.13-2.26,1.42-4.51,2.85-6.76,4.21-.42.3-.89.59-1.37.89-2.25,1.36-4.62,2.79-7,4.15-.23-.47-.47-.95-.71-1.42,2.2-1.25,4.39-2.49,6.53-3.86a14.17,14.17,0,0,0,1.36-.83l7.12-4.45c.35-.23.77-.47,1.13-.71s.94-.59,1.42-1a72.36,72.36,0,0,0,6-4.15,19.55,19.55,0,0,0,2.08-1.72,11.3,11.3,0,0,0,1.36-1.13c1.42-1.18,2.79-2.49,4.09-3.73l2.67-2.49,1.25-1.19,1.18-1.07C132.86,124.07,133,124.66,133.22,125.19Z"/><path class="cls-5" d="M133.28,125.37c.17.65.35,1.31.47,2a21,21,0,0,1-1.9-.89,6.49,6.49,0,0,1-1.6-.65c-2.55-1.19-5-2.55-7.59-4h-.06c-.42-.23-.89-.53-1.36-.83a70.84,70.84,0,0,1-7.18-5.16c-.42-.35-.77-.65-1.13-1a45.55,45.55,0,0,1-5.34-5.33,5.92,5.92,0,0,1,1.6-.6,49.87,49.87,0,0,0,4.93,4.93,14.73,14.73,0,0,0,1.13,1,61.62,61.62,0,0,0,7.23,5.1c.42.24.89.54,1.37.83,2.37,1.37,4.92,2.67,7.65,3.92l1.6.71A.22.22,0,0,0,133.28,125.37Z"/><path class="cls-5" d="M131.62,149.81c-.24.47-.48.89-.72,1.36-2.37-1.3-4.68-2.73-7-4.09a15,15,0,0,0-1.36-.83L115.78,142c-.59-.36-1.13-.71-1.72-1.13a16.68,16.68,0,0,1-1.42-.89c-1.84-1.18-3.74-2.49-5.52-3.85-.89-.72-1.78-1.43-2.67-2.2a13,13,0,0,0-1.31-1.13c-1.18-1.12-2.43-2.25-3.61-3.38l-3.21-3-1.24-1.19-.18-.12v-.06c.18-.53.36-1,.53-1.54l1.19,1.07,1.25,1.19,2.61,2.43c1.42,1.3,2.78,2.61,4.21,3.85.41.36.89.71,1.3,1.07.65.59,1.37,1.19,2.08,1.72,1.9,1.48,4,2.85,6,4.15a16.73,16.73,0,0,0,1.42,1c.36.24.77.48,1.13.71,2.37,1.49,4.74,3,7.18,4.45a14.17,14.17,0,0,0,1.36.83C127.29,147.32,129.42,148.56,131.62,149.81Z"/><path class="cls-5" d="M134.64,137.29a14.23,14.23,0,0,1-.12,1.66,8.41,8.41,0,0,1-1.3-.53c-.48-.24-1-.42-1.49-.65,0-.06-.17-.06-.23-.12-2.49-1.13-5.1-2.37-7.83-3.74-.48-.24-1-.53-1.54-.77-2.67-1.42-5.4-3-8.07-4.8a12.32,12.32,0,0,1-1.37-1c-.47-.3-.94-.6-1.42-1a72.51,72.51,0,0,1-5.75-4.69,8.83,8.83,0,0,1-1.19-1.07c-1.66-1.48-3.32-3-4.92-4.56a15.81,15.81,0,0,1,1-1.25c1.72,1.72,3.5,3.38,5.28,5a9.09,9.09,0,0,0,1.24,1.07,58.7,58.7,0,0,0,5.28,4.27,17.21,17.21,0,0,0,1.9,1.25,6.6,6.6,0,0,0,1.36,1,83.44,83.44,0,0,0,8,4.62,6.93,6.93,0,0,0,1.54.77c2.43,1.31,4.87,2.44,7.12,3.44l.77.36c.48.24,1,.42,1.48.65C134.46,137.29,134.52,137.29,134.64,137.29Z"/><path class="cls-5" d="M124,159.42a12,12,0,0,1-1.42,1h-.06c-2.91-1.72-5.69-3.44-8.42-5.39h-.06a12.32,12.32,0,0,1-1.37-.95c-.11-.12-.29-.18-.41-.3-3-2.25-5.69-4.68-8.07-6.7l-.12-.12c-.35-.3-.71-.65-1.06-1-2.73-2.43-5.46-4.92-8.13-7.53-.36-.42-.77-.77-1.19-1.19l-.23-.23a13.91,13.91,0,0,1-.06-1.61v-.65c.59.65,1.24,1.25,1.84,1.84l1.18,1.19c2.61,2.49,5.28,5,8,7.35.24.24.53.48.77.71a2.61,2.61,0,0,0,.42.36c2.19,2,4.8,4.21,7.65,6.35a8.06,8.06,0,0,0,.89.59,6.56,6.56,0,0,0,1.3,1h.06A98.22,98.22,0,0,0,124,159.42Z"/></svg>