<svg id="Layer_1" data-name="Layer 1" xmlns="http://www.w3.org/2000/svg" viewBox="0 0 228 228"><defs><style>.cls-1{fill:#00a3d7;stroke:#35557c;}.cls-1,.cls-3{stroke-miterlimit:10;stroke-width:0.75px;}.cls-2,.cls-3,.cls-4{fill:#007296;}.cls-2{opacity:0.59;}.cls-3{stroke:#213956;}.cls-5{fill:#74d0f4;}.cls-6{fill:#005773;}</style></defs><path class="cls-1" d="M64.09,65.38S57.6,125.66,53.93,159c6.76,4.92,51,3.09,51,3.09s6.68-22.15,9.75-36.41a249.27,249.27,0,0,1,8.43,38.65s36.22-1.28,50.72-2c-7.29-70.38-11.73-96.86-11.73-96.86Z"/><path class="cls-2" d="M77.75,72.31S73.33,88.24,61.58,92.78a49.6,49.6,0,0,1-.66,5.77s13.29,1.65,23.47-25.42A39.05,39.05,0,0,0,77.75,72.31Z"/><path class="cls-2" d="M150.53,73.25s4.21,16,15.9,20.69a52.15,52.15,0,0,0,.58,5.77S153.7,101.18,143.88,74A38.7,38.7,0,0,1,150.53,73.25Z"/><path class="cls-3" d="M52.48,154.56l55.28,3.2-1.53,9S67.62,164.34,52,163.15A68.12,68.12,0,0,0,52.48,154.56Z"/><path class="cls-3" d="M121.63,157.78l53.56-.71L176,166s-38.69,1.28-54.38,1.16C121.88,158.92,121.63,157.78,121.63,157.78Z"/><path class="cls-2" d="M119.86,75s-.36,32.58-2.26,35.38-11,2.88-11,2.88,11.83,4.54,15.71-1.52,3.2-37.92,3.2-37.92Z"/><polygon class="cls-4" points="64.88 60.88 63.59 75.36 164.5 77.29 163.16 63.99 64.88 60.88"/><path class="cls-5" d="M120.35,68a4.81,4.81,0,1,1-5.51-4A4.82,4.82,0,0,1,120.35,68Z"/><polygon class="cls-6" points="89.46 61.34 89.22 76.25 94 76.56 94.67 61.28 89.46 61.34"/><polygon class="cls-6" points="133.68 62.43 133.46 77.45 138.59 77.5 139.44 62.68 133.68 62.43"/></svg>