<svg id="Layer_1" data-name="Layer 1" xmlns="http://www.w3.org/2000/svg" viewBox="0 0 228 228"><defs><style>.cls-1{fill:#a2bd3a;}.cls-1,.cls-2,.cls-3,.cls-4{fill-rule:evenodd;}.cls-2{fill:#b8d432;}.cls-3{fill:#788d3a;}.cls-4{fill:#93ac3c;}</style></defs><path class="cls-1" d="M114.15,49.89v0c88,8.61,96,31.85,93.95,92.23C161.59,115,66.39,115,19.88,142.16c-2.1-60.38,6-83.62,94-92.23v0l.14,0Z"/><path class="cls-2" d="M117.88,50.32c28.16,3,47.76,7.56,61.36,14.54,16.52,16.33,19.64,43.23,19.46,72.47-45.07-20.43-121.7-20.7-167.56-.82-.18-30,3.31-57.46,21.37-73.44C66.11,57,85.1,52.89,111.45,50.16a13.88,13.88,0,0,0,3.45.7,12.65,12.65,0,0,0,3-.54Z"/><path class="cls-1" d="M107.82,50.86H122a2.51,2.51,0,0,0,2.7-2.22h0a2.52,2.52,0,0,0-2.7-2.26h-14.2a2.52,2.52,0,0,0-2.7,2.26h0a2.51,2.51,0,0,0,2.7,2.22Z"/><path class="cls-3" d="M208.1,144.81a107.35,107.35,0,0,1,7.45,23.7c2.89,14.43,2.19,15.91-15.55,9.12-76.07-29-98.19-29.27-172,0-17.6,7-18.44,5.31-15.55-9.12a109,109,0,0,1,7.45-23.7c26.91-31.42,159.08-31.54,188.22,0Z"/><path class="cls-4" d="M208.1,142.16a107.7,107.7,0,0,1,7.45,23.66c2.89,14.47,2.23,15.87-15.55,9.16-76.07-28.77-98.19-28.8-172,0-17.65,6.9-18.44,5.31-15.55-9.16a109.33,109.33,0,0,1,7.45-23.66c26.91-31.42,159.08-31.54,188.22,0Z"/></svg>