<svg xmlns="http://www.w3.org/2000/svg" xmlns:xlink="http://www.w3.org/1999/xlink" viewBox="0 0 343.29 80.21"><defs><style>.cls-1{fill:#db9b40;}.cls-2{isolation:isolate;}.cls-3{clip-path:url(#clip-path);}.cls-4{opacity:0.5;}.cls-5{fill:#bc6c26;}.cls-6{fill:#ae611e;}.cls-7{mix-blend-mode:screen;opacity:0.22;}</style><clipPath id="clip-path"><polygon class="cls-1" points="335.87 79.73 8.53 79.73 0.92 40.1 8.53 0.47 335.87 0.47 342.78 40.1 335.87 79.73"/></clipPath></defs><g class="cls-2"><g id="Layer_1" data-name="Layer 1"><polygon class="cls-1" points="335.87 79.73 8.53 79.73 0.92 40.1 8.53 0.47 335.87 0.47 342.78 40.1 335.87 79.73"/><g class="cls-3"><g class="cls-4"><path class="cls-5" d="M-39.77-6.2C-41.7,5,200.5-3.14,241.37,10.69c19.8,6.67,216,3.51,159.09,0C400.46,10.69-37.85-17.43-39.77-6.2Z"/><path class="cls-5" d="M-39.77,31.77C-41.7,43,200.5,34.85,241.37,48.62c19.8,6.71,216,3.53,159.09,0C400.46,48.62-37.85,20.52-39.77,31.77Z"/><path class="cls-6" d="M313.11,63.9c-9.4.86-61.45,18.51-80.64,25.11C186.39,104.78-2.07,104.14-3.86,104.5c-31.4,6.67,54.7,3,79.37,1.23,24.13-1.66,113,2,151.52-11.83C268,79.22,324.09,62.87,313.11,63.9Z"/><path class="cls-6" d="M312.52,60c-9.34.8-61.25,12.54-80.31,17.37C188,88.68-.56,96-2.79,96.17c-31.47,2,54.38-.7,78.91-2.75,24-2,112.3-3.7,150.69-13.12C263.58,71.31,321.87,59.1,312.52,60Z"/><path class="cls-6" d="M312.57,64.33c-9.35.8-61.25,12.53-80.3,17.43C188,93-.52,100.42-2.73,100.52c-31.48,2.11,54.36-.69,78.89-2.69,24-2,112.31-3.76,150.69-13.12C263.62,75.74,321.91,63.52,312.57,64.33Z"/><path class="cls-6" d="M201.09,64.7C187.13,70.57,76.5,67.64,59,68.42c-9.11.37-23.42-1.63-35-3.61-10.72-1.89,7.19-3.66,7.19-3.66-59.76-15.41-3.25,11.67,19.73,11.67s13.24,0,58.8,0,89.92-4.3,89.92-4.3l2.78-1,27.09-9.4a95.45,95.45,0,0,0-20.34,3.74A75.82,75.82,0,0,0,201.09,64.7Z"/><path class="cls-6" d="M230.05,67.82c-5.79,5.42-38,2.36-50.81,1.55C171.3,68.9,97.3,75.31,87,75,86.45,75,20.55,59.6-7.8,60.76-17.65,61.17,49.54,76,46.69,75c24.42,8.07,59.62,4,85.31,2.16s58.9-7,75.33-2.21S235.82,62.44,230.05,67.82Z"/><path class="cls-6" d="M42.18,72.82c11.53,4,11.45-.49-50-11.28C-53.68,67.13,88,81.48,71.89,82.28a1.29,1.29,0,0,1-.42.06c5-.28,152.7-8.11,170.08-11.34,12.59-2.36,40.1-23,58.51-32.44a224.73,224.73,0,0,0-41.54,17.6C217.5,78.47,57,77.93,42.18,72.82Z"/><path class="cls-6" d="M313.57,33.83c-3.24,0-8,1.89-13.51,4.73C315.36,33.83,321.91,33.83,313.57,33.83Z"/><path class="cls-6" d="M376.45,59.08C349.06,39.44,284.36,84,189.07,109.66c-68.25,18.41,22.43-1,42.82-8.49,11.91-4.35,64.22-28.83,106-36.75,29.78-5.59,31.44,3.54,40.12,9.4C398.8,87.8,412.76,85.05,376.45,59.08Z"/><path class="cls-6" d="M329.13,72.66c-51.2,17.64-125.7,33.24-123.39,42S280,116.7,302,123.76s62.39,12.3,77.18,28.51,5.4-8.29-45.26-23.46c-31.52-9.39-95.81-10.9-108.09-11.51-11.79-.54-38.45-2.15,31.45-21.9C298,83.85,322,77.45,327.12,75.35c2.27-.86,6.75-3.62,12.73-5.77-1.34.35-2.62.6-4,1C333.67,71.22,331.44,71.87,329.13,72.66Z"/><path class="cls-6" d="M339.85,69.58c8.27-1.94-5-1.57,1.31-1.32C332.74,67,345.78,67.5,339.85,69.58Z"/><path class="cls-6" d="M341.16,68.26c12.17,1.86,46.81,8.43,61.3,29,1.89,2.63,3.55,5,5.07,7.18A151.88,151.88,0,0,1,397.67,85S367.44,69.4,341.16,68.26Z"/><path class="cls-6" d="M302,93.81c35.77-9.53,60.19-24.17,79.9-6.59s22.6,26.6,16,12.44a43,43,0,0,0-17.17-18c-8.88-5-21.6-7.74-39.06-2.51C300,91.66,221.38,110,220.24,112.57s48,5,79.25,5.59,71.19,15.93,81.06,26.94,9.72-3.66-11.1-15.36-111.34-14.63-114.1-17.21S266.17,103.28,302,93.81Z"/><path class="cls-6" d="M302,94.6c35.79-9.46,60.19-24.16,79.91-6.56s22.6,26.57,16,12.44a43.1,43.1,0,0,0-17.18-18c-8.87-4.95-21.59-7.75-39.07-2.52C300,92.46,221.4,110.81,220.24,113.39s48.05,5,79.26,5.59,71.18,16,81.06,26.93,9.72-3.65-11.09-15.37-111.36-14.64-114.1-17.15S266.18,104.14,302,94.6Z"/><g class="cls-7"><path class="cls-6" d="M313.12,65c-9.39.86-61.44,18.55-80.64,25.11C186.4,105.9-2,105.21-3.86,105.58c-31.4,6.73,54.71,3,79.39,1.22,24.11-1.65,113,2,151.53-11.83C268,80.3,324.09,64,313.12,65Z"/><path class="cls-6" d="M312.53,61c-9.35.8-61.25,12.55-80.29,17.43C188,89.76-.55,97.08-2.77,97.25c-31.48,2,54.36-.71,78.9-2.75,24-1.94,112.3-3.71,150.69-13.08C263.58,72.44,321.88,60.24,312.53,61Z"/><path class="cls-6" d="M312.58,65.45c-9.35.82-61.26,12.53-80.3,17.39-44.23,11.33-232.77,18.65-235,18.8-31.49,2.06,54.36-.69,78.9-2.73,24-2,112.31-3.72,150.68-13.12C263.63,76.86,321.92,64.64,312.58,65.45Z"/><path class="cls-6" d="M201.09,65.78C187.15,71.7,76.51,68.72,59,69.5c-9.11.37-23.42-1.64-35.06-3.62-10.7-1.83,7.2-3.66,7.2-3.66-59.75-15.34-3.24,11.67,19.74,11.67h58.81c45.56,0,89.9-4.35,89.9-4.35l2.78-1,27.09-9.4a95.85,95.85,0,0,0-20.33,3.75C206.5,63.73,203.79,64.64,201.09,65.78Z"/><path class="cls-6" d="M230.05,68.94c-5.78,5.38-37.94,2.33-50.8,1.5C171.32,70,97.31,76.38,87,76.17c-.56,0-66.44-15-94.8-14.33C-44,63.41,22.29,68.08,46.7,76.17s59.64,3.91,85.31,2.09,58.89-7,75.33-2.16S235.83,63.56,230.05,68.94Z"/><path class="cls-6" d="M313.57,35c-3.22,0-8,1.88-13.49,4.68C315.37,35,321.91,35,313.57,35Z"/><path class="cls-6" d="M42.19,73.89c11.53,4,11.46-.5-50-11.23C-53.67,68.21,88,82.56,71.89,83.42h-.42c5-.28,152.7-8.07,170.1-11.34,12.6-2.32,40.09-23,58.51-32.45a229.44,229.44,0,0,0-41.55,17.65C217.51,79.54,57.05,79,42.19,73.89Z"/><path class="cls-6" d="M376.45,60.15c-27.37-19.64-92.07,24.93-187.38,50.66-68.22,18.37,22.44-1.08,42.84-8.57,11.91-4.3,64.2-28.82,106-36.68,29.79-5.66,31.44,3.52,40.11,9.33C398.82,88.92,412.77,86.19,376.45,60.15Z"/><path class="cls-6" d="M329.15,73.8c-51.22,17.64-125.71,33.22-123.41,42S280,117.84,302,124.87s62.37,12.27,77.17,28.47,5.41-8.28-45.26-23.45c-31.52-9.4-95.81-10.91-108.09-11.47-11.8-.51-38.44-2.19,31.45-21.94C298.05,85,322,78.54,327.13,76.47c2.27-.91,6.75-3.6,12.74-5.74-1.34.31-2.64.54-4,1C333.68,72.3,331.46,73,329.15,73.8Z"/><path class="cls-6" d="M341.18,69.4c12.18,1.79,46.79,8.36,61.3,28.93,1.88,2.67,3.54,5,5,7.25a157.51,157.51,0,0,1-9.84-19.43S367.45,70.48,341.18,69.4Z"/><path class="cls-6" d="M339.87,70.73c8.26-2-5-1.6,1.31-1.33C332.74,68.12,345.78,68.57,339.87,70.73Z"/><path class="cls-6" d="M302,94.88c35.8-9.46,60.21-24.15,79.91-6.58s22.6,26.59,16,12.44a43.12,43.12,0,0,0-17.18-18c-8.87-5-21.59-7.75-39.07-2.47C300,92.74,221.4,111.06,220.24,113.64s48.05,5.06,79.28,5.6,71.17,16,81,26.94,9.72-3.66-11.09-15.37-111.34-14.63-114.1-17.17S266.18,104.4,302,94.88Z"/><path class="cls-6" d="M302,95.75c35.77-9.54,60.18-24.16,79.89-6.63s22.61,26.64,16,12.48a43,43,0,0,0-17.17-18c-8.87-5-21.59-7.81-39.06-2.52C300,93.59,221.4,111.88,220.26,114.46s48,5,79.26,5.64S370.7,136,380.58,147s9.7-3.66-11.1-15.32S258.13,117,255.37,114.46,266.18,105.21,302,95.75Z"/></g><path class="cls-6" d="M332.66,22.29h-.24C333.37,22.23,333.5,22.23,332.66,22.29Z"/><path class="cls-6" d="M107.64,43.55a123,123,0,0,1,19.71-6.49C104.26,40.32,52.73,55,35,55.81,16.62,56.74,62.65,63.69,107.64,43.55Z"/><path class="cls-6" d="M127.35,37.06c1-.12,1.93-.26,2.78-.39,18.66-2.09,188.46-13.46,202.29-14.38h.24c.84-.06.71-.06-.24,0-4.83.32,3.21.37,17,.28C296.63,20.84,189.13,21.39,127.35,37.06Z"/><path class="cls-6" d="M337,10.8c-58.47.61-148.41,3.92-201,13.88C167.24,22,291.53,13.82,337,10.8Z"/><path class="cls-6" d="M35.17,44.37c-18.43.9,27.35,5.38,72.61-12.31,7.18-2.8,16.83-5.23,28.22-7.38-2.56.21-4.52.37-5.75.54C108.76,27.59,53.59,43.47,35.17,44.37Z"/><path class="cls-6" d="M332.78,10.78a.53.53,0,0,0-.24,0C333.5,10.73,333.64,10.73,332.78,10.78Z"/><path class="cls-6" d="M332.54,10.82c-2,.13,12.79-.55,4.48,0,28.57-.25,29.15,1.17,34.65,1.75,18.74,2.06,86,.08,86,.08C517.7,7.53,313.36,12.12,332.54,10.82Z"/><path class="cls-6" d="M465,6.07C433.3,1.1,133.48,9.38,44.63,40-38.43,68.67,82.2,38,149.79,26,305.93-1.55,523.15,15.31,483.68,10.8Z"/><path class="cls-6" d="M-70.3-69.55C-118-35.56-99.65-32-72.3-50.3c11.39-7.63,40.44-18.18,79.57-10.86,54.82,10.33,123.5,42.32,139.14,48C173.19-3.39,292.25,22,202.65-2.06,77.51-35.62-34.35-95.22-70.3-69.55Z"/><path class="cls-6" d="M18.7-50.4c-3-1-5.94-1.94-8.77-2.74-2.1-.6-4.11-1.07-6.1-1.56,8.3,2.9,14.45,6.6,17.52,7.85,6.79,2.69,38.19,11.08,91.78,26.14C204.92,5.1,169.92,7.25,154.43,8c-16.12.69-100.55,2.68-141.92,15-40.4,12-50.89,21.32-59.45,30.66C-2.61,5.24,50.9,17.47,54.4,16.36c28.9-9.21,123.33-.5,126.36-11.9S86-27.32,18.7-50.4Z"/><path class="cls-6" d="M-48.92-38.64A56.53,56.53,0,0,0-71.47-15.12c-8.72,18.44-4.91,6.67,21-16.29S7.42-35.19,54.4-22.8,119.23-1.63,115.59,1.66C137.71-18.75,19-5.71-34.24,24.14-61.56,39.46-61.78,58.56-48.8,44.26-10.88,2.27,43,9.3,57.63,9c41-.77,105.56-3.94,104.07-7.31S57-25.6,2.38-41.9C-20.58-48.75-37.28-45.13-48.92-38.64Z"/><path class="cls-6" d="M-48.94-37.56A56.55,56.55,0,0,0-71.48-14c-8.72,18.44-4.9,6.75,21-16.24S7.41-34.12,54.4-21.72,119.21-.55,115.59,2.81C137.72-17.09,19-4.63-34.25,25.22-61.57,40.49-61.78,59.69-48.82,45.34-10.88,3.4,43,10.38,57.61,10.12c41-.78,105.58-3.94,104.08-7.31S57-24.52,2.37-40.83C-20.59-47.67-37.28-44.06-48.94-37.56Z"/><path class="cls-6" d="M-3.93-27.54a76.66,76.66,0,0,0-19.63,1.3,91.27,91.27,0,0,0-25.15,9.08,104.32,104.32,0,0,0-9.94,6c-2.26,1.5-6.95,3-8.65,6.11a4.11,4.11,0,0,0-.23,3.18,1.39,1.39,0,0,0,1.23.82c2.51.15,5-1.51,7.34-3,10.18-6.63,20.81-11.69,31.57-12,4.9-.16,11.13,0,15.67,3.56,2,1.55,29.48,3.78,31.85,4S24.78-9.6,27-10.85c2.78-1.55,5.57-3.09,8.35-4.66-1.77-2.43-30.49-2.56-32.71-2.62-5.51-.11-11-.22-16.54-.37-1.53,0-3.38,0-4.58-1.94,1-3.07,5.09-2.7,6.88-2.75,11.15-.26,21.81,3.12,32.82,4.09,2,.17,16.28.21,13.07,9.29,18-44-60.83-42.8-106.13,25.46C88.17-3.92,88.2-6.95,75.71-4,89.58-7.27,25.25-25.73-3.93-27.54Z"/><path class="cls-6" d="M-4-25.6a75.17,75.17,0,0,0-19.61,1.29,88,88,0,0,0-25.17,9.08c-3.34,1.77-6.66,3.77-9.93,5.92-2.27,1.5-6.94,3.12-8.65,6.17A4.12,4.12,0,0,0-67.55.05,1.27,1.27,0,0,0-66.32.8c2.51.21,4.95-1.44,7.33-3C-48.8-8.78-38.18-13.89-27.4-14.15c4.9-.1,11.11,0,15.66,3.61,2,1.55,29.48,3.78,31.84,4S24.76-7.66,27-8.91l8.36-4.66C33.57-16,31.19-16.16,29-16.16c-5.51-.15-37.39-.32-42.91-.41-1.52-.06-3.36,0-4.57-1.93,1-3.07,5.09-2.71,6.88-2.75,11.14-.26,21.82,3.12,32.83,4.09,2,.16,16.28.16,13,9.29,18.06-44-60.83-42.83-106.11,25.39C88.14-2,88.17-5,75.7-2.1,89.55-5.38,25.22-23.83-4-25.6Z"/><path class="cls-6" d="M456.91,11.56c-36.16-1.64-107.66-2.09-117.16-1.23-32.31,2.75,37.21-1.45,72.73.47,15.88.91,44.17,1.51,46.08,4.63C460.15,18,461,20.66,461,31.68c0,15.81-10.2,12.37-10.72,14.62S469.47,60.55,464,14.63C464,14.63,465.22,11.88,456.91,11.56Z"/><g class="cls-7"><path class="cls-6" d="M107.62,45a123.53,123.53,0,0,1,19.7-6.49C104.23,41.79,52.71,56.42,35,57.28,16.6,58.18,62.64,65.13,107.62,45Z"/><path class="cls-6" d="M332.64,23.73h-.24C333.36,23.69,333.49,23.69,332.64,23.73Z"/><path class="cls-6" d="M127.32,38.52c1-.17,2-.29,2.79-.39C148.77,36,318.57,24.66,332.4,23.73h.24c.85,0,.72,0-.24,0-4.84.34,3.21.34,17,.28C296.62,22.29,189.11,22.85,127.32,38.52Z"/><path class="cls-6" d="M337,12.27c-58.47.52-148.43,3.91-201,13.81C167.18,23.46,291.53,15.22,337,12.27Z"/><path class="cls-6" d="M35.15,45.77c-18.42.92,27.35,5.44,72.6-12.26,7.2-2.8,16.83-5.28,28.22-7.43-2.56.21-4.5.43-5.72.54C108.75,29.05,53.57,44.84,35.15,45.77Z"/><path class="cls-6" d="M332.77,12.24h-.24C333.49,12.18,333.61,12.18,332.77,12.24Z"/><path class="cls-6" d="M332.53,12.24c-2,.15,12.8-.53,4.49,0C365.58,12,366.17,13.4,371.65,14c18.75,2,86,.07,86,.07C517.69,9,313.36,13.58,332.53,12.24Z"/><path class="cls-6" d="M465,7.53c-31.67-5-331.49,3.24-420.34,33.93-83.07,28.65,37.56-2.05,105.15-14C305.92-.11,523.13,16.76,483.67,12.27Z"/><path class="cls-6" d="M-70.31-68.11c-47.69,34-29.35,37.57-2,19.27,11.4-7.66,40.44-18.24,79.56-10.88,54.83,10.32,123.51,42.29,139.14,48C173.16-2,292.24,23.46,202.64-.59,77.5-34.16-34.36-93.76-70.31-68.11Z"/><path class="cls-6" d="M18.69-49c-3-1-5.94-1.94-8.79-2.74-2.07-.57-4.08-1.07-6.08-1.57,8.29,2.87,14.43,6.63,17.52,7.88,6.79,2.67,38.19,11,91.78,26.11C204.89,6.5,169.91,8.65,154.42,9.41c-16.12.71-100.55,2.64-141.94,15C-27.91,36.4-38.41,45.69-46.95,55-2.63,6.65,50.89,18.91,54.39,17.8c28.88-9.19,123.32-.54,126.35-11.94S86-25.94,18.69-49Z"/><path class="cls-6" d="M-48.94-37.17A56.39,56.39,0,0,0-71.5-13.68C-80.2,4.78-76.4-7-50.51-30S7.41-33.77,54.4-21.36,119.21-.21,115.58,3.1C137.69-17.39,19-4.3-34.25,25.61-61.57,40.88-61.79,60-48.82,45.66-10.89,3.62,43,10.75,57.61,10.48c41-.75,105.58-4,104.08-7.31S57-24.15,2.37-40.44C-20.59-47.28-37.29-43.67-48.94-37.17Z"/><path class="cls-6" d="M-48.95-36.09A56.27,56.27,0,0,0-71.5-12.6c-8.71,18.46-4.9,6.67,21-16.29S7.4-32.7,54.38-20.28,119.2.87,115.57,4.18C137.67-16.31,19-3.22-34.26,26.68-61.58,42-61.81,61.11-48.84,46.74-10.91,4.71,43,11.83,57.6,11.56c41-.76,105.57-4,104.07-7.32S57-23.08,2.35-39.37C-20.6-46.21-37.31-42.6-48.95-36.09Z"/><path class="cls-6" d="M-4-26.09A77.49,77.49,0,0,0-23.57-24.8a87.72,87.72,0,0,0-25.17,9.1c-3.34,1.76-6.65,3.74-9.93,5.89-2.27,1.58-6.94,3.15-8.65,6.2a4.1,4.1,0,0,0-.22,3.18A1.16,1.16,0,0,0-66.32.3c2.51.22,5-1.43,7.34-3C-48.8-9.24-38.16-14.37-27.39-14.62c4.9-.14,11.11-.06,15.66,3.59,2,1.57,29.48,3.8,31.83,4S24.76-8.14,27-9.38l8.35-4.69c-1.77-2.41-30.51-2.62-32.72-2.62-5.51-.16-11-.26-16.53-.37-1.54,0-3.38,0-4.58-1.93,1-3.08,5.08-2.69,6.87-2.73C-.48-22,10.2-18.63,21.21-17.64c2,.15,16.28.15,13,9.3C52.33-52.33-26.57-51.18-71.85,17,88.15-2.53,88.19-5.52,75.7-2.58,89.55-5.87,25.22-24.31-4-26.09Z"/><path class="cls-6" d="M-4-24.22a78.88,78.88,0,0,0-19.62,1.29,91.48,91.48,0,0,0-25.16,9.1,113.91,113.91,0,0,0-9.93,6c-2.27,1.51-7,3.14-8.65,6.2a4,4,0,0,0-.22,3.18,1.32,1.32,0,0,0,1.21.73c2.52.18,5-1.44,7.33-3,10.19-6.61,20.83-11.66,31.59-11.92,4.9-.13,11.11-.06,15.66,3.53,2,1.63,29.48,3.86,31.85,4S24.75-6.26,27-7.49c2.79-1.57,5.58-3.07,8.35-4.65-1.76-2.41-4.14-2.58-6.35-2.62-5.52-.11-37.39-.25-42.9-.36-1.54-.07-3.37,0-4.56-2,1-3.05,5.06-2.67,6.85-2.67,11.16-.34,21.83,3.06,32.85,4,2,.22,16.28.22,13.05,9.32C52.3-50.56-26.6-49.27-71.86,19,88.13-.59,88.16-3.58,75.67-.64,89.54-3.93,25.21-22.37-4-24.22Z"/><path class="cls-6" d="M456.3,14.63c-34-15.41-106.8,1-116.29,1.81-32.32,2.95,36.19-1.83,71.7.07,15.89.86,44.69-.5,46.18,3.37a30.11,30.11,0,0,1,1.26,15.28c-.79,3.72-8.34,10.33-8.88,12.61S469.45,62,464,16A15.21,15.21,0,0,1,456.3,14.63Z"/></g></g></g></g></g></svg>