<svg id="Layer_1" data-name="Layer 1" xmlns="http://www.w3.org/2000/svg" viewBox="0 0 53.79 53.48"><defs><style>.cls-1{fill:#c63c63;}.cls-1,.cls-2{stroke:#722e4e;}.cls-1,.cls-2,.cls-3{stroke-miterlimit:10;}.cls-2{fill:#e14e74;stroke-width:0.5px;}.cls-3{fill:#efca8b;stroke:#594825;}</style></defs><g id="pink"><path class="cls-1" d="M40,39.32C36.2,37.55,21.21,27.66,22.58,24.74s18.57,2.24,22.33,4,8.2,7.19,7,9.72S43.74,41.08,40,39.32Z"/><path class="cls-1" d="M14.23,39.87C16,36.11,25.89,21.12,28.81,22.48s-2.25,18.57-4,22.34-7.19,8.19-9.72,7S12.47,43.64,14.23,39.87Z"/><path class="cls-1" d="M39.41,13.58C37.65,17.34,27.76,32.33,24.84,31s2.24-18.57,4-22.34,7.2-8.2,9.72-7S41.17,9.81,39.41,13.58Z"/><path class="cls-1" d="M27.22,44.92c-1.42-3.9-5-21.5-2-22.6S36.77,37,38.19,41s.71,10.88-1.92,11.83S28.63,48.83,27.22,44.92Z"/><path class="cls-1" d="M26.43,8.52c1.42,3.91,5,21.51,2,22.61s-11.55-14.72-13-18.63S14.75,1.62,17.37.67,25,4.62,26.43,8.52Z"/><path class="cls-1" d="M8.62,27.12c3.91-1.42,21.51-5,22.61-2s-14.72,11.54-18.63,13S1.72,38.8.76,36.17,4.71,28.54,8.62,27.12Z"/><path class="cls-1" d="M13.25,17.25c3.89,1.46,19.61,10.15,18.48,13.16S13,29.64,9.15,28.18.41,21.65,1.39,19,9.35,15.79,13.25,17.25Z"/><path class="cls-1" d="M45,26.33c-3.91,1.42-21.51,5-22.6,2S37.13,16.78,41,15.36s10.89-.71,11.84,1.92S48.93,24.91,45,26.33Z"/><path class="cls-2" d="M41.48,33.15c-3.6,0-19-2.27-19-5.07S37.88,23,41.48,23s9.09,2.64,9.09,5.06S45.09,33.15,41.48,33.15Z"/><path class="cls-2" d="M11.56,23c3.61,0,19,2.27,19,5.06s-15.42,5.07-19,5.07S2.47,30.5,2.47,28.08,8,23,11.56,23Z"/><path class="cls-2" d="M21.46,43.05c0-3.61,2.26-19,5.06-19s5.06,15.42,5.06,19-2.64,9.08-5.06,9.08S21.46,46.65,21.46,43.05Z"/><path class="cls-2" d="M31.58,13.12c0,3.61-2.26,19-5.06,19s-5.06-15.42-5.06-19S24.1,4,26.52,4,31.58,9.51,31.58,13.12Z"/><path class="cls-2" d="M33.52,42.24c-2.55-2.55-11.85-15.06-9.87-17s14.48,7.32,17,9.87,4.56,8.3,2.85,10S36.07,44.79,33.52,42.24Z"/><path class="cls-2" d="M19.52,13.92C22.07,16.47,31.37,29,29.39,31s-14.48-7.33-17-9.88-4.56-8.29-2.85-10S17,11.37,19.52,13.92Z"/><path class="cls-2" d="M12.36,35.08c2.55-2.55,15.06-11.85,17-9.87s-7.32,14.48-9.87,17-8.29,4.56-10,2.85S9.81,37.63,12.36,35.08Z"/><path class="cls-2" d="M40.68,21.08c-2.55,2.55-15.06,11.85-17,9.88s7.32-14.49,9.87-17,8.29-4.56,10-2.85S43.23,18.53,40.68,21.08Z"/><path class="cls-3" d="M26.46,35.59a7.84,7.84,0,1,1,7.84-7.83A7.84,7.84,0,0,1,26.46,35.59Z"/></g></svg>