<svg id="Layer_1" data-name="Layer 1" xmlns="http://www.w3.org/2000/svg" width="1075" height="690" viewBox="0 0 1075 690">
  <defs>
    <style>
      .cls-1 {
        fill: #e08327;
      }

      .cls-10, .cls-11, .cls-12, .cls-13, .cls-14, .cls-15, .cls-16, .cls-17, .cls-18, .cls-19, .cls-2, .cls-20, .cls-21, .cls-22, .cls-23, .cls-24, .cls-3, .cls-4, .cls-5, .cls-6, .cls-7, .cls-8, .cls-9 {
        fill: none;
        stroke: #a2f4ee;
        stroke-width: 6px;
      }

      .cls-10, .cls-11, .cls-12, .cls-13, .cls-14, .cls-15, .cls-16, .cls-17, .cls-18, .cls-19, .cls-2, .cls-20, .cls-21, .cls-22, .cls-23, .cls-24, .cls-26, .cls-27, .cls-29, .cls-3, .cls-30, .cls-31, .cls-33, .cls-34, .cls-36, .cls-38, .cls-4, .cls-40, .cls-42, .cls-44, .cls-46, .cls-48, .cls-49, .cls-5, .cls-50, .cls-6, .cls-7, .cls-8, .cls-9 {
        stroke-miterlimit: 10;
      }

      .cls-3 {
        stroke-dasharray: 6.07 6.07;
      }

      .cls-4 {
        stroke-dasharray: 6 6;
      }

      .cls-5 {
        stroke-dasharray: 6.37 6.37;
      }

      .cls-6 {
        stroke-dasharray: 5.73 5.73;
      }

      .cls-7 {
        stroke-dasharray: 6.03 6.03;
      }

      .cls-8 {
        stroke-dasharray: 5.91 5.91;
      }

      .cls-9 {
        stroke-dasharray: 5.68 5.68;
      }

      .cls-10 {
        stroke-dasharray: 5.86 5.86;
      }

      .cls-11 {
        stroke-dasharray: 5.85 5.85;
      }

      .cls-12 {
        stroke-dasharray: 5.66 5.66;
      }

      .cls-13 {
        stroke-dasharray: 5.57 5.57;
      }

      .cls-14 {
        stroke-dasharray: 6.26 6.26;
      }

      .cls-15 {
        stroke-dasharray: 5.71 5.71;
      }

      .cls-16 {
        stroke-dasharray: 6.1 6.1;
      }

      .cls-17 {
        stroke-dasharray: 5.96 5.96;
      }

      .cls-18 {
        stroke-dasharray: 5.95 5.95;
      }

      .cls-19 {
        stroke-dasharray: 6.17 6.17;
      }

      .cls-20 {
        stroke-dasharray: 5.71 5.71;
      }

      .cls-21 {
        stroke-dasharray: 6.05 6.05;
      }

      .cls-22 {
        stroke-dasharray: 5.63 5.63;
      }

      .cls-23 {
        stroke-dasharray: 5.8 5.8;
      }

      .cls-24 {
        stroke-dasharray: 5.82 5.82;
      }

      .cls-25 {
        fill: #fdfffa;
      }

      .cls-26 {
        fill: #ff912d;
      }

      .cls-26, .cls-27, .cls-29, .cls-30, .cls-31, .cls-33, .cls-34, .cls-36, .cls-38, .cls-40, .cls-42, .cls-44, .cls-46, .cls-48, .cls-49, .cls-50 {
        stroke: #000;
      }

      .cls-26, .cls-29, .cls-30, .cls-31, .cls-33, .cls-34, .cls-36, .cls-38, .cls-40, .cls-42, .cls-44, .cls-46, .cls-48, .cls-49, .cls-50 {
        stroke-width: 3px;
      }

      .cls-27 {
        fill: #ffd58e;
      }

      .cls-28 {
        fill: #af631b;
      }

      .cls-29 {
        fill: #fff9f9;
      }

      .cls-31 {
        fill: #ff3620;
      }

      .cls-32 {
        fill: #64220e;
      }

      .cls-33 {
        fill: #930505;
      }

      .cls-34 {
        fill: #f7f5f5;
      }

      .cls-35 {
        fill: #5f6f51;
      }

      .cls-36 {
        fill: #a8bc9a;
      }

      .cls-37 {
        fill: #83425f;
      }

      .cls-38 {
        fill: #f688b5;
      }

      .cls-39 {
        fill: #0e5c31;
      }

      .cls-40 {
        fill: #1c8b4c;
      }

      .cls-41 {
        fill: #c42422;
      }

      .cls-42 {
        fill: #f91c1c;
      }

      .cls-43 {
        fill: #704082;
      }

      .cls-44 {
        fill: #aa31f7;
      }

      .cls-45 {
        fill: #6c513f;
      }

      .cls-46 {
        fill: #ce9e06;
      }

      .cls-47 {
        fill: #3a184f;
      }

      .cls-48 {
        fill: #9c46a0;
      }

      .cls-49 {
        fill: #004c71;
      }

      .cls-50 {
        fill: #00aed0;
      }
    </style>
  </defs>
  <g>
    <g>
      <path class="cls-1" d="M152.44,493.39s44-34.53,2.88-114.25c0,0,56.65-13.06,46.17-76.31,0,0,69.74-15.18,67.49-72.84,0,0,58.54.84,70.94-45.88,0,0,74.87.4,78.2-42.82,0,0,79.55,10.3,89.25-34.41,0,0,64.46,23,79.35-21.81,0,0,81.28,41.82,101.22-14.63,0,0,45.23,65.47,95.57,9,0,0,21.2,64,84.51,36.67,0,0,17.87,71.14,75.65,72.27,0,0-34.26,46.37,6.38,100,0,0-51.49,35.45-44.51,87.38,0,0-58.31,2-60.68,70.21,0,0-71.47-16.34-85.19,56.25,0,0-62.41-26.67-77.31,47.36,0,0-71.43-38.79-90.57,31,0,0-58-40.06-86.38,21.59,0,0-53-51.76-92.8,9.44,0,0-50.07-57.75-95.67-7,0,0-22.2-73.37-94-32C222.92,572.54,231.13,535.24,152.44,493.39Z"/>
      <g>
        <path class="cls-2" d="M203.59,452.87a21.34,21.34,0,0,0-2.63-1.45s.78-.77,2-2.22"/>
        <path class="cls-3" d="M206.73,444.43c7.61-10.47,19.06-31.46,10.13-54.29"/>
        <path class="cls-2" d="M215.66,387.35c-.41-.89-.85-1.79-1.33-2.69,0,0,.72-.81,1.92-2.29"/>
        <path class="cls-4" d="M219.89,377.61c7.71-10.63,20.53-31.73,18.73-52.6"/>
        <path class="cls-2" d="M238.27,322c-.16-1-.34-2-.57-2.95,0,0,1-.47,2.68-1.34"/>
        <path class="cls-5" d="M246,314.78c16.4-8.83,51.49-29.68,53.57-47.33"/>
        <path class="cls-2" d="M299.59,264.27a12,12,0,0,0-.73-2.9s1.07-.21,2.93-.64"/>
        <path class="cls-6" d="M307.34,259.33c15.45-4.18,47.17-15,53.16-34.85"/>
        <path class="cls-2" d="M361.16,221.69a22.6,22.6,0,0,0,.32-3s1.06-.15,3-.47"/>
        <path class="cls-7" d="M370.37,217.19c19.64-3.63,65.51-13.95,72.4-32"/>
        <path class="cls-2" d="M443.52,182.24a12.43,12.43,0,0,0,.06-3s1.08.09,3,.19"/>
        <path class="cls-8" d="M452.47,179.64c18.37.35,59.9-1.37,73.36-22.87"/>
        <path class="cls-2" d="M527.26,154.19a28.33,28.33,0,0,0,1.16-2.77s1.08.1,3,.22"/>
        <path class="cls-9" d="M537.08,151.9c18.35.55,60.15-.83,68.32-24"/>
        <path class="cls-2" d="M606.19,125.2a25.56,25.56,0,0,0,.47-3s.69.85,2,2.21"/>
        <path class="cls-10" d="M613,128.39c11.43,9.47,37.67,24.49,73.86,4"/>
        <path class="cls-2" d="M689.4,130.93c.84-.51,1.69-1,2.54-1.58,0,0,.94.55,2.64,1.43"/>
        <path class="cls-11" d="M699.84,133.33c15.45,7,50.31,18.95,74.73-2.13"/>
        <path class="cls-2" d="M776.73,129.22c.71-.69,1.4-1.4,2.09-2.15,0,0,.79.74,2.25,2"/>
        <path class="cls-12" d="M785.48,132.59c11.44,8.83,35.86,24.87,59.63,22.33"/>
        <path class="cls-2" d="M847.91,154.53c1-.17,2-.37,3-.61,0,0,.54.94,1.55,2.56"/>
        <path class="cls-13" d="M855.45,161.15c8.31,12.29,26.89,36.37,47.6,40.91"/>
        <path class="cls-2" d="M905.8,202.54c1,.13,2,.21,3,.25,0,0-.2,1.06-.47,3"/>
        <path class="cls-14" d="M907.54,212c-1.47,13.89-2.57,40.53,7.47,58.12"/>
        <path class="cls-2" d="M916.66,272.73c.57.83,1.16,1.64,1.78,2.41,0,0-.91.62-2.41,1.79"/>
        <path class="cls-15" d="M911.65,280.59c-10.78,9.61-29.86,31.12-22.37,58"/>
        <path class="cls-2" d="M890.13,341.36c.32.93.67,1.87,1,2.81,0,0-1,.39-2.77,1.15"/>
        <path class="cls-16" d="M882.87,347.87c-16.44,8-51.61,28.47-52.55,58.47"/>
        <path class="cls-2" d="M830.34,409.4c0,1,.13,2,.26,3,0,0-1.08.1-3,.34"/>
        <path class="cls-17" d="M821.72,413.59c-20.66,3.33-70.33,14.79-71.07,47.88"/>
        <path class="cls-2" d="M750.72,464.46c.06,1,.17,2,.31,3,0,0-1.08-.08-3-.12"/>
        <path class="cls-18" d="M742.09,467.35c-17.8.47-56.85,5-66.89,34.85"/>
        <path class="cls-2" d="M674.35,505.06c-.24.95-.46,1.93-.65,2.93,0,0-1.08-.16-3-.35"/>
        <path class="cls-19" d="M664.56,507.18c-18.32-1-59.09.19-73.88,28.19"/>
        <path class="cls-2" d="M589.33,538.15c-.39.91-.77,1.83-1.11,2.79,0,0-1-.36-2.87-.88"/>
        <path class="cls-20" d="M579.82,538.67c-15.91-3.53-50.62-7.5-70.55,18.42"/>
        <path class="cls-2" d="M507.58,559.41c-.55.81-1.1,1.65-1.63,2.51,0,0-.95-.53-2.65-1.4"/>
        <path class="cls-21" d="M497.83,557.93c-16.71-7.44-55.08-20.34-75.05,6.86"/>
        <path class="cls-2" d="M421.06,567.3q-.8,1.25-1.53,2.58s-.86-.67-2.42-1.78"/>
        <path class="cls-22" d="M412.47,564.91c-15-9.89-50.22-29.57-70.05-11.1"/>
        <path class="cls-2" d="M340.44,555.84a29.57,29.57,0,0,0-1.88,2.34s-.86-.65-2.42-1.77"/>
        <path class="cls-23" d="M331.36,553.12c-16.47-11-57.51-35.38-83.54-23.39"/>
        <path class="cls-2" d="M245.24,531.07a28.43,28.43,0,0,0-2.52,1.63s-.26-1-.76-2.9"/>
        <path class="cls-24" d="M240.39,524.2c-5-17.32-17.82-56.23-34.44-69.62"/>
      </g>
    </g>
    <g>
      <g>
        <g>
          <path class="cls-25" d="M945.09,188.65s-24.44-.86-32-5.15c0,0,2.89-10.32.62-12.87,0,0-12.12-1.51-16.45-.41,0,0,.46-14.72-5.32-13.7,0,0-5.35.06-3.26,10,0,0-10.36-9.23-14.88-6.56,0,0-3,3.95,7.88,11.85,0,0-13.72-5-16.25-1,0,0-3.43,4.4,13.62,6.74,0,0-16.71.46-16,3.68,0,0-2.63,4.68,16.63,3.26,0,0-7.3,5.31-6.34,8.93,0,0,3.79,2.41,14-5.61,0,0,11.16,7.78,14.65,6.83,0,0,5.76-1.16,10.66-7.64,0,0,23.33,7,31.49,5.51Z"/>
          <path d="M913.12,183.5l-.44,3.53s25.47,7.36,31.49,5.51l.92-3.89S920.32,187.64,913.12,183.5Z"/>
        </g>
        <g>
          <g>
            <path class="cls-26" d="M1014.25,101.05l-.42,87.68,16.21-2.55s3.47,26.66,3.38,32.21c0,0-19,.1-19,7.8,0,0-.83,22.27,1.59,31.52,0,0-32.08,7.21-34.62,6.41,0,0,4.49-25,1.77-30.13,0,0-32.7,1.77-45.86,8.41,0,0-8.73-32.56-5.72-36.41,0,0,42.1-84.36,51.65-98.62C983.23,107.37,1006.6,99.84,1014.25,101.05Z"/>
            <g>
              <path class="cls-27" d="M959.29,196.37l38.05-6-2.54-32.25L986.29,153S965.59,172.9,959.29,196.37Z"/>
              <path class="cls-28" d="M994.8,158.14s-19.06,20-24.76,36.54l-10.75,1.69s4.78-20.88,27-43.39Z"/>
            </g>
          </g>
          <path class="cls-28" d="M1014.25,101.05a5.79,5.79,0,0,1,5.09,5.21l.78,81.48,9.92-1.56s5.91,2,6.29,4.43c0,0,3.63,26.15,3.07,30.21,0,0-20.59,2.27-19.46,9.44,0,0-.42,25.7,2.88,30.59,0,0-27,6.65-33,6.64,0,0-8.09-1.73-9.35-2.86l32.54-7.77s-14.06-44.61,18.29-40.18l-2.53-29-16.14,2.45Z"/>
        </g>
        <g>
          <ellipse class="cls-29" cx="972.22" cy="135.6" rx="11.86" ry="22.03" transform="translate(-8.62 96.14) rotate(-5.64)"/>
          <ellipse class="cls-29" cx="997.93" cy="134.01" rx="11.86" ry="22.03" transform="translate(-8.34 98.66) rotate(-5.64)"/>
          <ellipse class="cls-30" cx="970.96" cy="136.47" rx="3.33" ry="4.87" transform="matrix(1, -0.1, 0.1, 1, -8.71, 96.02)"/>
          <ellipse class="cls-30" cx="998.06" cy="133.79" rx="3.21" ry="4.87" transform="translate(-8.31 98.67) rotate(-5.64)"/>
        </g>
        <path class="cls-31" d="M968.66,189.63s16.59,12.72,30.45-3.47C999.11,186.16,982.69,240.09,968.66,189.63Z"/>
        <g>
          <path class="cls-25" d="M1014.29,176.9s17.8-10.47,21.5-17.33c0,0-6.74-8.17-6.18-11.37,0,0,8.35-6.18,12.05-6.91,0,0-6.87-13.11-2.13-14.48,0,0,4-2.07,6.89,7.77,0,0,3.61-12.44,8.16-11.83,0,0,4,2.36-.6,13.83,0,0,8-10,11.65-7.35,0,0,4.5,2.62-7.14,11.49,0,0,12.63-6.22,13.56-3,0,0,4,3.18-10.92,9.53,0,0,7.8,1.91,8.69,5.56,0,0-1.75,3.68-12.94.5,0,0-4.85,11.45-7.86,12,0,0-4.81,1.25-11.33-2.66,0,0-14.26,15.57-21,17.47Z"/>
          <path d="M1035.79,159.57l1.9,3s-15.68,16.75-21,17.47l-2.42-3.15S1032.28,166.17,1035.79,159.57Z"/>
        </g>
      </g>
      <g>
        <g>
          <path class="cls-32" d="M454.68,66.23s5.1,6.36,5.71,8.06c0,0,.06,15.12-1.35,18.81,0,0-35.27,36.35-44.07,109.9,0,0-17.22,5.08-31,2.11l-6.91-5.44,30-4.9s9.84-90.88,45.16-111.64Z"/>
          <path class="cls-32" d="M371.31,104.88s3.05,5.58,5.37,5.59c0,0,26.87-4.45,30.87-1.65l7.29-5.82S375.86,94.27,371.31,104.88Z"/>
          <path class="cls-33" d="M365.16,70s80.85.93,89.52-3.74c0,0,1.95,17.7-1.37,21,0,0-35.95,26.11-43.91,111,0,0-30.89,3.5-32.32,1.44,0,0,9.14-74.63,32.93-95.46,0,0-30.64-5.14-38.7.67C371.31,104.88,368.91,78.64,365.16,70Z"/>
        </g>
        <g>
          <ellipse class="cls-29" cx="404.14" cy="63.36" rx="19.06" ry="10.26" transform="translate(338.18 467.08) rotate(-89.63)"/>
          <ellipse class="cls-29" cx="426.41" cy="64.33" rx="19.06" ry="10.26" transform="translate(359.33 490.31) rotate(-89.63)"/>
          <ellipse class="cls-30" cx="402.98" cy="63.99" rx="4.22" ry="2.88" transform="translate(336.39 466.55) rotate(-89.63)"/>
          <ellipse class="cls-30" cx="426.53" cy="64.15" rx="4.22" ry="2.78" transform="translate(359.64 490.26) rotate(-89.63)"/>
        </g>
        <path class="cls-34" d="M402.72,92.73S415.1,105.92,429.2,94C429.2,94,407.64,137.79,402.72,92.73Z"/>
        <g>
          <path class="cls-25" d="M435.4,124.52s24.2-4.36,31-9.18c0,0-4.44-8.44-2.56-11,0,0,11.84-3.11,16.31-2.81,0,0-2.68-12.58,3.23-12.57,0,0,5.33-.74,4.76,8.14,0,0,8.91-9.47,13.82-7.84,0,0,3.63,2.94-6.05,11.35,0,0,12.9-6.37,16-3.27,0,0,4.08,3.28-12.53,7.82,0,0,16.7-2.09,16.52.78,0,0,3.33,3.63-16.06,5.27,0,0,8.07,3.49,7.66,6.74,0,0-3.41,2.64-14.82-2.74,0,0-9.94,8.35-13.55,8a21.05,21.05,0,0,1-11.77-5s-22.17,9.47-30.52,9.41Z"/>
          <path d="M466.44,115.34l1,3s-24.24,10.11-30.52,9.41l-1.5-3.21S459.91,120,466.44,115.34Z"/>
        </g>
        <g>
          <path class="cls-25" d="M394.45,128.63s-24.48-4.42-31.4-9.22c0,0,4.5-8.36,2.6-10.87,0,0-12-3.12-16.5-2.84,0,0,2.72-12.49-3.25-12.49,0,0-5.4-.76-4.82,8.07,0,0-9-9.43-14-7.84,0,0-3.67,2.9,6.11,11.29,0,0-13-6.37-16.21-3.3,0,0-4.13,3.24,12.68,7.8,0,0-16.89-2.13-16.71.72,0,0-3.38,3.59,16.24,5.28,0,0-8.17,3.44-7.76,6.67,0,0,3.45,2.62,15-2.67,0,0,10,8.32,13.7,8a21.51,21.51,0,0,0,11.91-4.9s22.42,9.48,30.86,9.45Z"/>
          <path d="M363.05,119.41l-1,3s24.52,10.12,30.86,9.45l1.53-3.18S369.66,124,363.05,119.41Z"/>
        </g>
      </g>
      <g>
        <g>
          <path class="cls-25" d="M694.06,509.52s-16.28-9.84-19.77-15.61c0,0,5.88-5.91,5.3-8.5,0,0-7.67-5.62-11-6.52,0,0,5.89-9.82,1.58-11.32,0,0-3.66-2-6,5.58,0,0-3.54-10.19-7.62-10.09,0,0-3.56,1.53.86,11,0,0-7.41-8.62-10.65-6.83,0,0-4,1.69,6.69,9.74,0,0-11.52-6-12.28-3.58,0,0-3.57,2.18,10,8.51,0,0-7,.84-7.68,3.67,0,0,1.66,3.07,11.65,1.5,0,0,4.64,9.51,7.37,10.19,0,0,4.35,1.39,10.13-1.15,0,0,13.2,13.59,19.3,15.68Z"/>
          <path d="M674.29,493.91l-1.64,2.23s14.52,14.65,19.3,15.68l2.11-2.3S677.61,499.45,674.29,493.91Z"/>
        </g>
        <g>
          <path class="cls-35" d="M768.48,494.07s34.67,35-2.23,91.34c0,0-21.56,37.87-57.08,5.87,0,0,28.64,15.35,45.86-15.86C755,575.42,779.32,561.94,768.48,494.07Z"/>
          <g>
            <g>
              <path class="cls-36" d="M734.6,475.59c-24,4-63.42,21.48-34.12,101.83,4.33,11.86,17.28,30.94,48.2,15.05,18.11-9.31,33.74-30,30.42-75.56C779.1,516.91,766,470.34,734.6,475.59Z"/>
              <g>
                <ellipse class="cls-27" cx="734.02" cy="535.39" rx="28.94" ry="16.57" transform="translate(74.78 1160.54) rotate(-79.59)"/>
                <path class="cls-35" d="M745.22,510.46s-20-4.66-20.31,25.39c0,0-.83,16.64,4.33,27.81,0,0-7.51.13-11.45-12.72A47.7,47.7,0,0,1,720,523S730.17,497.52,745.22,510.46Z"/>
              </g>
            </g>
            <path class="cls-31" d="M720.48,516.05s13.92,15.36,30.32,2C750.8,518.08,725.19,567.78,720.48,516.05Z"/>
            <g>
              <ellipse class="cls-29" cx="720.91" cy="483.14" rx="21.3" ry="11.47" transform="translate(220.35 1192.07) rotate(-88.6)"/>
              <ellipse class="cls-29" cx="745.77" cy="484.67" rx="21.3" ry="11.47" transform="translate(243.07 1218.41) rotate(-88.6)"/>
              <ellipse class="cls-30" cx="719.6" cy="483.83" rx="4.71" ry="3.22" transform="translate(218.38 1191.43) rotate(-88.6)"/>
              <ellipse class="cls-30" cx="745.92" cy="484.47" rx="4.71" ry="3.1" transform="translate(243.42 1218.36) rotate(-88.6)"/>
            </g>
          </g>
        </g>
        <g>
          <path class="cls-25" d="M780.78,531.2s15.08-5.53,18.86-10.27c0,0-4-7.19-3.14-9.56,0,0,7.25-3.56,10.19-3.6,0,0-3.44-11,.39-11.38,0,0,3.35-1,4.18,6.9,0,0,4.5-9,7.89-7.9,0,0,2.75,2.36-2.38,10.49,0,0,7.49-6.54,9.93-4,0,0,3.09,2.63-7.06,7.8,0,0,10.53-3,10.8-.44,0,0,2.65,3-9.68,5.77,0,0,5.7,2.55,5.87,5.47,0,0-1.85,2.57-10-1.42,0,0-5.31,8.08-7.69,8.06,0,0-3.84.28-8.29-3.62,0,0-13.08,9.93-18.49,10.44Z"/>
          <path d="M799.64,520.93l1,2.57s-14.34,10.63-18.49,10.44l-1.41-2.74S796,525.49,799.64,520.93Z"/>
        </g>
      </g>
      <g>
        <g>
          <g>
            <path class="cls-25" d="M828.74,75.76s14.54,3.33,19.89,1.56c0,0,.51-7.64,2.39-9,0,0,7.45.9,9.76,2.35,0,0,2.89-10.29,6.06-8.66,0,0,3.13.9-.23,7.49,0,0,8.06-4.74,10.14-2.16,0,0,1,3.23-7.16,7,0,0,9.14-1.29,9.76,1.92,0,0,1.07,3.61-9.45,2.49,0,0,9.72,3,8.63,5.13,0,0,.55,3.68-10.46-.4,0,0,3.15,4.86,1.8,7.22,0,0-2.74,1.07-7-6.15,0,0-8.23,3.61-10.07,2.39,0,0-3.14-1.73-4.63-7,0,0-15.21,1.11-19.68-1.23Z"/>
            <path d="M848.63,77.32l-.5,2.52s-16.54,1-19.68-1.23l.29-2.85S843.51,79,848.63,77.32Z"/>
          </g>
          <g>
            <path class="cls-25" d="M755.93,83.32S741.87,94,735.69,95.05c0,0-3.09-7.09-5.53-7.48,0,0-7.47,4.7-9.39,7.29,0,0-6.47-8.44-9.24-5.23,0,0-3,2.48,2.76,7.1,0,0-10-.43-11.32,3.13,0,0,.1,3.6,9.82,3,0,0-10,3.45-9.54,6.86,0,0,.09,4,10.7-2.45,0,0-9.14,7.89-7.29,9.39,0,0,.66,3.82,10.78-5.78,0,0-1.65,6.31.54,7.9,0,0,3.22-.39,5.29-9.56,0,0,9.8-.75,11.31-2.87a14.23,14.23,0,0,0,2.48-9.14s16.25-6.76,20.14-11.31Z"/>
            <path d="M735.69,95.05l1.37,2.19s17.62-7.53,20.14-11.31l-1.27-2.61S741.62,94.08,735.69,95.05Z"/>
          </g>
          <g>
            <path class="cls-37" d="M822.31,71.44s26.7,10.27,12.17,49.1c0,0-18.72,40.65-53.48,20.64l41.77-21.81S824.28,75.47,822.31,71.44Z"/>
            <path class="cls-37" d="M825.48,47.6l4.4,5.5s-16.33,10.15-24,8.33l-4.41-5.26s-15.31,3.35-9.8,13.81c0,0-3,3.68-4.5,2.32S773.9,52.51,797.34,51.08l7.69,4.6Z"/>
            <path class="cls-38" d="M802.5,57.68s23.26-7.36,23-10.08c0,0-33.39-41.72-62.56,6.22,0,0-32.17,77.35,24,88.94,15.39,3.17,37.47-3.81,44.59-35.35,2.79-12.35,7-44.33-33-38.4,0,0-22.92,6.43-11.8-13.84C786.74,55.17,797,47.83,802.5,57.68Z"/>
            <g>
              <ellipse class="cls-27" cx="796.14" cy="103.38" rx="20.41" ry="15.03" transform="translate(522.11 857.98) rotate(-77.44)"/>
              <path class="cls-37" d="M790.61,123s-7.67-31.1,15.51-36.52c0,0-14.34-12.49-24.19,11.87C781.93,98.34,776.54,115.61,790.61,123Z"/>
            </g>
          </g>
          <path class="cls-31" d="M786,64.48s12.74,8.11,21.69-4.41C807.7,60.07,799.28,99.91,786,64.48Z"/>
          <g>
            <ellipse class="cls-29" cx="780.65" cy="38.59" rx="8.57" ry="15.91" transform="translate(13.65 188.98) rotate(-13.92)"/>
            <ellipse class="cls-29" cx="798.87" cy="34.79" rx="8.57" ry="15.91" transform="translate(15.1 193.25) rotate(-13.92)"/>
            <ellipse class="cls-30" cx="779.85" cy="39.35" rx="2.4" ry="3.52" transform="translate(13.45 188.81) rotate(-13.92)"/>
            <ellipse class="cls-30" cx="798.94" cy="34.61" rx="2.32" ry="3.52" transform="translate(15.15 193.26) rotate(-13.92)"/>
          </g>
        </g>
        <g>
          <ellipse class="cls-27" cx="796.14" cy="103.38" rx="20.41" ry="15.03" transform="translate(522.11 857.98) rotate(-77.44)"/>
          <path class="cls-37" d="M790.61,123s-7.67-31.1,15.51-36.52c0,0-14.34-12.49-24.19,11.87C781.93,98.34,776.54,115.61,790.61,123Z"/>
        </g>
      </g>
      <g>
        <g>
          <path class="cls-25" d="M597.81,112.37s-22.77,7.33-31.25,5.69c0,0-1.09-11-4.1-12.67,0,0-11.7,2.58-15.27,5.09,0,0-4.93-14.41-9.87-11.49,0,0-4.9,1.84.65,10.8,0,0-12.87-5.47-16.06-1.38,0,0-1.37,4.84,11.54,8.85,0,0-14.44-.3-15.3,4.45,0,0-1.55,5.41,15,2,0,0-15.19,6-13.41,8.92,0,0-.72,5.41,16.47-2.4,0,0-4.78,7.59-2.58,10.77,0,0,4.36,1.07,10.86-10.12,0,0,13.08,3.81,15.94,1.72,0,0,4.88-3,7-11,0,0,24-1,31-5.18Z"/>
          <path d="M566.56,118.06l.87,3.57s26.09-1.38,31-5.18l-.57-4.08S574.68,119.67,566.56,118.06Z"/>
        </g>
        <g>
          <path class="cls-39" d="M607.92,36.48s52.66,2.86,24.68,54.82c0,0,59.46,19.59,17.69,71.29,0,0-28.59,29.31-63.76-.24,0,0,52.25,24.57,63.94-21.48,0,0,9.71-41.68-30.16-49.39C620.31,91.48,648.16,55.27,607.92,36.48Z"/>
          <path class="cls-39" d="M597.8,117.43s5.9,1.93,7.25,1.64c0,0,12.18-10.64,16.47-9.2C621.52,109.87,609.31,101.12,597.8,117.43Z"/>
          <path class="cls-39" d="M556.66,95.61s6.43,2,8.4,1.41c0,0,22.79-8.31,27.19-11.24,0,0-5.78-16.06,7.51-20.35,0,0-10.24-12.41-20.3,14.83Z"/>
          <path class="cls-40" d="M556.66,95.61S582.36,87,585,84.16c0,0-8.58-17.52,11.32-19,0,0,23.47,11.12-1.52,30.66,0,0-7.1,7.28,3,21.66,0,0,15.23-12.35,22-7.08,0,0,18.86,11.6,7.17,30,0,0-10.31,11.51-27.13-3.31,0,0-21.63,9.64-18.75,20.41,0,0,22.75,25.12,49.34,12.18,0,0,27.21-11.2,27.75-48.29,0,0-8-29.59-34.17-31.93,0,0,27-33.67-13.87-52.68,0,0-49.68-7.8-55.66,43.89C554.5,80.61,552.47,88.84,556.66,95.61Z"/>
        </g>
        <path class="cls-31" d="M595.38,89.87s17,5.28,23.35-11.78C618.73,78.09,621.53,126.11,595.38,89.87Z"/>
        <g>
          <ellipse class="cls-29" cx="566.46" cy="48.07" rx="10.12" ry="18.79" transform="translate(48.53 282.45) rotate(-29.2)"/>
          <ellipse class="cls-29" cx="591.93" cy="36.17" rx="10.12" ry="18.79" transform="translate(57.57 293.36) rotate(-29.2)"/>
          <ellipse class="cls-30" cx="565.78" cy="49.18" rx="2.84" ry="4.16" transform="translate(47.9 282.26) rotate(-29.2)"/>
          <ellipse class="cls-30" cx="591.93" cy="36.17" rx="2.74" ry="4.16" transform="translate(57.57 293.36) rotate(-29.2)"/>
        </g>
        <g>
          <path class="cls-25" d="M634.56,57s11.16-13.64,12.09-20.23c0,0-7.81-4.54-8.31-7.27,0,0,4.86-7.41,7.61-9.09,0,0-9.38-8.46-6-11,0,0,2.6-2.84,7.81,4.18,0,0-.79-11,3-11.88,0,0,3.92.7,3.61,11.25,0,0,3.43-10.36,7.15-9.33,0,0,4.39.76-2.31,11.31,0,0,8.27-8.71,10-6.45,0,0,4.18,1.36-5.92,10.87,0,0,6.81-.78,8.6,1.88,0,0-.32,3.46-10.21,4.22,0,0-.5,10.6-2.76,11.91,0,0-3.47,2.41-9.85,1.21,0,0-6.81,16.68-11.63,20.19Z"/>
          <path d="M646.65,36.78l2.41,1.85s-7.6,18-11.63,20.19L634.56,57S645.78,43.11,646.65,36.78Z"/>
        </g>
      </g>
      <g>
        <g>
          <path class="cls-25" d="M870.86,410.85s-16.41,13.36-23.76,14.85c0,0-4-8.37-6.92-8.74,0,0-8.76,5.92-10.95,9.09,0,0-8.08-9.85-11.27-5.9,0,0-3.45,3.09,3.59,8.4,0,0-12-.12-13.43,4.19,0,0,.27,4.31,11.88,3.24,0,0-11.81,4.53-11.16,8.6,0,0,.28,4.82,12.72-3.36,0,0-10.63,9.8-8.36,11.52,0,0,.95,4.55,12.68-7.34,0,0-1.73,7.62,1,9.43,0,0,3.84-.59,5.95-11.65,0,0,11.7-1.28,13.43-3.89,0,0,3.1-4,2.6-11,0,0,19.18-8.73,23.66-14.33Z"/>
          <path d="M847.1,425.7l1.72,2.55s20.79-9.7,23.66-14.33l-1.62-3.07S854.15,424.3,847.1,425.7Z"/>
        </g>
        <g>
          <path class="cls-41" d="M867.8,344.21s62.15-2.29,37.62,88.42l-16.71,9.53S919.59,377.85,867.8,344.21Z"/>
          <path class="cls-41" d="M822.46,403.32s8.69,6.42,11.95,5.27c0,0,22.7-6.9,23.74-10.69,0,0-13.08-27,9.83-31.36,0,0-23.3-15.31-25.13,18.23l1.93,6.19Z"/>
          <g>
            <path class="cls-41" d="M923.57,419.61s12.49-.18,15.08,5.44c0,0,16.7,20.55,8,24.79,0,0-70,42.52-74.31,42.37,0,0-9-1.26-9.77-8.41l72-42S935.22,432.55,923.57,419.61Z"/>
            <path class="cls-42" d="M822.46,403.32s21.09-5.05,27.93-9.88c0,0-16.13-26.11,9.69-29,0,0,21.72,7.16,5,47.6,0,0-24,51.33-.73,75.36,0,0,46-30.85,74.52-42.49a32.69,32.69,0,0,0-13.33-26.5L891.7,439s20.95-48.41,2.73-73.31c0,0-9.91-41.47-58.88-15.21C835.55,350.49,804.5,370.36,822.46,403.32Z"/>
          </g>
        </g>
        <g>
          <ellipse class="cls-29" cx="843.13" cy="349.26" rx="10.26" ry="19.05" transform="translate(-62.31 463.42) rotate(-29.69)"/>
          <ellipse class="cls-29" cx="866.17" cy="338.85" rx="10.26" ry="19.05" transform="translate(-54.13 473.47) rotate(-29.69)"/>
          <ellipse class="cls-30" cx="842.45" cy="350.39" rx="2.88" ry="4.22" transform="translate(-62.96 463.23) rotate(-29.69)"/>
          <ellipse class="cls-30" cx="865.1" cy="339.46" rx="2.78" ry="4.22" transform="translate(-54.57 473.02) rotate(-29.69)"/>
        </g>
        <path class="cls-34" d="M869.08,375.05s17.32,5.2,23.57-12.14C892.65,362.91,895.9,411.57,869.08,375.05Z"/>
        <g>
          <path class="cls-25" d="M904.35,382.11S916,372.87,918,367.58c0,0-5.64-5.22-5.56-7.57,0,0,5.35-5.25,7.93-6.12,0,0-6.23-8.76-3-10.21,0,0,2.66-1.87,5.7,4.92,0,0,1.34-9.29,4.65-9.28,0,0,3.12,1.3,1,10,0,0,4.71-7.95,7.6-6.41,0,0,3.49,1.45-4,9,0,0,8.42-5.69,9.41-3.5,0,0,3.21,1.9-6.86,7.91,0,0,5.77.62,6.77,3.15,0,0-.88,2.82-9.21,1.61,0,0-2.32,8.7-4.43,9.37,0,0-3.31,1.35-8.37-.83,0,0-8.64,12.57-13.27,14.58Z"/>
          <path d="M918,367.58l1.66,2s-9.54,13.56-13.27,14.58l-2-2S916.14,372.66,918,367.58Z"/>
        </g>
      </g>
      <g>
        <g>
          <path class="cls-25" d="M159.85,312.58s8.33-20.19,7.07-28.34c0,0-10.9-2.59-12.47-5.65,0,0,3.1-10.54,5.76-13.51,0,0-14.17-6.67-11-10.86,0,0,2.06-4.3,10.76,2.16,0,0-4.9-12.79-.67-15.18,0,0,4.89-.58,8.32,12,0,0,.35-13.52,5.14-13.63,0,0,5.47-.67,1.31,14.25,0,0,6.69-13.31,9.5-11.23,0,0,5.44.1-3.13,15,0,0,7.8-3.36,10.87-.85,0,0,.88,4.21-10.58,8.67,0,0,3.21,12.76,1,15.12,0,0-3.25,4.11-11.25,5,0,0-2.08,22.24-6.54,28.13Z"/>
          <path d="M166.92,284.24l3.52,1.32s-2.53,24.14-6.54,28.13l-4.05-1.11S168.17,292.05,166.92,284.24Z"/>
        </g>
        <g>
          <path class="cls-25" d="M81,365.68s-21.15,14.88-30.25,16.07c0,0-4.14-10.55-7.68-11.25,0,0-11.2,6.47-14.14,10.15,0,0-9-12.7-13.24-8.16,0,0-4.47,3.47,3.66,10.54,0,0-14.62-1.16-16.73,4,0,0-.05,5.27,14.2,5,0,0-14.79,4.51-14.34,9.53,0,0-.08,5.9,15.79-3,0,0-13.8,11.05-11.18,13.33,0,0,.77,5.64,16.1-7.86,0,0-2.76,9.15.36,11.58,0,0,4.73-.39,8.25-13.69,0,0,14.38-.57,16.71-3.59,0,0,4.13-4.66,4.12-13.25,0,0,24.15-9,30.08-15.45Z"/>
          <path d="M50.73,381.75,52.61,385S78.8,375,82.69,369.56L81,365.68S59.45,380.65,50.73,381.75Z"/>
        </g>
        <g>
          <path class="cls-43" d="M94.13,257.25S106,251.43,129.29,283c0,0-47.31,39-27.35,50.66,0,0-4,11.6-5,10.39s-22.7-21.89-1.59-41.62C95.36,302.45,118.43,287.48,94.13,257.25Z"/>
          <path class="cls-43" d="M95,389.36s7.85,2.33,10.88.27c0,0,16.65-16.18,17.41-18.06,0,0-14.07-24.36,12.44-37.55,0,0-32.92-10-28.75,35.45Z"/>
          <path class="cls-43" d="M137.14,304.23s71.55.36,64,84.45c-1.33,14.79-36.58,41.94-56.06,36.6C145.07,425.28,242.12,369,137.14,304.23Z"/>
          <path class="cls-44" d="M94.13,257.25s-60.75,62.66-57.68,64.91c0,0,51.33,44.59,57.6,66.36,0,0,2.44,7.07,20-17.71,0,0-18.39-38,23.11-34.67,0,0,41.66,21.65,21.41,51.72,0,0-15.51,7.76-27.92-9.09,0,0-25.67,25.91-15.92,33.56,0,0,30.48,32.52,66.42-5.5,0,0,34.06-43.67-8.34-85.93,0,0-42.83-46.17-73.18,15,0,0-18.44-10.95-7.49-25,0,0,29.18-23.75,28.23-32C120.41,278.91,99.47,257.68,94.13,257.25Z"/>
        </g>
        <g>
          <ellipse class="cls-29" cx="72.47" cy="313.29" rx="12.54" ry="23.3" transform="translate(-203.39 148.05) rotate(-46.05)"/>
          <ellipse class="cls-29" cx="92.08" cy="294.39" rx="12.54" ry="23.3" transform="translate(-183.78 156.39) rotate(-46.05)"/>
          <ellipse class="cls-30" cx="72.05" cy="314.85" rx="3.52" ry="5.16" transform="translate(-204.64 148.22) rotate(-46.05)"/>
          <ellipse class="cls-30" cx="92.04" cy="294.12" rx="3.4" ry="5.16" transform="translate(-183.6 156.27) rotate(-46.05)"/>
        </g>
        <path class="cls-31" d="M90.71,340.46s21.83-3.52,19.44-25.93C110.15,314.53,139.71,366.31,90.71,340.46Z"/>
      </g>
      <g>
        <g>
          <path class="cls-25" d="M154,581.33S133.14,596,124.17,597.2c0,0-4.1-10.41-7.6-11.1,0,0-11,6.39-13.94,10,0,0-8.91-12.53-13.07-8,0,0-4.41,3.43,3.61,10.4,0,0-14.43-1.14-16.51,3.93,0,0,0,5.2,14,4.89,0,0-14.59,4.46-14.14,9.41,0,0-.08,5.83,15.58-3,0,0-13.62,10.92-11,13.17,0,0,.76,5.56,15.88-7.77,0,0-2.72,9,.37,11.43,0,0,4.67-.38,8.14-13.51,0,0,14.18-.57,16.49-3.56,0,0,4.06-4.6,4-13.07,0,0,23.83-8.9,29.68-15.27Z"/>
          <path d="M124.17,597.2l1.85,3.22s25.84-9.94,29.68-15.27L154,581.33S132.77,596.11,124.17,597.2Z"/>
        </g>
        <g>
          <path class="cls-45" d="M247.32,575.54s29-39.18-15.2-59.94c0,0-20.81-9.19-37.89,3.24,0,0-57.13,29.74-22.38,72.56,0,0,13,14.8,27.38,12.78,0,0-27.64,22.42,6.84,54.69,0,0,28.2,24.74,51,11,0,0,47.14-20.83,26.4-68.31C283.43,601.61,269.79,570.28,247.32,575.54Z"/>
          <path class="cls-46" d="M180.1,519.13S123,548.87,157.72,591.69c0,0,12.95,14.8,27.38,12.78,0,0-27.64,22.43,6.84,54.69,0,0,28.2,24.74,51,11.05,0,0,47.14-20.83,26.39-68.31,0,0-13.63-31.33-36.1-26.07,0,0,29-39.17-15.21-59.94C218,515.89,197.18,506.7,180.1,519.13Z"/>
          <g>
            <ellipse class="cls-27" cx="197.36" cy="559.49" rx="18.29" ry="17.02" transform="translate(-260.19 181.82) rotate(-31.03)"/>
            <path class="cls-45" d="M197.24,576.83s-22.48-24.4,9.13-32.89c0,0-19.69-8.52-26.67,13.45C179.7,557.39,175.59,575.58,197.24,576.83Z"/>
          </g>
          <g>
            <ellipse class="cls-27" cx="226.4" cy="624.22" rx="19.51" ry="21.77" transform="translate(-208.97 122.86) rotate(-21.03)"/>
            <path class="cls-45" d="M224.19,645.34s-21.57-36.22,13.89-37.49c0,0-20.43-16.06-30.66,8.73C207.42,616.58,200.76,637.59,224.19,645.34Z"/>
          </g>
        </g>
        <g>
          <ellipse class="cls-29" cx="166.74" cy="534.65" rx="12.38" ry="22.99" transform="translate(-251.76 162.48) rotate(-31.03)"/>
          <ellipse class="cls-29" cx="190.27" cy="521.65" rx="12.38" ry="22.99" transform="translate(-241.69 172.75) rotate(-31.03)"/>
          <ellipse class="cls-30" cx="165.94" cy="536.04" rx="3.47" ry="5.09" transform="translate(-252.59 162.27) rotate(-31.03)"/>
          <ellipse class="cls-30" cx="190.29" cy="521.39" rx="3.35" ry="5.09" transform="translate(-241.55 172.73) rotate(-31.03)"/>
        </g>
        <path class="cls-31" d="M192.05,583.65s21.57,3.28,26.1-18.5C218.15,565.15,230.29,622.73,192.05,583.65Z"/>
        <g>
          <path class="cls-25" d="M242,529.66s18.74-10.65,22.7-17.76c0,0-6.9-8.63-6.27-12,0,0,8.81-6.32,12.69-7,0,0-7-13.79-2-15.15,0,0,4.21-2.09,7.06,8.21,0,0,4-12.92,8.7-12.21,0,0,4.15,2.52-.84,14.42,0,0,8.48-10.31,12.27-7.49,0,0,4.66,2.8-7.63,11.88,0,0,13.29-6.29,14.21-3,0,0,4.17,3.39-11.54,9.79,0,0,8.1,2.11,9,5.93,0,0-1.88,3.81-13.5.32,0,0-5.24,11.88-8.4,12.38,0,0-5,1.22-11.78-2.95,0,0-15.12,16-22.17,17.91Z"/>
          <path d="M264.71,511.9l1.94,3.18S250,532.32,244.48,533L242,529.66S261,518.74,264.71,511.9Z"/>
        </g>
      </g>
      <g>
        <g>
          <path class="cls-25" d="M545.67,580.86s19-9.68,23.25-16.52c0,0-6.43-8.85-5.65-12.11,0,0,9-5.84,12.86-6.36,0,0-6.26-14-1.28-15.07,0,0,4.26-1.88,6.61,8.45,0,0,4.5-12.6,9.15-11.68,0,0,4,2.68-1.48,14.21,0,0,8.85-9.8,12.47-6.84,0,0,4.48,3-8.09,11.4,0,0,13.42-5.62,14.18-2.28,0,0,4,3.53-11.86,9.14,0,0,7.92,2.46,8.6,6.28,0,0-2,3.68-13.36-.3,0,0-5.72,11.5-8.87,11.85,0,0-5,1-11.51-3.46,0,0-15.68,15.15-22.73,16.69Z"/>
          <path d="M568.92,564.34l1.77,3.23S553.47,583.85,548,584.26l-2.29-3.4S564.89,570.92,568.92,564.34Z"/>
        </g>
        <g>
          <path class="cls-25" d="M450.3,574.26s-25.14-2.42-32.64-7.32c0,0,3.64-10.46,1.46-13.22,0,0-12.41-2.33-16.94-1.47,0,0,1.4-15.15-4.62-14.46,0,0-5.52-.28-4,10.14,0,0-10.1-10.16-14.93-7.7,0,0-3.39,3.88,7.37,12.71,0,0-13.83-6.06-16.69-2.05,0,0-3.81,4.32,13.62,7.81,0,0-17.26-.59-16.76,2.77,0,0-3,4.67,16.93,4.41,0,0-7.86,5-7.1,8.82,0,0,3.76,2.72,14.83-4.9,0,0,11,8.71,14.67,8,0,0,6-.83,11.47-7.2,0,0,23.62,8.68,32.13,7.67Z"/>
          <path d="M417.66,566.94l-.68,3.61s25.81,9.2,32.13,7.67l1.19-4S424.83,571.67,417.66,566.94Z"/>
        </g>
        <g>
          <path class="cls-47" d="M512,532.44s60.22,2.68,38.71,100.95c0,0-10.66,68.76-69.21,52.3C481.46,685.69,585.88,656.7,512,532.44Z"/>
          <g>
            <path class="cls-48" d="M506.35,624.21s-36.11,29-54.91-28.64c0,0-24.83-74.25,59.47-63.39,0,0,32.85,6.86,33.24,40.13,0,0,15.25,66.83-26.78,103.59,0,0-50.54,34.78-65.6-24.29,0,0,21.91-6.41,25.61-3.8,0,0,22.34,30,35.34-4.59C512.72,643.22,520.36,619.79,506.35,624.21Z"/>
            <g>
              <ellipse class="cls-27" cx="488.64" cy="579.25" rx="19.7" ry="26.75" transform="translate(-42.72 38.92) rotate(-4.37)"/>
              <path class="cls-47" d="M489.19,606s-21.49-36.08,5.51-51.73c0,0-22.74-10.19-25.81,24.13C468.89,578.36,468.73,602.08,489.19,606Z"/>
            </g>
          </g>
        </g>
        <path class="cls-31" d="M498.77,571.81s20.07,8,29.29-12C528.06,559.78,526.93,618,498.77,571.81Z"/>
        <g>
          <ellipse class="cls-29" cx="494.88" cy="530.91" rx="12.25" ry="22.75" transform="matrix(1, -0.09, 0.09, 1, -48.07, 49.28)"/>
          <ellipse class="cls-29" cx="521.44" cy="529.37" rx="12.25" ry="22.75" transform="translate(-47.81 51.78) rotate(-5.44)"/>
          <ellipse class="cls-30" cx="493.58" cy="531.81" rx="3.44" ry="5.04" transform="translate(-48.17 49.16) rotate(-5.44)"/>
          <ellipse class="cls-30" cx="521.58" cy="529.14" rx="3.32" ry="5.04" transform="translate(-47.79 51.8) rotate(-5.44)"/>
        </g>
      </g>
      <g>
        <g>
          <path class="cls-49" d="M199.58,209.73s6.31,3.09,10.09,1.88c0,0,20.82-16.39,17.28-30.25l-6.62-12a47.41,47.41,0,0,0-6.36,3.52c-2.4,1.73-4.87,7.26-6.69,10s-4.55,5.7-5.85,9.78S199.58,209.73,199.58,209.73Z"/>
          <g>
            <path class="cls-49" d="M235.7,105.51s9,1.29,10.63,4.32c0,0,31.22,107.13,52.82,146.77,0,0,2.28,6.25-36.51,22.23,0,0-2.54,2.2-8.3-3.9l32-22.51-49-102.16-4-22.13Z"/>
            <path class="cls-50" d="M180.58,179.4s29.14-19.13,32.79-58.53l22.33-15.36s35.53,119.31,53.72,150l-35.08,19.46S236.07,202,221.25,174.64c0,0-7,30.12-21.67,35.09C199.58,209.73,192,203.24,180.58,179.4Z"/>
          </g>
        </g>
        <path class="cls-31" d="M220.93,172.88s19.35,6.06,26.57-13.3C247.5,159.58,250.52,214.16,220.93,172.88Z"/>
        <g>
          <ellipse class="cls-29" cx="205.86" cy="146.49" rx="11.5" ry="21.36" transform="translate(-45.22 118.26) rotate(-29.02)"/>
          <ellipse class="cls-29" cx="228.13" cy="135.18" rx="11.5" ry="21.36" transform="translate(-36.94 127.65) rotate(-29.02)"/>
          <ellipse class="cls-30" cx="205.08" cy="147.75" rx="3.23" ry="4.73" transform="translate(-45.93 118.04) rotate(-29.02)"/>
          <ellipse class="cls-30" cx="228.16" cy="134.94" rx="3.11" ry="4.73" transform="translate(-36.82 127.63) rotate(-29.02)"/>
        </g>
        <g>
          <path class="cls-25" d="M265.07,178.07S278.3,167.86,280.56,162c0,0-6.25-5.93-6.13-8.56,0,0,6.07-5.81,9-6.76,0,0-6.87-9.9-3.2-11.47,0,0,3-2.07,6.33,5.58,0,0,1.62-10.39,5.33-10.34,0,0,3.47,1.5.95,11.21,0,0,5.37-8.85,8.6-7.08,0,0,3.89,1.67-4.55,10,0,0,9.51-6.26,10.58-3.79,0,0,3.58,2.17-7.79,8.77,0,0,6.46.77,7.55,3.62,0,0-1,3.14-10.34,1.69,0,0-2.72,9.71-5.09,10.43,0,0-3.73,1.48-9.37-1,0,0-9.85,14-15.06,16.17Z"/>
          <path d="M280.56,162l1.84,2.24s-10.88,15.07-15.06,16.17l-2.27-2.3S278.42,167.63,280.56,162Z"/>
        </g>
        <g>
          <path class="cls-25" d="M237.05,214.08s-20.09,12.6-28.47,13.25c0,0-3.29-9.85-6.5-10.66,0,0-10.56,5.37-13.43,8.6,0,0-7.64-12.06-11.72-8.1,0,0-4.27,3,2.84,9.82,0,0-13.34-1.77-15.51,2.83,0,0-.3,4.82,12.76,5.23,0,0-13.76,3.42-13.59,8,0,0-.36,5.4,14.6-2,0,0-13.17,9.45-10.88,11.67,0,0,.43,5.19,15.12-6.42,0,0-3,8.24-.23,10.62,0,0,4.36-.13,8.22-12.14,0,0,13.19.17,15.47-2.48,0,0,4-4.07,4.41-11.93,0,0,22.54-7.07,28.29-12.7Z"/>
          <path d="M208.58,227.33l1.56,3.08s24.46-7.94,28.29-12.7l-1.38-3.63S216.61,226.75,208.58,227.33Z"/>
        </g>
      </g>
    </g>
  </g>
</svg>
