<svg id="Layer_1" data-name="Layer 1" xmlns="http://www.w3.org/2000/svg" width="600" height="360" viewBox="0 0 600 360">
  <defs>
    <style>
      .cls-1 {
        fill: #f9f9f9;
      }

      .cls-2 {
        fill: #1ebbf9;
      }

      .cls-3 {
        fill: #fff;
      }
    </style>
  </defs>
  <g>
    <g>
      <path class="cls-1" d="M70.66,207.55c-9.12-19.78-35.78-56.36-60.94-79.29L2.8,122l5.73-7.41c6.72-8.71,24.79-29.39,47.27-33.38A36.71,36.71,0,0,1,89.12,91.55a36.25,36.25,0,0,1,11,26.34c8.71-.19,16.79,3,24.08,9.6,15.87,14.42,18,34.87,5.53,52.13-10.25,14-29.93,28.07-46.83,33.37l-8.52,2.67Zm19.91-48.89a5,5,0,0,0,.6-1.1h0a2.92,2.92,0,0,0-.55.06c-.17,0-.41.08-.7.16Z"/>
      <path class="cls-2" d="M121.53,173.66c-8.47,11.6-25.87,24.69-41.65,29.63-10-21.63-38-59.45-63.32-82.54,17-22,45.39-41.67,65.44-22,9.56,9.37,10,22.47,4.26,33.27,10.32-5.24,20.77-6.39,31.17,3C130.67,147.08,129.85,162.16,121.53,173.66Zm-72.6-48.33c4.93,4.89,10.2,10.78,15.33,16.77,6.6-6.84,9.94-14.38,6.21-20.18C65.84,114.93,57.13,115.61,48.93,125.33Zm26,29.89c5.4,6.63,10.23,13.06,13.69,18.21,13.36-8.16,15.46-17.07,9.72-23C93.48,145.28,85,146.6,75,155.22Z"/>
      <path class="cls-1" d="M148.37,157.77c-9.38-17.7-28.61-41.16-42.77-55.18l-7.77-7.7.87-.75a18,18,0,0,1-2.79-1.81c-9-6.9-11.12-19-5.08-29.62,3.86-7,10.48-12,17.73-13.25a19.46,19.46,0,0,1,15.49,3.66l.13.11a23.43,23.43,0,0,1,6.39,7.8h0l7.49,11.6C148,88,171,115.94,182.81,128l7.27,7.42-7.59,7.1c-.09.08-9,8.48-17.86,17.54l-9.72,10Z"/>
      <path class="cls-2" d="M120,78.81c-4.64,6.64-12.72,9.57-17.88,5.49C97.26,80.62,96,74,99.69,67.68c4-7.44,12.65-10.77,18.15-6.52C122.57,64.94,125,71.51,120,78.81ZM157.35,153c-10-18.88-29.8-43-44.6-57.64a169.55,169.55,0,0,0,16.8-17.24c10.21,15.8,33.36,44.09,46,57C175.55,135.13,166.45,143.65,157.35,153Z"/>
      <path class="cls-1" d="M233.59,155.08c-19.11,3.39-37.59-8.9-46-30.57l-2.05-5.29c-9.17-4.06-17.46-11.93-23.31-22.69-11.28-21-7-47.84,9.61-59.76,1-.73,2-1.4,3.1-2l-2.34-1.84,8.06-8.11C188.22,17.22,197.6,8.91,198,8.56l7.81-6.91,6.7,8,3.42,4.06c14.15,16.76,33.54,39.71,46,67,10.64,23.7,10.19,54.25-14.74,69.19A39.77,39.77,0,0,1,233.59,155.08Zm-33.49-85a12.55,12.55,0,0,0,.79,5,7.19,7.19,0,0,0,.65-2.82,9.87,9.87,0,0,0-1-4.43A6.69,6.69,0,0,0,200.1,70.09Z"/>
      <path class="cls-2" d="M252.65,84.92c9,20.06,8.49,44.75-10.72,56.27-18.18,10.94-37.06-.23-44.85-20.35A131.78,131.78,0,0,0,222.26,112c2.15,5.09,7,10.68,11.57,8.7,6.26-2.82,7.22-16.33-.71-32.16-1.88-3.62-3.66-7.1-5.61-10.25.39,11.66-4.36,23.19-14,29.6-16.6,10.81-33.6-.09-42.33-16.16-8.33-15.54-6.45-37.28,6.61-46.68a25.64,25.64,0,0,1,20.13-4.45c-3.19-2.84-6.47-5.82-10-8.6,7.4-7.44,16.83-15.8,16.83-15.8C218.75,32.87,239.78,56.66,252.65,84.92ZM190,69.82c-.19,9.78,4.44,15.11,8.69,16.31,6.91,1.93,12.86-5.48,13.05-13.59.23-7.5-4.34-15-9.4-16.4S190.24,61,190,69.82Z"/>
    </g>
    <g>
      <path class="cls-3" d="M111.63,346.61c-6.69-23.19-34.48-65.71-51.13-86.23l-7.34-9,10.25-5.53a165,165,0,0,0,21.46-14.13l3.79-3.05-3.17-4,10.27-5.42c13.48-7.1,25.7-12.29,26.22-12.5l9.4-4,3.43,9.61c7.66,21.4,31.13,60.94,50.36,88.94l6,8.66L182,315.13a173,173,0,0,0-20.72,14.4l-2.89,2.37,2.16,2.41-11.43,5.6c-11,5.39-23.31,12.35-23.44,12.42l-10.63,6Z"/>
      <path class="cls-2" d="M177.22,306.74a182.63,182.63,0,0,0-22.09,15.33C142.67,306.62,126,293,113.06,285.4c9.81,16.08,20.72,33.47,31.78,45.84-11.42,5.6-23.94,12.69-23.94,12.69C113.79,319.29,85.49,275.87,68,254.3a173.85,173.85,0,0,0,22.92-15.1c13.15,18.23,31.29,36.27,46.86,45.74a400.33,400.33,0,0,0-37.52-57.19c13.28-7,25.48-12.16,25.48-12.16C134.48,240,160.09,281.79,177.22,306.74Z"/>
      <path class="cls-3" d="M221,291.56a37.75,37.75,0,0,1-8.62,4.86c-1,.38-1.92.71-2.88,1h0c-7.39,2.1-15.05.92-22.16-3.41-14.15-8.61-25.51-29.53-31.16-57.39l-1.68-8.28,8-2.76c5-1.72,10.13-3.51,14.06-4.89l-1.5-2,10.08-5.23c2.7-1.41,10.66-6,15-10.38L210,193,215.75,206c9.18,20.75,21.4,41.56,33.52,57.09l7,8.95-10,5.45a87,87,0,0,0-13.8,9.68l-9.56,8.54Z"/>
      <path class="cls-2" d="M226.06,279.93c-1-2.07-2.07-4.28-3.2-6.27a24.65,24.65,0,0,1-14.15,13.82c-17.45,7.08-35.56-15.56-43.12-52.79,10.3-3.55,21-7.33,21-7.33,4,22.34,15.21,42.05,22.21,39.49,3.1-1.05,5.15-3.63,5.76-7.84-7.95-13.09-17-26.26-25-37,0,0,11-5.71,17.39-12.14,9.4,21.23,21.89,42.65,34.74,59.11A96.08,96.08,0,0,0,226.06,279.93Z"/>
      <path class="cls-3" d="M252.36,266.65C242,243.82,229.5,222,218.8,208.26l-6.66-8.57,9.28-5.61c2.22-1.35,8.75-5.77,12.27-10l9.7-11.55,2.79,5.93a26.38,26.38,0,0,1,5.41-2.58c.51-.18,1-.35,1.53-.49a23.61,23.61,0,0,1,8.67-.81A26.46,26.46,0,0,1,277,161.54l1.15-.36c7-2,14.36-.93,21.34,3,14.52,8.24,27.19,29.15,34.75,57.36l2.41,9-8.89,2.74a127.45,127.45,0,0,0-16.6,6.59l1.82,5.54-9.3,2.94c-4.05,1.28-8.05,2.85-11.24,4.2l.1.14-8.7,5.55a202.15,202.15,0,0,0-16.57,11.88l-9.73,8Z"/>
      <path class="cls-2" d="M305.47,231.93c-4.22-21.71-16.14-42.75-23.34-41.48a5.86,5.86,0,0,0-4.59,4c8.51,9.42,16.64,24.7,23.23,44.71a157.53,157.53,0,0,0-19.2,7.71c-5.25-23.23-18.83-43.15-24.79-41.88a6.52,6.52,0,0,0-4.76,4.63c9.58,15.68,20.59,32.3,26.64,40.49a211.48,211.48,0,0,0-17.51,12.56c-9-19.89-21.81-43.75-34.74-60.35,0,0,9.31-5.63,14.66-12,.85,1.81,1.83,3.54,2.89,5.41A18,18,0,0,1,254.78,185c4.24-1.52,8.58-1,13.17,1.51,1.34-8.5,6.06-13.82,12.13-15.85,16.57-5.52,35.07,16.89,44.85,53.39A138.33,138.33,0,0,0,305.47,231.93Z"/>
      <path class="cls-3" d="M339.06,216c-11.49-26.2-37-72.73-55.31-97.62l-5.58-7.59,7.46-5.75c9.17-7.08,19.68-15.82,19.79-15.91l10.2-8.47L320.54,93c2.76,6.9,8.75,20.46,15.86,35.53a35.39,35.39,0,0,1,6.61-4.37,29.07,29.07,0,0,1,5.13-2c20.52-5.83,38.3,13.08,45.25,27.22,10,20.9,4.82,41.83-12.59,51a38.46,38.46,0,0,1-3.51,1.63l.16.25-7.82,5.46C362,213,354.11,219.48,354,219.55l-9.84,8.13ZM355,164.35a7.12,7.12,0,0,0,1.17,3c1.09,1.76,2.28,2.52,2.86,2.36l.23-.09a.63.63,0,0,0,.13-.09,2.22,2.22,0,0,0-.47-1.7A8.05,8.05,0,0,0,355,164.35Z"/>
      <path class="cls-2" d="M376.3,191.78a25.28,25.28,0,0,1-15.82,2.81c1.27,1.93,2.59,3.64,3.63,5.16-8.07,5.63-16.22,12.36-16.22,12.36-11.43-26.07-37.12-73.25-56.37-99.46,9.42-7.27,20.06-16.12,20.06-16.12,3.79,9.47,13.09,30.23,23.29,51a24.79,24.79,0,0,1,12.52-14.84c15.77-7.88,31.6,9.19,37.34,20.88C392.42,169.63,389.31,184.94,376.3,191.78ZM349,156.27c-4.74,3.74-4.67,10.38-1,16.22,4,6.38,10.24,8.45,15.58,5.77,5.61-2.83,7.17-9.69,3.51-15.53C362.41,155.16,353.83,152.45,349,156.27Z"/>
      <path class="cls-3" d="M441,167.46c-14.74,4.19-30-.55-41.89-13-11.23-11.76-17-27.68-15-41.57a34.06,34.06,0,0,1,16.84-25.14,42.48,42.48,0,0,1,9.83-4.27c16.13-4.58,31.5,2.29,43.69,19.36l3.3-2.19,5.07,9.1c13.76,24.67,2.78,43.78-10.81,52.65A38.83,38.83,0,0,1,441,167.46Z"/>
      <path class="cls-2" d="M446.73,154.33c-10.6,7.06-26.79,8-40.64-6.52-15.15-15.87-18.65-41-.29-51.73,17.56-10.3,32.58-.87,43.11,15.85,0,0-17.42,10.23-30.88,21.55,5.42,8,12.25,12.93,16.42,10,3.9-2.74,1.53-8.78-2.27-13.31,0,0,11.21-8.47,22.21-15.76C465.2,133.83,457,147.63,446.73,154.33Zm-33.5-44.52c-2.89,2.34-2.74,7.89-.28,14.41A125.66,125.66,0,0,0,426.18,115C422.14,109.69,417.06,106.94,413.23,109.81Z"/>
      <path class="cls-3" d="M480,137.16c-12.29-25.89-23.51-45.42-33.33-58L440,70.56,449.24,65c2.2-1.34,8.64-5.69,11.92-9.7l9.54-11.68,3,6.19A30.75,30.75,0,0,1,483.39,44c.55-.2,1.17-.4,1.79-.57,8-2.28,23.54-2.37,37.16,22.69l4.14,7.61-7.13,4.93c-7.39,5.11-15.3,13.9-15.38,14l-3.07,3.42c4.68,6.83,9.2,13,12.88,17.59l7.43,9.21-10.52,5.42c-.07,0-8.83,4.63-14.91,11.26L486.1,150.1Z"/>
      <path class="cls-2" d="M496.78,86.2c-4-7.6-8.4-11.42-11.24-10.52-2.48.89-4.43,3-4.46,7.64a397.93,397.93,0,0,0,25.19,36.38S496.06,125,488.67,133c-9.09-19.12-21.51-43.22-34.44-59.82,0,0,9.31-5.62,14.4-11.85,1.07,2.21,2.29,4.68,3.73,7.21,2.42-7.53,8.42-13.39,14.27-15.48,9.62-3.51,19.05,2.57,27.24,17.64C505.4,76.57,496.78,86.2,496.78,86.2Z"/>
      <path class="cls-3" d="M566.59,97c-9.79,2.78-20,1.9-30.27-2.62L530,91.59l.55-6.85a104.54,104.54,0,0,1,2.53-15.31,26.89,26.89,0,0,1-15.34-11.69A27.53,27.53,0,0,1,514,37.07c1.21-5.47,4.81-13.36,15.07-19.85a40.66,40.66,0,0,1,10.41-4.7c13-3.67,26.52.34,38.22,11.3l8.63,8.09-9.73,6.88a23.81,23.81,0,0,1,17.48,12.73c7.68,14.42.64,31.31-17.11,41.11A49.33,49.33,0,0,1,566.59,97Z"/>
      <path class="cls-2" d="M572.34,84.19c-9.52,5.22-19.72,6.78-32.14,1.33a106.14,106.14,0,0,1,4.14-20.64c9.73,6.62,19.13,4.28,19.77.75.47-2.9-2.56-5.76-13.33-4.58-9.74,1.12-19.45.12-24.83-8.44-4.4-6.83-5.29-18.64,8.31-27.23,14.67-9.19,27.88-3,36.88,5.48a60.62,60.62,0,0,0-14.3,14.8c-9.88-8.12-16.18-4-13.31-.2,7.94,10.28,32.75-6.78,42.09,10.62C591.16,66.49,584.4,77.53,572.34,84.19Z"/>
    </g>
  </g>
</svg>
