<svg id="Layer_1" data-name="Layer 1" xmlns="http://www.w3.org/2000/svg" width="1920" height="900" viewBox="0 0 1920 900">
  <defs>
    <style>
      .cls-1 {
        fill: #cde53c;
        opacity: 0.51;
      }

      .cls-2 {
        opacity: 0.4;
      }

      .cls-3 {
        opacity: 0.5;
      }
    </style>
  </defs>
  <rect class="cls-1" width="1920" height="900"/>
  <g>
    <polygon class="cls-2" points="1459.04 135.67 1447.87 119.02 1447.12 139.06 1427.84 144.53 1446.66 151.44 1445.9 171.47 1458.29 155.71 1477.11 162.61 1465.94 145.96 1478.33 130.19 1459.04 135.67"/>
    <polygon class="cls-2" points="370.99 139.63 357.01 123.43 358.79 144.75 339.06 153.03 359.89 157.93 361.67 179.25 372.76 160.96 393.6 165.85 379.62 149.65 390.71 131.35 370.99 139.63"/>
    <polygon class="cls-3" points="843.69 151.78 840.87 133.96 832.67 150.03 814.85 147.21 827.6 159.97 819.41 176.05 835.49 167.86 848.25 180.63 845.43 162.8 861.51 154.61 843.69 151.78"/>
    <polygon class="cls-2" points="391.07 702.02 395.72 684.36 381.58 695.91 366.21 686.03 372.83 703.05 358.69 714.61 376.93 713.58 383.55 730.6 388.2 712.94 406.43 711.9 391.07 702.02"/>
    <polygon class="cls-3" points="533.5 756.86 535.97 747.5 528.47 753.62 520.33 748.39 523.84 757.41 516.34 763.54 526 762.99 529.51 772.01 531.98 762.65 541.65 762.1 533.5 756.86"/>
    <polygon class="cls-3" points="1101.19 730.32 1103.66 720.95 1096.16 727.08 1088.02 721.84 1091.52 730.87 1084.03 736.99 1093.69 736.45 1097.2 745.47 1099.67 736.11 1109.34 735.56 1101.19 730.32"/>
    <polygon class="cls-3" points="1360.43 765.01 1362.89 755.65 1355.39 761.78 1347.25 756.54 1350.76 765.56 1343.26 771.69 1352.93 771.14 1356.44 780.17 1358.9 770.8 1368.57 770.25 1360.43 765.01"/>
    <polygon class="cls-3" points="1294.01 629.24 1296.48 619.87 1288.98 626 1280.84 620.76 1284.35 629.79 1276.85 635.91 1286.51 635.36 1290.02 644.39 1292.49 635.02 1302.16 634.48 1294.01 629.24"/>
    <polygon class="cls-2" points="471.88 346.41 467.14 331.83 462.4 346.41 447.07 346.41 459.47 355.42 454.74 370 467.14 360.99 479.54 370 474.8 355.42 487.2 346.41 471.88 346.41"/>
    <polygon class="cls-3" points="498.45 584.79 495.53 575.78 492.6 584.79 483.12 584.79 490.79 590.36 487.86 599.37 495.53 593.8 503.19 599.37 500.26 590.36 507.93 584.79 498.45 584.79"/>
    <polygon class="cls-3" points="517.14 170.49 514.21 161.48 511.28 170.49 501.81 170.49 509.47 176.06 506.54 185.07 514.21 179.5 521.87 185.07 518.95 176.06 526.61 170.49 517.14 170.49"/>
    <polygon class="cls-3" points="1129.12 136.17 1126.19 127.16 1123.27 136.17 1113.79 136.17 1121.46 141.74 1118.53 150.75 1126.19 145.18 1133.86 150.75 1130.93 141.74 1138.6 136.17 1129.12 136.17"/>
    <polygon class="cls-3" points="1434.24 450.05 1431.32 441.04 1428.39 450.05 1418.91 450.05 1426.58 455.61 1423.65 464.63 1431.32 459.06 1438.98 464.63 1436.05 455.61 1443.72 450.05 1434.24 450.05"/>
    <polygon class="cls-3" points="709.38 149.05 706.45 140.04 703.52 149.05 694.05 149.05 701.71 154.62 698.78 163.63 706.45 158.06 714.11 163.63 711.19 154.62 718.85 149.05 709.38 149.05"/>
    <polygon class="cls-2" points="1435.79 709.12 1421.45 696.26 1425.49 715.09 1408.83 724.75 1427.99 726.73 1432.03 745.57 1439.83 727.95 1458.99 729.93 1444.65 717.07 1452.45 699.46 1435.79 709.12"/>
    <polygon class="cls-3" points="1491.48 569.53 1482.62 561.58 1485.12 573.22 1474.82 579.19 1486.66 580.41 1489.16 592.05 1493.98 581.17 1505.82 582.39 1496.96 574.44 1501.78 563.56 1491.48 569.53"/>
    <polygon class="cls-2" points="803.3 735.08 794.37 718.01 791.57 737.07 772.57 740.29 789.83 748.85 787.03 767.91 800.5 754.14 817.76 762.69 808.83 745.63 822.29 731.86 803.3 735.08"/>
  </g>
</svg>
