<svg id="Layer_1" data-name="Layer 1" xmlns="http://www.w3.org/2000/svg" viewBox="0 0 347.25 84.31"><defs><style>.cls-1{fill:#ed4821;}.cls-2{fill:#b22b0b;}.cls-3{fill:#fdf2ae;}.cls-4{fill:#c43a20;}.cls-5{fill:#af2d00;}.cls-6{fill:#84310c;}</style></defs><g id="bar"><path class="cls-1" d="M307.21.7H40.14a39.62,39.62,0,0,0,0,79.23H307.21a39.62,39.62,0,1,0,0-79.23Z"/><path class="cls-2" d="M307.21,4.51H40.14a39.62,39.62,0,0,0,0,79.23H307.21a39.62,39.62,0,1,0,0-79.23Z"/><path class="cls-3" d="M307.21,3.37H40.14a36.95,36.95,0,1,0,0,73.89H307.21a36.95,36.95,0,1,0,0-73.89Z"/><rect class="cls-4" x="8.52" y="8.7" width="330.32" height="63.24" rx="31.62"/><path class="cls-5" d="M338.82,39.78A31.7,31.7,0,0,0,307.21,8.7H40.14A31.71,31.71,0,0,0,8.53,39.78"/><path class="cls-6" d="M307.21,8.7H40.14A31.71,31.71,0,0,0,8.52,40.32h0c0,.78,0,1.56.09,2.33A31.72,31.72,0,0,1,40.14,13.36H307.21a31.72,31.72,0,0,1,31.53,29.29c.06-.77.09-1.55.09-2.33h0A31.7,31.7,0,0,0,307.21,8.7Z"/></g></svg>