<svg xmlns="http://www.w3.org/2000/svg" id="Layer_1" data-name="Layer 1" width="430" height="345" viewBox="0 0 430 345">
  <defs>
    <style>
      .cls-1 {
        fill: #fff;
      }

      .cls-2 {
        fill: #1ebbf9;
      }
    </style>
  </defs>
  <g>
    <path class="cls-1" d="M428.42,159.11c-9.51-26.76-25.88-29.81-34.79-29.24a29.5,29.5,0,0,0-3.83.49,34,34,0,0,0-11.23,4.39,16.25,16.25,0,0,0-3-.08,16,16,0,0,0-9.65,4c-2,1.81-6.6,4.16-9,5.16a16,16,0,0,0-8.82,9,36.25,36.25,0,0,0-14.39-1.95,43.08,43.08,0,0,0-12.94,3,36.61,36.61,0,0,0-21.4,21.82,31.77,31.77,0,0,0-22.9-2.27c-2.79-9.88-5-18.28-6.07-23a16,16,0,0,0-9.26-11.14,61.28,61.28,0,0,0,3-28.27,40.4,40.4,0,0,0,13.46,1.41,41.79,41.79,0,0,0,29.26-14.85,15.89,15.89,0,0,0,4.54,2.29,16.14,16.14,0,0,0,5.83.71,15.93,15.93,0,0,0,9-3.45,45.25,45.25,0,0,1,11.6-6.18,16,16,0,0,0,8.84-23.17c-1.65-2.87-3.53-6.43-5.5-10.38A76.71,76.71,0,0,1,352.52,50a16,16,0,0,0,8.13-19.77C351.14,3.47,334.77.42,325.86,1a29.53,29.53,0,0,0-3.83.5,33.83,33.83,0,0,0-11.22,4.39,16.39,16.39,0,0,0-3-.09,16,16,0,0,0-9.65,4c-2,1.81-6.6,4.16-9,5.16a16,16,0,0,0-8.82,9A36.08,36.08,0,0,0,266,22,42.81,42.81,0,0,0,253,25,36.94,36.94,0,0,0,236.8,37.16a15.86,15.86,0,0,0-3.74-2,16,16,0,0,0-12.42.5c-.39.18-9.41,4.42-16.91,8.56a16,16,0,0,0-6,5.8q-1,.28-1.95.63A37.32,37.32,0,0,0,178,64.25a16,16,0,0,0-19.79-5.15c-.38.18-9.41,4.42-16.91,8.55a16,16,0,0,0-6,5.81c-.65.19-1.3.4-1.95.62a37.39,37.39,0,0,0-17.82,13.7,26.51,26.51,0,0,0-4.63-11.59l-.16-.22A23.64,23.64,0,0,0,89.9,66.46a28.62,28.62,0,0,0-18.25,8.36,29.29,29.29,0,0,0-3.85,4.63,40.71,40.71,0,0,0-20.33-3.71C30.41,76.82,15,86.35,7.25,91.93A16,16,0,0,0,3,113.19c13,21.41,24.66,53.73,27,69.33a16,16,0,0,0,16.12,13.66q1.38,0,2.79-.12c15.07-.95,32.81-7.45,44.2-16.2a44.12,44.12,0,0,0,4.88-4.41,16.13,16.13,0,0,0,2.58,1.51,16,16,0,0,0,14.5-.63c3.9-2.21,7.8-4.3,10.86-5.91,7.1,13.8,20.35,22.11,35.86,21.13a40.15,40.15,0,0,0,7.7-1.26c14.61-3.8,25.27-14.89,30-29.72a35.86,35.86,0,0,0,20.76,7.56,16,16,0,0,0,1.42,4c3.08,6,6.38,13.2,9.69,21.06A30,30,0,0,0,207,201.76a26.87,26.87,0,0,0-3.69,0,31.21,31.21,0,0,0-11.13,2.89,16.53,16.53,0,0,0-2.63,0,16,16,0,0,0-9.5,3.9,42.27,42.27,0,0,1-9.43,5.39l-.45.22a16.3,16.3,0,0,0-4.55-.38,16,16,0,0,0-8.46,3.07c-2.83,2.08-8.62,4.54-11.8,5.62a16,16,0,0,0-7,4.65l-12.52,2.26a16.6,16.6,0,0,0-2.13.54c-1.3-4.41-2.32-8.41-3-11.82a16,16,0,0,0-16.73-13,16.24,16.24,0,0,0-2.85.44c-.48.12-11.73,2.93-24.3,7.22a16,16,0,0,0-9.32,8.36,16.66,16.66,0,0,0-2.83,1.27,131.05,131.05,0,0,1-18.57,8.43,16,16,0,0,0-8.54,23.13c11.18,19.27,28.19,57.57,30.52,76.16A16,16,0,0,0,85,344a15.85,15.85,0,0,0,4.62-1c.11,0,11.13-4.17,20.85-7.17a16,16,0,0,0,8.27-5.94,15.93,15.93,0,0,0,5-1.9,139.09,139.09,0,0,1,18.08-8.76,16,16,0,0,0,8.78-8.07,29.88,29.88,0,0,0,5.76.18h0a30.38,30.38,0,0,0,5.14-.76,39.36,39.36,0,0,0,9.91-3.74,17,17,0,0,0,3,.09,16,16,0,0,0,7.66-2.52,63,63,0,0,1,10.81-5.34,16.27,16.27,0,0,0,5.94.77,16,16,0,0,0,7.11-2.18,162.55,162.55,0,0,1,14.63-7.35,16.06,16.06,0,0,0,4-2.51,112.46,112.46,0,0,1,12-2.61,16,16,0,0,0,10.53-6.4q.26-.34.48-.69a96.59,96.59,0,0,1,11.13-2.37,15.87,15.87,0,0,0,8.78-4.29,15.72,15.72,0,0,0,3.49.17,16,16,0,0,0,7.14-2.19c.07-.05,7.28-4.3,14.09-7.62a16,16,0,0,0,4.15-2.89,40.62,40.62,0,0,0,5.3-1.42,35,35,0,0,0,21.95-21,40.46,40.46,0,0,0,21.7,4.74,41.9,41.9,0,0,0,29.27-14.85,16,16,0,0,0,4.54,2.28,15.69,15.69,0,0,0,5.83.71,16,16,0,0,0,8.95-3.45,45.25,45.25,0,0,1,11.6-6.18,16,16,0,0,0,8.84-23.17c-1.65-2.87-3.54-6.42-5.51-10.37a76,76,0,0,1,11.43-7.33A16,16,0,0,0,428.42,159.11Z"/>
    <g>
      <path class="cls-2" d="M83.26,167.21c-8.83,6.79-24.65,12.73-37.48,13-2.71-18.29-15.31-52.57-29.13-75.3,17.46-12.67,42.9-21.12,53.53-2.06,5.07,9.07,2.52,18.91-4.09,25.71,8.82-1.65,16.86-.23,22.56,9C95.88,149.41,92,160.46,83.26,167.21Zm-43.5-51.84c2.6,4.71,5.24,10.25,7.75,15.83,6.41-3.66,10.54-8.54,9-13.67C54.62,111.31,48,109.91,39.76,115.37Zm12.86,27.94c2.57,6.11,4.77,12,6.22,16.55,11.73-3.16,15.24-9.34,12.27-15C68.58,140,62,139.09,52.62,143.31Z"/>
      <path class="cls-2" d="M95.54,99c-4.91,3.93-11.56,4.34-14.52.17-2.81-3.8-2.27-9,1.82-12.9,4.64-4.66,11.77-5.26,14.94-.89C100.48,89.22,100.85,94.63,95.54,99Zm11.61,63.41c-3.33-16.25-12.81-38.52-20.63-52.66a132.56,132.56,0,0,0,16.28-9.17c4.15,14,15.21,40.11,21.81,52.49C124.61,153.06,116,157.42,107.15,162.4Z"/>
      <path class="cls-2" d="M185.69,135.25c2.32,16.9-3.45,35.18-20.28,39.56-15.92,4.18-27.54-8.26-28.95-24.95a102.14,102.14,0,0,0,20.69-1.11c.49,4.26,2.87,9.48,6.71,9,5.28-.73,8.95-10.58,6.5-24.1-.61-3.11-1.18-6.09-1.94-8.86-2.26,8.77-8.31,16.32-16.89,19-14.73,4.42-25-7.41-28-21.29-2.81-13.38,3.34-29.17,15.11-33.31a19.89,19.89,0,0,1,16,1.08c-1.75-2.81-3.54-5.75-5.59-8.59,7.14-3.93,16-8.09,16-8.09C171.81,89.08,182.28,111.39,185.69,135.25Zm-43.4-24.94c-2.28,7.24,0,12.22,2.91,14,4.72,3,10.78-1.27,12.69-7.27,1.81-5.54,0-12.09-3.42-14.27S144.43,103.81,142.29,110.31Z"/>
      <path class="cls-2" d="M248.11,111.79c2.33,16.9-3.44,35.18-20.27,39.56-15.93,4.18-27.54-8.26-29-24.95a102.2,102.2,0,0,0,20.7-1.11c.49,4.26,2.86,9.48,6.71,9,5.28-.73,8.94-10.58,6.5-24.1-.61-3.11-1.18-6.09-1.94-8.86-2.26,8.77-8.31,16.32-16.89,19-14.73,4.42-25-7.41-28-21.28-2.81-13.39,3.35-29.18,15.12-33.32a19.93,19.93,0,0,1,16,1.08c-1.75-2.81-3.55-5.75-5.59-8.59,7.14-3.93,16-8.09,16-8.09C234.24,65.62,244.71,87.93,248.11,111.79ZM204.72,86.85c-2.28,7.24,0,12.22,2.91,14,4.72,3,10.77-1.27,12.69-7.26,1.81-5.54,0-12.1-3.42-14.27S206.86,80.35,204.72,86.85Z"/>
      <path class="cls-2" d="M285.5,94.13c-9.82,4.53-23.53,3.15-33.24-10.84C241.65,68,242,46.44,258.85,39.84c16.1-6.32,27.46,3.58,34.08,19,0,0-16,6.28-28.76,14,3.49,7.44,8.57,12.47,12.45,10.6,3.64-1.78,2.45-7.17-.14-11.47,0,0,10.53-5.62,20.72-10.29C303.71,79.38,295,89.86,285.5,94.13ZM263.27,52.35c-2.73,1.58-3.34,6.25-2.13,12.05a106.56,106.56,0,0,0,12.32-6C270.76,53.42,266.86,50.44,263.27,52.35Z"/>
      <path class="cls-2" d="M329.2,46.33c-2.32-6.91-5.55-10.7-8-10.32-2.21.42-4.12,2-4.76,5.82a338.18,338.18,0,0,0,16.33,33.86,61.09,61.09,0,0,0-16.53,8.85c-5.09-17.25-12.34-39.11-21-54.75,0,0,8.55-3.49,13.64-8,.61,2,1.31,4.23,2.18,6.54,3-6,8.84-10.12,14-11.1,8.54-1.68,15.65,4.68,20.53,18.4C337.7,39.38,329.2,46.33,329.2,46.33Z"/>
    </g>
    <g>
      <path class="cls-2" d="M136.2,304.3a155.71,155.71,0,0,0-20.56,9.95,142.32,142.32,0,0,0-30.46-36.33c6.11,14.79,13,30.82,20.62,42.67C95.47,323.78,84,328.07,84,328.07c-2.71-21.62-20.72-61.79-32.56-82.2a147.67,147.67,0,0,0,21.24-9.65c8.62,17,21.46,34.58,33.27,44.58a340.17,340.17,0,0,0-23.92-53c12.06-4.12,23-6.83,23-6.83C109.15,242.67,125.13,281.11,136.2,304.3Z"/>
      <path class="cls-2" d="M173.43,291c-.57-1.87-1.18-3.86-1.87-5.69a20.9,20.9,0,0,1-13.7,9.73c-15.58,3.64-27.78-17.75-29.2-50,9.11-1.62,18.59-3.38,18.59-3.38.44,19.28,7.21,37.29,13.41,36.07,2.74-.47,4.81-2.36,5.87-5.82-4.93-12-10.78-24.27-16.1-34.36,0,0,10-3.34,16.2-7.89,5.08,19.06,12.73,38.69,21.34,54.2A81.69,81.69,0,0,0,173.43,291Z"/>
      <path class="cls-2" d="M239.09,264c-.66-18.77-7.89-38-14.1-37.89a5,5,0,0,0-4.38,2.76c5.9,9,10.7,22.92,13.59,40.58a135.09,135.09,0,0,0-17.13,3.94c-1.34-20.19-10.1-38.7-15.28-38.42a5.54,5.54,0,0,0-4.6,3.26c6,14.42,13,29.83,17,37.49a179.7,179.7,0,0,0-16.35,8.23c-4.91-17.88-12.52-39.6-21.17-55.24,0,0,8.55-3.49,13.89-8.13.47,1.63,1.06,3.21,1.7,4.91a15.25,15.25,0,0,1,10.5-7.55c3.76-.72,7.33.3,10.85,3,2.25-7,6.91-10.8,12.27-11.7,14.64-2.44,27.2,18.81,30.59,50.73A117.83,117.83,0,0,0,239.09,264Z"/>
      <path class="cls-2" d="M296.53,242.39a21.5,21.5,0,0,1-13.65.27c.81,1.78,1.69,3.39,2.36,4.81-7.51,3.65-15.24,8.22-15.24,8.22-6.15-23.38-21.47-66.37-34.16-90.9,8.87-4.86,19-10.88,19-10.88,1.92,8.44,7,27.09,12.8,45.88A21.07,21.07,0,0,1,280.08,189c14.27-4.52,25.29,11.89,28.57,22.46C313,225.93,308.35,238.37,296.53,242.39ZM278.28,209c-4.47,2.52-5.29,8.1-3,13.49,2.49,5.87,7.48,8.44,12.31,6.9,5.09-1.63,7.3-7.19,5-12.57C289.71,209.82,282.87,206.42,278.28,209Z"/>
      <path class="cls-2" d="M353.27,223c-9.83,4.52-23.54,3.15-33.24-10.85-10.61-15.31-10.23-36.84,6.59-43.44,16.1-6.33,27.45,3.57,34.08,19,0,0-16,6.28-28.76,14,3.49,7.44,8.57,12.47,12.45,10.6,3.64-1.79,2.45-7.17-.14-11.48,0,0,10.52-5.62,20.72-10.28C371.47,208.26,362.78,218.75,353.27,223ZM331,181.23c-2.73,1.59-3.34,6.26-2.13,12.06a109,109,0,0,0,12.32-6C338.53,182.31,334.63,179.33,331,181.23Z"/>
      <path class="cls-2" d="M397,175.21c-2.32-6.91-5.55-10.69-8-10.31-2.21.41-4.13,2-4.76,5.81a335,335,0,0,0,16.33,33.86A61.28,61.28,0,0,0,384,213.43c-5.1-17.26-12.34-39.12-21-54.75,0,0,8.55-3.49,13.64-8,.61,2,1.31,4.22,2.18,6.54,3-6,8.84-10.13,14-11.11,8.54-1.67,15.65,4.68,20.53,18.4C405.47,168.27,397,175.21,397,175.21Z"/>
    </g>
  </g>
</svg>