<svg xmlns="http://www.w3.org/2000/svg" xmlns:xlink="http://www.w3.org/1999/xlink" viewBox="0 0 343.29 80.21"><defs><style>.cls-1{fill:#db9b40;}.cls-2{isolation:isolate;}.cls-3,.cls-4,.cls-5{fill:#7f7e7c;stroke-miterlimit:10;}.cls-3,.cls-4{stroke:#722e4e;}.cls-4{stroke-width:0.5px;}.cls-5{stroke:#594825;}.cls-6{clip-path:url(#clip-path);}.cls-7{opacity:0.5;}.cls-8{fill:#bc6c26;}.cls-9{fill:#ae611e;}.cls-10{mix-blend-mode:screen;opacity:0.22;}</style><clipPath id="clip-path"><polygon class="cls-1" points="-27.67 78.15 -355.01 78.15 -362.62 38.52 -355.01 -1.11 -27.67 -1.11 -20.76 38.52 -27.67 78.15"/></clipPath></defs><g class="cls-2"><g id="Layer_1" data-name="Layer 1"><g id="pink"><path class="cls-3" d="M60.63,53.66C56.87,51.9,41.88,42,43.24,39.08s18.57,2.25,22.34,4,8.19,7.19,7,9.72S64.4,55.42,60.63,53.66Z"/><path class="cls-3" d="M34.89,54.21c1.77-3.76,11.66-18.75,14.58-17.39s-2.24,18.57-4,22.34-7.19,8.2-9.72,7S33.13,58,34.89,54.21Z"/><path class="cls-3" d="M60.08,27.92C58.31,31.69,48.42,46.68,45.5,45.31s2.24-18.57,4-22.34,7.19-8.19,9.72-7S61.84,24.15,60.08,27.92Z"/><path class="cls-3" d="M47.88,59.27c-1.42-3.91-5-21.51-2-22.61s11.54,14.72,13,18.63.71,10.88-1.91,11.83S49.3,63.18,47.88,59.27Z"/><path class="cls-3" d="M47.09,22.87c1.42,3.91,5,21.5,2,22.6s-11.54-14.72-13-18.62S35.41,16,38,15,45.67,19,47.09,22.87Z"/><path class="cls-3" d="M29.29,41.46c3.9-1.42,21.5-5,22.6-2S37.17,51,33.26,52.43s-10.88.71-11.83-1.91S25.38,42.88,29.29,41.46Z"/><path class="cls-3" d="M33.91,31.59C37.8,33.05,53.53,41.74,52.4,44.76S33.71,44,29.81,42.52,21.08,36,22.06,33.38,30,30.13,33.91,31.59Z"/><path class="cls-3" d="M65.69,40.67c-3.91,1.42-21.51,5-22.61,2s14.72-11.54,18.63-13S72.59,29,73.54,31.62,69.59,39.26,65.69,40.67Z"/><path class="cls-4" d="M62.15,47.49c-3.61,0-19-2.27-19-5.07s15.42-5.06,19-5.06,9.09,2.64,9.09,5.06S65.75,47.49,62.15,47.49Z"/><path class="cls-4" d="M32.22,37.36c3.61,0,19,2.27,19,5.06s-15.42,5.07-19,5.07-9.09-2.64-9.09-5.07S28.61,37.36,32.22,37.36Z"/><path class="cls-4" d="M42.12,57.39c0-3.61,2.27-19,5.06-19s5.07,15.42,5.07,19-2.64,9.09-5.07,9.09S42.12,61,42.12,57.39Z"/><path class="cls-4" d="M52.25,27.46c0,3.61-2.27,19-5.07,19s-5.06-15.42-5.06-19,2.64-9.09,5.06-9.09S52.25,23.85,52.25,27.46Z"/><path class="cls-4" d="M54.18,56.58c-2.55-2.55-11.85-15-9.87-17s14.48,7.32,17,9.87,4.56,8.3,2.85,10S56.74,59.14,54.18,56.58Z"/><path class="cls-4" d="M40.18,28.26c2.55,2.55,11.86,15.06,9.88,17S35.57,38,33,35.42s-4.56-8.29-2.84-10S37.63,25.71,40.18,28.26Z"/><path class="cls-4" d="M33,49.42c2.55-2.55,15.06-11.85,17-9.87s-7.33,14.48-9.88,17-8.29,4.56-10,2.85S30.47,52,33,49.42Z"/><path class="cls-4" d="M61.34,35.42c-2.55,2.55-15.05,11.86-17,9.88s7.32-14.49,9.87-17,8.3-4.56,10-2.84S63.9,32.87,61.34,35.42Z"/><path class="cls-5" d="M47.12,49.94A7.84,7.84,0,1,1,55,42.1,7.84,7.84,0,0,1,47.12,49.94Z"/><path class="cls-3" d="M125,53.66C121.23,51.9,106.23,42,107.6,39.08s18.57,2.25,22.34,4,8.19,7.19,7,9.72S128.76,55.42,125,53.66Z"/><path class="cls-3" d="M99.25,54.21c1.76-3.76,11.66-18.75,14.58-17.39s-2.24,18.57-4,22.34-7.19,8.2-9.72,7S97.49,58,99.25,54.21Z"/><path class="cls-3" d="M124.44,27.92c-1.77,3.77-11.66,18.76-14.58,17.39s2.24-18.57,4-22.34,7.2-8.19,9.73-7S126.2,24.15,124.44,27.92Z"/><path class="cls-3" d="M112.24,59.27c-1.42-3.91-5-21.51-2-22.61s11.54,14.72,13,18.63.71,10.88-1.91,11.83S113.66,63.18,112.24,59.27Z"/><path class="cls-3" d="M111.45,22.87c1.42,3.91,5,21.5,2,22.6s-11.54-14.72-13-18.62S99.77,16,102.39,15,110,19,111.45,22.87Z"/><path class="cls-3" d="M93.64,41.46c3.91-1.42,21.51-5,22.61-2S101.53,51,97.62,52.43s-10.88.71-11.83-1.91S89.74,42.88,93.64,41.46Z"/><path class="cls-3" d="M98.27,31.59c3.89,1.46,19.62,10.15,18.49,13.17S98.07,44,94.17,42.52,85.43,36,86.41,33.38,94.38,30.13,98.27,31.59Z"/><path class="cls-3" d="M130,40.67c-3.9,1.42-21.5,5-22.6,2s14.72-11.54,18.63-13S137,29,137.9,31.62,134,39.26,130,40.67Z"/><path class="cls-4" d="M126.51,47.49c-3.61,0-19-2.27-19-5.07s15.42-5.06,19-5.06,9.08,2.64,9.08,5.06S130.11,47.49,126.51,47.49Z"/><path class="cls-4" d="M96.58,37.36c3.61,0,19,2.27,19,5.06s-15.42,5.07-19,5.07-9.09-2.64-9.09-5.07S93,37.36,96.58,37.36Z"/><path class="cls-4" d="M106.48,57.39c0-3.61,2.27-19,5.06-19s5.07,15.42,5.07,19-2.64,9.09-5.07,9.09S106.48,61,106.48,57.39Z"/><path class="cls-4" d="M116.61,27.46c0,3.61-2.27,19-5.07,19s-5.06-15.42-5.06-19,2.64-9.09,5.06-9.09S116.61,23.85,116.61,27.46Z"/><path class="cls-4" d="M118.54,56.58c-2.55-2.55-11.85-15-9.87-17s14.48,7.32,17,9.87,4.56,8.3,2.85,10S121.09,59.14,118.54,56.58Z"/><path class="cls-4" d="M104.54,28.26c2.55,2.55,11.86,15.06,9.88,17s-14.49-7.33-17-9.88-4.56-8.29-2.84-10S102,25.71,104.54,28.26Z"/><path class="cls-4" d="M97.38,49.42c2.55-2.55,15.06-11.85,17-9.87s-7.33,14.48-9.88,17-8.29,4.56-10,2.85S94.83,52,97.38,49.42Z"/><path class="cls-4" d="M125.7,35.42c-2.55,2.55-15.06,11.86-17,9.88s7.32-14.49,9.87-17,8.3-4.56,10-2.84S128.26,32.87,125.7,35.42Z"/><path class="cls-5" d="M111.48,49.94a7.84,7.84,0,1,1,7.84-7.84A7.83,7.83,0,0,1,111.48,49.94Z"/><path class="cls-3" d="M189.35,53.66C185.58,51.9,170.59,42,172,39.08s18.57,2.25,22.33,4,8.2,7.19,7,9.72S193.12,55.42,189.35,53.66Z"/><path class="cls-3" d="M163.61,54.21c1.76-3.76,11.66-18.75,14.58-17.39s-2.24,18.57-4,22.34-7.19,8.2-9.72,7S161.85,58,163.61,54.21Z"/><path class="cls-3" d="M188.79,27.92c-1.76,3.77-11.65,18.76-14.57,17.39s2.24-18.57,4-22.34,7.2-8.19,9.73-7S190.56,24.15,188.79,27.92Z"/><path class="cls-3" d="M176.6,59.27c-1.42-3.91-5-21.51-2-22.61s11.54,14.72,13,18.63.71,10.88-1.92,11.83S178,63.18,176.6,59.27Z"/><path class="cls-3" d="M175.81,22.87c1.42,3.91,5,21.5,2,22.6s-11.54-14.72-13-18.62S164.13,16,166.75,15,174.39,19,175.81,22.87Z"/><path class="cls-3" d="M158,41.46c3.91-1.42,21.51-5,22.61-2S165.89,51,162,52.43s-10.88.71-11.83-1.91S154.09,42.88,158,41.46Z"/><path class="cls-3" d="M162.63,31.59c3.89,1.46,19.62,10.15,18.48,13.17s-18.68-.78-22.58-2.24-8.74-6.53-7.76-9.14S158.74,30.13,162.63,31.59Z"/><path class="cls-3" d="M194.4,40.67c-3.9,1.42-21.5,5-22.6,2s14.72-11.54,18.63-13,10.88-.71,11.83,1.92S198.31,39.26,194.4,40.67Z"/><path class="cls-4" d="M190.86,47.49c-3.6,0-19-2.27-19-5.07s15.42-5.06,19-5.06S200,40,200,42.42,194.47,47.49,190.86,47.49Z"/><path class="cls-4" d="M160.94,37.36c3.61,0,19,2.27,19,5.06s-15.42,5.07-19,5.07-9.09-2.64-9.09-5.07S157.33,37.36,160.94,37.36Z"/><path class="cls-4" d="M170.84,57.39c0-3.61,2.27-19,5.06-19s5.07,15.42,5.07,19-2.65,9.09-5.07,9.09S170.84,61,170.84,57.39Z"/><path class="cls-4" d="M181,27.46c0,3.61-2.27,19-5.07,19s-5.06-15.42-5.06-19,2.64-9.09,5.06-9.09S181,23.85,181,27.46Z"/><path class="cls-4" d="M182.9,56.58c-2.55-2.55-11.85-15-9.87-17s14.48,7.32,17,9.87,4.56,8.3,2.85,10S185.45,59.14,182.9,56.58Z"/><path class="cls-4" d="M168.9,28.26c2.55,2.55,11.85,15.06,9.88,17s-14.49-7.33-17-9.88-4.56-8.29-2.85-10S166.35,25.71,168.9,28.26Z"/><path class="cls-4" d="M161.74,49.42c2.55-2.55,15.06-11.85,17-9.87s-7.33,14.48-9.88,17-8.29,4.56-10,2.85S159.19,52,161.74,49.42Z"/><path class="cls-4" d="M190.06,35.42C187.51,38,175,47.28,173,45.3s7.32-14.49,9.87-17,8.3-4.56,10-2.84S192.61,32.87,190.06,35.42Z"/><path class="cls-5" d="M175.84,49.94a7.84,7.84,0,1,1,7.84-7.84A7.83,7.83,0,0,1,175.84,49.94Z"/><path class="cls-3" d="M250.79,53.66C247,51.9,232,42,233.39,39.08s18.57,2.25,22.34,4,8.2,7.19,7,9.72S254.55,55.42,250.79,53.66Z"/><path class="cls-3" d="M225.05,54.21c1.76-3.76,11.65-18.75,14.57-17.39s-2.24,18.57-4,22.34-7.2,8.2-9.73,7S223.29,58,225.05,54.21Z"/><path class="cls-3" d="M250.23,27.92c-1.76,3.77-11.66,18.76-14.58,17.39s2.25-18.57,4-22.34,7.19-8.19,9.72-7S252,24.15,250.23,27.92Z"/><path class="cls-3" d="M238,59.27c-1.42-3.91-5-21.51-2-22.61s11.55,14.72,13,18.63.71,10.88-1.91,11.83S239.45,63.18,238,59.27Z"/><path class="cls-3" d="M237.24,22.87c1.42,3.91,5,21.5,2,22.6s-11.54-14.72-13-18.62S225.56,16,228.19,15,235.83,19,237.24,22.87Z"/><path class="cls-3" d="M219.44,41.46c3.91-1.42,21.5-5,22.6-2s-14.72,11.54-18.62,13-10.89.71-11.84-1.91S215.53,42.88,219.44,41.46Z"/><path class="cls-3" d="M224.06,31.59c3.9,1.46,19.62,10.15,18.49,13.17S223.86,44,220,42.52s-8.74-6.53-7.76-9.14S220.17,30.13,224.06,31.59Z"/><path class="cls-3" d="M255.84,40.67c-3.91,1.42-21.51,5-22.61,2s14.72-11.54,18.63-13,10.88-.71,11.83,1.92S259.75,39.26,255.84,40.67Z"/><path class="cls-4" d="M252.3,47.49c-3.61,0-19-2.27-19-5.07s15.42-5.06,19-5.06,9.09,2.64,9.09,5.06S255.91,47.49,252.3,47.49Z"/><path class="cls-4" d="M222.37,37.36c3.61,0,19,2.27,19,5.06s-15.42,5.07-19,5.07-9.09-2.64-9.09-5.07S218.76,37.36,222.37,37.36Z"/><path class="cls-4" d="M232.27,57.39c0-3.61,2.27-19,5.07-19s5.06,15.42,5.06,19-2.64,9.09-5.06,9.09S232.27,61,232.27,57.39Z"/><path class="cls-4" d="M242.4,27.46c0,3.61-2.27,19-5.06,19s-5.07-15.42-5.07-19,2.64-9.09,5.07-9.09S242.4,23.85,242.4,27.46Z"/><path class="cls-4" d="M244.34,56.58c-2.56-2.55-11.86-15-9.88-17s14.49,7.32,17,9.87,4.56,8.3,2.84,10S246.89,59.14,244.34,56.58Z"/><path class="cls-4" d="M230.34,28.26c2.55,2.55,11.85,15.06,9.87,17s-14.48-7.33-17-9.88-4.55-8.29-2.84-10S227.78,25.71,230.34,28.26Z"/><path class="cls-4" d="M223.17,49.42c2.56-2.55,15.06-11.85,17-9.87s-7.32,14.48-9.87,17-8.3,4.56-10,2.85S220.62,52,223.17,49.42Z"/><path class="cls-4" d="M251.5,35.42c-2.56,2.55-15.06,11.86-17,9.88s7.32-14.49,9.88-17,8.29-4.56,10-2.84S254.05,32.87,251.5,35.42Z"/><path class="cls-5" d="M237.28,49.94a7.84,7.84,0,1,1,7.83-7.84A7.84,7.84,0,0,1,237.28,49.94Z"/><path class="cls-3" d="M311.34,53.66C307.57,51.9,292.58,42,294,39.08s18.57,2.25,22.33,4,8.2,7.19,7,9.72S315.11,55.42,311.34,53.66Z"/><path class="cls-3" d="M285.6,54.21c1.76-3.76,11.66-18.75,14.58-17.39s-2.24,18.57-4,22.34-7.19,8.2-9.72,7S283.84,58,285.6,54.21Z"/><path class="cls-3" d="M310.78,27.92c-1.76,3.77-11.65,18.76-14.57,17.39s2.24-18.57,4-22.34,7.2-8.19,9.73-7S312.55,24.15,310.78,27.92Z"/><path class="cls-3" d="M298.59,59.27c-1.42-3.91-5-21.51-2-22.61s11.54,14.72,13,18.63.71,10.88-1.92,11.83S300,63.18,298.59,59.27Z"/><path class="cls-3" d="M297.8,22.87c1.42,3.91,5,21.5,2,22.6s-11.54-14.72-13-18.62S286.12,16,288.74,15,296.38,19,297.8,22.87Z"/><path class="cls-3" d="M280,41.46c3.91-1.42,21.51-5,22.61-2S287.88,51,284,52.43s-10.88.71-11.83-1.91S276.08,42.88,280,41.46Z"/><path class="cls-3" d="M284.62,31.59c3.89,1.46,19.62,10.15,18.48,13.17s-18.68-.78-22.58-2.24-8.74-6.53-7.76-9.14S280.73,30.13,284.62,31.59Z"/><path class="cls-3" d="M316.39,40.67c-3.9,1.42-21.5,5-22.6,2s14.72-11.54,18.63-13,10.88-.71,11.83,1.92S320.3,39.26,316.39,40.67Z"/><path class="cls-4" d="M312.85,47.49c-3.6,0-19-2.27-19-5.07s15.42-5.06,19-5.06,9.09,2.64,9.09,5.06S316.46,47.49,312.85,47.49Z"/><path class="cls-4" d="M282.93,37.36c3.61,0,19,2.27,19,5.06s-15.42,5.07-19,5.07-9.09-2.64-9.09-5.07S279.32,37.36,282.93,37.36Z"/><path class="cls-4" d="M292.83,57.39c0-3.61,2.27-19,5.06-19s5.07,15.42,5.07,19-2.65,9.09-5.07,9.09S292.83,61,292.83,57.39Z"/><path class="cls-4" d="M303,27.46c0,3.61-2.27,19-5.07,19s-5.06-15.42-5.06-19,2.64-9.09,5.06-9.09S303,23.85,303,27.46Z"/><path class="cls-4" d="M304.89,56.58c-2.55-2.55-11.85-15-9.87-17s14.48,7.32,17,9.87,4.56,8.3,2.85,10S307.44,59.14,304.89,56.58Z"/><path class="cls-4" d="M290.89,28.26c2.55,2.55,11.85,15.06,9.88,17s-14.49-7.33-17-9.88-4.56-8.29-2.85-10S288.34,25.71,290.89,28.26Z"/><path class="cls-4" d="M283.73,49.42c2.55-2.55,15.06-11.85,17-9.87s-7.33,14.48-9.88,17-8.29,4.56-10,2.85S281.18,52,283.73,49.42Z"/><path class="cls-4" d="M312.05,35.42C309.5,38,297,47.28,295,45.3s7.32-14.49,9.87-17,8.3-4.56,10-2.84S314.6,32.87,312.05,35.42Z"/><path class="cls-5" d="M297.83,49.94a7.84,7.84,0,1,1,7.84-7.84A7.83,7.83,0,0,1,297.83,49.94Z"/></g><polygon class="cls-1" points="-27.67 78.15 -355.01 78.15 -362.62 38.52 -355.01 -1.11 -27.67 -1.11 -20.76 38.52 -27.67 78.15"/><g class="cls-6"><g class="cls-7"><path class="cls-8" d="M-403.31-7.79C-405.24,3.44-163-4.73-122.17,9.1c19.8,6.67,216,3.51,159.09,0C36.92,9.1-401.4-19-403.31-7.79Z"/><path class="cls-8" d="M-403.31,30.19C-405.24,41.44-163,33.27-122.17,47c19.8,6.72,216,3.54,159.09,0C36.92,47-401.4,18.93-403.31,30.19Z"/><path class="cls-9" d="M12.91,57.49c-27.39-19.64-92.09,24.92-187.39,50.59-68.24,18.4,22.44-1,42.83-8.5,11.91-4.34,64.22-28.83,106-36.75,29.78-5.59,31.43,3.54,40.12,9.4C35.26,86.21,49.22,83.46,12.91,57.49Z"/><path class="cls-9" d="M-34.41,71.07c-51.2,17.65-125.7,33.24-123.39,42s74.21,2.09,96.21,9.14S.8,134.47,15.59,150.68s5.4-8.29-45.27-23.45c-31.51-9.4-95.8-10.91-108.08-11.52-11.79-.53-38.45-2.14,31.44-21.9,40.82-11.55,64.73-17.94,69.9-20,2.26-.86,6.74-3.61,12.73-5.76-1.34.34-2.62.6-4,1C-29.87,69.64-32.1,70.28-34.41,71.07Z"/><path class="cls-9" d="M-22.38,66.68c12.17,1.85,46.81,8.42,61.3,29,1.89,2.62,3.55,5,5.07,7.18a150.71,150.71,0,0,1-9.86-19.41S3.9,67.82-22.38,66.68Z"/><path class="cls-9" d="M-61.59,92.23C-25.82,82.7-1.4,68.06,18.3,85.64s22.61,26.59,16,12.44a43.05,43.05,0,0,0-17.18-18c-8.87-5-21.59-7.75-39-2.52C-63.56,90.07-142.16,108.4-143.3,111s48,5,79.25,5.6S7.14,132.5,17,143.51s9.71-3.66-11.1-15.36-111.34-14.63-114.1-17.21S-97.38,101.69-61.59,92.23Z"/><path class="cls-9" d="M-61.59,93c35.78-9.47,60.19-24.16,79.91-6.57s22.6,26.58,16,12.44a43.1,43.1,0,0,0-17.18-18C8.23,76-4.48,73.16-22,78.39c-41.6,12.48-120.18,30.83-121.34,33.41s48.05,5,79.26,5.6S7.14,133.35,17,144.33s9.72-3.66-11.1-15.38-111.35-14.63-114.1-17.15S-97.36,102.55-61.59,93Z"/><g class="cls-10"><path class="cls-9" d="M12.91,58.57c-27.38-19.64-92.07,24.92-187.39,50.65-68.21,18.37,22.45-1.08,42.84-8.56,11.92-4.3,64.21-28.83,106-36.69,29.79-5.65,31.44,3.52,40.11,9.34C35.27,87.33,49.23,84.6,12.91,58.57Z"/><path class="cls-9" d="M-34.39,72.21c-51.22,17.64-125.71,33.22-123.41,42s74.23,2.08,96.23,9.12S.8,135.55,15.6,151.75,21,143.47-29.66,128.3c-31.52-9.4-95.81-10.9-108.09-11.47-11.8-.51-38.45-2.19,31.45-21.94C-65.49,83.4-41.58,77-36.41,74.88c2.27-.9,6.75-3.59,12.73-5.74-1.34.32-2.63.54-4,1C-29.86,70.71-32.09,71.4-34.39,72.21Z"/><path class="cls-9" d="M-22.37,67.82c12.18,1.79,46.8,8.35,61.3,28.92,1.89,2.67,3.55,5,5.06,7.25a155.44,155.44,0,0,1-9.84-19.43S3.91,68.89-22.37,67.82Z"/><path class="cls-9" d="M-61.59,93.3c35.8-9.47,60.2-24.16,79.91-6.59s22.6,26.6,16,12.44a43.12,43.12,0,0,0-17.18-18C8.23,76.24-4.48,73.44-22,78.71c-41.6,12.44-120.18,30.77-121.34,33.35s48.05,5,79.27,5.59,71.18,16,81.05,26.94,9.72-3.66-11.1-15.36-111.33-14.63-114.1-17.17S-97.36,102.81-61.59,93.3Z"/><path class="cls-9" d="M-61.56,94.16C-25.79,84.62-1.39,70,18.33,87.53s22.6,26.64,16,12.48A43,43,0,0,0,17.12,82c-8.87-5-21.59-7.8-39.07-2.52C-63.55,92-142.14,110.3-143.28,112.88s48,5,79.25,5.63S7.16,134.44,17,145.4s9.7-3.65-11.1-15.31-111.35-14.7-114.12-17.21S-97.36,103.62-61.56,94.16Z"/></g><path class="cls-9" d="M-14.11,21c11.19.37,19,.91,22.1,1.51,18.67,3.49,86,.07,86,.07C138.89,18.68,26.85,20.81-14.11,21Z"/><path class="cls-9" d="M-31,9.23c-2,.13,12.79-.55,4.48,0C2.05,9,2.63,10.38,8.12,11c18.75,2.06,86,.08,86,.08C154.16,6-50.18,10.53-31,9.23Z"/><path class="cls-9" d="M101.45,4.49c-31.69-5-331.51,3.3-420.36,33.95-83.07,28.64,37.56-2.06,105.16-14C-57.61-3.13,159.61,13.72,120.14,9.22Z"/><path class="cls-9" d="M93.37,10C57.2,8.33-14.29,7.89-23.79,8.75c-32.32,2.75,37.21-1.45,72.72.47,15.89.9,44.18,1.5,46.08,4.62,1.59,2.59,2.47,5.23,2.47,16.25,0,15.81-10.2,12.37-10.72,14.62S105.93,59,100.46,13C100.46,13,101.67,10.29,93.37,10Z"/><g class="cls-10"><path class="cls-9" d="M-14.13,22.42c11.2.37,19,.93,22.11,1.44,18.66,3.51,86,.16,86,.16C138.88,20.15,26.85,22.21-14.13,22.42Z"/><path class="cls-9" d="M-31,10.65c-2,.15,12.8-.53,4.49,0C2,10.4,2.63,11.81,8.11,12.42c18.74,2,86,.07,86,.07C154.15,7.39-50.18,12-31,10.65Z"/><path class="cls-9" d="M101.42,6C69.75.91-230.07,9.18-318.93,39.88c-83.06,28.64,37.57-2.06,105.16-14C-57.62-1.69,159.59,15.17,120.12,10.68Z"/><path class="cls-9" d="M92.76,13c-34-15.4-106.8,1-116.3,1.81-32.31,3,36.2-1.83,71.71.07,15.89.86,44.69-.49,46.18,3.38A30.07,30.07,0,0,1,95.6,33.57c-.78,3.72-8.33,10.33-8.87,12.61s19.18,14.24,13.7-31.75A15.25,15.25,0,0,1,92.76,13Z"/></g></g></g></g></g></svg>