<svg id="Layer_1" data-name="Layer 1" xmlns="http://www.w3.org/2000/svg" width="980" height="629" viewBox="0 0 980 629">
  <defs>
    <style>
      .cls-1 {
        fill: #e08327;
      }

      .cls-10, .cls-11, .cls-12, .cls-13, .cls-14, .cls-15, .cls-16, .cls-17, .cls-18, .cls-19, .cls-2, .cls-20, .cls-21, .cls-22, .cls-23, .cls-24, .cls-3, .cls-4, .cls-5, .cls-6, .cls-7, .cls-8, .cls-9 {
        fill: none;
        stroke: #a2f4ee;
        stroke-width: 6px;
      }

      .cls-10, .cls-11, .cls-12, .cls-13, .cls-14, .cls-15, .cls-16, .cls-17, .cls-18, .cls-19, .cls-2, .cls-20, .cls-21, .cls-22, .cls-23, .cls-24, .cls-26, .cls-27, .cls-28, .cls-29, .cls-3, .cls-30, .cls-32, .cls-33, .cls-35, .cls-38, .cls-39, .cls-4, .cls-41, .cls-43, .cls-45, .cls-47, .cls-49, .cls-5, .cls-50, .cls-51, .cls-6, .cls-7, .cls-8, .cls-9 {
        stroke-miterlimit: 10;
      }

      .cls-3 {
        stroke-dasharray: 5.51 5.51;
      }

      .cls-4 {
        stroke-dasharray: 5.44 5.44;
      }

      .cls-5 {
        stroke-dasharray: 5.8 5.8;
      }

      .cls-6 {
        stroke-dasharray: 6.16 6.16;
      }

      .cls-7 {
        stroke-dasharray: 6.33 6.33;
      }

      .cls-8 {
        stroke-dasharray: 6.2 6.2;
      }

      .cls-9 {
        stroke-dasharray: 5.96 5.96;
      }

      .cls-10 {
        stroke-dasharray: 6.15 6.15;
      }

      .cls-11 {
        stroke-dasharray: 6.14 6.14;
      }

      .cls-12 {
        stroke-dasharray: 6.08 6.08;
      }

      .cls-13 {
        stroke-dasharray: 5.98 5.98;
      }

      .cls-14 {
        stroke-dasharray: 5.68 5.68;
      }

      .cls-15 {
        stroke-dasharray: 6.13 6.13;
      }

      .cls-16 {
        stroke-dasharray: 6.41 6.41;
      }

      .cls-17 {
        stroke-dasharray: 6.15 6.15;
      }

      .cls-18 {
        stroke-dasharray: 6.24 6.24;
      }

      .cls-19 {
        stroke-dasharray: 5.62 5.62;
      }

      .cls-20 {
        stroke-dasharray: 5.99 5.99;
      }

      .cls-21 {
        stroke-dasharray: 6.36 6.36;
      }

      .cls-22 {
        stroke-dasharray: 5.91 5.91;
      }

      .cls-23 {
        stroke-dasharray: 5.99 5.99;
      }

      .cls-24 {
        stroke-dasharray: 6.11 6.11;
      }

      .cls-25 {
        fill: #fdfffa;
      }

      .cls-26 {
        fill: #af631b;
      }

      .cls-26, .cls-27, .cls-28, .cls-29, .cls-30, .cls-32, .cls-33, .cls-35, .cls-38, .cls-39, .cls-41, .cls-43, .cls-45, .cls-47, .cls-49, .cls-50, .cls-51 {
        stroke: #000;
      }

      .cls-26, .cls-27, .cls-28, .cls-29, .cls-30, .cls-32, .cls-33, .cls-35, .cls-38, .cls-41, .cls-43, .cls-45, .cls-47, .cls-49, .cls-50, .cls-51 {
        stroke-width: 3px;
      }

      .cls-27 {
        fill: #ff912d;
      }

      .cls-28 {
        fill: #fff9f9;
      }

      .cls-30 {
        fill: #ff3620;
      }

      .cls-31 {
        fill: #64220e;
      }

      .cls-32 {
        fill: #930505;
      }

      .cls-33 {
        fill: #f7f5f5;
      }

      .cls-34 {
        fill: #5f6f51;
      }

      .cls-35 {
        fill: #a8bc9a;
      }

      .cls-36 {
        fill: #818731;
      }

      .cls-37 {
        fill: #83425f;
      }

      .cls-38 {
        fill: #f688b5;
      }

      .cls-39 {
        fill: #ffd58e;
      }

      .cls-40 {
        fill: #0e5c31;
      }

      .cls-41 {
        fill: #1c8b4c;
      }

      .cls-42 {
        fill: #c42422;
      }

      .cls-43 {
        fill: #f91c1c;
      }

      .cls-44 {
        fill: #704082;
      }

      .cls-45 {
        fill: #aa31f7;
      }

      .cls-46 {
        fill: #6c513f;
      }

      .cls-47 {
        fill: #ce9e06;
      }

      .cls-48 {
        fill: #3a184f;
      }

      .cls-49 {
        fill: #9c46a0;
      }

      .cls-50 {
        fill: #004c71;
      }

      .cls-51 {
        fill: #00aed0;
      }
    </style>
  </defs>
  <g>
    <g>
      <path class="cls-1" d="M137.45,450.37s40.32-31.62,2.63-104.61c0,0,51.87-12,42.27-69.87,0,0,63.86-13.9,61.8-66.69,0,0,53.6.77,65-42,0,0,68.55.36,71.59-39.21,0,0,72.85,9.42,81.73-31.51,0,0,59,21,72.64-20,0,0,74.43,38.28,92.68-13.4,0,0,41.41,59.94,87.5,8.24,0,0,19.41,58.6,77.38,33.57,0,0,16.36,65.14,69.26,66.18,0,0-31.36,42.45,5.84,91.51,0,0-47.14,32.46-40.75,80,0,0-53.39,1.82-55.56,64.28,0,0-65.43-15-78,51.5,0,0-57.13-24.41-70.78,43.36,0,0-65.4-35.52-82.93,28.39,0,0-53.11-36.67-79.08,19.77,0,0-48.5-47.38-85,8.65,0,0-45.84-52.88-87.59-6.42,0,0-20.33-67.18-86.08-29.33C202,522.83,209.49,488.68,137.45,450.37Z"/>
      <g>
        <path class="cls-2" d="M184.49,413.4a18.41,18.41,0,0,0-2.62-1.46s.78-.78,2-2.23"/>
        <path class="cls-3" d="M187.27,405.37c6.94-9.61,17.21-28.62,9.24-49.32"/>
        <path class="cls-2" d="M195.44,353.5c-.41-.89-.85-1.79-1.33-2.69,0,0,.73-.81,1.92-2.3"/>
        <path class="cls-4" d="M199.32,344.18c7.05-9.74,18.58-28.83,17.06-47.75"/>
        <path class="cls-2" d="M216.07,293.72c-.15-1-.34-2-.56-3,0,0,1-.47,2.68-1.34"/>
        <path class="cls-5" d="M223.32,286.73c15-8.1,46.66-27,48.82-43"/>
        <path class="cls-2" d="M272.2,240.84a11.42,11.42,0,0,0-.69-2.91s1.07-.21,2.92-.64"/>
        <path class="cls-6" d="M280.39,235.75c14.33-4,41.51-13.65,47.34-30.93"/>
        <path class="cls-2" d="M328.51,201.85a21,21,0,0,0,.33-3s1.07-.15,3-.46"/>
        <path class="cls-7" d="M338,197.29c18.27-3.45,58-12.66,65-28.53"/>
        <path class="cls-2" d="M403.92,165.73a11.91,11.91,0,0,0,.09-3s1.08.09,3,.19"/>
        <path class="cls-8" d="M413.2,163.11c17.13.23,53.34-1.63,65.76-20.4"/>
        <path class="cls-2" d="M480.51,140a24.36,24.36,0,0,0,1.18-2.76s1.08.1,3,.22"/>
        <path class="cls-9" d="M490.63,137.73c17.1.41,53.49-1.17,61.32-21.37"/>
        <path class="cls-2" d="M552.83,113.5a23.13,23.13,0,0,0,.49-3s.7.85,2,2.2"/>
        <path class="cls-10" d="M559.94,116.83c10.79,8.63,34.23,21.16,66.25,3.35"/>
        <path class="cls-2" d="M628.86,118.64q1.26-.77,2.55-1.59s.93.56,2.63,1.43"/>
        <path class="cls-11" d="M639.58,121.12c14.48,6.42,45.14,16.36,67-2"/>
        <path class="cls-2" d="M708.85,117.11c.71-.68,1.41-1.39,2.1-2.14,0,0,.79.74,2.25,2"/>
        <path class="cls-12" d="M718,120.72c10.69,8.11,32,21.7,53,19.81"/>
        <path class="cls-2" d="M774,140.15q1.47-.24,2.94-.6s.55.95,1.56,2.56"/>
        <path class="cls-13" d="M781.75,147.11c7.79,11.35,24.08,32,42.26,36.36"/>
        <path class="cls-2" d="M827,184a27.2,27.2,0,0,0,3,.26s-.2,1.07-.47,3"/>
        <path class="cls-14" d="M828.78,192.89c-1.33,12.72-2.27,36.78,6.74,52.8"/>
        <path class="cls-2" d="M837,248.12c.56.84,1.15,1.64,1.77,2.42,0,0-.91.62-2.4,1.79"/>
        <path class="cls-15" d="M831.71,256.3c-9.89,9.06-26,28.06-19.81,51.69"/>
        <path class="cls-2" d="M812.78,310.93c.31.93.66,1.87,1,2.81,0,0-1,.39-2.76,1.16"/>
        <path class="cls-16" d="M805.25,317.6c-15.29,7.55-45.8,25.86-47.12,52.39"/>
        <path class="cls-2" d="M758.11,373.21c0,1,.12,2,.24,3,0,0-1.08.1-3,.35"/>
        <path class="cls-17" d="M749.29,377.45c-19.31,3.22-62.87,13.74-64.11,43.09"/>
        <path class="cls-2" d="M685.2,423.63c.06,1,.16,2,.31,3,0,0-1.09-.07-3-.11"/>
        <path class="cls-18" d="M676.27,426.56c-16.61.57-50.66,5-60,31.25"/>
        <path class="cls-2" d="M615.36,460.8c-.25.95-.47,1.93-.66,2.93,0,0-1.08-.16-3-.34"/>
        <path class="cls-19" d="M606.12,463c-16.84-.89-53.74.29-67.32,25.61"/>
        <path class="cls-2" d="M537.56,491.12c-.4.89-.78,1.82-1.12,2.78,0,0-1-.36-2.87-.87"/>
        <path class="cls-20" d="M527.75,491.61c-14.87-3.15-45.31-6.09-63.21,16.58"/>
        <path class="cls-2" d="M462.75,510.6c-.56.81-1.11,1.64-1.64,2.51,0,0-.95-.54-2.65-1.4"/>
        <path class="cls-21" d="M452.7,509c-15.66-6.8-49.34-17.51-67.34,6.19"/>
        <path class="cls-2" d="M383.53,517.82c-.53.82-1,1.68-1.54,2.58,0,0-.87-.68-2.42-1.78"/>
        <path class="cls-22" d="M374.69,515.3c-14-9.13-45-25.9-62.83-10"/>
        <path class="cls-2" d="M309.74,507.35c-.65.73-1.28,1.5-1.89,2.33,0,0-.86-.65-2.42-1.76"/>
        <path class="cls-23" d="M300.49,504.53c-15.44-10.24-51.72-31.36-75.18-21.14"/>
        <path class="cls-2" d="M222.63,484.73a28.31,28.31,0,0,0-2.52,1.62s-.27-1-.77-2.89"/>
        <path class="cls-24" d="M217.68,477.58c-4.74-16.13-16.07-50-30.74-62.34"/>
      </g>
    </g>
    <g>
      <g>
        <path class="cls-25" d="M861.14,170.33s-22.38-.79-29.27-4.72c0,0,2.65-9.45.57-11.78,0,0-11.11-1.38-15.06-.38,0,0,.41-13.47-4.88-12.54,0,0-4.9.05-3,9.18,0,0-9.48-8.44-13.62-6,0,0-2.79,3.61,7.21,10.85,0,0-12.57-4.62-14.88-.92,0,0-3.14,4,12.47,6.17,0,0-15.3.42-14.68,3.37,0,0-2.42,4.29,15.22,3,0,0-6.69,4.87-5.8,8.18,0,0,3.47,2.21,12.85-5.13,0,0,10.22,7.12,13.41,6.25,0,0,5.28-1.06,9.76-7,0,0,21.37,6.4,28.84,5Z"/>
        <path d="M831.87,165.61l-.41,3.24s23.33,6.74,28.84,5l.84-3.56S838.46,169.41,831.87,165.61Z"/>
      </g>
      <g>
        <path class="cls-26" d="M945.24,199.09h-9.85c.87,16.2,2.63,31.31,5.69,43.79-18,2.62-40.29,7.88-40.29,7.88C894.66,248.7,891,247,891,247s14.52-31.36,15.31-47.3c-19.93,1.1-41.38,3.07-58,5.48a58.52,58.52,0,0,1-10-3.82s46.46-79.64,62.93-106.75c12.06,2.44,29.81-.54,29.81-.54L939.77,99c-3.07,19.48-5,45.1-5.26,70.5,1.36-1.53,4.09-5.49,4.09-5.49s5.87,3.53,8,4.61C946.56,168.65,944.37,185.29,945.24,199.09Zm-38.1-57.37a324.28,324.28,0,0,0-21.89,34.82c7-1.54,14.45-2.85,21.89-3.95Q907.47,157.49,907.14,141.72Z"/>
        <path class="cls-27" d="M935.24,194.09h-9.85c.87,16.2,2.63,31.31,5.69,43.79-18,2.62-40.29,7.88-40.29,7.88a418.29,418.29,0,0,0,5.48-51c-19.93,1.1-41.38,3.07-58,5.48,10.07-32.19,35.69-82.11,53-110.57A232.29,232.29,0,0,0,929.77,94c-3.07,19.48-5,45.1-5.26,70.5,4.38-.22,8.54-.66,12-.88C936.56,163.65,934.37,180.29,935.24,194.09Zm-38.1-57.37a324.28,324.28,0,0,0-21.89,34.82c7-1.54,14.45-2.85,21.89-3.95Q897.47,152.49,897.14,136.72Z"/>
      </g>
      <g>
        <ellipse class="cls-28" cx="890.66" cy="113.04" rx="20.17" ry="10.86" transform="translate(619.43 968.89) rotate(-79.65)"/>
        <ellipse class="cls-28" cx="913.69" cy="118.13" rx="20.17" ry="10.86" transform="translate(633.31 995.72) rotate(-79.65)"/>
        <ellipse class="cls-29" cx="889.33" cy="113.49" rx="4.46" ry="3.05" transform="translate(617.9 967.95) rotate(-79.65)"/>
        <ellipse class="cls-29" cx="913.86" cy="117.96" rx="4.46" ry="2.94" transform="translate(633.61 995.75) rotate(-79.65)"/>
      </g>
      <path class="cls-30" d="M871.48,171.9s15.19,11.65,27.88-3.17C899.36,168.73,884.33,218.11,871.48,171.9Z"/>
      <g>
        <path class="cls-25" d="M923.47,163s16.31-9.58,19.69-15.87c0,0-6.17-7.48-5.66-10.41,0,0,7.65-5.65,11-6.32,0,0-6.3-12-1.95-13.26,0,0,3.67-1.89,6.3,7.11,0,0,3.3-11.38,7.47-10.82,0,0,3.68,2.16-.55,12.66,0,0,7.3-9.15,10.67-6.73,0,0,4.12,2.39-6.54,10.52,0,0,11.57-5.69,12.42-2.79,0,0,3.7,2.92-10,8.73,0,0,7.14,1.75,7.95,5.09,0,0-1.6,3.37-11.84.46,0,0-4.44,10.48-7.2,11,0,0-4.4,1.14-10.37-2.44,0,0-13,14.26-19.21,16Z"/>
        <path d="M943.16,147.1l1.74,2.76s-14.36,15.34-19.21,16L923.47,163S939.94,153.15,943.16,147.1Z"/>
      </g>
    </g>
    <g>
      <g>
        <path class="cls-31" d="M414.17,59.26s4.68,5.82,5.23,7.38c0,0,.05,13.85-1.24,17.23,0,0-32.29,33.28-40.35,100.61,0,0-15.76,4.66-28.36,1.94l-6.33-5L370.61,177s9-83.2,41.34-102.21Z"/>
        <path class="cls-31" d="M337.84,94.65s2.79,5.11,4.91,5.12c0,0,24.61-4.08,28.27-1.51l6.67-5.33S342,84.93,337.84,94.65Z"/>
        <path class="cls-32" d="M332.21,62.69s74,.85,82-3.43c0,0,1.78,16.21-1.25,19.21,0,0-32.92,23.9-40.21,101.65,0,0-28.28,3.21-29.59,1.32,0,0,8.37-68.33,30.15-87.41,0,0-28-4.7-35.43.62C337.84,94.65,335.64,70.62,332.21,62.69Z"/>
      </g>
      <g>
        <ellipse class="cls-28" cx="367.9" cy="56.64" rx="17.45" ry="9.4" transform="translate(308.89 424.16) rotate(-89.63)"/>
        <ellipse class="cls-28" cx="388.28" cy="57.52" rx="17.45" ry="9.4" transform="translate(328.26 445.43) rotate(-89.63)"/>
        <ellipse class="cls-29" cx="366.83" cy="57.22" rx="3.86" ry="2.64" transform="translate(307.26 423.68) rotate(-89.63)"/>
        <ellipse class="cls-29" cx="388.4" cy="57.36" rx="3.86" ry="2.54" transform="translate(328.55 445.38) rotate(-89.63)"/>
      </g>
      <path class="cls-33" d="M366.59,83.53s11.34,12.07,24.25,1.19C390.84,84.72,371.1,124.78,366.59,83.53Z"/>
      <g>
        <path class="cls-25" d="M396.52,112.64s22.15-4,28.42-8.41c0,0-4.06-7.73-2.35-10,0,0,10.85-2.84,14.94-2.57,0,0-2.45-11.52,3-11.51,0,0,4.89-.68,4.36,7.46,0,0,8.17-8.67,12.66-7.19,0,0,3.32,2.69-5.54,10.4,0,0,11.81-5.83,14.67-3,0,0,3.73,3-11.48,7.16,0,0,15.29-1.92,15.12.71,0,0,3.06,3.33-14.69,4.82,0,0,7.39,3.2,7,6.18,0,0-3.12,2.41-13.57-2.51,0,0-9.1,7.64-12.41,7.36A19.18,19.18,0,0,1,425.84,107s-20.3,8.68-27.94,8.63Z"/>
        <path d="M424.94,104.23l.9,2.72s-22.2,9.26-27.94,8.63l-1.38-2.94S419,108.48,424.94,104.23Z"/>
      </g>
      <g>
        <path class="cls-25" d="M359,116.4s-22.41-4.05-28.75-8.44c0,0,4.12-7.66,2.38-10,0,0-11-2.86-15.11-2.6,0,0,2.49-11.43-3-11.43,0,0-4.94-.7-4.41,7.38,0,0-8.25-8.63-12.8-7.17,0,0-3.36,2.66,5.6,10.33,0,0-11.95-5.83-14.84-3,0,0-3.78,3,11.61,7.15,0,0-15.47-2-15.31.65,0,0-3.09,3.29,14.87,4.84,0,0-7.48,3.14-7.1,6.1,0,0,3.16,2.41,13.73-2.44,0,0,9.2,7.61,12.55,7.35a19.61,19.61,0,0,0,10.9-4.48s20.53,8.68,28.26,8.65Z"/>
        <path d="M330.28,108l-.91,2.7s22.45,9.26,28.26,8.65l1.4-2.91S336.33,112.19,330.28,108Z"/>
      </g>
    </g>
    <g>
      <g>
        <path class="cls-25" d="M633.34,465.13s-14.9-9-18.1-14.29c0,0,5.38-5.41,4.85-7.79,0,0-7-5.14-10.08-6,0,0,5.38-9,1.44-10.37,0,0-3.35-1.81-5.51,5.11,0,0-3.24-9.33-7-9.24,0,0-3.27,1.4.78,10.1,0,0-6.78-7.89-9.75-6.25,0,0-3.66,1.55,6.13,8.91,0,0-10.55-5.51-11.25-3.27,0,0-3.26,2,9.21,7.79,0,0-6.39.77-7,3.36,0,0,1.52,2.81,10.67,1.38,0,0,4.25,8.7,6.74,9.32a14.06,14.06,0,0,0,9.28-1.05s12.09,12.44,17.68,14.35Z"/>
        <path d="M615.24,450.84l-1.5,2S627,466.3,631.42,467.23l1.92-2.1S618.28,455.91,615.24,450.84Z"/>
      </g>
      <g>
        <path class="cls-34" d="M701.48,451s31.75,32.05-2,83.62c0,0-19.74,34.68-52.26,5.38,0,0,26.22,14.06,42-14.52C689.16,525.47,711.41,513.12,701.48,451Z"/>
        <g>
          <g>
            <path class="cls-35" d="M670.46,434.06c-22,3.67-58.07,19.67-31.24,93.24,4,10.86,15.83,28.33,44.13,13.78,16.58-8.53,30.9-27.45,27.85-69.19C711.2,471.89,699.2,429.26,670.46,434.06Z"/>
            <g>
              <ellipse class="cls-36" cx="669.93" cy="488.81" rx="26.49" ry="15.17" transform="translate(68.08 1059.35) rotate(-79.59)"/>
              <path class="cls-34" d="M680.18,466s-18.35-4.27-18.6,23.25c0,0-.75,15.23,4,25.46,0,0-6.88.12-10.49-11.65a43.64,43.64,0,0,1,2-25.63S666.41,454.14,680.18,466Z"/>
            </g>
          </g>
          <path class="cls-30" d="M657.53,471.11s12.75,14.06,27.76,1.86C685.29,473,661.85,518.47,657.53,471.11Z"/>
          <g>
            <ellipse class="cls-28" cx="657.93" cy="440.98" rx="19.5" ry="10.5" transform="translate(201.05 1087.97) rotate(-88.6)"/>
            <ellipse class="cls-28" cx="680.69" cy="442.38" rx="19.5" ry="10.5" transform="translate(221.86 1112.08) rotate(-88.6)"/>
            <ellipse class="cls-29" cx="656.73" cy="441.61" rx="4.32" ry="2.95" transform="matrix(0.02, -1, 1, 0.02, 199.25, 1087.38)"/>
            <ellipse class="cls-29" cx="680.82" cy="442.2" rx="4.32" ry="2.84" transform="translate(222.17 1112.04) rotate(-88.6)"/>
          </g>
        </g>
      </g>
      <g>
        <path class="cls-25" d="M712.74,485s13.81-5.06,17.27-9.4c0,0-3.67-6.58-2.87-8.76,0,0,6.64-3.26,9.32-3.29,0,0-3.14-10.06.36-10.42,0,0,3.07-.94,3.83,6.32,0,0,4.12-8.25,7.22-7.24,0,0,2.52,2.16-2.18,9.61,0,0,6.86-6,9.1-3.66,0,0,2.82,2.41-6.47,7.13,0,0,9.65-2.74,9.89-.4,0,0,2.43,2.75-8.87,5.29,0,0,5.22,2.33,5.38,5,0,0-1.7,2.36-9.13-1.3,0,0-4.86,7.4-7,7.38,0,0-3.52.26-7.59-3.31,0,0-12,9.09-16.93,9.56Z"/>
        <path d="M730,475.58l1,2.35s-13.12,9.74-16.93,9.56L712.74,485S726.71,479.75,730,475.58Z"/>
      </g>
    </g>
    <g>
      <g>
        <g>
          <path class="cls-25" d="M756.65,68S770,71,774.86,69.41c0,0,.47-7,2.2-8.27,0,0,6.82.82,8.93,2.16,0,0,2.64-9.43,5.55-7.94,0,0,2.87.83-.22,6.86,0,0,7.39-4.34,9.29-2,0,0,.87,3-6.56,6.38,0,0,8.37-1.19,8.94,1.75,0,0,1,3.31-8.65,2.29,0,0,8.9,2.75,7.9,4.69,0,0,.5,3.37-9.58-.37,0,0,2.88,4.46,1.65,6.62,0,0-2.51,1-6.44-5.64,0,0-7.54,3.31-9.22,2.19,0,0-2.88-1.58-4.24-6.42,0,0-13.93,1-18-1.13Z"/>
          <path d="M774.86,69.41l-.45,2.32s-15.15.93-18-1.13l.26-2.61S770.18,71,774.86,69.41Z"/>
        </g>
        <g>
          <path class="cls-25" d="M690,74.92s-12.87,9.78-18.53,10.74c0,0-2.83-6.5-5.06-6.85,0,0-6.85,4.3-8.6,6.67,0,0-5.93-7.73-8.46-4.8,0,0-2.72,2.28,2.53,6.51,0,0-9.17-.39-10.37,2.86,0,0,.09,3.3,9,2.78,0,0-9.13,3.16-8.74,6.28,0,0,.09,3.69,9.8-2.24,0,0-8.37,7.22-6.67,8.59,0,0,.6,3.5,9.87-5.29,0,0-1.51,5.78.5,7.23,0,0,3-.35,4.84-8.74,0,0,9-.69,10.36-2.64a13.07,13.07,0,0,0,2.26-8.37s14.88-6.18,18.44-10.35Z"/>
          <path d="M671.46,85.66l1.25,2s16.13-6.89,18.44-10.35L690,74.92S676.89,84.77,671.46,85.66Z"/>
        </g>
        <g>
          <path class="cls-37" d="M750.76,64s24.46,9.41,11.15,45c0,0-17.14,37.22-49,18.9l38.25-20S752.57,67.72,750.76,64Z"/>
          <path class="cls-37" d="M753.67,42.2l4,5s-15,9.3-21.92,7.63l-4-4.82s-14,3.07-9,12.65c0,0-2.74,3.36-4.12,2.12s-12.2-18.12,9.27-19.43l7,4.21Z"/>
          <path class="cls-38" d="M732.63,51.43s21.29-6.74,21-9.23c0,0-30.57-38.19-57.28,5.7,0,0-29.46,70.82,22,81.43,14.09,2.91,34.3-3.48,40.83-32.36,2.55-11.31,6.39-40.59-30.23-35.16,0,0-21,5.89-10.8-12.68C718.2,49.13,727.59,42.42,732.63,51.43Z"/>
          <g>
            <ellipse class="cls-39" cx="726.8" cy="93.28" rx="18.68" ry="13.76" transform="translate(477.72 782.4) rotate(-77.44)"/>
            <path class="cls-37" d="M721.74,111.24s-7-28.48,14.2-33.45c0,0-13.13-11.43-22.15,10.88C713.79,88.67,708.86,104.48,721.74,111.24Z"/>
          </g>
        </g>
        <path class="cls-30" d="M717.53,57.66s11.66,7.43,19.86-4C737.39,53.62,729.68,90.1,717.53,57.66Z"/>
        <g>
          <ellipse class="cls-28" cx="712.63" cy="33.96" rx="7.84" ry="14.57" transform="translate(12.77 172.48) rotate(-13.92)"/>
          <ellipse class="cls-28" cx="729.3" cy="30.47" rx="7.84" ry="14.57" transform="translate(14.1 176.39) rotate(-13.92)"/>
          <ellipse class="cls-29" cx="711.89" cy="34.65" rx="2.2" ry="3.22" transform="translate(12.58 172.32) rotate(-13.92)"/>
          <ellipse class="cls-29" cx="729.36" cy="30.32" rx="2.12" ry="3.22" transform="translate(14.14 176.4) rotate(-13.92)"/>
        </g>
      </g>
      <g>
        <ellipse class="cls-36" cx="726.8" cy="93.28" rx="18.68" ry="13.76" transform="translate(477.72 782.4) rotate(-77.44)"/>
        <path class="cls-37" d="M721.74,111.24s-7-28.48,14.2-33.45c0,0-13.13-11.43-22.15,10.88C713.79,88.67,708.86,104.48,721.74,111.24Z"/>
      </g>
    </g>
    <g>
      <g>
        <path class="cls-25" d="M545.22,101.51s-20.85,6.71-28.62,5.21c0,0-1-10-3.75-11.6,0,0-10.71,2.36-14,4.66,0,0-4.51-13.19-9-10.52,0,0-4.48,1.69.6,9.89,0,0-11.79-5-14.7-1.27,0,0-1.25,4.43,10.56,8.1,0,0-13.22-.27-14,4.08,0,0-1.42,5,13.7,1.82,0,0-13.91,5.51-12.27,8.16,0,0-.67,5,15.07-2.19,0,0-4.38,6.94-2.36,9.86,0,0,4,1,9.94-9.27,0,0,12,3.48,14.6,1.57,0,0,4.46-2.78,6.43-10,0,0,22-.94,28.34-4.75Z"/>
        <path d="M516.6,106.72l.8,3.27s23.89-1.27,28.34-4.75l-.52-3.73S524,108.19,516.6,106.72Z"/>
      </g>
      <g>
        <path class="cls-40" d="M554.48,32s48.21,2.62,22.59,50.2c0,0,54.44,17.94,16.2,65.27,0,0-26.18,26.83-58.38-.22,0,0,47.84,22.5,58.54-19.66,0,0,8.89-38.17-27.61-45.22C565.82,82.39,591.32,49.23,554.48,32Z"/>
        <path class="cls-40" d="M545.21,106.14s5.4,1.77,6.64,1.51c0,0,11.15-9.75,15.08-8.43C566.93,99.22,555.75,91.21,545.21,106.14Z"/>
        <path class="cls-40" d="M507.55,86.17s5.88,1.87,7.69,1.29c0,0,20.86-7.62,24.89-10.3,0,0-5.29-14.7,6.88-18.63,0,0-9.38-11.36-18.59,13.58Z"/>
        <path class="cls-41" d="M507.55,86.17s23.52-7.88,25.9-10.49c0,0-7.85-16,10.36-17.44,0,0,21.49,10.18-1.39,28.07,0,0-6.49,6.66,2.79,19.83,0,0,13.95-11.31,20.16-6.48,0,0,17.27,10.62,6.56,27.46,0,0-9.43,10.54-24.84-3,0,0-19.8,8.84-17.17,18.7,0,0,20.84,23,45.18,11.14,0,0,24.92-10.25,25.41-44.21,0,0-7.32-27.09-31.28-29.23,0,0,24.69-30.83-12.7-48.23,0,0-45.49-7.14-51,40.18C505.56,72.43,503.71,80,507.55,86.17Z"/>
      </g>
      <path class="cls-30" d="M543,80.9s15.6,4.84,21.38-10.78C564.37,70.12,566.93,114.09,543,80.9Z"/>
      <g>
        <ellipse class="cls-28" cx="516.52" cy="42.64" rx="9.27" ry="17.21" transform="translate(44.83 257.4) rotate(-29.2)"/>
        <ellipse class="cls-28" cx="539.83" cy="31.74" rx="9.27" ry="17.21" transform="translate(53.11 267.38) rotate(-29.2)"/>
        <ellipse class="cls-29" cx="515.89" cy="43.66" rx="2.6" ry="3.81" transform="translate(44.26 257.22) rotate(-29.2)"/>
        <ellipse class="cls-29" cx="539.83" cy="31.74" rx="2.51" ry="3.81" transform="translate(53.11 267.38) rotate(-29.2)"/>
      </g>
      <g>
        <path class="cls-25" d="M578.87,50.83s10.21-12.49,11.06-18.53c0,0-7.15-4.16-7.6-6.66,0,0,4.44-6.78,7-8.32,0,0-8.59-7.74-5.48-10,0,0,2.38-2.6,7.15,3.83,0,0-.72-10.09,2.78-10.87,0,0,3.58.64,3.3,10.29,0,0,3.14-9.48,6.55-8.53,0,0,4,.69-2.12,10.35,0,0,7.58-8,9.12-5.9,0,0,3.82,1.24-5.43,9.94,0,0,6.23-.71,7.87,1.72,0,0-.28,3.17-9.34,3.87,0,0-.46,9.71-2.53,10.91,0,0-3.18,2.21-9,1.11,0,0-6.23,15.27-10.65,18.48Z"/>
        <path d="M589.93,32.3l2.21,1.7s-7,16.52-10.65,18.48l-2.62-1.65S589.14,38.09,589.93,32.3Z"/>
      </g>
    </g>
    <g>
      <g>
        <path class="cls-25" d="M795.22,374.79s-15,12.23-21.76,13.59c0,0-3.65-7.66-6.33-8,0,0-8,5.41-10,8.32,0,0-7.4-9-10.31-5.4,0,0-3.17,2.82,3.28,7.68,0,0-11-.1-12.29,3.85,0,0,.24,3.93,10.87,3,0,0-10.81,4.14-10.21,7.87,0,0,.25,4.41,11.63-3.08,0,0-9.73,9-7.65,10.55,0,0,.87,4.17,11.62-6.72,0,0-1.59,7,.87,8.63,0,0,3.52-.53,5.45-10.66,0,0,10.71-1.17,12.3-3.56,0,0,2.83-3.69,2.38-10.11,0,0,17.56-8,21.66-13.12Z"/>
        <path d="M773.46,388.38l1.58,2.34s19-8.88,21.66-13.12l-1.48-2.81S779.92,387.1,773.46,388.38Z"/>
      </g>
      <g>
        <path class="cls-42" d="M792.41,313.78s56.91-2.1,34.45,81l-15.3,8.72S839.83,344.57,792.41,313.78Z"/>
        <path class="cls-42" d="M750.9,367.9s8,5.87,10.94,4.82c0,0,20.79-6.32,21.74-9.79,0,0-12-24.72,9-28.71,0,0-21.33-14-23,16.7l1.77,5.66Z"/>
        <g>
          <path class="cls-42" d="M843.48,382.81s11.43-.16,13.81,5c0,0,15.29,18.81,7.35,22.69,0,0-64.06,38.93-68,38.8,0,0-8.25-1.17-8.94-7.71l65.89-38.43S854.14,394.66,843.48,382.81Z"/>
          <path class="cls-43" d="M750.9,367.9s19.31-4.63,25.58-9c0,0-14.77-23.91,8.87-26.55,0,0,19.89,6.55,4.57,43.58,0,0-22,47-.66,69,0,0,42.11-28.23,68.23-38.89a30,30,0,0,0-12.21-24.27l-31,18.86s19.18-44.32,2.5-67.11c0,0-9.08-38-53.91-13.94C762.89,319.52,734.46,337.72,750.9,367.9Z"/>
        </g>
      </g>
      <g>
        <ellipse class="cls-28" cx="769.83" cy="318.4" rx="9.39" ry="17.45" transform="translate(-56.65 423.07) rotate(-29.69)"/>
        <ellipse class="cls-28" cx="790.93" cy="308.87" rx="9.39" ry="17.45" transform="translate(-49.15 432.26) rotate(-29.69)"/>
        <ellipse class="cls-29" cx="769.2" cy="319.44" rx="2.64" ry="3.86" transform="matrix(0.87, -0.5, 0.5, 0.87, -57.24, 422.89)"/>
        <ellipse class="cls-29" cx="789.95" cy="309.43" rx="2.54" ry="3.86" transform="translate(-49.56 431.85) rotate(-29.69)"/>
      </g>
      <path class="cls-33" d="M793.59,342s15.86,4.77,21.58-11.11C815.17,330.9,818.15,375.45,793.59,342Z"/>
      <g>
        <path class="cls-25" d="M825.88,348.48s10.7-8.46,12.5-13.3c0,0-5.17-4.78-5.1-6.94,0,0,4.91-4.8,7.27-5.6,0,0-5.71-8-2.72-9.35,0,0,2.43-1.71,5.22,4.51,0,0,1.22-8.51,4.26-8.5,0,0,2.85,1.19.88,9.14,0,0,4.3-7.28,6.95-5.86,0,0,3.2,1.32-3.62,8.19,0,0,7.71-5.21,8.61-3.2,0,0,2.94,1.74-6.28,7.24,0,0,5.28.57,6.2,2.89,0,0-.81,2.57-8.43,1.47,0,0-2.13,8-4.06,8.57,0,0-3,1.24-7.66-.75,0,0-7.92,11.5-12.15,13.35Z"/>
        <path d="M838.38,335.18,839.9,337s-8.74,12.41-12.15,13.35l-1.87-1.86S836.68,339.83,838.38,335.18Z"/>
      </g>
    </g>
    <g>
      <g>
        <path class="cls-25" d="M144.23,284.82s7.63-18.49,6.47-25.95c0,0-10-2.37-11.41-5.17,0,0,2.83-9.65,5.27-12.37,0,0-13-6.11-10.11-9.94,0,0,1.89-3.94,9.85,2,0,0-4.48-11.71-.61-13.9,0,0,4.48-.53,7.62,11,0,0,.32-12.37,4.7-12.47,0,0,5-.62,1.2,13,0,0,6.13-12.19,8.7-10.28,0,0,5,.1-2.86,13.75,0,0,7.13-3.09,9.95-.79,0,0,.8,3.87-9.69,8,0,0,2.94,11.67.92,13.84,0,0-3,3.77-10.3,4.56,0,0-1.91,20.36-6,25.76Z"/>
        <path d="M150.7,258.87l3.23,1.21s-2.32,22.1-6,25.76l-3.71-1S151.85,266,150.7,258.87Z"/>
      </g>
      <g>
        <path class="cls-25" d="M72,333.44s-19.37,13.62-27.69,14.71c0,0-3.8-9.66-7-10.3,0,0-10.25,5.92-12.95,9.29,0,0-8.25-11.63-12.11-7.47,0,0-4.1,3.18,3.34,9.65,0,0-13.39-1.06-15.32,3.64,0,0,0,4.82,13,4.54,0,0-13.54,4.13-13.13,8.73,0,0-.07,5.4,14.46-2.76,0,0-12.64,10.12-10.24,12.21,0,0,.7,5.16,14.74-7.2,0,0-2.53,8.38.33,10.6,0,0,4.33-.35,7.56-12.53,0,0,13.16-.52,15.3-3.29,0,0,3.77-4.26,3.77-12.13,0,0,22.1-8.24,27.54-14.15Z"/>
        <path d="M44.33,348.15l1.72,3s24-9.2,27.54-14.15L72,333.44S52.31,347.14,44.33,348.15Z"/>
      </g>
      <g>
        <path class="cls-44" d="M84.06,234.16s10.89-5.33,32.19,23.59c0,0-43.31,35.73-25,46.38,0,0-3.66,10.63-4.56,9.52s-20.8-20-1.46-38.11C85.19,275.54,106.31,261.84,84.06,234.16Z"/>
        <path class="cls-44" d="M84.88,355.12s7.18,2.13,10,.24c0,0,15.24-14.81,15.94-16.53,0,0-12.88-22.31,11.39-34.38,0,0-30.15-9.13-26.33,32.45Z"/>
        <path class="cls-44" d="M123.44,277.17S189,277.5,182,354.49C180.81,368,148.54,392.89,130.7,388,130.7,388,219.55,336.49,123.44,277.17Z"/>
        <path class="cls-45" d="M84.06,234.16s-55.62,57.37-52.81,59.43c0,0,47,40.83,52.74,60.75,0,0,2.24,6.48,18.35-16.21,0,0-16.85-34.79,21.15-31.74,0,0,38.15,19.82,19.6,47.35,0,0-14.2,7.1-25.55-8.32,0,0-23.51,23.72-14.58,30.72,0,0,27.9,29.78,60.81-5,0,0,31.18-40-7.64-78.67,0,0-39.21-42.28-67,13.77,0,0-16.88-10-6.85-22.92,0,0,26.71-21.74,25.84-29.3C108.12,254,89,234.56,84.06,234.16Z"/>
      </g>
      <g>
        <ellipse class="cls-28" cx="64.23" cy="285.47" rx="11.48" ry="21.33" transform="translate(-185.88 133.6) rotate(-46.05)"/>
        <ellipse class="cls-28" cx="82.19" cy="268.16" rx="11.48" ry="21.33" transform="translate(-167.92 141.23) rotate(-46.05)"/>
        <ellipse class="cls-29" cx="63.84" cy="286.9" rx="3.22" ry="4.72" transform="translate(-187.03 133.76) rotate(-46.05)"/>
        <ellipse class="cls-29" cx="82.14" cy="267.92" rx="3.11" ry="4.72" transform="translate(-167.76 141.13) rotate(-46.05)"/>
      </g>
      <path class="cls-30" d="M80.93,310.34s20-3.22,17.8-23.74C98.73,286.6,125.79,334,80.93,310.34Z"/>
    </g>
    <g>
      <g>
        <path class="cls-25" d="M138.89,530.88s-19.11,13.45-27.33,14.53c0,0-3.75-9.53-7-10.16,0,0-10.11,5.85-12.77,9.18,0,0-8.15-11.48-12-7.37,0,0-4,3.14,3.31,9.52,0,0-13.22-1-15.12,3.6,0,0,0,4.76,12.83,4.48,0,0-13.36,4.08-13,8.61,0,0-.07,5.34,14.27-2.72,0,0-12.47,10-10.1,12.05,0,0,.7,5.09,14.54-7.11,0,0-2.49,8.26.34,10.46,0,0,4.27-.35,7.45-12.37,0,0,13-.52,15.1-3.26,0,0,3.72-4.2,3.71-12,0,0,21.81-8.14,27.17-14Z"/>
        <path d="M111.56,545.41l1.7,2.94s23.65-9.09,27.17-14l-1.54-3.5S119.44,544.41,111.56,545.41Z"/>
      </g>
      <g>
        <path class="cls-46" d="M224.32,525.58s26.55-35.87-13.92-54.88c0,0-19.06-8.42-34.69,3,0,0-52.3,27.23-20.49,66.44,0,0,11.86,13.55,25.07,11.7,0,0-25.31,20.53,6.26,50.07,0,0,25.82,22.65,46.66,10.12,0,0,43.16-19.07,24.16-62.54C257.37,549.45,244.89,520.76,224.32,525.58Z"/>
        <path class="cls-47" d="M162.78,473.93s-52.31,27.23-20.5,66.44c0,0,11.86,13.55,25.07,11.7,0,0-25.31,20.53,6.26,50.07,0,0,25.83,22.65,46.66,10.12,0,0,43.16-19.07,24.17-62.55,0,0-12.49-28.68-33.06-23.87,0,0,26.56-35.86-13.92-54.87C197.46,471,178.41,462.55,162.78,473.93Z"/>
        <g>
          <ellipse class="cls-36" cx="178.58" cy="510.88" rx="16.75" ry="15.59" transform="translate(-237.82 165.18) rotate(-31.03)"/>
          <path class="cls-46" d="M178.46,526.76s-20.58-22.34,8.37-30.11c0,0-18-7.81-24.42,12.31C162.41,509,158.64,525.61,178.46,526.76Z"/>
        </g>
        <g>
          <ellipse class="cls-36" cx="205.17" cy="570.15" rx="17.86" ry="19.93" transform="translate(-190.98 111.64) rotate(-21.03)"/>
          <path class="cls-46" d="M203.14,589.49s-19.75-33.17,12.72-34.33c0,0-18.71-14.71-28.08,8C187.78,563.16,181.68,582.39,203.14,589.49Z"/>
        </g>
      </g>
      <g>
        <ellipse class="cls-28" cx="150.54" cy="488.14" rx="11.33" ry="21.05" transform="translate(-230.11 147.47) rotate(-31.03)"/>
        <ellipse class="cls-28" cx="172.09" cy="476.24" rx="11.33" ry="21.05" transform="translate(-220.88 156.88) rotate(-31.03)"/>
        <ellipse class="cls-29" cx="149.81" cy="489.41" rx="3.18" ry="4.66" transform="translate(-230.86 147.28) rotate(-31.03)"/>
        <ellipse class="cls-29" cx="172.11" cy="476" rx="3.07" ry="4.66" transform="translate(-220.76 156.85) rotate(-31.03)"/>
      </g>
      <path class="cls-30" d="M173.71,533s19.76,3,23.9-16.94C197.61,516.06,208.72,568.78,173.71,533Z"/>
      <g>
        <path class="cls-25" d="M219.45,483.57s17.16-9.75,20.79-16.26c0,0-6.32-7.9-5.74-10.95,0,0,8.07-5.79,11.61-6.43,0,0-6.38-12.62-1.83-13.87,0,0,3.86-1.92,6.47,7.52,0,0,3.63-11.83,8-11.18,0,0,3.81,2.31-.76,13.2,0,0,7.76-9.44,11.23-6.86,0,0,4.27,2.57-7,10.88,0,0,12.16-5.76,13-2.72,0,0,3.82,3.1-10.56,9,0,0,7.42,1.94,8.21,5.44,0,0-1.72,3.49-12.36.29,0,0-4.8,10.87-7.69,11.33,0,0-4.6,1.12-10.78-2.7,0,0-13.85,14.68-20.3,16.4Z"/>
        <path d="M240.24,467.31l1.78,2.91s-15.22,15.79-20.3,16.4l-2.27-3.05S236.79,473.57,240.24,467.31Z"/>
      </g>
    </g>
    <g>
      <g>
        <path class="cls-25" d="M497.48,530.45s17.41-8.86,21.29-15.13c0,0-5.89-8.1-5.18-11.09,0,0,8.24-5.35,11.78-5.82,0,0-5.74-12.77-1.17-13.79,0,0,3.9-1.72,6,7.73,0,0,4.12-11.54,8.38-10.69,0,0,3.66,2.45-1.36,13,0,0,8.1-9,11.42-6.26,0,0,4.1,2.73-7.41,10.43,0,0,12.29-5.14,13-2.09,0,0,3.64,3.24-10.85,8.37,0,0,7.25,2.25,7.87,5.75,0,0-1.86,3.37-12.23-.27,0,0-5.24,10.52-8.12,10.85,0,0-4.61.89-10.54-3.17,0,0-14.35,13.87-20.81,15.28Z"/>
        <path d="M518.77,515.32l1.62,3s-15.77,14.91-20.81,15.28l-2.1-3.11S515.07,521.35,518.77,515.32Z"/>
      </g>
      <g>
        <path class="cls-25" d="M410.17,524.41s-23-2.22-29.89-6.71c0,0,3.33-9.57,1.33-12.1,0,0-11.36-2.13-15.5-1.35,0,0,1.27-13.86-4.24-13.24,0,0-5.05-.25-3.65,9.29,0,0-9.25-9.31-13.67-7.05,0,0-3.1,3.55,6.75,11.64,0,0-12.66-5.55-15.28-1.88,0,0-3.49,4,12.47,7.15,0,0-15.8-.54-15.35,2.54,0,0-2.76,4.27,15.5,4,0,0-7.2,4.6-6.49,8.07,0,0,3.44,2.5,13.57-4.48,0,0,10.09,8,13.43,7.28,0,0,5.51-.76,10.51-6.59,0,0,21.62,8,29.41,7Z"/>
        <path d="M380.28,517.7l-.62,3.31s23.62,8.42,29.41,7l1.1-3.62S386.84,522,380.28,517.7Z"/>
      </g>
      <g>
        <path class="cls-48" d="M466.62,486.11s55.13,2.46,35.43,92.43c0,0-9.76,63-63.36,47.89C438.69,626.43,534.3,599.89,466.62,486.11Z"/>
        <g>
          <path class="cls-49" d="M461.48,570.14s-33.06,26.52-50.28-26.22c0,0-22.73-68,54.46-58,0,0,30.07,6.29,30.43,36.75,0,0,14,61.19-24.52,94.84,0,0-46.27,31.85-60.06-22.24,0,0,20.06-5.86,23.45-3.47,0,0,20.45,27.42,32.35-4.21C467.31,587.54,474.31,566.09,461.48,570.14Z"/>
          <g>
            <ellipse class="cls-36" cx="445.26" cy="528.97" rx="18.04" ry="24.5" transform="translate(-39.01 35.47) rotate(-4.37)"/>
            <path class="cls-48" d="M445.77,553.43s-19.68-33,5.05-47.36c0,0-20.83-9.33-23.63,22.09C427.19,528.16,427,549.87,445.77,553.43Z"/>
          </g>
        </g>
      </g>
      <path class="cls-30" d="M454.54,522.16s18.38,7.3,26.81-11C481.35,511.15,480.33,564.46,454.54,522.16Z"/>
      <g>
        <ellipse class="cls-28" cx="450.98" cy="484.72" rx="11.22" ry="20.83" transform="translate(-43.9 44.91) rotate(-5.44)"/>
        <ellipse class="cls-28" cx="475.3" cy="483.31" rx="11.22" ry="20.83" transform="matrix(1, -0.09, 0.09, 1, -43.65, 47.21)"/>
        <ellipse class="cls-29" cx="449.79" cy="485.54" rx="3.15" ry="4.61" transform="translate(-43.98 44.8) rotate(-5.44)"/>
        <ellipse class="cls-29" cx="475.42" cy="483.1" rx="3.04" ry="4.61" transform="translate(-43.63 47.22) rotate(-5.44)"/>
      </g>
    </g>
    <g>
      <g>
        <path class="cls-50" d="M237.15,255.55c-6.13-1.17-9.83-2.19-9.83-2.19s-11.26-83.9-23.16-110.85c0,0-7,4-14.24,9.07-6.9-.73-9.66-1.2-9.66-1.2l15.25-42c5.69-2.64,18.19-13,18.19-13s4.43,1.45,8.75,3.12c11,41.92,33.87,104.29,51.34,136.87C273.79,235.39,251.52,243.55,237.15,255.55Z"/>
        <path class="cls-51" d="M227.15,252.55c-5.13-31.08-20.28-84.25-33-113,0,0-7,4-14.24,9.07a368.38,368.38,0,0,1,5.59-43.19,171.06,171.06,0,0,1,26.94-9.87c11,41.92,33.87,104.29,51.34,136.87C263.79,232.39,241.52,240.55,227.15,252.55Z"/>
      </g>
      <path class="cls-30" d="M203.9,163s17.71,5.55,24.33-12.17C228.23,150.87,231,200.84,203.9,163Z"/>
      <g>
        <ellipse class="cls-28" cx="192.44" cy="128.89" rx="10.53" ry="19.55" transform="translate(-31.71 70.56) rotate(-19.23)"/>
        <ellipse class="cls-28" cx="214.29" cy="122.17" rx="10.53" ry="19.55" transform="translate(-28.28 77.38) rotate(-19.23)"/>
        <ellipse class="cls-29" cx="191.53" cy="129.91" rx="2.96" ry="4.33" transform="translate(-32.1 70.32) rotate(-19.23)"/>
        <ellipse class="cls-29" cx="214.35" cy="121.95" rx="2.85" ry="4.33" transform="translate(-28.2 77.39) rotate(-19.23)"/>
      </g>
      <g>
        <path class="cls-25" d="M245.68,172.89s12.11-9.34,14.18-14.74c0,0-5.73-5.43-5.62-7.84,0,0,5.56-5.32,8.22-6.19,0,0-6.3-9.06-2.93-10.51,0,0,2.75-1.89,5.79,5.12,0,0,1.48-9.51,4.89-9.47,0,0,3.17,1.37.86,10.26,0,0,4.92-8.1,7.87-6.48,0,0,3.57,1.53-4.16,9.13,0,0,8.7-5.73,9.69-3.47,0,0,3.27,2-7.14,8,0,0,5.92.7,6.92,3.32,0,0-.94,2.87-9.47,1.54,0,0-2.49,8.89-4.66,9.55,0,0-3.41,1.35-8.58-.94,0,0-9,12.79-13.79,14.8Z"/>
        <path d="M259.86,158.15l1.68,2s-10,13.79-13.79,14.8l-2.07-2.11S257.9,163.34,259.86,158.15Z"/>
      </g>
      <g>
        <path class="cls-25" d="M209.81,185.44s-18.4,11.54-26.07,12.13c0,0-3-9-6-9.76,0,0-9.66,4.92-12.3,7.88,0,0-7-11.05-10.73-7.42,0,0-3.9,2.71,2.6,9,0,0-12.21-1.62-14.2,2.59,0,0-.28,4.42,11.69,4.79,0,0-12.6,3.13-12.45,7.35,0,0-.32,4.95,13.37-1.82,0,0-12.06,8.65-10,10.68,0,0,.4,4.76,13.84-5.87,0,0-2.71,7.54-.2,9.72,0,0,4-.12,7.52-11.11,0,0,12.08.16,14.17-2.28,0,0,3.66-3.72,4-10.92,0,0,20.64-6.47,25.9-11.62Z"/>
        <path d="M183.74,197.57l1.43,2.82s22.39-7.27,25.9-11.62l-1.26-3.33S191.1,197,183.74,197.57Z"/>
      </g>
    </g>
  </g>
</svg>
