<?xml version="1.0" encoding="UTF-8"?><svg id="a" xmlns="http://www.w3.org/2000/svg" xmlns:xlink="http://www.w3.org/1999/xlink" viewBox="0 0 266.28 98.61"><defs><style>.c{fill:#d57e0b;opacity:.69;}.c,.d{isolation:isolate;}.e{fill:#b44f1d;}.d{fill:#edeeef;opacity:.21;}.f{fill:#193711;}.g{fill:#deaf88;}.h{fill:#782f00;}.i{fill:#b45108;}.j{clip-path:url(#b);}.k{fill:#cd966e;}.l{fill:#bf6a31;}.m{fill:none;}.n{fill:#a64300;}.o{fill:#9c3700;}</style><clipPath id="b"><rect class="m" x="-2028.19" y="-738.76" width="1920" height="900"/></clipPath></defs><g class="j"><g/></g><g><path class="f" d="M263.45,77.33h0l-.23-7.54h0l-.62-16.16h.37l-.51-8.1h-.15l-.2-5.48c-35.41-22.82-40.68-21.42-40.68-21.42l-118.53-6.67c-1.12-.07-2.25-.02-3.36,.13L25.78,22.26c-2.95,.41-5.34,1.63-6.5,3.33l-7.27,10.64L2.62,61.63l1.23,4.5,56.39,19.5,137.54,10.37,62.32-14.26c2.04-.47,3.47-2.32,3.4-4.41h-.05Z"/><path class="g" d="M221.96,9.29L104.63,2.63c-1.11-.06-2.22-.02-3.32,.13L28.31,12.94c-2.92,.4-5.29,1.63-6.44,3.32l-7.2,10.65s57,12.06,57.95,12.12,119.1,4.33,119.1,4.33l70.54-12.66-36-20.21c-1.33-.72-2.79-1.13-4.3-1.2Z"/><path class="n" d="M263.56,68l-1.32-37.31-71.1,10.94-116.36-5.67L14.63,26.9,5.36,52.24l56.67,19s134.66,11.39,136.47,11.27,65.06-14.51,65.06-14.51Z"/><path class="o" d="M190.87,41.88s-2.66,18.36,8,26.63l-.38,14-136.44-11.31s9.46-29.88,13.93-34.24c.93-.9,114.89,4.92,114.89,4.92Z"/><path class="l" d="M262.58,36.14l-72.53,12.17s-18.67-3.3-23.8-4c0,0-3.08,2.07-.07,2.62s-81.51,4.36-81.51,4.36l92.28,.18-3.58,1.86,75.58-1.32-13.49-4.79,27.63-3-.51-8.08Z"/><path class="i" d="M169.23,62.04s22.19,2.39,13.72,6.2c-3.79,1.51-7.95,1.83-11.93,.94-8.55-1.75-22.51-5.16-.23-4.81-.01,0,7.77,1.26-1.56-2.33Z"/><path class="e" d="M13.24,37.7c-2,.25,41.42,9.85,58.14,11.36h-26.22s30.68,10.17,45.7,11l-40.77-2.32s-19.95-9.56-38.9-8c0,.02,5.13-12.42,2.05-12.04Z"/><path class="c" d="M261.61,53.88l-16.09,1.9,6.65,.37-27.92,3.1,6.28,2.6-28.83,3.24s46.08-1.46,56.08-4.12-8.16-.46-8.16-.46l11.9-3.82-5.11-1,5.2-1.81Z"/><polygon class="d" points="263.67 71.6 198.51 86.66 62.4 76.33 6.59 56.75 5.37 52.24 64.32 68.47 198.74 78.18 263.44 64.04 263.67 71.6"/><polygon class="h" points="263.56 68 198.72 83.11 62.62 72.77 5.37 52.24 6.42 49.39 64.53 64.92 198.95 74.63 263.33 60.46 263.56 68"/><path class="k" d="M221.96,9.29s5.22-1.4,40.28,21.4l-71.37,11.19-25.83-1.47s41.16-17.7,56.92-31.12Z"/></g></svg>