<?xml version="1.0" encoding="UTF-8"?><svg id="a" xmlns="http://www.w3.org/2000/svg" viewBox="0 0 148.17 74.71"><defs><style>.b{fill:#94bacc;}.b,.c{isolation:isolate;opacity:.36;}.d{fill:#1a667c;}.e{fill:#185772;}.f{fill:#4b9d9d;}.g{fill:#aad1e0;}.h{fill:#8fbccc;}.i{fill:#c0d7e2;}.j{fill:#1a6b80;}.k{fill:#257697;}</style></defs><path class="d" d="M146.86,54.25l-.57-15.35v-.08l-.31-6.39-21.7-14.13H54.65c-.65,0-1.3,.08-1.93,.23L10.49,29.14c-1.57,.33-2.92,1.33-3.69,2.74L1.32,45.95l4.32,18.21,25.36,6.73h0v.07l42.42,1.41c10.35,.35,20.43,.69,27.46,.91l9.51,.31,1.89-.68c4.25-1.46,14.74-5.27,23.36-8.41"/><g><path class="i" d="M122.4,1.12H56.4c-.63,0-1.26,.08-1.87,.23L13.64,11.62c-1.51,.33-2.81,1.29-3.56,2.65l-3.93,7.98s32.24,6.33,32.76,6.33,67-1.75,67-1.75l39.45-12L124.82,1.83c-.72-.46-1.56-.7-2.42-.71Z"/><path class="k" d="M146.67,41.53l-1.31-26.71-39.79,10.75-65.47,.67L6.15,22.24,1.32,40.75l32.14,11.29s75.85,2.69,76.87,2.55,36.34-13.06,36.34-13.06Z"/><path class="j" d="M105.42,25.76s-1.21,13.28,4.91,18.77v10.06l-76.87-2.55s4.87-21.81,7.32-25.12c.5-.67,64.64-1.16,64.64-1.16Z"/><path class="g" d="M102.34,1.12S152.74,21.41,17.26,22.89l22.84,3.36,65.47-.67,39.79-10.75L123.76,1.13h-21.42Z"/><path class="h" d="M123.76,1.12c.72,3.27,45.68,21.74-83.66,25.12l65.47-.67,39.79-10.75L123.76,1.12Z"/><path class="b" d="M145.63,18.72l-40.57,11.69s-10.55-1.61-13.44-1.88c0,0-1.7,1.61,0,1.88s-45.7,6.45-45.7,6.45l51.82-3.61-2,1.48,42.46-4-7.66-2.89,15.48-3.28-.39-5.84Z"/><path class="b" d="M93.56,41.1s12.51,.81,7.81,3.89c-2,1.21-4.39,1.63-6.69,1.16-4.83-.91-12.73-2.78-.21-3.44,0,0,4.39,.6-.91-1.61Z"/><path class="b" d="M5.23,30.01c-.78,.25,16.5,5.37,23.13,5.77l-10.37,1.08s12.24,6,18.19,6H20.03s-8-6-15.48-4.16c0,.04,1.9-9.09,.68-8.69Z"/><path class="b" d="M55.3,29.14l-9.29-.92,3.44,1.15-16.06-1.73,2.53,2.61-16.6-1.76s25.26,5.24,31.56,4.86-4.23-1.41-4.23-1.41l7.7-.93-2.4-1.38,3.35-.49Z"/><path class="b" d="M145.36,31.48l-9,2h3.74l-15.65,3.36,3.57,1.61-16.15,3.49s25.85-3,31.46-5.24-4.59,0-4.59,0l6.63-3.22-2.89-.54,2.88-1.46Z"/></g><polygon class="f" points="146.79 44.11 110.39 57.57 33.74 55.71 2.07 43.94 1.32 40.75 34.7 49.99 110.39 51.48 146.54 38.69 146.79 44.11"/><polygon class="e" points="146.67 41.53 110.46 55.01 33.81 53.15 1.32 40.75 1.87 38.67 34.77 47.43 110.46 48.92 146.43 36.13 146.67 41.53"/><polygon class="c" points="1.32 41.15 33.81 53.54 40.09 26.64 6.15 22.6 1.32 41.15"/></svg>