<svg id="Layer_1" data-name="Layer 1" xmlns="http://www.w3.org/2000/svg" viewBox="0 0 121.88 96.12"><defs><style>.cls-1{opacity:0.27;}.cls-2,.cls-7{fill:#50ca0a;}.cls-2,.cls-5,.cls-7{stroke:#33560a;}.cls-12,.cls-2,.cls-5,.cls-7{stroke-miterlimit:10;}.cls-2,.cls-5{stroke-width:0.25px;}.cls-3{fill:#2f7505;}.cls-4{fill:#4aaa0c;}.cls-5{fill:none;}.cls-6{fill:#e5f550;}.cls-12,.cls-7{stroke-width:0.5px;}.cls-8{fill:#ccc833;}.cls-9{fill:#f3f97a;}.cls-10{fill:#d4dd31;}.cls-11{fill:#510000;}.cls-12{fill:#fffde6;stroke:#424015;}.cls-13{fill:#e27300;}.cls-14{fill:#fff;}.cls-15{fill:#7c0000;}.cls-16{fill:#c85a5f;}.cls-17{fill:#eb7d86;}.cls-18{fill:#99252e;}.cls-19{fill:#752a2a;}.cls-20{fill:#fccdd1;}</style></defs><ellipse class="cls-1" cx="60.98" cy="83.32" rx="60.35" ry="12.07"/><path class="cls-2" d="M84.45,62.82s6,9.58,1.88,15.59c-3.4,5-7.9,4.44-16.4,1.47s-10.46-5.76-8.85-7.19S82,59.4,84.45,62.82Z"/><path class="cls-3" d="M80.37,68.14s3.48,1.7,4.53,3.79c.73,1.44,5.65,10.47-6.27,10.14a42.43,42.43,0,0,1-8.93-2.38,17.17,17.17,0,0,1-4.32-2.57l3-4.21Z"/><path class="cls-2" d="M99.33,84.32a29.35,29.35,0,0,0,9.09.34,19.54,19.54,0,0,0,6.71-.11s1.39.11,1.85-.48c0,0,1.65-4.09-2.54-4.33a4.13,4.13,0,0,0-4.43-.31s-7.53-1.23-10.68-4.87C99.33,74.56,96.72,82.58,99.33,84.32Z"/><path class="cls-2" d="M102,82.17s1-4.31,4.51-3.62,1.92,6,1.92,6"/><path class="cls-2" d="M110,79.43A2.48,2.48,0,0,0,108.67,81"/><path class="cls-2" d="M114.44,79.74a4.81,4.81,0,0,1,.69,4.81"/><path class="cls-4" d="M100.45,82.3s1.38,1.4,5.12,1.5,2.68-3.75,2.68-3.75a4.34,4.34,0,0,1,.36,2.64c-.16,1.74-.33,1.88-.33,1.88a25.68,25.68,0,0,1-3.27.23,32.84,32.84,0,0,1-5-.49Z"/><path class="cls-4" d="M108.87,81.92a9.68,9.68,0,0,1-.34,2.63,27.38,27.38,0,0,0,3,.29,10.71,10.71,0,0,0,3.55-.38,6.18,6.18,0,0,0,.29-1.39S112.85,86.3,108.87,81.92Z"/><path class="cls-4" d="M115.55,82.42a5,5,0,0,1-.27,2s1.22.07,1.58-.43a4.46,4.46,0,0,0,.3-2s.08,1.2-.61,1.29S115.55,82.42,115.55,82.42Z"/><path class="cls-2" d="M87.82,69.77S87.39,61.32,85,59.05l4.87-4.66A35,35,0,0,1,99.3,66.84c3.9,8.34,0,19.5,0,19.5s-4.08,1.94-6.28,0a5.61,5.61,0,0,1-6,.5s-3.39,1.53-5.77.3c0,0-4-2.52-1.81-8.54S85.44,70.52,87.82,69.77Z"/><path class="cls-4" d="M88.78,59.13a14,14,0,0,1,3.15,10.11,14.62,14.62,0,0,0-4,.39s-.44-5.43-1.34-7.79Z"/><path class="cls-4" d="M79,83a6.22,6.22,0,0,0,2.14,4,4.5,4.5,0,0,1,.61-3.51S80.51,84.94,79,83Z"/><path class="cls-4" d="M82.41,83s.15,3.09,4.54,2.71a5.49,5.49,0,0,1,0,1,8.62,8.62,0,0,1-3.66.77,5.15,5.15,0,0,1-1.9-.46A4.25,4.25,0,0,1,82.41,83Z"/><path class="cls-4" d="M88.15,83.07s0,3.36,4.72,2.4a2.61,2.61,0,0,1,0,.86,4.84,4.84,0,0,1-2.84,1,5.71,5.71,0,0,1-2.87-.59S87,84.28,88.15,83.07Z"/><path class="cls-4" d="M94.11,83.8s0,2.35,5.06,1.6a3.36,3.36,0,0,1,0,.87,9.3,9.3,0,0,1-3.91.8c-1.69-.12-2.19-.81-2.19-.81A5.35,5.35,0,0,1,94.11,83.8Z"/><path class="cls-2" d="M87.82,69.77s5.41-1.58,9.29,1.36"/><path class="cls-5" d="M87.05,86.76s.5-4-2.18-4.54c-1.85-.36-4.28,1.22-3.57,4.92"/><path class="cls-5" d="M87.07,86.84s-.35-4.49,2.72-4.57c3.73-.1,3.18,4.06,3.18,4.06s.43-3.71,3.1-3.49c3.14.27,3.36,2.5,3.23,3.5"/><path class="cls-6" d="M82.81,73.16a13.32,13.32,0,0,0-3,4.88c-.73,2,4.08,1.94,5-.94A2.81,2.81,0,0,0,82.81,73.16Z"/><circle class="cls-6" cx="90.69" cy="72.97" r="1.28"/><circle class="cls-6" cx="93.09" cy="60.6" r="0.74"/><circle class="cls-6" cx="94.58" cy="65.52" r="1.29"/><circle class="cls-6" cx="90.35" cy="79.74" r="0.61"/><path class="cls-6" d="M100.72,72.48a2.61,2.61,0,0,0-1.72,3c.34,2.41,1.85,2.78,1.85,2.78A30.9,30.9,0,0,0,100.72,72.48Z"/><path class="cls-7" d="M48.13,25.05S43.24,5.83,54.67,2.62A12.16,12.16,0,0,1,67.76,6.73,21.75,21.75,0,0,1,81.33,5.45s6.68-8.2,16-3.35c7.46,3.88,5.61,14,5.61,14a6.19,6.19,0,0,1-.41,6.74s1.95-.72,2.69,1S96,62.3,72.42,73.61c-22.25,10.65-40.13-.15-34.33-10.89C43.69,52.36,48.94,29.76,48.13,25.05Z"/><path class="cls-8" d="M52.71,31.65s20.66-7.87,49.83-8.83c0,0,2.64-1.08,3,1.11s-6,22.94-16.89,35.67c-8,9.43-15.13,13.68-17.63,15C38.71,91.09,52.64,67.77,56.32,63.5c3.49-4,3.07-8.81,4.48-12C64.51,43,56,39.64,56.87,37.28c0,0-7.25,1.21-8.79.45C48.08,37.73,45.88,35,52.71,31.65Z"/><path class="cls-9" d="M58.78,59.86s-.87,4.59-.13,7.3c0,0,4.69,12,25-2.18,0,0,11.25-12.22,17.12-26.53,0,0,3.59-9.63,3.87-10.58s1-3.07.44-3.76l-2.86-1S80.8,25.58,72.6,27.34s-18,4.33-20.74,5.68-8,5.56,2.37,7.32C64.21,42,59.73,54.64,58.78,59.86Z"/><path class="cls-10" d="M51.68,33.15s6.89-2.18,13.48.66,6.94,6.06,12.52,7.24,10.16-.23,12-2,4.44-5.87,5.59-7.51,5.21-8.07,8.79-7.15c0,0,1.11.77,1.18-.09,0,0,.62-1.43-1.58-1.54a20.4,20.4,0,0,0-3.36-.17C98.17,22.72,80,25.14,80,25.14L54.23,30.88S50.64,32.5,51.68,33.15Z"/><path class="cls-11" d="M50.75,32.35a210.16,210.16,0,0,1,51.79-9.25s2.33-.46,2.69,1.31c0,0,1.74-2.12-2.86-2.12-.18,0-22.69,1.23-39,5.76C63.34,28.05,51.9,31,50.75,32.35Z"/><path class="cls-11" d="M51.37,30.28a12.82,12.82,0,0,0-.62,3.4C51,35.48,49.37,32.06,51.37,30.28Z"/><path class="cls-10" d="M51.2,32.15A205.93,205.93,0,0,1,71.6,27c9.24-1.67,18.06-3.07,24.17-3.48s9.28-1.4,9.46.86a10.31,10.31,0,0,1-.6,2.93c-.52,1.24.74-2.88-1.36-3.37s-19.2,1.85-24.44,2.86c-7.1,1.37-15.65,3-27,6.19,0,0-.82.49-.9.87C50.74,34.91,50.2,32.35,51.2,32.15Z"/><path class="cls-4" d="M50.87,32.23a107.63,107.63,0,0,1,18-5.55c11.66-2.7,29.92-4.15,31-4.23s2.74-.15,2.74-.15-15,.38-20.88,1.16S51.26,28.53,50.87,32.23Z"/><path class="cls-7" d="M67.44,6.34a21.16,21.16,0,0,1,2.65,4.05"/><path class="cls-7" d="M81.33,5.45A10.68,10.68,0,0,0,79.7,9.62"/><path class="cls-2" d="M40.19,65.64a7,7,0,0,1,3.37,3.9c1.31,4.58-.76,6.45-4.75,8.29a9.66,9.66,0,0,1-6.91.77s1.69,4.14,3,4.83c0,0,4.91-.23,4.53,5.6,0,0-3.76,1.3-6.21.48a12.38,12.38,0,0,1-8.14.67S23,92,16.86,90.18,10.8,81.05,11,77.67s2.69-16.42,10.13-21.25,11.81-1.84,13-.77,2.37,6.52,1.15,10.51c0,0,.3.27,1.68-1.11a2.4,2.4,0,0,1,1.73-.1"/><path class="cls-2" d="M21.08,66.78s1.5,10,10.82,11.82"/><path class="cls-2" d="M32.76,72.36a6.63,6.63,0,0,1,2.52-6.2"/><path class="cls-2" d="M25.07,90.18c.19-9.51-7.21-6.56-7.21-6.56"/><path class="cls-2" d="M26.61,83.08s6.71-1.46,6.56,6.41"/><path class="cls-2" d="M33,83.91a4.81,4.81,0,0,1,2.12-.48"/><path class="cls-4" d="M40.94,66s3-1.12,4.54.9L44,70.82A6.84,6.84,0,0,0,40.94,66Z"/><path class="cls-4" d="M31.83,78.7a12.5,12.5,0,0,1-6.37-3.22,14.7,14.7,0,0,1-3.78-5.93,11.38,11.38,0,0,1-.6-2.36c0-.75-2.72,12.67,11.62,13.82h.2S31.92,79.08,31.83,78.7Z"/><path class="cls-4" d="M22.69,83.66s2.59-.43,3.51,1.58c0,0,.49,3.71,1.93,3.94s3.74.47,4.89-.85l0,1.12a12.66,12.66,0,0,1-3.86,1,14.73,14.73,0,0,1-4-.37,13,13,0,0,0-.16-2.4C24.83,86.7,24.43,84.68,22.69,83.66Z"/><path class="cls-4" d="M12.85,69.47a55.8,55.8,0,0,0-1.65,7.79c-.06,1.65-.82,6.51,1.93,10.3s10.45,3.74,11.81,2.62a14.67,14.67,0,0,0-.15-2.5c-.19-1-1.21,2.19-7.87.11S11.89,73.21,12.85,69.47Z"/><path class="cls-4" d="M35.28,64.81s-2.4.08-3.53,4.26.88,5.41.88,2a6.94,6.94,0,0,1,2.55-4.87S35.76,64.61,35.28,64.81Z"/><path class="cls-6" d="M24.94,74.62a14,14,0,0,0,3.85,2.85c1.79.69,3.28-3.38,1.1-5A3,3,0,0,0,24.94,74.62Z"/><circle class="cls-6" cx="28.28" cy="61.94" r="1.38"/><circle class="cls-6" cx="14.81" cy="74.7" r="2.16"/><circle class="cls-6" cx="16.97" cy="67.75" r="0.71"/><path class="cls-2" d="M73.28,84.32s2.92,0,3.84,1.58-.36,2-.36,2l-2.82-1.64Z"/><path class="cls-2" d="M57,62.85c-3.22,2.46-4,11.79-4,11.79,17.65.43,21.06,10.5,21.06,10.5,2.76.35,3.61,3,2.25,4.29-.37.34-4.31.59-5.28,0,.27,1.23-1.7,1.84-1.7,1.84-1.39.62-16,1.23-22.78-6.06-7.19-7.76-2.71-12.57,0-21,2.18-6.72,7.22-6.58,7.22-6.58A4.26,4.26,0,0,1,57,59.21"/><path class="cls-2" d="M63.34,85.42s6.35-1.9,7.69,4.06"/><path class="cls-2" d="M71.3,85.18a5,5,0,0,1,2.76,0"/><path class="cls-2" d="M47.42,76.86C49.43,75,53,74.64,53,74.64s-1.84-1-4.89.37"/><path class="cls-4" d="M44,71.47s-.21,11.76,7.84,15.1,13.59,3.1,15.26,2.66c1-.27,2.93-1.53,2.82-2.09A5.49,5.49,0,0,1,71,89.82s-.1,1.26-2.64,1.59a36,36,0,0,1-14.15-1.64c-5.31-1.84-7.73-4.55-9.08-6.45C43.49,81.1,41.46,77.81,44,71.47Z"/><path class="cls-4" d="M70.29,87.3s3.83,1.27,5.08.56,1.17-1,1.17-1a2.19,2.19,0,0,1,.28,1.31,2,2,0,0,1-.61,1.22,11.18,11.18,0,0,1-3,.31c-1.79,0-2.12-.29-2.12-.29A9.7,9.7,0,0,0,70.29,87.3Z"/><path class="cls-4" d="M75.48,85.47s1,.42,1.21.07c0,0,1,.85.57,1.76,0,0-.15.26-.22.27A3.33,3.33,0,0,0,75.48,85.47Z"/><path class="cls-4" d="M52.5,74.59s-1.72-.69-4.55.62c0,0-1.84.83-.43,1.4a7.91,7.91,0,0,1,2.11-1.22A15,15,0,0,1,52.5,74.59Z"/><circle class="cls-6" cx="50.95" cy="68.24" r="1.99"/><circle class="cls-6" cx="50.95" cy="63.32" r="0.71"/><circle class="cls-6" cx="45.88" cy="72.69" r="1.1"/><path class="cls-6" d="M58,75.18a2.05,2.05,0,0,0,1.25,2.35c1.67.81,4.18-.08,4.32-1A31,31,0,0,0,58,75.18Z"/><circle class="cls-6" cx="59.81" cy="84.92" r="0.99"/><circle class="cls-6" cx="50.95" cy="81.01" r="1.55"/><path class="cls-4" d="M64.36,7.54a10.39,10.39,0,0,0-11.17-.68c-6.88,3.53-6.15,12.15-4.1,15,1.36,1.9,5.33,5.76,10.93,4.95s7.8-5.36,7.83-6.13S66.79,9,64.36,7.54Z"/><circle class="cls-12" cx="59" cy="16.24" r="9.91"/><path class="cls-4" d="M95.24,1.6a12,12,0,0,0-8.76,2.07c-4.22,3-5.06,8.77-3.44,12.71s5.08,5.85,9.69,6,8.06-2.56,9.17-4.93S95.24,1.6,95.24,1.6Z"/><circle class="cls-12" cx="93.59" cy="11.63" r="9.91"/><path class="cls-13" d="M95.54,7.19C99,9,98.88,12.65,97.28,15.46a5.46,5.46,0,0,1-7.7,2,5.86,5.86,0,0,1-2.2-8A6.18,6.18,0,0,1,95.54,7.19Z"/><circle cx="92.95" cy="12.35" r="5.45"/><circle class="cls-14" cx="87.21" cy="10.31" r="1.42"/><path class="cls-13" d="M61.84,10.83c3.7,1.17,4.23,4.8,3.15,7.84A5.47,5.47,0,0,1,57.75,22,5.86,5.86,0,0,1,54.2,14.5,6.18,6.18,0,0,1,61.84,10.83Z"/><circle cx="60.18" cy="16.36" r="5.45"/><circle class="cls-14" cx="54.17" cy="15.35" r="1.42"/><path class="cls-11" d="M55.34,30.88c15,.75,17.71,5.71,21,7.59a9.92,9.92,0,0,0,5.48,1.07c3.5-.19,7-1.67,8.23-3.32C92,33.63,89.74,30,95.24,25.64c0,0-4.67-1-7-1.24a9.57,9.57,0,0,0-2.68.11c-2,.32-5.6.35-9.62,1.5C75.62,26.09,60,28.83,55.34,30.88Z"/><path class="cls-15" d="M81.78,39.54c3.5-.19,7-1.67,8.23-3.32,1.94-2.59,7.25-9.7,10.75-13.11,0,0-2.64-.26-12.51.94-.79.1-1.7.29-2.71.46C88.15,29.9,84.89,36,81.78,39.54Z"/><path class="cls-16" d="M72.12,35.23a34,34,0,0,0,4.18,3.24C80,40.6,86,39.32,88.88,37.28h0c1.65-1.45,2.24-4.71-.1-6.14s-5.43-.71-6.55,1.15C76.41,30.07,71.85,33.17,72.12,35.23Z"/><path class="cls-17" d="M81,38.1c-2.62-.37-6.14-1.47-5.25-4.29.8-2.43,5.31-2.39,7.76-.94a2.85,2.85,0,0,1,3-2.47,5.28,5.28,0,0,1,2.3.74A3.09,3.09,0,0,1,90,32.54C91.14,35.65,86.16,38.83,81,38.1Z"/><path class="cls-18" d="M84.63,39.2c-3.22.79-6.27.55-8.37-.66a33.17,33.17,0,0,1-4.13-3.18L72,35.28v0c-.16-1.2,1.32-2.89,4-3.55a10.39,10.39,0,0,1,6.17.49,4.21,4.21,0,0,1,2.58-1.73,5.4,5.4,0,0,1,4,.61A3.28,3.28,0,0,1,90.4,33.6a4.64,4.64,0,0,1-1.46,3.75h0a12.92,12.92,0,0,1-4.29,1.84Zm5.6-5.58a3.07,3.07,0,0,0-1.49-2.4,5.17,5.17,0,0,0-3.93-.59,4,4,0,0,0-2.51,1.71l0,.06-.06,0a10.23,10.23,0,0,0-6.14-.5c-2.54.62-4,2.2-3.86,3.31l0,0a34,34,0,0,0,4.1,3.17,11.49,11.49,0,0,0,8.25.64h0a12.83,12.83,0,0,0,4.24-1.83h0A4.44,4.44,0,0,0,90.23,33.62Z"/><path class="cls-19" d="M85.22,35a2.6,2.6,0,0,0-.64-1.19,5.88,5.88,0,0,0-2.33-1.61l0,.17A5.79,5.79,0,0,1,85.22,35Z"/><path class="cls-20" d="M84.59,34.42a4.31,4.31,0,0,0-2.74-1.75c-.3-.05-.53,0-.34.12a9.7,9.7,0,0,1,3.15,2.08C84.92,35.14,84.77,34.69,84.59,34.42Z"/><path class="cls-20" d="M89.76,33.13a3.06,3.06,0,0,0-3.56-2.21c-.3,0-.34.18-.12.2a4.35,4.35,0,0,1,3.53,2.24C89.82,33.71,89.83,33.38,89.76,33.13Z"/></svg>