<svg id="Layer_1" data-name="Layer 1" xmlns="http://www.w3.org/2000/svg" xmlns:xlink="http://www.w3.org/1999/xlink" viewBox="0 0 384.65 540.24"><defs><style>.cls-1,.cls-13,.cls-15{fill:none;}.cls-2{fill:#683c11;}.cls-3{fill:#f7d333;stroke:#967432;stroke-width:0.75px;}.cls-11,.cls-13,.cls-15,.cls-16,.cls-19,.cls-3,.cls-5{stroke-miterlimit:10;}.cls-4{fill:#edc10c;}.cls-14,.cls-5{fill:#fadf9c;}.cls-13,.cls-5{stroke:#604d24;}.cls-6{fill:#fdf866;}.cls-10,.cls-26,.cls-6,.cls-8,.cls-9{stroke:#756210;stroke-width:0.5px;}.cls-26,.cls-7{fill:#fdf894;}.cls-8{fill:#f9ec00;}.cls-9{fill:#fdf8b2;}.cls-10{fill:#fbf165;}.cls-11{fill:#ab6e2b;}.cls-11,.cls-15{stroke:#663b10;}.cls-12{fill:#93581c;}.cls-16{fill:#fff;stroke:#502707;}.cls-17{fill:#502707;}.cls-18{fill:#f7f0eb;}.cls-19{fill:#ff8c73;stroke:#ba5242;}.cls-20{fill:#f28e6e;}.cls-21{fill:#5b0000;}.cls-22{fill:#f9f7f7;}.cls-23{fill:#ffc2b9;}.cls-24{fill:#ba4343;}.cls-25{clip-path:url(#clip-path);}</style><clipPath id="clip-path"><path class="cls-1" d="M38.21,303.44s4.12-3.53,20.36-3.88L74.8,312.85l-5.64,14.47-31.42,12L14.1,316.38Z"/></clipPath></defs><path class="cls-2" d="M367.66,248a6.19,6.19,0,0,0,1-2.49c.33.44.26,1.31-.37,2.26a9.88,9.88,0,0,1-1.14,1.4l-.52-.12A6.42,6.42,0,0,0,367.66,248Z"/><path class="cls-2" d="M366.67,249.08c-.55-.12-1.16-.23-1.84-.33.3-.46,2.22-3.66,3.34-3.52a.77.77,0,0,1,.53.31,6.19,6.19,0,0,1-1,2.49A6.42,6.42,0,0,1,366.67,249.08Z"/><path class="cls-2" d="M379.56,153.34a23.22,23.22,0,0,1,3.48,3C381.23,156.31,380.57,155,379.56,153.34Z"/><path class="cls-2" d="M379.56,153.34c-.91,1.21-1.66,2.3-2.29,3.28A23.32,23.32,0,0,1,379.56,153.34Z"/><path class="cls-2" d="M380.72,159.4c-.68-.94-2.83-1.7-3.53-2.65l.08-.13c.63-1,1.38-2.07,2.29-3.28,1,1.64,1.67,3,3.48,3C382.22,157.56,381.45,158.53,380.72,159.4Z"/><path class="cls-3" d="M365.45,188.9c-4.07,7.15-9.38,20.73-8.42,28.33,1.44,11.19,3.73,13.31,10.3,22.6a7.15,7.15,0,0,1,.33,8.2c-2,2.77-8.09,4.91-12.52,2.86-8-3.82-6.53-3-13.62-9.46a34.11,34.11,0,0,1-11.27-22c-.81-7.78.94-15.37,4-23.44,1.47-3.29,6.4-13.53,13.51-20.68,6.81-7.08,14.93-13.07,23.52-12.44,3.35.24,3.28-3,8.25-9.51,1,1.64,1.67,3,3.48,3-4.14,6-6.32,6.23-8.35,12.6C373.13,173.88,368.45,183.58,365.45,188.9Z"/><path class="cls-2" d="M364.78,248.84c-.19.76.2,1.18.67,1.21,1.25.1,2.47-1.65,2.88-2.25.87-1.3.67-2.47-.16-2.57-1.12-.14-3,3.06-3.34,3.52Z"/><path class="cls-2" d="M383,156.38c-.82,1.18-1.59,2.15-2.32,3-.68-.94-2.83-1.7-3.53-2.65a23.27,23.27,0,0,1,2.37-3.41A23.22,23.22,0,0,1,383,156.38Z"/><path class="cls-4" d="M351.21,181.05c-9.07,13.35-12.21,23.57-10.58,38.22,1.17,10.41,14.75,27,24.64,28.4,0,0,.61-.26.59-.23-.17.68-.4,1.07,0,1.18-2.76,1.6-5.45,3.86-8.7,2.35-8-3.82-7.55-3.1-14.64-9.54a34.11,34.11,0,0,1-11.27-22c-.81-7.78.94-15.37,4-23.44,1.47-3.29,6.4-13.53,13.51-20.68,6.81-7.08,14.93-13.07,23.52-12.44a4.06,4.06,0,0,0,.79,0h0S361.39,166.07,351.21,181.05Z"/><path class="cls-5" d="M317,227.32c-.11-16.15,7-21.81,5.92-36.38-.61-8.5-.68-14.56,17.71-12.66,15.23.76,20.79,5.16,12.47,11.32s-15.29,1.73-15.29,1.73,15.11,21.76-4.89,41C310.29,254.22,317.07,237.62,317,227.32Z"/><path class="cls-5" d="M372.47,195.51c-1.78-3.57-17.23-9.48-20.14-3.15-3.95,8.57,6.49,10.11,13,10.71C373.53,203.82,374.25,199.09,372.47,195.51Z"/><path class="cls-5" d="M372.26,208.87c-1.7-3.87-17.29-10.69-20.48-4-4.31,9,6.3,11,12.94,11.85C373.07,217.76,374,212.73,372.26,208.87Z"/><path class="cls-5" d="M369.52,221c-1.41-3.46-15-9.87-18-4.06-4,7.87,2.07,8,8.07,10.95,1.85.91,1.29,4,2.47,3.76C369.63,230,370.54,223.51,369.52,221Z"/><path class="cls-6" d="M31.69,253s-8.09-43.66,4.15-46.22c12.06-2.53,21.57,43.51,20.57,52.78-.69,4.24-22.28,4.94-22.28,4.94Z"/><path class="cls-7" d="M35.2,253.64s-11.85-43.8.38-46.36c12.06-2.53,20.83,43,19.83,52.26-.69,4.24-22.28,4.94-22.28,4.94Z"/><path class="cls-8" d="M26.47,243.15c2.37-1.47,11.41,4.12,15.06,7.75a37.23,37.23,0,0,1,5.2,7.7s3.83-6.31,5.15-7.06S56,246.33,56,246.33s3.13,35,3,46.16c-.2,14-5.43,15.37-7.28,17.48-.55,2.22.11,11.11.11,11.11l-4.12-2s1-7.41.73-8.09c-.79-1.6-5.82-2.9-7.16-7.43-1.55-5.21-1.9-17.85-4.35-42.76"/><path class="cls-9" d="M46.69,258.32s-8.44-10.11-20.31-6.6c-12.75,3.76-24.72,23.39-24.72,23.39S5,245.41,26.5,242.29C31.05,241.63,45,251.42,46.69,258.32Z"/><path class="cls-10" d="M46.69,258.32s-5.49-11.79-20.85-8.38c-13,2.88-24.18,25.17-24.18,25.17S5,245.41,26.5,242.29C31.05,241.63,45,251.42,46.69,258.32Z"/><path class="cls-9" d="M46.73,258.6s17.93-13.29,22.15-7.13c3.12,3.95,9.89,36.6,9.93,36.92.79.32.92-.29.92-.29s-7.28-36.05-11-38.12c-8.06-4.55-22.3,7.74-22.3,7.74Z"/><path class="cls-10" d="M47.32,257.23s6.36-8.15,7-11c2.32-3.31,14.51-8,18.35-.4,1.77,3.51,4.46,13.2,5.7,22.18,3.49,16.92,1.33,20.12,1.33,20.12s-7.58-36-11.45-38.12C63.64,247.37,49.35,254.88,47.32,257.23Z"/><path class="cls-11" d="M190.59,470.92a48.75,48.75,0,0,1-7.94-.67c-39.19-6.42-41.84-61.92-41.93-64.28l15-.6c0,.45,2.24,45.63,29.36,50.08,28.25,4.63,37.25-26.93,43.48-56.87.75-3.56,1.39-6.65,2-9.23.55-2.16,1.17-5,1.87-8.22,5.5-25.29,16.93-77.9,58.83-87.25,23.32-5.2,37.58,4.56,45.43,13.67,18.64,21.6,26,63.27,11.26,101.65l-4.71,7.17c-6,9.07-20,5-20.23-5.87h0a40.78,40.78,0,0,1,2.22-14c10.83-31,14.08-62.92.1-79.13-7.53-8.73-17.89-11.7-30.81-8.82-32.54,7.26-42.23,51.84-47.43,75.79-.74,3.39-1.37,6.32-2,8.74-.58,2.26-1.19,5.2-1.89,8.59-2.68,12.88-6.35,30.52-14.61,45C217.65,465.85,203,470.92,190.59,470.92Z"/><path class="cls-5" d="M217.63,499.67c-8.36-.34-12.59-1.78-14.73-3.14l-.1.09s-8.94,4.47-3.29,11.05,17.17,14.12,17.17,14.12,4.71,9.88,16.24,9.18-13.41-15.77-13.41-15.77,30.12,10.12,46.59,16.95,19.76,9.17,22.82,3.76c0,0,10.12,2.35,6.82-6.12,0,0,4.94,2.83,3.77-3.06L295,521.56s1.64-3.53-11.3-11.77c-12.21-7.77-55-8.21-56.23-11.6A26.4,26.4,0,0,1,217.63,499.67Z"/><path class="cls-11" d="M335.75,242.4c-.23.44-.45.91-.68,1.39-3,6.47-6.19,16.58-13.68,31.88a126.29,126.29,0,0,1-27.06,36.47L303.27,323c-2.82,2.36-11.29-1.64-11.29-1.64-2.12,5.64,9.88,17.88,9.88,17.88-12,2.12-18.82-9.65-18.82-9.65l4.47,21.65c-5.88-1.41-9.65-8.71-9.65-8.71-12.71-20.47-40-77.17-43.06-84.94-2.59-6.56-4.16-6.57-4.58-6.41a.52.52,0,0,0-.12.06s0,.31,0,.92c.2,5.69,1.14,37.09-1,73.67a465.92,465.92,0,0,1-10.35,73.64s32.94,42.36,34.59,56.95c.75,6.64-3.63,14.95-9,22.4a144.84,144.84,0,0,1-16.63,18.77.61.61,0,0,0-.23.64,26.6,26.6,0,0,1-9.88,1.48c-8.36-.35-12.59-1.78-14.73-3.15.9-.91,8.06-8.89,3.43-30.73-4.94-23.3-26.35-30.12-47.29-35.06-9.81-2.31-18.33-1.48-24.88,1-7.44,2.75-12.34,7.58-13.71,12.21-2.59,8.7,1.41,32.47,14.35,44.23l.14.14,0,0a28.53,28.53,0,0,1-8.65,3.83,32.45,32.45,0,0,1-15.92,1l.86-.25s-4.23-4.47-23.76-21.42S70.1,449.08,70.1,449.08c4.23-27.29,30.35-59.53,30.35-59.53.94-21.64,17.88-58.12,25.41-72s13.41-29.17,12.94-37.17-10.59-12.95-18.35,1.64-27.06,64.24-27.06,64.24c3.76,9.65,1.41,15.06,1.41,15.06l-5.17-6.59a46.65,46.65,0,0,1-4.95,15.06l-3.29-10.12c.24,8.71-7.53,12-7.53,12,3.53-5.88,2.59-10.59,2.59-10.59S51.78,350,39,323c8.33,2.74,14.21-2.64,16.75-5.71,8.12,8.95,18.71.89,18.71.89s16.94-44.82,22.94-63.88,26.47-25.41,26.47-25.41,8.13-4.12,20.12-9.39c26.68-11.73,72.48-29.14,90.3-19.44a14,14,0,0,1,3.58,2.71c20.24,21.41,38.82,71.76,38.82,71.76a93.86,93.86,0,0,0,40-43.76Z"/><path class="cls-12" d="M222.33,208.62s-6.59,45.64-61.17,53.17-56.95-84.7-56.95-84.7L196,170.5S221.39,179.91,222.33,208.62Z"/><path class="cls-5" d="M110.41,493.11c-3.17.9-15.41,4-41.25,6.8,0,0-26.36,4-26.36,16.47,0,0-.7,2.82,3.06,3.06,0,0-8,5.65,2.59,8.23,0,0-1.88,4.24,3.76,5.18,0,0,2.59,1.88,8-1.41,0,0-2.82,8.23,11.77,2.82s56.94-24,56.94-24l-5.41,4.24s-8.47,2.59-11.06,10.59,12.82,5.29,21.18-7.77l7.56-9.12a11,11,0,0,0-.87-14.93c-1.45-1.38-3.21-3-5.33-5a29,29,0,0,1-8.66,3.84A32.45,32.45,0,0,1,110.41,493.11Z"/><path class="cls-5" d="M55.74,317.25A19.87,19.87,0,0,1,53.39,314a11.13,11.13,0,0,0,6.82-9.41A6.69,6.69,0,0,0,66.33,300c1.53-4.59-2.59-7.3-2.59-7.3s4.36-1.76,4.36-6S63.74,281,63.74,281a10.56,10.56,0,0,0,3.53-6.12s.47-2.12-2-3.88c0,0,5.06-.94,5.18-5.77s-3.65-6.35-8.94-6.47l-24-.55A7.75,7.75,0,0,0,29.63,265c-1.1,8.95-1.55,26.06,5.64,48.59A77.29,77.29,0,0,0,39,323C47.33,325.71,53.2,320.33,55.74,317.25Z"/><path class="cls-13" d="M66.33,271S58,268.38,35.1,269.62"/><line class="cls-13" x1="64.39" y1="280.56" x2="36.68" y2="281.44"/><path class="cls-13" d="M64.74,292.73s-18.88-.53-26.82,1.06"/><path class="cls-13" d="M39.33,302.62s6.53-4.06,17.3-3c0,0-5.83.7-2.12,3.88s9.17,0,9.17,0"/><path class="cls-14" d="M104.18,375.73a19,19,0,0,0-.68,4.37c-.31,8.43,1.38,35.85,35.48,44.57,40.47,10.36,50.82-26.82,54.59-59.29,3.31-28.6,6.26-68.15-11.09-87.79a18.79,18.79,0,0,0-21.38-4.91c-7.78,3.32-17.84,11.43-26.83,30.58-17.88,38.12-.47,2.36-.47,2.36S111.76,347.89,104.18,375.73Z"/><path class="cls-13" d="M60.21,533.09s-3.53-1.65,9.18-9.89,21.88-9.41,21.88-9.41"/><path class="cls-13" d="M48.21,528.85s.71-6.12,14.59-12.7S84,508.85,84,508.85"/><path class="cls-13" d="M43.51,522s5.65-11.53,36.23-18.83"/><path class="cls-13" d="M288.92,535.91s.24-7.29-33.18-17.18"/><path class="cls-13" d="M296.45,532.38s1.18-9.18-37.88-19.06"/><path class="cls-13" d="M297.63,524.62s-5.42-8.47-36.95-16.47"/><path class="cls-11" d="M74.45,318.15S84.68,315,87.86,330.5"/><path class="cls-11" d="M276.68,274.5s-7.05-2.24-6.35,21.06"/><path class="cls-15" d="M101.8,380.09s-7.59,22.06,16.77,43.35"/><path class="cls-12" d="M243.37,478.78a38.71,38.71,0,0,0,4.08-21c-1.88-23.06-36.71-54.12-36.71-54.12,8.94-32.47,14.12-102.12,14.59-130.35.33-19.89,2.53-21.8,3.81-21.2.2,5.69,1.14,37.09-1,73.67a465.92,465.92,0,0,1-10.35,73.64s32.94,42.36,34.59,56.95C253.14,463,248.76,471.33,243.37,478.78Z"/><path class="cls-12" d="M133.94,488.28c-.8-.58-13.75-10.3-19.9-33.55-4-15.14,9-20.87,19.12-23-7.44,2.75-12.34,7.58-13.71,12.21-2.59,8.7,1.41,32.47,14.35,44.23Z"/><path class="cls-11" d="M103.51,485.32s8.47,5.88-.71,8.71l10.12-.71a18.36,18.36,0,0,1-4.71,8.47s4.47,1.18,12.24-8l5.18,9.41,4.23-11.29s10.59,6.35,15.3-.94c0,0-5.89,3.76-15.3-8.47"/><path class="cls-11" d="M206.33,490.38s-3.08,7-7.89,7.29H198c-5.06-.11,5.76,4.12,10.94,1.42,0,0-.35,2,1.18,6.82l3.64-6.24s2.83,4.95,10.24,6.12l-2.47-6.35a12,12,0,0,0,13.76,2.82s-11.29-.94-6.11-6.23"/><path class="cls-11" d="M313.63,236.62a38,38,0,0,0,4.47-14.36l1.88,9.18,8.7-11.29-3.52,15.52,14.11-8s-5.88,7.3-7.29,9.89c0,0,10.82-6.12,15.53-4.47a25.49,25.49,0,0,0-14.35,16"/><path class="cls-12" d="M293.72,311.14l8.75,10.6c-2.76,2.31-11.06-1.61-11.06-1.61-2.07,5.53,9.68,17.52,9.68,17.52-11.75,2.08-18.44-9.45-18.44-9.45L287,349.41c-5.76-1.39-9.45-8.54-9.45-8.54-12.45-20.05-39.19-75.6-42.18-83.21-2.54-6.43-4.08-6.43-4.49-6.28-.21-2.89.33-7.08,5.87-4.55,0,0,24.9,55.78,39.64,79.29l5.08-9.68,6.45,8.3.47-11.52V306.3s21.2-8.76,41-61.32l4.19-.8c-3,6.34-6.07,16.24-13.41,31.23A123.73,123.73,0,0,1,293.72,311.14Z"/><path class="cls-11" d="M42.68,330S37,322.2,31.92,317.62c0,0,1.94-.53,5.65,1.41s.7-.36.7-.36l.36-7.41s2.82,4.41,6.88,6.36L48.16,310,51,316.91s1.59-4.41,7.94-5.65c0,0-5.65,5.65.88,9"/><path class="cls-5" d="M92.47,132.6s-29.58-23.81-53.36-14.49-13.77,44.41,9.08,58.08,44.9,15.26,49.34-8.52"/><path class="cls-5" d="M84.52,153.8s-17.87-22-43.53-16.5"/><path class="cls-5" d="M66.53,139.65s-11.66,15.54,10.09,23.66"/><path class="cls-11" d="M124.52,20.56s7.4,18-15.55,33.52S44.08,101.32,75.06,165.56c0,0-26.77,31.52,12.52,74.83,0,0-4.41-22.7-1.6-33.64,0,0-2.77,40.73,30.68,52,0,0-12.11-15.69-5.81-33.2l90.52-5.36s16.25,1.82,12.09,21.92c0,0,19.16-11.08,10.84-37.67,0,0,13.84,1.4,13.32,22.32,0,0,16.36-19.23,8-53.61l6.93,11s18.08-37.41,11.85-70.74-23.92-48.57-45.61-59.3S151.14,43.2,160.6,1.64c0,0-16,9.3-9.13,34.12.06.24.13.49.21.73,0,0-12.81-7.4-13.52-19.76l-3.68,22S133.79,25.19,124.52,20.56Z"/><path class="cls-5" d="M120.22,201.35s-.26-.13-.74-.4c-4.35-2.46-26.76-16.41-37-48-11.36-35.08,2.66-50.45,22.83-54.88s37.8,13,37.8,13,16.69-44,53.42-35.57,47.54,74.58,5.84,123.17Z"/><path class="cls-5" d="M211.36,210.31c3.19,21-21.44,41-41.71,47.23-21.4,6.56-52.51-7.22-63.87-29.45-9.68-18.94,17.1-40.19,47-44.72S208.17,189.28,211.36,210.31Z"/><ellipse class="cls-16" cx="181.86" cy="149.82" rx="19.81" ry="24.3" transform="translate(-16.06 21.96) rotate(-6.62)"/><ellipse class="cls-17" cx="183" cy="147.77" rx="11.54" ry="11.94" transform="translate(-15.81 22.08) rotate(-6.62)"/><ellipse class="cls-18" cx="190.42" cy="142.55" rx="3.11" ry="3.22" transform="translate(-15.16 22.9) rotate(-6.62)"/><ellipse class="cls-16" cx="121.68" cy="162.27" rx="19.81" ry="24.3" transform="translate(-17.9 15.11) rotate(-6.62)"/><ellipse class="cls-17" cx="124.86" cy="159.9" rx="11.54" ry="11.94" transform="translate(-17.6 15.46) rotate(-6.62)"/><ellipse class="cls-18" cx="132.66" cy="153.31" rx="3.11" ry="3.22" transform="translate(-16.79 16.32) rotate(-6.62)"/><path class="cls-17" d="M176.73,107.76s10.41-10,20.62-3.19,9.41,13.63,9.41,13.63,9.85-8.31,0-22.28S176.73,107.76,176.73,107.76Z"/><path class="cls-17" d="M124.93,118.74s-12.92-6.5-20.64,3.07-4.94,15.8-4.94,15.8-11.88-5-6.6-21.27S124.93,118.74,124.93,118.74Z"/><path class="cls-17" d="M168.64,186.22c1,2.89-7.11,4.52-14.69,7s-16.2-1.29-17.15-4.18,7.29-3.38,14.87-5.86S167.7,183.33,168.64,186.22Z"/><path class="cls-19" d="M148.7,195.17a7.48,7.48,0,0,0,7.07-3.26,8.83,8.83,0,0,1,6.68-4.07c5-.27-.6,2-2.46,2.77a.11.11,0,0,0,0,.21c2.4,0,11.08-.55,8.72-5.3C166,180,151,175.09,141.4,182.94c-14.18,11.63,1.7,4.18,3.19,9.15A4.54,4.54,0,0,0,148.7,195.17Z"/><path class="cls-20" d="M126.05,222.67s13.94,9.31,29,7.8,31-13.09,36.27-27.45c0,0,3.41,31-18.86,43s-33-15.5-39-17.7S126.05,222.67,126.05,222.67Z"/><path class="cls-21" d="M139,230.76s9.49,15.05,25.24,12.73,23.37-20.1,22.8-26.44C187.07,217.05,165.12,246.54,139,230.76Z"/><path class="cls-22" d="M137.45,229.51s29.53,12.36,49.84-15.45c0,0,1,17.38-21.6,23.82C165.69,237.88,147.83,243.42,137.45,229.51Z"/><path class="cls-23" d="M151,241s4.48-1.94,8.54-.81a17.46,17.46,0,0,1,13.27-.52S162.05,249,151,241Z"/><path class="cls-24" d="M127.34,217.48s-5.11,4.8-2.51,10C124.83,227.47,117.72,221.66,127.34,217.48Z"/><path class="cls-24" d="M189,198.58s5.57,1.56,7,7C196,205.63,196.74,197.53,189,198.58Z"/><path class="cls-5" d="M242.46,132.49s21.18-31.52,46.65-29.67,26.33,38.33,8.57,58.16-38.35,27.89-49.65,6.5"/><path class="cls-5" d="M256.34,150.38S266.89,124.11,293,121.7"/><path class="cls-5" d="M269.32,131.53s15.75,11.37-2.61,25.58"/><g class="cls-25"><path class="cls-6" d="M31.69,252.51s-8.09-43.66,4.15-46.22c12.06-2.53,21.57,43.51,20.57,52.78C55.72,263.3,34.13,264,34.13,264Z"/><path class="cls-26" d="M36.2,253.17s-12.6-44.32-.36-46.88c12.06-2.53,21.57,43.51,20.57,52.78C55.72,263.3,34.13,264,34.13,264Z"/><path class="cls-3" d="M41.26,303.1c-1.55-5.21-1.9-17.85-4.35-42.76-1.24-12.53-9.64-16.06-10.44-17.66,2.37-1.47,11.41,4.12,15.06,7.75,2.65,2.65,5.2,7.7,5.2,7.7s3.83-6.31,5.15-7.06S56,245.86,56,245.86s3.13,35,3,46.16c-.2,14-5.43,15.37-7.28,17.48-.55,2.22.11,11.11.11,11.11l-4.12-2s1-7.41.73-8.09C47.63,308.93,42.6,307.63,41.26,303.1Z"/><path class="cls-9" d="M46.69,257.85s-8.44-10.11-20.31-6.6C13.63,255,1.66,274.64,1.66,274.64S5,244.94,26.5,241.82C31.05,241.16,45,251,46.69,257.85Z"/><path class="cls-10" d="M46.69,257.85s-5.49-11.79-20.85-8.38c-13,2.88-24.18,25.17-24.18,25.17S5,244.94,26.5,241.82C31.05,241.16,45,251,46.69,257.85Z"/><path class="cls-9" d="M46.73,258.13S64.66,244.84,68.88,251c3.12,3.95,9.89,36.6,9.93,36.92.79.32.92-.29.92-.29s-7.28-36-11-38.12c-8.06-4.55-22.3,7.74-22.3,7.74Z"/><path class="cls-10" d="M47.32,256.76s6.36-8.15,7-11c2.32-3.31,14.51-8,18.35-.4,1.77,3.51,4.46,13.2,5.7,22.18,3.49,16.92,1.33,20.12,1.33,20.12s-7.58-35.95-11.45-38.12C63.64,246.89,49.35,254.41,47.32,256.76Z"/></g></svg>