<svg id="Layer_1" data-name="Layer 1" xmlns="http://www.w3.org/2000/svg" xmlns:xlink="http://www.w3.org/1999/xlink" width="1920" height="900" viewBox="0 0 1920 900">
  <defs>
    <style>
      .cls-1 {
        fill: none;
      }

      .cls-2 {
        clip-path: url(#clip-path);
      }

      .cls-3 {
        stroke: #231f20;
        stroke-miterlimit: 10;
        fill: url(#linear-gradient);
      }

      .cls-4 {
        fill: #5d9301;
      }

      .cls-5 {
        fill: url(#linear-gradient-2);
      }

      .cls-6 {
        fill: #c08872;
      }

      .cls-7 {
        fill: #cd846b;
      }

      .cls-8 {
        fill: #754e33;
      }

      .cls-9 {
        fill: #6dc294;
      }

      .cls-10 {
        fill: url(#linear-gradient-3);
      }

      .cls-11 {
        fill: url(#linear-gradient-4);
      }

      .cls-12 {
        fill: url(#linear-gradient-5);
      }

      .cls-13 {
        fill: url(#linear-gradient-6);
      }

      .cls-14 {
        fill: url(#linear-gradient-7);
      }

      .cls-15 {
        fill: url(#linear-gradient-8);
      }

      .cls-16 {
        fill: url(#linear-gradient-9);
      }

      .cls-17 {
        fill: url(#linear-gradient-10);
      }

      .cls-18 {
        fill: url(#linear-gradient-11);
      }

      .cls-19 {
        fill: #104925;
      }

      .cls-20 {
        fill: url(#linear-gradient-12);
      }

      .cls-21 {
        fill: url(#linear-gradient-13);
      }

      .cls-22 {
        fill: url(#linear-gradient-14);
      }

      .cls-23 {
        fill: #b48274;
      }

      .cls-24 {
        fill: #c98a72;
      }

      .cls-25 {
        fill: url(#linear-gradient-15);
      }

      .cls-26 {
        fill: url(#linear-gradient-16);
      }

      .cls-27 {
        fill: url(#linear-gradient-17);
      }

      .cls-28 {
        fill: url(#linear-gradient-18);
      }

      .cls-29 {
        fill: url(#linear-gradient-19);
      }

      .cls-30 {
        fill: url(#linear-gradient-20);
      }

      .cls-31 {
        fill: url(#linear-gradient-21);
      }

      .cls-32 {
        fill: url(#linear-gradient-22);
      }

      .cls-33 {
        fill: url(#linear-gradient-23);
      }

      .cls-34 {
        fill: url(#linear-gradient-24);
      }

      .cls-35 {
        fill: url(#linear-gradient-25);
      }

      .cls-36 {
        fill: url(#linear-gradient-26);
      }

      .cls-37 {
        fill: url(#linear-gradient-27);
      }

      .cls-38 {
        fill: url(#linear-gradient-28);
      }

      .cls-39 {
        fill: url(#linear-gradient-29);
      }

      .cls-40 {
        fill: url(#linear-gradient-30);
      }

      .cls-41 {
        fill: url(#linear-gradient-31);
      }

      .cls-42 {
        fill: url(#linear-gradient-32);
      }

      .cls-43 {
        fill: #195433;
      }

      .cls-44 {
        fill: #2a7717;
      }

      .cls-45 {
        fill: #51b840;
      }

      .cls-46 {
        fill: url(#linear-gradient-33);
      }

      .cls-47 {
        fill: url(#linear-gradient-34);
      }

      .cls-48 {
        fill: #011904;
      }

      .cls-49 {
        fill: #1d4300;
      }

      .cls-50 {
        fill: #1c3907;
      }

      .cls-51 {
        fill: #474900;
      }

      .cls-52 {
        fill: #163f00;
      }

      .cls-53 {
        fill: url(#linear-gradient-35);
      }

      .cls-54 {
        fill: url(#linear-gradient-36);
      }
    </style>
    <clipPath id="clip-path">
      <rect class="cls-1" width="1920" height="900"/>
    </clipPath>
    <linearGradient id="linear-gradient" x1="1699.96" y1="425.78" x2="-65.94" y2="796.38" gradientTransform="matrix(1, 0, 0, -1, 0, 902)" gradientUnits="userSpaceOnUse">
      <stop offset="0.08" stop-color="#198b9a"/>
      <stop offset="0.46" stop-color="#25828e"/>
      <stop offset="0.91" stop-color="#1e7f8b"/>
    </linearGradient>
    <linearGradient id="linear-gradient-2" x1="459.01" y1="280.35" x2="450.84" y2="698.96" gradientTransform="matrix(1, 0, 0, -1, 0, 902)" gradientUnits="userSpaceOnUse">
      <stop offset="0" stop-color="#8c7d62"/>
      <stop offset="0.29" stop-color="#817c63"/>
      <stop offset="0.78" stop-color="#727b64"/>
    </linearGradient>
    <linearGradient id="linear-gradient-3" x1="437.81" y1="575.03" x2="658.29" y2="1117.59" gradientTransform="matrix(1, 0, 0, -1, 0, 902)" gradientUnits="userSpaceOnUse">
      <stop offset="0.22" stop-color="#4fbd9c"/>
      <stop offset="0.34" stop-color="#5abf9d"/>
      <stop offset="0.49" stop-color="#62c19d"/>
    </linearGradient>
    <linearGradient id="linear-gradient-4" x1="863.01" y1="792.95" x2="649.58" y2="499.86" gradientTransform="matrix(1, 0, 0, -1, 0, 902)" gradientUnits="userSpaceOnUse">
      <stop offset="0.3" stop-color="#42b9b8"/>
      <stop offset="0.67" stop-color="#4bacaf"/>
    </linearGradient>
    <linearGradient id="linear-gradient-5" x1="30.98" y1="479.1" x2="380.83" y2="810.44" gradientTransform="matrix(1, 0, 0, -1, 0, 902)" gradientUnits="userSpaceOnUse">
      <stop offset="0.29" stop-color="#2d84a8"/>
      <stop offset="0.46" stop-color="#3698ad"/>
      <stop offset="0.67" stop-color="#43b7b5"/>
    </linearGradient>
    <linearGradient id="linear-gradient-6" x1="260.36" y1="700.92" x2="255.91" y2="928.74" gradientTransform="matrix(1, 0, 0, -1, 0, 902)" gradientUnits="userSpaceOnUse">
      <stop offset="0.18" stop-color="#64c08d"/>
      <stop offset="0.6" stop-color="#62c091"/>
    </linearGradient>
    <linearGradient id="linear-gradient-7" x1="458.24" y1="544.53" x2="608.38" y2="898.71" gradientTransform="matrix(1, 0, 0, -1, 0, 902)" gradientUnits="userSpaceOnUse">
      <stop offset="0.09" stop-color="#2caa95"/>
      <stop offset="0.35" stop-color="#43b49f"/>
      <stop offset="0.68" stop-color="#65c3af"/>
    </linearGradient>
    <linearGradient id="linear-gradient-8" x1="185.1" y1="115.75" x2="688.85" y2="795.49" gradientTransform="matrix(1, 0, 0, -1, 0, 902)" gradientUnits="userSpaceOnUse">
      <stop offset="0.16" stop-color="#0c6147"/>
      <stop offset="0.26" stop-color="#137b59"/>
      <stop offset="0.4" stop-color="#1c9b6f"/>
      <stop offset="0.52" stop-color="#21ae7d"/>
      <stop offset="0.6" stop-color="#23b582"/>
    </linearGradient>
    <linearGradient id="linear-gradient-9" x1="793.52" y1="284.66" x2="815.25" y2="401.9" gradientTransform="matrix(1, 0, 0, -1, 0, 902)" gradientUnits="userSpaceOnUse">
      <stop offset="0.18" stop-color="#45ac66"/>
      <stop offset="0.25" stop-color="#52b26f"/>
      <stop offset="0.4" stop-color="#6abd7e"/>
      <stop offset="0.54" stop-color="#78c488"/>
      <stop offset="0.65" stop-color="#7dc68b"/>
    </linearGradient>
    <linearGradient id="linear-gradient-10" x1="130.64" y1="294.48" x2="153.94" y2="420.23" xlink:href="#linear-gradient-9"/>
    <linearGradient id="linear-gradient-11" x1="1266.31" y1="302.46" x2="1286.27" y2="410.15" xlink:href="#linear-gradient-9"/>
    <linearGradient id="linear-gradient-12" x1="168.97" y1="778.71" x2="378.32" y2="778.71" gradientTransform="matrix(1.22, 0.17, 0.14, -0.99, -147.48, 793.07)" xlink:href="#linear-gradient-5"/>
    <linearGradient id="linear-gradient-13" x1="229.01" y1="772.79" x2="438.36" y2="772.79" gradientTransform="matrix(1.22, 0.17, 0.14, -0.99, -147.48, 793.07)" gradientUnits="userSpaceOnUse">
      <stop offset="0.09" stop-color="#38b185"/>
      <stop offset="0.31" stop-color="#4fb889"/>
      <stop offset="0.68" stop-color="#7dc792"/>
    </linearGradient>
    <linearGradient id="linear-gradient-14" x1="803.43" y1="256.23" x2="794.04" y2="737.06" gradientTransform="matrix(1, 0, 0, -1, 0, 902)" gradientUnits="userSpaceOnUse">
      <stop offset="0" stop-color="#877e62"/>
      <stop offset="0.28" stop-color="#7c7c63"/>
      <stop offset="0.76" stop-color="#6d7a65"/>
    </linearGradient>
    <linearGradient id="linear-gradient-15" x1="777.82" y1="603.8" x2="1024.17" y2="1210" gradientTransform="matrix(1, 0, 0, -1, 0, 902)" gradientUnits="userSpaceOnUse">
      <stop offset="0.22" stop-color="#2ab16f"/>
      <stop offset="0.32" stop-color="#43b880"/>
      <stop offset="0.42" stop-color="#5abe8f"/>
      <stop offset="0.49" stop-color="#62c094"/>
    </linearGradient>
    <linearGradient id="linear-gradient-16" x1="1240.69" y1="842.07" x2="1002.01" y2="514.3" gradientTransform="matrix(1, 0, 0, -1, 0, 902)" gradientUnits="userSpaceOnUse">
      <stop offset="0.3" stop-color="#52b77c"/>
      <stop offset="0.67" stop-color="#50b477"/>
    </linearGradient>
    <linearGradient id="linear-gradient-17" x1="493.34" y1="642.07" x2="659.49" y2="799.44" gradientTransform="matrix(1, 0, 0, -1, 0, 902)" gradientUnits="userSpaceOnUse">
      <stop offset="0.23" stop-color="#2bac75"/>
      <stop offset="0.55" stop-color="#2bad78"/>
      <stop offset="0.75" stop-color="#2cb280"/>
      <stop offset="0.89" stop-color="#2cb78b"/>
    </linearGradient>
    <linearGradient id="linear-gradient-18" x1="589.69" y1="739.76" x2="584.57" y2="1001.72" gradientTransform="matrix(1, 0, 0, -1, 0, 902)" gradientUnits="userSpaceOnUse">
      <stop offset="0.18" stop-color="#64c092"/>
      <stop offset="0.61" stop-color="#65c090"/>
    </linearGradient>
    <linearGradient id="linear-gradient-19" x1="801.15" y1="566.07" x2="969.14" y2="962.34" gradientTransform="matrix(1, 0, 0, -1, 0, 902)" xlink:href="#linear-gradient-13"/>
    <linearGradient id="linear-gradient-20" x1="482" y1="637.83" x2="1042.11" y2="637.83" xlink:href="#linear-gradient-17"/>
    <linearGradient id="linear-gradient-21" x1="89.74" y1="651.83" x2="649.85" y2="651.83" xlink:href="#linear-gradient-17"/>
    <linearGradient id="linear-gradient-22" x1="575.98" y1="700.75" x2="785.44" y2="700.75" gradientTransform="matrix(0.99, 0.14, 0.14, -0.99, -107.42, 798.76)" xlink:href="#linear-gradient-13"/>
    <linearGradient id="linear-gradient-23" x1="1407.21" y1="671.68" x2="1417.63" y2="493.05" xlink:href="#linear-gradient-7"/>
    <linearGradient id="linear-gradient-24" x1="1205.04" y1="233.97" x2="1195.69" y2="713.07" gradientTransform="matrix(1, 0, 0, -1, 0, 902)" gradientUnits="userSpaceOnUse">
      <stop offset="0" stop-color="#907d62"/>
      <stop offset="0.25" stop-color="#877d63"/>
      <stop offset="0.76" stop-color="#787c65"/>
    </linearGradient>
    <linearGradient id="linear-gradient-25" x1="1181.89" y1="562.55" x2="1441.01" y2="1200.18" xlink:href="#linear-gradient-3"/>
    <linearGradient id="linear-gradient-26" x1="1693.14" y1="823.59" x2="1442.54" y2="479.46" xlink:href="#linear-gradient-4"/>
    <linearGradient id="linear-gradient-27" x1="858.07" y1="610.48" x2="1038.2" y2="781.09" gradientTransform="matrix(1, 0, 0, -1, 0, 902)" gradientUnits="userSpaceOnUse">
      <stop offset="0.23" stop-color="#2dab76"/>
      <stop offset="0.54" stop-color="#2fac79"/>
      <stop offset="0.74" stop-color="#35b181"/>
      <stop offset="0.88" stop-color="#3db88d"/>
    </linearGradient>
    <linearGradient id="linear-gradient-28" x1="963.92" y1="714.89" x2="958.84" y2="975.38" xlink:href="#linear-gradient-6"/>
    <linearGradient id="linear-gradient-29" x1="1205.47" y1="530.19" x2="1381.75" y2="946.03" xlink:href="#linear-gradient-7"/>
    <linearGradient id="linear-gradient-30" x1="1442.19" y1="780.22" x2="1577.15" y2="962.34" gradientTransform="matrix(0.88, 0.64, -0.63, 0.87, 431.46, -1352.69)" xlink:href="#linear-gradient-7"/>
    <linearGradient id="linear-gradient-31" x1="1611.69" y1="684.15" x2="1719.67" y2="829.85" gradientTransform="matrix(0.88, 0.64, -0.63, 0.87, 431.46, -1352.69)" gradientUnits="userSpaceOnUse">
      <stop offset="0" stop-color="#4ab7a3"/>
      <stop offset="0.15" stop-color="#2caa95"/>
      <stop offset="0.35" stop-color="#43b49f"/>
      <stop offset="0.68" stop-color="#65c3af"/>
    </linearGradient>
    <linearGradient id="linear-gradient-32" x1="907.91" y1="69.4" x2="1578.96" y2="974.88" gradientTransform="translate(2571.71 902) rotate(180)" xlink:href="#linear-gradient-8"/>
    <linearGradient id="linear-gradient-33" x1="400.31" y1="260.73" x2="143.26" y2="261.22" gradientTransform="matrix(1, 0, 0, -1, 0, 902)" gradientUnits="userSpaceOnUse">
      <stop offset="0.18" stop-color="#a46529"/>
      <stop offset="0.21" stop-color="#9d6128"/>
      <stop offset="0.38" stop-color="#7c4c22"/>
      <stop offset="0.55" stop-color="#643e1d"/>
      <stop offset="0.7" stop-color="#56351b"/>
      <stop offset="0.83" stop-color="#51321a"/>
    </linearGradient>
    <linearGradient id="linear-gradient-34" x1="488.7" y1="237.16" x2="342.08" y2="237.44" xlink:href="#linear-gradient-33"/>
    <linearGradient id="linear-gradient-35" x1="727.74" y1="133.82" x2="1030.01" y2="541.68" gradientTransform="matrix(1, 0, 0, -1, 0, 902)" gradientUnits="userSpaceOnUse">
      <stop offset="0.17" stop-color="#24b174"/>
      <stop offset="0.31" stop-color="#3ab575"/>
      <stop offset="0.48" stop-color="#4dba76"/>
      <stop offset="0.6" stop-color="#54bb76"/>
    </linearGradient>
    <linearGradient id="linear-gradient-36" x1="766.33" y1="220.17" x2="841.22" y2="624.28" gradientTransform="matrix(1, 0.03, 0.03, -1, -12.34, 878.19)" gradientUnits="userSpaceOnUse">
      <stop offset="0" stop-color="#43b555"/>
      <stop offset="0.03" stop-color="#40b255"/>
      <stop offset="0.27" stop-color="#289b52"/>
      <stop offset="0.49" stop-color="#1a8e50"/>
      <stop offset="0.68" stop-color="#15894f"/>
    </linearGradient>
  </defs>
  <g id="f69b0659-7a62-42ec-885c-aaeba208091c">
    <g class="cls-2">
      <g>
        <rect class="cls-3" x="-12.18" y="-41.66" width="1941.88" height="724.66"/>
        <rect class="cls-4" x="-32.06" y="542.98" width="1974.71" height="366.54"/>
        <g>
          <path class="cls-5" d="M601.71,595.43c.32-.92-2.23-2.4-4.4-5.91a23.87,23.87,0,0,1-2.93-8c-1.91-8.42-9.33-18.61-11.78-22.37-7.78-11.95-11.44-29.87-17.53-59.6a497.42,497.42,0,0,1-7.67-51.1c-.44-29.66,3.17-52,10.61-64.91a367.85,367.85,0,0,0,21.22-44s43.69,2.23,47.43,0,14.36-12.89,12.49-40.39l.62-6.62-11.23,3.55s-3.46,24.67-17.85,26.58c-17.15,2.67-36.76-9.21-33.89-26.58H574.33s3.84,50.66-15,61.36c-14.07,4.2-22.38-2.45-21.74-32.11l.63-29.65H515.84s1.28,31.52,0,33.43-11.19,21.41-21.74-18.72c-9-28.29-3.83-14.66-3.83-14.66l-12.15.31s5.43,31.16,23.34,50.66c11.83,18.72,12.15,50.06,3.19,61.15-9.59,11.08-25.89,17.2-38.36-48.54C458,315.74,455.73,296,455.73,296l-17.26-.22s7,52,5.75,61.2c-1.59,10.31-2.23,42-40,28.66-19.59-3.26-58.81-14.94-75.14-50.07-6.07-29.81-4.79-41.28-4.79-41.28L310.24,294s.32,17.23,3.2,21.82a41,41,0,0,1-25.1-6.22c-14.48-9-20.33-24.32-21.9-28.86l-11.28-.52a78.21,78.21,0,0,0,11.38,22.48c11.12,15,26.59,23.35,37.94,25.35,2.26.4,11.21,1.76,11.18,2.18,0,.11-.63.11-.63.11s2.88,45.1,48,65.74c40.29,18,57.87,27.14,68.11,34.4s17.26,14.9,15.66,39.75a232.52,232.52,0,0,0,2.88,59.43,216.87,216.87,0,0,0,22.06,64c34.62,1.29,56.85,1.42,71.11,1.26,28.58-.31,44.86-2,53.42.38C596.27,595.28,601.29,596.67,601.71,595.43Z"/>
          <path class="cls-6" d="M556.8,442a93.81,93.81,0,0,0-27.15,28.67c-30.6,50.05-9.78,115.86-7.41,123L603,595.42a304.24,304.24,0,0,1-15.53-29.33C566.26,520.21,559.06,475.38,556.8,442Z"/>
          <path class="cls-7" d="M463.67,347.3s15,66.28,26.71,65.8C478.24,419.87,455.57,401.49,463.67,347.3Z"/>
          <path class="cls-8" d="M547.44,521.71a20.2,20.2,0,0,1-4.64.59,8,8,0,0,1-4.51-1.12,3.86,3.86,0,0,1-1.46-1.85,5.33,5.33,0,0,1-.3-2.34,14.4,14.4,0,0,1,1.21-4.55,34.14,34.14,0,0,1,4.84-8,29.88,29.88,0,0,1,3.18-3.47,21.78,21.78,0,0,1,3.74-2.88,7.56,7.56,0,0,1,4.57-1.26,4.17,4.17,0,0,1,2.24,1c.28.29.58.58.83.89a10.79,10.79,0,0,1,.66,1,22.54,22.54,0,0,1,2.08,9.17,65.72,65.72,0,0,1-2.21,18.62h0a70.74,70.74,0,0,1-5.36,8.88,40.52,40.52,0,0,1-7,7.68,15.59,15.59,0,0,1-4.54,2.62,6.41,6.41,0,0,1-1.29.32,4.3,4.3,0,0,1-1.34.06,3.91,3.91,0,0,1-.68-.06l-.65-.2a2.44,2.44,0,0,1-.63-.25,3.47,3.47,0,0,1-.59-.34,10.28,10.28,0,0,1-3.22-4.13,27.56,27.56,0,0,1-1.71-4.92A73.22,73.22,0,0,1,529,516.61l.77-20.65-.43,20.66a72.92,72.92,0,0,0,1.76,20.46,27.53,27.53,0,0,0,1.71,4.81,9.83,9.83,0,0,0,3.07,3.92,5.31,5.31,0,0,0,4.72.38,15.3,15.3,0,0,0,4.34-2.55,39.53,39.53,0,0,0,6.84-7.6,77.91,77.91,0,0,0,5.3-8.81v.07a64.45,64.45,0,0,0,2.3-18.43,22.19,22.19,0,0,0-2-9c-.19-.32-.41-.63-.62-.95a7.39,7.39,0,0,0-.75-.83,3.89,3.89,0,0,0-2-.87,7.17,7.17,0,0,0-4.29,1.18,26.82,26.82,0,0,0-6.84,6.21,35.78,35.78,0,0,0-4.86,7.92,14.29,14.29,0,0,0-1.26,4.44,4.24,4.24,0,0,0,1.62,4,7.91,7.91,0,0,0,4.42,1.17A19.52,19.52,0,0,0,547.44,521.71Z"/>
          <path class="cls-9" d="M239,148.22c3.48-28.58,12.63-71.73,40.17-107C353.53-54,496-9.67,541.58,4.55,654.1,39.66,727,123.84,762.74,172.84l17.72,15.72a1300.22,1300.22,0,0,1-282.75,26.85,1301.52,1301.52,0,0,1-246-27.31Z"/>
          <path class="cls-10" d="M240,146.63c3.44-27.52,12.5-69.06,39.75-103,73.62-91.67,214.6-49,259.7-35.32,111.34,33.8,183.5,114.84,218.85,162l17.53,15.13A1321.63,1321.63,0,0,1,496,211.31,1323.35,1323.35,0,0,1,252.53,185Z"/>
          <path class="cls-9" d="M700,162.62s103-26.69,148.69,54.59c29.74,63.08,35,83.54-148.69,72.1C668.91,188.3,700,162.62,700,162.62Z"/>
          <path class="cls-11" d="M702.65,165s100.07-27.13,144.43,55.49c28.88,64.13,34,84.92-144.43,73.29C672.48,191.09,702.65,165,702.65,165Z"/>
          <path class="cls-9" d="M261.47,278.47c-3.1,0-93.17-7.15-93.17-7.15s-55.91-13.1-23.81-45.28a55.74,55.74,0,0,0,20.29-19.51c6.39-10.54,4.68-15.7,8.76-25.4,12.92-30.73,56.25-41.19,56.25-41.19h0S288.55,126.39,332.28,153c4.87,3,7.27,4.57,9.13,7.33,20.22,30.11-42.67,118.15-42.67,118.15Z"/>
          <path class="cls-12" d="M260.72,280.54c-3,0-90-7.18-90-7.18s-54-13.14-23-45.42a54.55,54.55,0,0,0,19.6-19.57c6.18-10.57,4.53-15.75,8.47-25.48,12.47-30.82,54.33-41.31,54.32-41.31h0s56.76-13.6,99,13.09c4.71,3,7,4.58,8.82,7.35,19.53,30.2-41.22,118.52-41.22,118.52Z"/>
          <path class="cls-9" d="M215.78,102.3s8.51-22.48,67.06-11.06c54.29,14,12.77,49.5-33.53,41.88S208,110.12,215.78,102.3Z"/>
          <path class="cls-13" d="M216.11,103.76s8.25-21.84,65-10.74c52.61,13.56,12.38,48.09-32.5,40.69S208.6,111.36,216.11,103.76Z"/>
          <path class="cls-9" d="M266.29,197.2s51.26-48.15,105-67C430,101.85,507.7,38.59,602,67.86c72.75,27.38,127.32,65.14,159.56,135,15.71,40.6,18.19,89.69-101.69,83.08l-334,.6S195.19,275.57,266.29,197.2Z"/>
          <path class="cls-14" d="M261.4,204.42s51.85-48.95,106.21-68.15C427,107.48,505.61,43.17,601,72.92c73.6,27.84,128.8,66.23,161.42,137.26,15.89,41.27,18.4,91.18-102.87,84.46l-337.89.62S189.47,284.09,261.4,204.42Z"/>
          <path class="cls-7" d="M649.77,296.83s1.6,28.58-9.64,39.68c-3.35,3.88-6,3.78-10,3.88,0,0,11.19-4.36,14-18.92A162.22,162.22,0,0,0,647,295.93h2.76Z"/>
          <path class="cls-7" d="M538.2,295.67c-.44,5-.66,22.42-.48,25.81.77,14.85,1.65,31.77,9.72,36.14a9.37,9.37,0,0,0,6,.91l3-.41c-3.75,5.54-7.11,6-8.19,6.07-6.67.37-14.47-10-16.37-26.65a120.49,120.49,0,0,1-1.35-24c.31-6.65,1.42-17.91,1.42-17.91h6.15Z"/>
        </g>
        <path class="cls-15" d="M-33.12,331.63s49.3-49.19,106.06,0c14.94-99.71,118-50.52,137.44,10.63,67.22-58.49,141.91,10.64,121,53.18,73.2-30.58,143.41,44.23,118,81.94,79.17-40.73,83.66,63,83.66,63,91.12-22.6,131.45,43,109.05,70.47,0,0,112-6.65,183.74,51.85l3,4H1.24Z"/>
        <path class="cls-16" d="M787.43,606.46s-5.22-14.66-19.12-18.13c0,0,12.16-7.07,25.2,9.07l-20-26.45s20,.75,26.94,17.76c31.29-20.37,31.29-12.55,31.29-12.55q-4.31,4.55-8.69,9.56-6.59,7.53-12.17,14.78c-9.56,6.08,0,6,0,6Z"/>
        <path class="cls-17" d="M144.23,599.58s-63.89-24.94-43.92-29.5,53.24,29.5,53.24,29.5S107.09,550.87,125,553.53s35.2,46.05,35.2,46.05-17.3-33,6.66-35.52,0,35.52,0,35.52Z"/>
        <path class="cls-18" d="M1271.51,591.55c-2.61-1.62-48.67-19-33.89-25.09s40.84,25.09,40.84,25.09-18.25-23.35-14.77-35.52,20.86,35.52,20.86,35.52.87-27,19.12-29.5-10.43,29.5-10.43,29.5Z"/>
        <path class="cls-19" d="M-74.35,638.09s14.25-72.81,109.22-52.23c-6.33-57,80.73-61.68,109.22-39.55-6.33-61.76,74.4-37.21,90.23-12.29,28.49-41.55,104.47,13.85,72.81,48.67,68.07-36.41,96.56,30.08,96.56,30.08,55.41-31.66,104.48,25.32,104.48,25.32Z"/>
        <path class="cls-20" d="M166.44,140.62c1.23,1.07,54.73,52.34,108.65,20.43,0,0,8.22-11.31-26.08-24.38,0,0,84.18-9.08,13.71-34.42,0,0,17.71-6.75,5.21-14.94,0,0,99.75,20.94,46.77-25.08,0,0,15.18.19,11.48-11,0,0,104.13,19.61,46.95-21.67,0,0,70,10,40.92-27.34,0,0,42.72,11.06,11.61-15.82,0,0-94.29-50.82-81.85,13.68,0,0-77-32-62.16,27.89,0,0-116.39-1.08-44.27,45.76,0,0-101.84-19.7-45,44C192.33,117.68,136.35,114.48,166.44,140.62Z"/>
        <path class="cls-21" d="M239.15,156.76c1.22,1.06,54.73,52.33,108.64,20.42,0,0,8.22-11.31-26.08-24.38,0,0,84.18-9.07,13.71-34.41,0,0,17.71-6.75,5.21-15,0,0,99.75,21,46.77-25.08,0,0,15.18.2,11.49-11,0,0,104.13,19.6,46.94-21.68,0,0,70,10,40.92-27.34,0,0,42.72,11.06,11.61-15.81,0,0-94.29-50.83-81.85,13.68,0,0-77-32-62.16,27.89,0,0-116.38-1.09-44.27,45.75,0,0-101.84-19.69-45,44C265,133.82,209.06,130.62,239.15,156.76Z"/>
        <g>
          <path class="cls-22" d="M956.23,615.87c.34-1.06-2.4-2.75-4.74-6.79a28.64,28.64,0,0,1-3.14-9.21c-2.06-9.68-10-21.4-12.65-25.72-8.36-13.75-12.29-34.36-18.83-68.56-2.83-14.84-6-34.77-8.24-58.77C908.16,412.7,912,387,920,372.15a438.56,438.56,0,0,0,22.79-50.63s46.93,2.58,51,0,15.42-14.81,13.41-46.45l.67-7.61-12.07,4.08s-3.71,28.37-19.16,30.57c-18.44,3.08-39.5-10.59-36.41-30.57H926.82s4.12,58.26-16.14,70.57c-15.11,4.84-24-2.81-23.36-36.92l.69-34.12-24,.05s1.37,36.26,0,38.46S852,334.2,840.62,288c-9.62-32.53-4.13-16.86-4.13-16.86l-13,.36s5.84,35.84,25.08,58.26c12.7,21.55,13,57.59,3.43,70.34-10.3,12.75-27.82,19.79-41.21-55.83-8.93-50.12-11.34-72.77-11.34-72.77l-18.54-.25s7.55,59.83,6.18,70.38c-1.72,11.87-2.4,48.36-42.93,33-21-3.75-63.17-17.19-80.71-57.59-6.52-34.3-5.15-47.48-5.15-47.48l-15.1-.48s.34,19.82,3.43,25.09a41.63,41.63,0,0,1-27-7.15c-15.55-10.39-21.84-28-23.53-33.19l-12.11-.6A92.39,92.39,0,0,0,596.2,279.1c11.95,17.31,28.57,26.9,40.8,29.16,2.43.46,12,2,12,2.51,0,.13-.67.13-.67.13s3.09,51.88,51.52,75.62C743.08,407.18,762,417.73,773,426.08s18.55,17.15,16.83,45.72a285,285,0,0,0,3.09,68.36,261.13,261.13,0,0,0,23.7,73.64c37.18,1.49,61.06,1.63,76.37,1.45,30.71-.36,48.19-2.28,57.38.44C950.38,615.71,955.77,617.3,956.23,615.87Z"/>
          <path class="cls-23" d="M908,439.38a105.06,105.06,0,0,0-29.15,33c-32.87,57.57-10.51,133.27-8,141.49l86.78,2a361.84,361.84,0,0,1-16.7-33.73C918.15,529.35,910.41,477.79,908,439.38Z"/>
          <path class="cls-24" d="M808,330.47s16,76.23,28.64,75.68C823.6,413.94,799.25,392.79,808,330.47Z"/>
          <path class="cls-8" d="M897.93,531.08a19.49,19.49,0,0,1-5.21.66,7.57,7.57,0,0,1-5-1.56,4.42,4.42,0,0,1-1.35-2.27,7.62,7.62,0,0,1-.16-2.65,18.36,18.36,0,0,1,1.38-5.1,40.61,40.61,0,0,1,5.22-9.17,28.92,28.92,0,0,1,7.62-7.3,7,7,0,0,1,5.18-1.15,4.68,4.68,0,0,1,2.27,1.51,9.39,9.39,0,0,1,1.42,2.3,29.28,29.28,0,0,1,2,10.38,80.39,80.39,0,0,1-2.41,20.95v.06A80.15,80.15,0,0,1,903.1,548a44.42,44.42,0,0,1-7.64,8.94,15.22,15.22,0,0,1-5.09,3,6.5,6.5,0,0,1-3,.26,5.6,5.6,0,0,1-2.71-1.37,13.54,13.54,0,0,1-3.19-5,35.81,35.81,0,0,1-1.71-5.63,91.91,91.91,0,0,1-1.62-23.35l.8-23.41-.46,23.42a92,92,0,0,0,1.73,23.24,36,36,0,0,0,1.71,5.55,13,13,0,0,0,3.09,4.77,5,5,0,0,0,2.45,1.24,6.15,6.15,0,0,0,2.76-.25,14.81,14.81,0,0,0,4.89-2.95,44,44,0,0,0,7.47-8.85,88.12,88.12,0,0,0,5.72-10.16v.07a79.56,79.56,0,0,0,2.49-20.78,28.91,28.91,0,0,0-1.86-10.2c-.69-1.54-1.74-3.1-3.37-3.56a6.52,6.52,0,0,0-4.83,1.08,28.35,28.35,0,0,0-7.53,7.16,41.1,41.1,0,0,0-5.24,9,18.14,18.14,0,0,0-1.44,5,7.46,7.46,0,0,0,.12,2.58A4.32,4.32,0,0,0,887.9,530a7.53,7.53,0,0,0,4.86,1.59A20,20,0,0,0,897.93,531.08Z"/>
          <path class="cls-9" d="M566.58,101.48C570.32,68.6,580.15,19,609.73-21.58c79.91-109.53,232.95-58.56,281.9-42.2,120.86,40.39,199.19,137.21,237.56,193.57l19,18.09a1307.94,1307.94,0,0,1-303.71,30.88,1310.37,1310.37,0,0,1-264.29-31.41Z"/>
          <path class="cls-25" d="M567.65,99.64c3.7-31.65,13.43-79.43,42.7-118.46,79.08-105.44,230.51-56.37,279-40.62,119.59,38.87,197.1,132.09,235.07,186.34l18.84,17.41A1329.27,1329.27,0,0,1,842.68,174a1330.54,1330.54,0,0,1-261.52-30.2Z"/>
          <path class="cls-9" d="M1061.77,118s110.67-30.7,159.73,62.8c31.94,72.56,37.65,96.09-159.73,82.93C1028.4,147.58,1061.77,118,1061.77,118Z"/>
          <path class="cls-26" d="M1064.65,120.75s107.48-31.21,155.13,63.83c31,73.76,36.57,97.68-155.13,84.3C1032.24,150.79,1064.65,120.75,1064.65,120.75Z"/>
          <path class="cls-9" d="M590.76,251.3c-3.34,0-100.08-8.23-100.08-8.23S430.63,228,465.1,191a61.71,61.71,0,0,0,21.8-22.44c6.87-12.12,5-18.07,9.41-29.23C510.19,104,556.73,92,556.73,92h0s63.12-15.59,110.09,15c5.23,3.41,7.81,5.26,9.8,8.43C698.35,150,630.79,251.3,630.79,251.3Z"/>
          <path class="cls-27" d="M590,253.67c-3.22,0-96.67-8.25-96.67-8.25s-58-15.12-24.7-52.24a60.69,60.69,0,0,0,21.05-22.52c6.63-12.15,4.86-18.11,9.09-29.31,13.4-35.44,58.36-47.51,58.36-47.51h0s61-15.64,106.33,15c5.06,3.42,7.55,5.27,9.47,8.46,21,34.73-44.27,136.32-44.27,136.32Z"/>
          <path class="cls-9" d="M541.68,48.66s9.14-25.86,72-12.72C672,52,627.43,92.87,577.69,84.11S533.36,57.65,541.68,48.66Z"/>
          <path class="cls-28" d="M542,50.34S550.9,25.21,611.84,38c56.52,15.6,13.3,55.32-34.9,46.81S534,59.07,542,50.34Z"/>
          <path class="cls-9" d="M595.94,157.82s55-55.39,112.78-77.11C771.77,48.13,855.24-24.63,956.48,9c78.15,31.49,136.76,74.93,171.39,155.29,16.88,46.7,19.54,103.17-109.23,95.57l-358.77.69S519.56,248,595.94,157.82Z"/>
          <path class="cls-29" d="M590.68,166.12s55.7-56.31,114.09-78.39C768.55,54.61,853-19.36,955.41,14.87c79.06,32,138.35,76.18,173.38,157.87,17.07,47.48,19.77,104.89-110.49,97.16l-362.94.7S513.42,257.75,590.68,166.12Z"/>
          <path class="cls-7" d="M1007.85,272.41s1.72,32.87-10.36,45.64c-3.6,4.47-6.45,4.35-10.76,4.47,0,0,12-5,15-21.77a199.77,199.77,0,0,0,3.14-29.37h3Z"/>
          <path class="cls-7" d="M888,271.07c-.48,5.76-.71,25.8-.52,29.7.83,17.08,1.77,36.54,10.44,41.56a9.44,9.44,0,0,0,6.5,1.05l3.28-.47c-4,6.38-7.64,6.92-8.8,7-7.17.42-15.55-11.48-17.59-30.66a149.45,149.45,0,0,1-1.44-27.56c.33-7.65,1.52-20.61,1.52-20.61H888Z"/>
        </g>
        <path class="cls-30" d="M482,277s34.16,92.38,95.36,17.64c0,0,18.71,58.44,89.31,11.68,0,0,65.37,38.52,100.43-6.81,0,0,10.82,102.82,81.18,5.82,0,0,52.53,47.14,93.14-7.17,0,0-26.7,44.93,25.35,20,0,0,44.37,13.64,43.87-29.46,0,0,79.15-52.18-13.58-42.18,0,0-32.76-73.61-104.57,6,0,0-8.3-15.5-31.62-5.76,0,0-5-81.06-46.11-13.59,0,0-12.49,8.72-34.52,2.26,0,0-22.2-39.43-39.42,12.68,0,0-95.92-68.52-98.07-66.72s-37.81,25.45-43.18,38.91S482,277,482,277Z"/>
        <path class="cls-31" d="M89.74,263s34.16,92.38,95.35,17.64c0,0,18.72,58.44,89.31,11.68,0,0,65.37,38.52,100.43-6.81,0,0,10.83,102.82,81.19,5.82,0,0,52.52,47.14,93.14-7.16,0,0-26.71,44.93,25.35,20,0,0,44.37,13.64,43.87-29.46,0,0,79.14-52.18-13.58-42.18,0,0-32.77-73.61-104.58,6,0,0-8.3-15.49-31.61-5.76,0,0-5-81.06-46.11-13.59,0,0-12.5,8.72-34.52,2.26,0,0-22.2-39.43-39.43,12.68,0,0-95.91-68.52-98.07-66.72s-31.92,48-43.17,38.91C110.3,127.66,89.74,263,89.74,263Z"/>
        <path class="cls-32" d="M556.94,275.31c1,1,43.06,50.68,87.71,17.45,0,0,7-11.48-20.53-23.59,0,0,68.62-11.28,12-34.65,0,0,14.57-7.2,4.63-15,0,0,80.47,18.21,38.66-26.23,0,0,12.33-.21,9.63-11.29,0,0,84.06,16.76,38.71-22.84,0,0,56.61,8,34-28.33,0,0,34.41,9.88,9.85-16.06,0,0-75.24-48.12-66.85,15.81,0,0-61.72-29.8-51.24,29.44,0,0-94.52,2-37.18,46.76,0,0-82.21-16.9-37.77,45C578.58,251.77,533.19,250.08,556.94,275.31Z"/>
        <path class="cls-33" d="M1232.86,288.79s.71-.67,2-1.78c8.86-7.63,45-36.34,69.24-18.69,0,0,5.18-21.65,64-9.41,0,0,65.86-62.62,113.63-16,0,0,105-18.11,69.24,34.44,0,0,71.41-1.71,17.68,45.46,0,0-102.2-44.58-159.61-30.46Z"/>
        <g>
          <g>
            <path class="cls-34" d="M1379,637.82c.38-1.06-2.71-2.74-5.36-6.75a26,26,0,0,1-3.55-9.15c-2.33-9.63-11.35-21.27-14.33-25.57-9.45-13.65-13.91-34.14-21.3-68.12a531.21,531.21,0,0,1-9.33-58.4c-.54-33.9,3.85-59.45,12.9-74.19a409.23,409.23,0,0,0,25.79-50.32s53.12,2.56,57.67,0,17.45-14.72,15.17-46.16l.76-7.56-13.65,4s-4.2,28.2-21.7,30.38c-20.86,3.06-44.7-10.52-41.2-30.38h-15.16s4.67,57.9-18.26,70.13c-17.11,4.81-27.21-2.79-26.44-36.69l.78-33.9-27.21.05s1.56,36,0,38.22S1261,357.87,1248.15,312c-10.88-32.33-4.66-16.75-4.66-16.75l-14.77.35s6.61,35.62,28.37,57.9c14.38,21.41,14.77,57.23,3.89,69.9-11.66,12.67-31.49,19.66-46.64-55.48-10.11-49.8-12.83-72.32-12.83-72.32l-21-.24s8.55,59.45,7,69.94c-2,11.79-2.72,48-48.59,32.76-23.81-3.72-71.5-17.08-91.34-57.23-7.39-34.07-5.83-47.18-5.83-47.18l-17.1-.47s.38,19.7,3.88,24.94A52.49,52.49,0,0,1,998,311c-17.6-10.33-24.72-27.8-26.63-33l-13.71-.6a87.86,87.86,0,0,0,13.84,25.69c13.52,17.2,32.33,26.69,46.13,29,2.75.45,13.63,2,13.58,2.48,0,.14-.76.14-.76.14s3.5,51.55,58.31,75.14c49,20.53,70.35,31,82.79,39.31s21,17,19,45.44a249.18,249.18,0,0,0,3.49,67.93A238.68,238.68,0,0,0,1221,635.76c42.09,1.48,69.11,1.62,86.45,1.44,34.75-.36,54.53-2.27,64.94.44C1372.42,637.65,1378.52,639.24,1379,637.82Z"/>
            <path class="cls-6" d="M1324.44,462.44a110.52,110.52,0,0,0-33,32.77c-37.21,57.2-11.89,132.43-9,140.6l98.21,2a344.87,344.87,0,0,1-18.89-33.53C1335.94,551.84,1327.18,500.61,1324.44,462.44Z"/>
            <path class="cls-7" d="M1211.22,354.21s18.2,75.76,32.47,75.2C1228.93,437.15,1201.38,416.14,1211.22,354.21Z"/>
            <path class="cls-8" d="M1313.06,553.56a26.11,26.11,0,0,1-5.43.67,11.31,11.31,0,0,1-5.34-1.06,4.68,4.68,0,0,1-1.94-1.95,5.85,5.85,0,0,1-.56-2.7,14.86,14.86,0,0,1,1.39-5.31A39,39,0,0,1,1307,534a32.9,32.9,0,0,1,8.23-7.24,10.92,10.92,0,0,1,5.28-1.67,5.33,5.33,0,0,1,2.72.78,6.81,6.81,0,0,1,2,2,15.59,15.59,0,0,1,2.09,5.12,33.54,33.54,0,0,1,.77,5.46,69.08,69.08,0,0,1-2.69,21.73h0a78.34,78.34,0,0,1-6.49,10.12,46.6,46.6,0,0,1-8.34,8.67,19.48,19.48,0,0,1-5.26,3,7.63,7.63,0,0,1-6-.09,10.39,10.39,0,0,1-4.16-4.4,28.18,28.18,0,0,1-2.25-5.59,61.69,61.69,0,0,1-2-11.84,96.1,96.1,0,0,1-.18-12l.91-24-.57,24a96.11,96.11,0,0,0,.24,12,60.61,60.61,0,0,0,2.09,11.73,27,27,0,0,0,2.23,5.49,10,10,0,0,0,4,4.18,7.13,7.13,0,0,0,5.62,0,19,19,0,0,0,5.09-2.94,46.31,46.31,0,0,0,8.18-8.6,85.9,85.9,0,0,0,6.43-10V560a68.42,68.42,0,0,0,2.77-21.52,32.4,32.4,0,0,0-.73-5.37,15.08,15.08,0,0,0-2-5,6.39,6.39,0,0,0-1.84-1.86,4.8,4.8,0,0,0-2.47-.72,10.34,10.34,0,0,0-5,1.58,32.22,32.22,0,0,0-8.16,7.1,40.15,40.15,0,0,0-5.86,9.15,15.18,15.18,0,0,0-1.45,5.19,5.68,5.68,0,0,0,.51,2.6,4.44,4.44,0,0,0,1.84,1.9,11.14,11.14,0,0,0,5.26,1.12A26.48,26.48,0,0,0,1313.06,553.56Z"/>
            <path class="cls-9" d="M938,126.67c4.23-32.67,15.36-82,48.84-122.28,90.44-108.84,263.64-58.19,319.05-41.94C1442.72,2.58,1531.37,98.8,1574.8,154.8l21.54,18a1677.75,1677.75,0,0,1-343.73,30.69,1679.48,1679.48,0,0,1-299.12-31.21Z"/>
            <path class="cls-35" d="M939.26,124.84c4.18-31.45,15.2-78.93,48.32-117.71,89.5-104.78,260.89-56,315.72-40.37C1438.66,5.39,1526.38,98,1569.3,151.93l21.32,17.3a1705.87,1705.87,0,0,1-340.14,29.54,1706,1706,0,0,1-296-30.05Z"/>
            <path class="cls-9" d="M1498.5,143.12s125.24-30.51,180.77,62.39c36.15,72.11,42.61,95.49-180.77,82.41C1460.73,172.48,1498.5,143.12,1498.5,143.12Z"/>
            <path class="cls-36" d="M1501.75,145.82s121.65-31,175.58,63.42c35.11,73.3,41.38,97.07-175.58,83.78C1465.06,175.66,1501.75,145.82,1501.75,145.82Z"/>
            <path class="cls-9" d="M965.41,275.54c-3.78,0-113.27-8.17-113.27-8.17s-68-15-28.95-51.76a66.15,66.15,0,0,0,24.67-22.3c7.77-12,5.69-17.95,10.65-29,15.71-35.11,68.38-47.07,68.38-47.07h0s71.44-15.49,124.6,14.91c5.92,3.39,8.84,5.23,11.1,8.38,24.58,34.41-51.87,135-51.87,135Z"/>
            <path class="cls-37" d="M964.49,277.9c-3.65,0-109.41-8.2-109.41-8.2s-65.64-15-28-51.92A64.62,64.62,0,0,0,851,195.41c7.51-12.07,5.5-18,10.29-29.12,15.17-35.22,66-47.22,66-47.22h0s69-15.54,120.34,15c5.73,3.4,8.55,5.24,10.73,8.41,23.74,34.51-50.11,135.46-50.11,135.46Z"/>
            <path class="cls-9" d="M909.86,74.18s10.35-25.7,81.52-12.64c66,15.95,15.53,56.57-40.76,47.87S900.44,83.11,909.86,74.18Z"/>
            <path class="cls-38" d="M910.26,75.85s10-25,79-12.29c64,15.51,15,55-39.51,46.52S901.14,84.53,910.26,75.85Z"/>
            <path class="cls-9" d="M971.27,182.65s62.31-55,127.64-76.62c71.36-32.37,165.84-104.68,280.42-71.22,88.44,31.29,154.78,74.46,194,154.31,19.1,46.41,22.12,102.52-123.62,95l-406,.69S884.83,272.22,971.27,182.65Z"/>
            <path class="cls-39" d="M965.32,190.9s63-56,129.12-77.89c72.19-32.92,167.77-106.42,283.67-72.41,89.48,31.82,156.58,75.7,196.24,156.88,19.31,47.18,22.36,104.22-125.06,96.54l-410.77.7S877.88,282,965.32,190.9Z"/>
            <path class="cls-7" d="M1437.46,296.52s2,32.66-11.72,45.35c-4.07,4.44-7.3,4.32-12.18,4.44,0,0,13.6-5,17-21.63a174.64,174.64,0,0,0,3.55-29.18h3.36Z"/>
            <path class="cls-7" d="M1301.83,295.19c-.54,5.73-.81,25.63-.59,29.51.94,17,2,36.31,11.81,41.3a12.14,12.14,0,0,0,7.36,1.05l3.71-.47c-4.56,6.33-8.64,6.87-10,6.94-8.1.42-17.59-11.41-19.9-30.46a129.52,129.52,0,0,1-1.63-27.39c.37-7.6,1.73-20.48,1.73-20.48h7.51Z"/>
          </g>
          <path class="cls-40" d="M939.28,238.76s-9.19,84.84,40.28,70.05c-42.4,70.92,27.68,70.72,66.41,36.22,1.15,60,68.41,37.64,80,2.8,17.54,43.36,85.6,15.79,92.84-17.25,15.21,52,68.22-15.47,68.22-15.47,29.45,43.71,79.68,12.84,83.21-12.45,0,0,46.6,39.7,107.3,23.44l3.29-1.71-20-53.23-242.16,5.76Z"/>
          <path class="cls-41" d="M1574,266.12l-319.57,6.52s-2.25,48.19,47.22,33.4c-42.4,70.92,27.68,70.72,66.41,36.22,1.15,60,68.41,37.64,80,2.8,17.55,43.36,85.6,15.79,92.85-17.25C1575,338.84,1596.78,289.65,1574,266.12Z"/>
        </g>
        <path class="cls-42" d="M1991.12,349s-65.84-43.63-141.65,0c-20-88.44-157.61-44.81-183.54,9.44-89.78-51.89-189.53,9.43-161.6,47.17-97.76-27.13-191.52,39.23-157.61,72.68C1241,442.2,1235,534.19,1235,534.19c-121.7-20.05-175.56,38.14-145.64,62.5,0,0-149.62-5.9-245.38,46l-4,3.54H1945.23Z"/>
        <path class="cls-19" d="M1765.84,634.21s-15.62-53.7-119.78-38.53c6.94-42-88.54-45.49-119.79-29.16,7-45.56-81.59-27.45-99-9.07-31.25-30.65-114.58,10.21-79.86,35.9-74.64-26.85-105.89,22.18-105.89,22.18C1180.81,592.18,1127,634.21,1127,634.21Z"/>
        <rect class="cls-43" x="-32.06" y="634.31" width="1970.41" height="37.7"/>
        <path class="cls-19" d="M658.85,834.86s-16-21.5-11.84-45.44,17.42,45.44,17.42,45.44-6.27-83.74,21.6-93.32-16.72,93.32-16.72,93.32,20.21-47.56,32.75-47-23.69,51.34-23.69,51.34h74.37s-45.8-32.56-29.08-35.43S759.9,839.2,759.9,839.2,739.69,787.81,749.45,790s18.12,49.16,18.12,49.16h27.18s-47.39-47.86-27.88-39.2,34.84,39.26,34.84,39.26-22.3-41.81-11.84-49.16,18.81,49.16,18.81,49.16,0-20.11,19.52-21.07S815,844,815,844l213.24,3.83s-48.08-15.9-34.84-25.19,43.2,25.19,43.2,25.19v-13s-44.6-62.68-18.12-45.44,38.33,49.8,38.33,49.8-2.09-40.85,20.21-44.85-9.06,43.89-9.06,43.89l80.84-15.32s2.79-68,19.51-76.61c0,0-15.33,65.12-9.06,73.74,7.67-4.79,59.24-12.45,59.24-12.45s-35.34-23.94-21.15-28.73,27.3,27.77,27.3,27.77l12.66-1s-20.9-55.54-8.36-42.14,14.64,40.23,14.64,40.23L1408,786.55s-59.23-62.25-45.3-55.55,57.15,58.17,57.15,58.17h7.66l-37.63-88.81s26.48,1.92,42.51,86.19l6.27,1.91s-13.24-71.82-22.3-78.52c0,0,25.09,1.91,31.36,79.48.7-10.53,11.85-58.42,27.18-62.25l-16.72,59.38,480.76,19.15v94.77L-28.35,916l7.6-105.53S609.3,831.4,634.69,834.89"/>
        <path class="cls-44" d="M1496.84,672.52s-1378.26-6.38-1535.66,5l.77,82S1096,761.9,706,703.22c0,0,744.64,16.68,567.92-17.25C1273.83,686,1566.44,686.2,1496.84,672.52Z"/>
        <path class="cls-45" d="M957.31,680.23s63.89-24.94,43.93-29.5S948,680.23,948,680.23s46.45-48.71,28.55-46.05-35.21,46.05-35.21,46.05,17.3-33-6.65-35.52,0,35.52,0,35.52Z"/>
        <path class="cls-46" d="M226.45,673.11h139s67.94-51.1-40.51-64.19C324.92,608.92,232.06,612,226.45,673.11Z"/>
        <path class="cls-47" d="M389.52,683H468.8s38.75-29.15-23.1-36.62C445.7,646.38,392.72,648.16,389.52,683Z"/>
        <path class="cls-48" d="M155,674.94h53.74s26.27-19.76-15.66-24.82C193.12,650.12,157.21,651.32,155,674.94Z"/>
        <path class="cls-45" d="M100,685.55s50.35-26.09,33.54-28.1-41.2,28.92-41.2,28.92,33.94-44.12,19.45-40.36-24.92,41-24.92,41,11.34-28.63-8.58-28.63,3.1,29.21,3.1,29.21Z"/>
        <path class="cls-45" d="M545,673.11s-45.43-17.73-31.24-21,37.86,21,37.86,21-33-34.63-20.3-32.74,25,32.74,25,32.74-12.31-23.45,4.73-25.25,0,25.25,0,25.25Z"/>
        <ellipse class="cls-49" cx="430.65" cy="772.85" rx="33.65" ry="6.35"/>
        <ellipse class="cls-44" cx="298.55" cy="728.47" rx="18.12" ry="2.59"/>
        <ellipse class="cls-50" cx="272.1" cy="695.01" rx="36.37" ry="8.07"/>
        <ellipse class="cls-51" cx="191.02" cy="789.93" rx="40.47" ry="9.06"/>
        <ellipse class="cls-52" cx="1272.44" cy="733.32" rx="20.93" ry="7.15"/>
        <path class="cls-53" d="M530.51,634s13.84-71.23,114.18-23.74c-6.92-39.58,38.06-46.9,69.2-16.33-8.65-56.49,64-36.68,77.85-18.88,0-50.27,65.74-42,81.31-18.42,53.63-12.86,83,29.38,83,29.38,29.41-26.41,77.84-1.17,76.11,28.16C1078.88,615,1129,634,1129,634Z"/>
        <path class="cls-54" d="M742.28,634.59c-3.47-.11-70.49,2.21-60.57-9.66s63.65-5.9,67.89-2.29-61.15-19.24-63.23-36.7,50.89,13.6,68.77,25.94c-53.11-55-54.48-67.24,10.91-15.7-39.85-62.07-48.09-77.1,21.88-4.55-44.1-94.37-2.51-3.47-20.3-47.53s8.56-52.82,29.43,33c0,0-1.42,18.21,9.9-11s56.15-45.25,16.5,29.19C844.76,581.18,843,582,859.84,571.2s35.86,22-25.35,61.84C787.59,631.62,742.28,634.59,742.28,634.59Z"/>
        <path class="cls-45" d="M1136.34,675.85s-63.89-24.94-43.92-29.5,53.24,29.5,53.24,29.5-46.46-48.7-28.56-46,35.21,46,35.21,46-17.3-33,6.66-35.51,0,35.51,0,35.51Z"/>
      </g>
    </g>
  </g>
</svg>
