<svg id="Layer_1" data-name="Layer 1" xmlns="http://www.w3.org/2000/svg" viewBox="0 0 45.65 556.94"><defs><style>.cls-1{fill:#032f03;}</style></defs><path class="cls-1" d="M24.66,1.61S48,50.09,37.94,86.78L18.29,151.64l5.31,38S36.88,170,22,223.05c0,0-1.73,39.8,1.66,54.05,0,0,32.21,56.34,5.71,119.57,0,0,24.5,36.69,1.66,90.74,0,0,5.75,28.49-1.51,67.8,0,0-16.29-43.23-5.66-95.65,0,0,4-5.9,3.18,12.78,0,0,5.05-24.9,4-33.09,0,0-21.52-26.53-7.71-59.62,0,0,12.49-24.57,10.1-33.41,0,0-12.49-37.34-19.66-47.17,0,0,1.07-74.36,3.72-81.24,0,0-15.14-6.55-14.87-15.07,0,0-5.85-46.51,11.68-23.58,0,0-8.76-15.07-1.32-44.88,0,0,17.79-50.78,18.06-64.21,0,0-11.95-28.17-12.22-37L18,1.61Z"/></svg>