<svg id="Layer_1" data-name="Layer 1" xmlns="http://www.w3.org/2000/svg" viewBox="0 0 172.92 166.85"><defs><style>.cls-1{fill:#ed2c24;}</style></defs><path class="cls-1" d="M156.46,43.89c-.38-.53-.75-1.06-1.11-1.6-4-6-24.9-35.41-56.21-40.62A63.35,63.35,0,0,0,86.77.58a76.45,76.45,0,0,0-48.7,17.17l-.17.14c-1,.84-23.59,20.73-30.77,44.11C6,65.1-4.14,93.72,3.53,122.63c.34,1.31,8.86,32.17,53.28,41a211.16,211.16,0,0,0,34.37,2.8h0c18.67,0,34.27-2.64,46.35-7.84,1.19-.5,29.14-12.76,34.65-41.24l.08-.41,0-.42C172.42,114.55,175,69.43,156.46,43.89ZM145,142.55a58.07,58.07,0,0,1-11.83,7.39c-29.26,12.59-74.08,4.44-74.08,4.44-39.26-7.78-46.3-34.81-46.3-34.81C5.54,92.34,16.1,64.84,16.1,64.84,21.28,47.71,36.34,32.22,41.84,27a43.93,43.93,0,0,1,3.5-3C70.23,4.8,97.49,11,97.49,11c30.56,5,50.56,37.22,50.56,37.22,11.93,15.54,14.44,40.89,14.82,55.45A48.06,48.06,0,0,1,145,142.55Z"/></svg>