<svg xmlns="http://www.w3.org/2000/svg" viewBox="0 0 130 130"><defs><style>.a{fill:#fff;}.b{fill:#f975a8;}.c{fill:#d8256a;}.d{fill:#f92d74;}.e{fill:#d8d8d8;}</style></defs><circle class="a" cx="65" cy="65" r="65"/><circle class="b" cx="65" cy="65" r="58.23"/><circle class="c" cx="62.98" cy="67.01" r="56.22"/><circle class="d" cx="64.16" cy="65.83" r="55.04"/><path class="e" d="M102.22,67c-.18,1.37-.32,2.75-.57,4.1A36.12,36.12,0,0,1,85.71,95.34a34.62,34.62,0,0,1-24.28,5.83c-14.19-1.84-24.19-9.52-29.91-22.63A34.72,34.72,0,0,1,29.09,60a36.43,36.43,0,0,1,4.43-13.3,5.14,5.14,0,0,1,7-2.15l0,0a5.07,5.07,0,0,1,2.17,6.83,30.84,30.84,0,0,0-3,8.15A26.46,26.46,0,0,0,57.53,89.84a24.58,24.58,0,0,0,12.53.84C80.39,88.62,87.4,82.57,90.67,72.6c2.58-7.84,1.35-15.38-3.12-22.35,0,0-.09-.1-.18-.22-.54,1.19-1.05,2.34-1.57,3.49-1,2.31-2.57,2.65-4.47,1a7.92,7.92,0,0,1-1.18-1.34l-10.91-15a7.09,7.09,0,0,1-.79-1.36,2.76,2.76,0,0,1,1.09-3.75,2.82,2.82,0,0,1,1.09-.33c2-.34,3.93-.51,5.9-.72,4.34-.47,8.69-.94,13-1.36a10.46,10.46,0,0,1,2.85,0,2.42,2.42,0,0,1,2,3.44c-.58,1.58-1.31,3.12-2,4.66a.87.87,0,0,0,.16,1.12,36.47,36.47,0,0,1,9.39,19.82c.14.94.24,1.88.35,2.83Z"/><path class="a" d="M101.22,65c-.18,1.37-.32,2.75-.57,4.1A36.12,36.12,0,0,1,84.71,93.34a34.62,34.62,0,0,1-24.28,5.83c-14.19-1.84-24.19-9.52-29.91-22.63A34.72,34.72,0,0,1,28.09,58a36.43,36.43,0,0,1,4.43-13.3,5.14,5.14,0,0,1,7-2.15l0,0a5.07,5.07,0,0,1,2.17,6.83,30.84,30.84,0,0,0-3,8.15A26.46,26.46,0,0,0,56.53,87.84a24.58,24.58,0,0,0,12.53.84C79.39,86.62,86.4,80.57,89.67,70.6c2.58-7.84,1.35-15.38-3.12-22.35,0,0-.09-.1-.18-.22-.54,1.19-1.05,2.34-1.57,3.49-1,2.31-2.57,2.65-4.47,1a7.92,7.92,0,0,1-1.18-1.34l-10.91-15a7.09,7.09,0,0,1-.79-1.36,2.76,2.76,0,0,1,1.09-3.75,2.82,2.82,0,0,1,1.09-.33c2-.34,3.93-.51,5.9-.72,4.34-.47,8.69-.94,13-1.36a10.46,10.46,0,0,1,2.85,0,2.42,2.42,0,0,1,2,3.44c-.58,1.58-1.31,3.12-2,4.66a.87.87,0,0,0,.16,1.12,36.47,36.47,0,0,1,9.39,19.82c.14.94.24,1.88.35,2.83Z"/></svg>