<svg xmlns="http://www.w3.org/2000/svg" xmlns:xlink="http://www.w3.org/1999/xlink" viewBox="0 0 167.85 168.37"><defs><style>.cls-1{isolation:isolate;}.cls-2{fill:none;stroke:#353421;stroke-width:4px;mix-blend-mode:multiply;opacity:0.7;}.cls-2,.cls-3,.cls-6,.cls-7{stroke-miterlimit:10;}.cls-3{fill:#efef4d;stroke:#605e2e;stroke-width:5px;}.cls-4{fill:url(#radial-gradient);}.cls-5{fill:#fff;opacity:0.25;}.cls-6,.cls-7{stroke:#191917;stroke-width:2px;}.cls-6{fill:url(#linear-gradient);}.cls-7{fill:url(#linear-gradient-2);}</style><radialGradient id="radial-gradient" cx="2770.89" cy="83.71" r="67.9" gradientTransform="matrix(-1, 0, 0, 1, 2854.99, 0)" gradientUnits="userSpaceOnUse"><stop offset="0" stop-color="#ffc90d"/><stop offset="0.26" stop-color="#fec50f"/><stop offset="0.54" stop-color="#fcb813"/><stop offset="0.83" stop-color="#f9a21a"/><stop offset="1" stop-color="#f69220"/></radialGradient><linearGradient id="linear-gradient" x1="2733.74" y1="82.06" x2="2812.64" y2="82.06" gradientTransform="matrix(-1, 0, 0, 1, 2854.99, 0)" gradientUnits="userSpaceOnUse"><stop offset="0" stop-color="#5f5c5d"/><stop offset="0.58" stop-color="#fff"/><stop offset="1" stop-color="#5f5c5d"/></linearGradient><linearGradient id="linear-gradient-2" x1="2781.37" y1="99.15" x2="2749.51" y2="46.16" gradientTransform="matrix(-1, 0, 0, 1, 2854.99, 0)" gradientUnits="userSpaceOnUse"><stop offset="0.58" stop-color="#ed1c24"/><stop offset="1" stop-color="#ff6355"/></linearGradient></defs><g class="cls-1"><g id="Layer_1" data-name="Layer 1"><ellipse class="cls-2" cx="84.01" cy="84.1" rx="81.61" ry="81.08" transform="translate(-34.86 84.05) rotate(-45.01)"/><circle class="cls-3" cx="84.04" cy="83.92" r="77.75"/><circle class="cls-4" cx="84.11" cy="83.71" r="67.9"/><path class="cls-5" d="M131.68,94.33c-2.79-40.46-30-65.93-68-58.6-11.22,2.16-24.84,6.05-23.72,1.39,1.51-6.26,26.8-19.07,53-16.74,27.48,2.44,50.42,22.73,55.12,52.33,3.93,24.76-17.36,60.38-21.63,54.76C124.14,124.43,132.35,104.07,131.68,94.33Z"/><path class="cls-6" d="M81.8,46.09a39.23,39.23,0,0,1,13.29,2.3l8.43-9.25,10.22,32L80.88,64l7.57-8.32a30.61,30.61,0,1,0,23.92,29.85h8.88A39.45,39.45,0,1,1,81.8,46.09Z"/><path class="cls-7" d="M81.8,123.6a38,38,0,0,0,38-36.68h-6.11a31.94,31.94,0,1,1-25-32.58l2.34.51-7.57,8.32,28.17,6.14-8.76-27.47L95.49,50l-.87-.31A37.72,37.72,0,0,0,81.8,47.47a38.07,38.07,0,1,0,0,76.13Z"/></g></g></svg>