<svg xmlns="http://www.w3.org/2000/svg" viewBox="0 0 130 130"><defs><style>.a{fill:#fff;}.b{fill:#2381c4;}.c{fill:#0e4168;}.d{fill:#07518d;}.e{fill:#d7d7d7;}</style></defs><circle class="a" cx="65" cy="65" r="65"/><circle class="b" cx="65" cy="65" r="58.23"/><circle class="c" cx="62.99" cy="67.01" r="56.21"/><circle class="d" cx="64.16" cy="65.83" r="55.03"/><rect class="e" x="47.1" y="51.66" width="6.35" height="36.27"/><polygon class="e" points="84.94 80.94 78.59 80.94 78.59 44.68 84.87 44.68 84.94 80.94"/><ellipse class="e" cx="42.63" cy="87.26" rx="10.82" ry="8.82"/><ellipse class="e" cx="74.05" cy="80.94" rx="10.82" ry="8.82"/><path class="e" d="M51.31,42.23,78.17,36A5.47,5.47,0,0,1,84.73,40a5.75,5.75,0,0,1,.14,1.24v8.84L47.14,56.64v-9.1A5.45,5.45,0,0,1,51.31,42.23Z"/><rect class="a" x="46.45" y="50.29" width="6.35" height="36.27"/><polygon class="a" points="84.29 79.57 77.94 79.57 77.94 43.3 84.23 43.3 84.29 79.57"/><ellipse class="a" cx="41.99" cy="85.88" rx="10.82" ry="8.82"/><ellipse class="a" cx="73.41" cy="79.57" rx="10.82" ry="8.82"/><path class="a" d="M50.67,40.86l26.86-6.27a5.46,5.46,0,0,1,6.55,4.07,5.19,5.19,0,0,1,.15,1.24v8.84L46.45,55.28V46.17A5.45,5.45,0,0,1,50.67,40.86Z"/></svg>