<svg id="Layer_1" data-name="Layer 1" xmlns="http://www.w3.org/2000/svg" viewBox="0 0 172.92 166.85"><defs><style>.cls-1{fill:#fff;}</style></defs><path class="cls-1" d="M156.34,43.82c-.38-.53-.76-1-1.11-1.59-4-6.06-24.9-35.41-56.21-40.63A63.35,63.35,0,0,0,86.65.51,76.43,76.43,0,0,0,38,17.68l-.17.14c-1,.84-23.6,20.73-30.77,44.11C5.85,65-4.26,93.66,3.41,122.57c.34,1.3,8.86,32.17,53.28,41a212.48,212.48,0,0,0,34.37,2.8h0c18.67,0,34.27-2.64,46.36-7.84,1.18-.51,29.14-12.76,34.64-41.25l.08-.41,0-.42C172.29,114.49,174.91,69.36,156.34,43.82Zm-11.5,98.67A57.51,57.51,0,0,1,133,149.87c-29.26,12.59-74.08,4.45-74.08,4.45-39.26-7.78-46.3-34.82-46.3-34.82C5.42,92.28,16,64.77,16,64.77c5.19-17.13,20.25-32.61,25.75-37.84a45.75,45.75,0,0,1,3.49-3c24.9-19.15,52.16-13,52.16-13,30.55,5,50.55,37.23,50.55,37.23,11.94,15.53,14.44,40.88,14.83,55.44A48.1,48.1,0,0,1,144.84,142.49Z"/></svg>