<svg id="Layer_1" data-name="Layer 1" xmlns="http://www.w3.org/2000/svg" viewBox="0 0 172.92 166.85"><defs><style>.cls-1{fill:#8c29a2;}.cls-2{fill:#f595d6;}.cls-3{fill:#e654be;}.cls-4{fill:#edebed;}.cls-5{fill:#681774;}</style></defs><path class="cls-1" d="M15.87,117.2s7.59,25.33,44.36,32.62c0,0,42,7.63,69.39-4.17,0,0,.88-.37,2.33-1.15a48.61,48.61,0,0,0,25.41-45.19c-.62-13.9-3.37-35.42-13.78-49,0,0-18.73-30.19-47.35-34.87A63.23,63.23,0,0,0,47.54,27.54a42.12,42.12,0,0,0-3.51,3C38.82,35.54,24.82,50,20,66,20,66,9.1,91.71,15.87,117.2Z"/><path class="cls-2" d="M15.33,87.05s.72-24.57,17.23-43.81c0,0,13.56-18.7,29-23.79,0,0,23.47-10.76,47-.29,0,0,17.92,5.7,36,32.44a92.55,92.55,0,0,1,12.67,37.77Z"/><path class="cls-3" d="M157.3,92c0,26.7-31.87,48.34-71.17,48.34S15,118.72,15,92s32-55.35,71.3-55.35S157.3,65.33,157.3,92Z"/><path class="cls-4" d="M107.47,136.07c5-.09,17.2-1.38,26.06-11.19a3.44,3.44,0,0,1,2.61-1.1c1.41,0,3.24,1,2.69,4.11a10,10,0,0,1-4.31,6.11c-5.68,4.06-17.33,10.61-28.44,6.76a3.31,3.31,0,0,1-.89-.48l0,0C103.3,138.75,104.78,136.11,107.47,136.07Z"/><circle class="cls-4" cx="35.16" cy="48.42" r="4.54"/><path class="cls-4" d="M39.91,42.05c.49,1.85,1.9,3.63,5.66,2.86a4.75,4.75,0,0,0,1.83-.83,83,83,0,0,1,10.51-6.87,5,5,0,0,0,2.85-4.49,4.21,4.21,0,0,0-2.41-3.79,6.22,6.22,0,0,0-4.79-.36c-3.12,1-9.15,3.27-12.33,7.47A7.08,7.08,0,0,0,39.91,42.05Z"/><path class="cls-5" d="M147.42,47s-20-31.22-50.56-36.22c0,0-28.33-6.39-53.61,14.17,0,0-21.39,18.61-27.78,39.72,0,0-10.56,27.5-3.33,54.72,0,0,7,27,46.29,34.82,0,0,44.82,9.15,74.08-3.44,0,0,26.13-8.9,30.26-37C165.25,96.82,164.92,69.81,147.42,47ZM131.78,144.5c-1.45.78-2.33,1.15-2.33,1.15-27.41,11.8-69.39,4.17-69.39,4.17C23.29,142.53,16.7,117.2,16.7,117.2,9.93,91.71,19.82,66,19.82,66c4.83-16,18.83-30.41,24-35.38a42.26,42.26,0,0,1,3.52-3A63.23,63.23,0,0,1,96.06,15.47c28.62,4.68,47.35,34.87,47.35,34.87,10.41,13.55,13.16,35.07,13.78,49A48.63,48.63,0,0,1,131.78,144.5Z"/></svg>