<svg xmlns="http://www.w3.org/2000/svg" viewBox="0 0 130.3 130.3"><defs><style>.a{fill:#fff;}.b{fill:#2381c4;}.c{fill:#0e4168;}.d{fill:#07518d;}.e{fill:#d7d7d7;}</style></defs><circle class="a" cx="65.15" cy="65.15" r="65.15"/><circle class="b" cx="65.15" cy="65.15" r="58.36"/><circle class="c" cx="63.14" cy="67.17" r="56.35"/><circle class="d" cx="64.32" cy="65.99" r="55.16"/><rect class="e" x="47.21" y="51.78" width="6.36" height="36.35"/><polygon class="e" points="85.14 81.13 78.78 81.13 78.78 44.78 85.08 44.78 85.14 81.13"/><ellipse class="e" cx="42.73" cy="87.47" rx="10.84" ry="8.84"/><ellipse class="e" cx="74.24" cy="81.13" rx="10.84" ry="8.84"/><path class="e" d="M51.43,42.33l26.92-6.28a5.47,5.47,0,0,1,6.58,4.07h0a5.36,5.36,0,0,1,.15,1.26V50.2L47.21,56.75V47.61A5.47,5.47,0,0,1,51.43,42.33Z"/><rect class="a" x="46.57" y="50.4" width="6.36" height="36.35"/><polygon class="a" points="84.5 79.75 78.13 79.75 78.13 43.4 84.43 43.4 84.5 79.75"/><ellipse class="a" cx="42.09" cy="86.09" rx="10.84" ry="8.84"/><ellipse class="a" cx="73.59" cy="79.75" rx="10.84" ry="8.84"/><path class="a" d="M50.79,41l26.93-6.28a5.46,5.46,0,0,1,6.57,4.06h0A5.36,5.36,0,0,1,84.44,40v8.86L46.57,55.41V46.28A5.48,5.48,0,0,1,50.79,41Z"/><rect class="a" x="10.55" y="63.73" width="110.11" height="6.23" transform="translate(-26.15 85.67) rotate(-57.13)"/></svg>